<?xml version="1.0" encoding="UTF-8" standalone="no"?>
<!-- Created with Inkscape (http://www.inkscape.org/) -->

<svg
   xmlns:dc="http://purl.org/dc/elements/1.1/"
   xmlns:cc="http://creativecommons.org/ns#"
   xmlns:rdf="http://www.w3.org/1999/02/22-rdf-syntax-ns#"
   xmlns:svg="http://www.w3.org/2000/svg"
   xmlns="http://www.w3.org/2000/svg"
   xmlns:sodipodi="http://sodipodi.sourceforge.net/DTD/sodipodi-0.dtd"
   xmlns:inkscape="http://www.inkscape.org/namespaces/inkscape"
   width="439.37006"
   height="524.40942"
   id="svg2"
   version="1.1"
   inkscape:version="0.48.4 r9939"
   sodipodi:docname="Anordnung V1_Layer2.svg">
  <defs
     id="defs4" />
  <sodipodi:namedview
     id="base"
     pagecolor="#ffffff"
     bordercolor="#666666"
     borderopacity="1.0"
     inkscape:pageopacity="0.0"
     inkscape:pageshadow="2"
     inkscape:zoom="1.736875"
     inkscape:cx="276.97536"
     inkscape:cy="300.5388"
     inkscape:document-units="px"
     inkscape:current-layer="layer1"
     showgrid="false"
     units="mm"
     showguides="true"
     inkscape:guide-bbox="true"
     inkscape:window-width="1920"
     inkscape:window-height="1025"
     inkscape:window-x="-2"
     inkscape:window-y="-3"
     inkscape:window-maximized="1" />
  <metadata
     id="metadata7">
    <rdf:RDF>
      <cc:Work
         rdf:about="">
        <dc:format>image/svg+xml</dc:format>
        <dc:type
           rdf:resource="http://purl.org/dc/dcmitype/StillImage" />
        <dc:title />
      </cc:Work>
    </rdf:RDF>
  </metadata>
  <g
     inkscape:label="Ebene 1"
     inkscape:groupmode="layer"
     id="layer1"
     transform="translate(0,-527.95274)">
    <path
       style="fill:#c4c4ff;fill-opacity:0.5138122;stroke:#000000;stroke-width:0.49999997;stroke-miterlimit:4;stroke-dasharray:none;stroke-opacity:1"
       d="M 360.25 0.59375 C 356.90715 0.59375 354.21875 3.28215 354.21875 6.625 L 354.21875 134.40625 C 353.96825 134.58937 353.72654 134.77346 353.5 135 L 239.5625 248.96875 L 34.03125 117.28125 C 33.323061 116.82746 32.558796 116.53838 31.78125 116.40625 C 31.159609 116.19091 30.477973 116.0625 29.78125 116.0625 L 23.9375 116.0625 C 20.594648 116.0625 17.90625 118.7509 17.90625 122.09375 L 17.90625 149.71875 C 17.90625 153.0616 20.594648 155.78125 23.9375 155.78125 L 27.625 155.78125 L 354.21875 348.375 L 354.21875 412.4375 L 346 412.4375 C 342.65715 412.4375 339.96875 415.12589 339.96875 418.46875 L 339.96875 444.40625 C 339.96875 447.74911 342.65715 450.4375 346 450.4375 L 358.71875 450.4375 C 359.21435 450.56834 359.71216 450.625 360.25 450.625 L 384.0625 450.625 C 387.40535 450.625 390.09375 447.9366 390.09375 444.59375 L 390.09375 6.625 C 390.09375 3.28215 387.40535 0.59375 384.0625 0.59375 L 360.25 0.59375 z M 372.25 3.40625 C 373.95783 3.40625 375.34375 4.792166 375.34375 6.5 C 375.34375 8.207834 373.95783 9.59375 372.25 9.59375 C 370.54217 9.59375 369.15625 8.207834 369.15625 6.5 C 369.15625 4.792166 370.54217 3.40625 372.25 3.40625 z M 381.65625 18.28125 C 383.45118 18.28125 384.90625 19.73632 384.90625 21.53125 C 384.90625 23.32618 383.45118 24.78125 381.65625 24.78125 C 379.86132 24.78125 378.40625 23.32618 378.40625 21.53125 C 378.40625 19.73632 379.86132 18.28125 381.65625 18.28125 z M 25.96875 132.84375 C 27.676584 132.84375 29.0625 134.22967 29.0625 135.9375 C 29.0625 137.64533 27.676584 139.03125 25.96875 139.03125 C 24.260916 139.03125 22.875 137.64533 22.875 135.9375 C 22.875 134.22967 24.260916 132.84375 25.96875 132.84375 z M 354.21875 169 L 354.21875 322.4375 L 260.6875 262.53125 L 354.21875 169 z M 111.125 188.875 C 112.91993 188.875 114.375 190.33007 114.375 192.125 C 114.375 193.91993 112.91993 195.375 111.125 195.375 C 109.33007 195.375 107.875 193.91993 107.875 192.125 C 107.875 190.33007 109.33007 188.875 111.125 188.875 z M 267.4375 235.3125 C 269.23243 235.3125 270.6875 236.76757 270.6875 238.5625 C 270.6875 240.35743 269.23243 241.8125 267.4375 241.8125 C 265.64257 241.8125 264.1875 240.35743 264.1875 238.5625 C 264.1875 236.76757 265.64257 235.3125 267.4375 235.3125 z M 372.09375 407.84375 C 373.80158 407.84375 375.1875 409.22967 375.1875 410.9375 C 375.1875 412.64533 373.80158 414.03125 372.09375 414.03125 C 370.38592 414.03125 369 412.64533 369 410.9375 C 369 409.22967 370.38592 407.84375 372.09375 407.84375 z M 357.96875 428.46875 C 359.76368 428.46875 361.21875 429.92382 361.21875 431.71875 C 361.21875 433.51368 359.76368 434.96875 357.96875 434.96875 C 356.17382 434.96875 354.71875 433.51368 354.71875 431.71875 C 354.71875 429.92382 356.17382 428.46875 357.96875 428.46875 z "
       transform="translate(0,527.95274)"
       id="rect4639" />
  </g>
</svg>
