  0
SECTION
  2
HEADER
  9
$ACADVER
  1
AC1014
  9
$HANDSEED
  5
FFFF
  9
$MEASUREMENT
 70
     1
  0
ENDSEC
  0
SECTION
  2
TABLES
  0
TABLE
  2
VPORT
  5
8
330
0
100
AcDbSymbolTable
 70
     4
  0
VPORT
  5
2E
330
8
100
AcDbSymbolTableRecord
100
AcDbViewportTableRecord
  2
*ACTIVE
 70
     0
 10
0.0
 20
0.0
 11
1.0
 21
1.0
 12
210.0
 22
148.5
 13
0.0
 23
0.0
 14
10.0
 24
10.0
 15
10.0
 25
10.0
 16
0.0
 26
0.0
 36
1.0
 17
0.0
 27
0.0
 37
0.0
 40
341.0
 41
1.24
 42
50.0
 43
0.0
 44
0.0
 50
0.0
 51
0.0
 71
     0
 72
   100
 73
     1
 74
     3
 75
     0
 76
     0
 77
     0
 78
     0
  0
ENDTAB
  0
TABLE
  2
LTYPE
  5
5
330
0
100
AcDbSymbolTable
 70
     1
  0
LTYPE
  5
14
330
5
100
AcDbSymbolTableRecord
100
AcDbLinetypeTableRecord
  2
BYBLOCK
 70
     0
  3

 72
    65
 73
     0
 40
0.0
  0
LTYPE
  5
15
330
5
100
AcDbSymbolTableRecord
100
AcDbLinetypeTableRecord
  2
BYLAYER
 70
     0
  3

 72
    65
 73
     0
 40
0.0
  0
LTYPE
  5
16
330
5
100
AcDbSymbolTableRecord
100
AcDbLinetypeTableRecord
  2
CONTINUOUS
 70
     0
  3
Solid line
 72
    65
 73
     0
 40
0.0
  0
ENDTAB
  0
TABLE
  2
LAYER
  5
2
100
AcDbSymbolTable
 70
2
  0
LAYER
  5
50
100
AcDbSymbolTableRecord
100
AcDbLayerTableRecord
  2
0
 70
0
  6
CONTINUOUS
  0
LAYER
  5
51
100
AcDbSymbolTableRecord
100
AcDbLayerTableRecord
  2
Layer_1
 70
0
  6
CONTINUOUS
  0
ENDTAB
  0
TABLE
  2
STYLE
  5
3
330
0
100
AcDbSymbolTable
 70
     1
  0
STYLE
  5
11
330
3
100
AcDbSymbolTableRecord
100
AcDbTextStyleTableRecord
  2
STANDARD
 70
     0
 40
0.0
 41
1.0
 50
0.0
 71
     0
 42
2.5
  3
txt
  4

  0
ENDTAB
  0
TABLE
  2
VIEW
  5
6
330
0
100
AcDbSymbolTable
 70
     0
  0
ENDTAB
  0
TABLE
  2
UCS
  5
7
330
0
100
AcDbSymbolTable
 70
     0
  0
ENDTAB
  0
TABLE
  2
APPID
  5
9
330
0
100
AcDbSymbolTable
 70
     2
  0
APPID
  5
12
330
9
100
AcDbSymbolTableRecord
100
AcDbRegAppTableRecord
  2
ACAD
 70
     0
  0
ENDTAB
  0
TABLE
  2
DIMSTYLE
  5
A
330
0
100
AcDbSymbolTable
 70
     1
  0
DIMSTYLE
105
27
330
A
100
AcDbSymbolTableRecord
100
AcDbDimStyleTableRecord
  2
ISO-25
 70
     0
  3

  4

  5

  6

  7

 40
1.0
 41
2.5
 42
0.625
 43
3.75
 44
1.25
 45
0.0
 46
0.0
 47
0.0
 48
0.0
140
2.5
141
2.5
142
0.0
143
0.03937007874016
144
1.0
145
0.0
146
1.0
147
0.625
 71
     0
 72
     0
 73
     0
 74
     0
 75
     0
 76
     0
 77
     1
 78
     8
170
     0
171
     3
172
     1
173
     0
174
     0
175
     0
176
     0
177
     0
178
     0
270
     2
271
     2
272
     2
273
     2
274
     3
340
11
275
     0
280
     0
281
     0
282
     0
283
     0
284
     8
285
     0
286
     0
287
     3
288
     0
  0
ENDTAB
  0
TABLE
  2
BLOCK_RECORD
  5
1
330
0
100
AcDbSymbolTable
 70
     1
  0
BLOCK_RECORD
  5
1F
330
1
100
AcDbSymbolTableRecord
100
AcDbBlockTableRecord
  2
*MODEL_SPACE
  0
BLOCK_RECORD
  5
1B
330
1
100
AcDbSymbolTableRecord
100
AcDbBlockTableRecord
  2
*PAPER_SPACE
  0
ENDTAB
  0
ENDSEC
  0
SECTION
  2
BLOCKS
  0
BLOCK
  5
20
330
1F
100
AcDbEntity
  8
0
100
AcDbBlockBegin
  2
*MODEL_SPACE
 70
     0
 10
0.0
 20
0.0
 30
0.0
  3
*MODEL_SPACE
  1

  0
ENDBLK
  5
21
330
1F
100
AcDbEntity
  8
0
100
AcDbBlockEnd
  0
BLOCK
  5
1C
330
1B
100
AcDbEntity
 67
     1
  8
0
100
AcDbBlockBegin
  2
*PAPER_SPACE
  1

  0
ENDBLK
  5
1D
330
1B
100
AcDbEntity
 67
     1
  8
0
100
AcDbBlockEnd
  0
ENDSEC
  0
SECTION
  2
ENTITIES
  0
LWPOLYLINE
  5
100
100
AcDbEntity
  8
Layer_1
 62
7
100
AcDbPolyline
 90
68
 70
0
 10
31.093503
 20
144.897753
 30
0.0
 10
30.976093
 20
144.815070
 30
0.0
 10
30.627753
 20
144.703274
 30
0.0
 10
30.319695
 20
144.529793
 30
0.0
 10
30.061059
 20
144.302718
 30
0.0
 10
29.860985
 20
144.030140
 30
0.0
 10
9.603273
 20
129.771302
 30
0.0
 10
9.292837
 20
129.926613
 30
0.0
 10
8.967721
 20
130.013838
 30
0.0
 10
8.695926
 20
130.084309
 30
0.0
 10
8.408238
 20
130.109198
 30
0.0
 10
6.758451
 20
130.109198
 30
0.0
 10
6.414397
 20
130.074730
 30
0.0
 10
6.094309
 20
129.975820
 30
0.0
 10
5.804938
 20
129.819207
 30
0.0
 10
5.553038
 20
129.611630
 30
0.0
 10
5.345361
 20
129.359831
 30
0.0
 10
5.188659
 20
129.070548
 30
0.0
 10
5.089687
 20
128.750522
 30
0.0
 10
5.055195
 20
128.406492
 30
0.0
 10
5.055195
 20
120.610104
 30
0.0
 10
5.089687
 20
120.266051
 30
0.0
 10
5.188659
 20
119.945963
 30
0.0
 10
5.345361
 20
119.656593
 30
0.0
 10
5.553038
 20
119.404693
 30
0.0
 10
5.804938
 20
119.197016
 30
0.0
 10
6.094309
 20
119.040315
 30
0.0
 10
6.414397
 20
118.941342
 30
0.0
 10
6.758451
 20
118.906850
 30
0.0
 10
7.791979
 20
118.906850
 30
0.0
 10
58.984126
 20
109.865819
 30
0.0
 10
65.040645
 20
58.991403
 30
0.0
 10
99.969506
 20
9.314238
 30
0.0
 10
99.998996
 20
7.511667
 30
0.0
 10
100.028485
 20
2.319021
 30
0.0
 10
100.062953
 20
1.974996
 30
0.0
 10
100.161863
 20
1.654972
 30
0.0
 10
100.318476
 20
1.365690
 30
0.0
 10
100.526052
 20
1.113890
 30
0.0
 10
100.777851
 20
0.906313
 30
0.0
 10
101.067133
 20
0.749698
 30
0.0
 10
101.387159
 20
0.650787
 30
0.0
 10
101.731188
 20
0.616318
 30
0.0
 10
105.056594
 20
0.574101
 30
0.0
 10
108.391523
 20
0.557898
 30
0.0
 10
108.735552
 20
0.592367
 30
0.0
 10
109.055578
 20
0.691278
 30
0.0
 10
109.344861
 20
0.847893
 30
0.0
 10
109.596660
 20
1.055470
 30
0.0
 10
109.804237
 20
1.307270
 30
0.0
 10
109.960850
 20
1.596552
 30
0.0
 10
110.059761
 20
1.916576
 30
0.0
 10
110.094228
 20
2.260601
 30
0.0
 10
110.297076
 20
16.104651
 30
0.0
 10
122.689496
 20
99.116017
 30
0.0
 10
122.689496
 20
136.879774
 30
0.0
 10
122.136628
 20
139.808380
 30
0.0
 10
122.136628
 20
143.327892
 30
0.0
 10
122.102160
 20
143.637119
 30
0.0
 10
122.003249
 20
143.924796
 30
0.0
 10
121.846634
 20
144.184856
 30
0.0
 10
121.639057
 20
144.411235
 30
0.0
 10
121.387258
 20
144.597866
 30
0.0
 10
121.097976
 20
144.738684
 30
0.0
 10
120.777951
 20
144.827623
 30
0.0
 10
120.433925
 20
144.858617
 30
0.0
 10
112.824949
 20
144.858617
 30
0.0
 10
31.093503
 20
144.897753
 30
0.0
  0
LWPOLYLINE
  5
101
100
AcDbEntity
  8
Layer_1
 62
7
100
AcDbPolyline
 90
18
 70
0
 10
107.715733
 20
142.843373
 30
0.0
 10
108.072758
 20
142.771293
 30
0.0
 10
108.364308
 20
142.574725
 30
0.0
 10
108.560876
 20
142.283175
 30
0.0
 10
108.632955
 20
141.926150
 30
0.0
 10
108.560876
 20
141.569126
 30
0.0
 10
108.364308
 20
141.277576
 30
0.0
 10
108.072758
 20
141.081008
 30
0.0
 10
107.715733
 20
141.008928
 30
0.0
 10
107.358708
 20
141.081008
 30
0.0
 10
107.067158
 20
141.277576
 30
0.0
 10
106.870590
 20
141.569126
 30
0.0
 10
106.798511
 20
141.926150
 30
0.0
 10
106.870590
 20
142.283175
 30
0.0
 10
107.067158
 20
142.574725
 30
0.0
 10
107.358708
 20
142.771293
 30
0.0
 10
107.715733
 20
142.843373
 30
0.0
 10
107.715733
 20
142.843373
 30
0.0
  0
LWPOLYLINE
  5
102
100
AcDbEntity
  8
Layer_1
 62
7
100
AcDbPolyline
 90
18
 70
0
 10
32.243339
 20
142.440986
 30
0.0
 10
32.583092
 20
142.372320
 30
0.0
 10
32.860494
 20
142.185177
 30
0.0
 10
33.047460
 20
141.907658
 30
0.0
 10
33.115910
 20
141.567861
 30
0.0
 10
33.047301
 20
141.228242
 30
0.0
 10
32.860298
 20
140.950901
 30
0.0
 10
32.582958
 20
140.763897
 30
0.0
 10
32.243339
 20
140.695286
 30
0.0
 10
31.903718
 20
140.763895
 30
0.0
 10
31.626377
 20
140.950899
 30
0.0
 10
31.439373
 20
141.228240
 30
0.0
 10
31.370764
 20
141.567861
 30
0.0
 10
31.439214
 20
141.907658
 30
0.0
 10
31.626182
 20
142.185178
 30
0.0
 10
31.903584
 20
142.372321
 30
0.0
 10
32.243339
 20
142.440986
 30
0.0
 10
32.243339
 20
142.440986
 30
0.0
  0
LWPOLYLINE
  5
103
100
AcDbEntity
  8
Layer_1
 62
7
100
AcDbPolyline
 90
18
 70
0
 10
116.629437
 20
142.440986
 30
0.0
 10
116.969190
 20
142.372320
 30
0.0
 10
117.246592
 20
142.185177
 30
0.0
 10
117.433559
 20
141.907658
 30
0.0
 10
117.502009
 20
141.567861
 30
0.0
 10
117.433400
 20
141.228242
 30
0.0
 10
117.246396
 20
140.950901
 30
0.0
 10
116.969056
 20
140.763897
 30
0.0
 10
116.629437
 20
140.695286
 30
0.0
 10
116.289640
 20
140.763738
 30
0.0
 10
116.012119
 20
140.950705
 30
0.0
 10
115.824977
 20
141.228107
 30
0.0
 10
115.756312
 20
141.567861
 30
0.0
 10
115.824818
 20
141.907791
 30
0.0
 10
116.011925
 20
142.185373
 30
0.0
 10
116.289506
 20
142.372480
 30
0.0
 10
116.629437
 20
142.440986
 30
0.0
 10
116.629437
 20
142.440986
 30
0.0
  0
LWPOLYLINE
  5
104
100
AcDbEntity
  8
Layer_1
 62
7
100
AcDbPolyline
 90
12
 70
0
 10
38.892647
 20
142.006629
 30
0.0
 10
58.984126
 20
142.006629
 30
0.0
 10
58.984126
 20
115.575307
 30
0.0
 10
14.012444
 20
122.458882
 30
0.0
 10
14.012444
 20
127.973789
 30
0.0
 10
33.356793
 20
138.294744
 30
0.0
 10
33.687738
 20
138.368306
 30
0.0
 10
33.989057
 20
138.496568
 30
0.0
 10
34.253986
 20
138.673296
 30
0.0
 10
34.475759
 20
138.892262
 30
0.0
 10
34.698452
 20
139.010772
 30
0.0
 10
38.892647
 20
142.006629
 30
0.0
  0
LWPOLYLINE
  5
105
100
AcDbEntity
  8
Layer_1
 62
7
100
AcDbPolyline
 90
11
 70
0
 10
62.681127
 20
142.006629
 30
0.0
 10
102.339180
 20
142.006629
 30
0.0
 10
118.482070
 20
131.002717
 30
0.0
 10
118.482070
 20
102.586470
 30
0.0
 10
111.990409
 20
95.310428
 30
0.0
 10
112.220265
 20
89.872138
 30
0.0
 10
115.092647
 20
79.493856
 30
0.0
 10
112.909285
 20
62.351611
 30
0.0
 10
67.568521
 20
62.351611
 30
0.0
 10
62.681127
 20
110.654607
 30
0.0
 10
62.681127
 20
142.006629
 30
0.0
  0
LWPOLYLINE
  5
106
100
AcDbEntity
  8
Layer_1
 62
7
100
AcDbPolyline
 90
18
 70
0
 10
7.332266
 20
125.298190
 30
0.0
 10
7.671886
 20
125.229581
 30
0.0
 10
7.949226
 20
125.042577
 30
0.0
 10
8.136230
 20
124.765237
 30
0.0
 10
8.204840
 20
124.425618
 30
0.0
 10
8.136389
 20
124.085821
 30
0.0
 10
7.949421
 20
123.808301
 30
0.0
 10
7.672019
 20
123.621158
 30
0.0
 10
7.332266
 20
123.552493
 30
0.0
 10
6.992512
 20
123.621158
 30
0.0
 10
6.715110
 20
123.808301
 30
0.0
 10
6.528143
 20
124.085821
 30
0.0
 10
6.459692
 20
124.425618
 30
0.0
 10
6.528301
 20
124.765237
 30
0.0
 10
6.715305
 20
125.042577
 30
0.0
 10
6.992646
 20
125.229581
 30
0.0
 10
7.332266
 20
125.298190
 30
0.0
 10
7.332266
 20
125.298190
 30
0.0
  0
LWPOLYLINE
  5
107
100
AcDbEntity
  8
Layer_1
 62
7
100
AcDbPolyline
 90
18
 70
0
 10
114.066836
 20
94.608730
 30
0.0
 10
114.383102
 20
94.544893
 30
0.0
 10
114.641368
 20
94.370770
 30
0.0
 10
114.815490
 20
94.112504
 30
0.0
 10
114.879326
 20
93.796238
 30
0.0
 10
114.815331
 20
93.480149
 30
0.0
 10
114.641173
 20
93.222063
 30
0.0
 10
114.382969
 20
93.048080
 30
0.0
 10
114.066836
 20
92.984299
 30
0.0
 10
113.750703
 20
93.048079
 30
0.0
 10
113.492498
 20
93.222062
 30
0.0
 10
113.318339
 20
93.480148
 30
0.0
 10
113.254344
 20
93.796238
 30
0.0
 10
113.318180
 20
94.112506
 30
0.0
 10
113.492303
 20
94.370772
 30
0.0
 10
113.750569
 20
94.544894
 30
0.0
 10
114.066836
 20
94.608730
 30
0.0
 10
114.066836
 20
94.608730
 30
0.0
  0
LWPOLYLINE
  5
108
100
AcDbEntity
  8
Layer_1
 62
7
100
AcDbPolyline
 90
18
 70
0
 10
81.146055
 20
60.202424
 30
0.0
 10
81.438613
 20
60.141666
 30
0.0
 10
81.677469
 20
59.976136
 30
0.0
 10
81.838445
 20
59.730687
 30
0.0
 10
81.897361
 20
59.430171
 30
0.0
 10
81.838291
 20
59.129833
 30
0.0
 10
81.677280
 20
58.884563
 30
0.0
 10
81.438483
 20
58.719172
 30
0.0
 10
81.146055
 20
58.658471
 30
0.0
 10
80.853450
 20
58.719009
 30
0.0
 10
80.614474
 20
58.884363
 30
0.0
 10
80.453324
 20
59.129696
 30
0.0
 10
80.394198
 20
59.430171
 30
0.0
 10
80.453168
 20
59.730824
 30
0.0
 10
80.614283
 20
59.976336
 30
0.0
 10
80.853320
 20
60.141829
 30
0.0
 10
81.146055
 20
60.202424
 30
0.0
 10
81.146055
 20
60.202424
 30
0.0
  0
LWPOLYLINE
  5
109
100
AcDbEntity
  8
Layer_1
 62
7
100
AcDbPolyline
 90
5
 70
0
 10
71.121103
 20
56.951356
 30
0.0
 10
102.947171
 20
56.951356
 30
0.0
 10
102.028295
 20
16.104651
 30
0.0
 10
100.304645
 20
16.104651
 30
0.0
 10
71.121103
 20
56.951356
 30
0.0
  0
LWPOLYLINE
  5
10a
100
AcDbEntity
  8
Layer_1
 62
7
100
AcDbPolyline
 90
5
 70
0
 10
107.002247
 20
56.951356
 30
0.0
 10
113.173315
 20
56.951356
 30
0.0
 10
108.807140
 20
16.104651
 30
0.0
 10
106.657735
 20
16.104651
 30
0.0
 10
107.002247
 20
56.951356
 30
0.0
  0
LWPOLYLINE
  5
10b
100
AcDbEntity
  8
Layer_1
 62
7
100
AcDbPolyline
 90
18
 70
0
 10
105.015329
 20
13.673245
 30
0.0
 10
105.355126
 20
13.604794
 30
0.0
 10
105.632645
 20
13.417826
 30
0.0
 10
105.819788
 20
13.140424
 30
0.0
 10
105.888454
 20
12.800670
 30
0.0
 10
105.819789
 20
12.460916
 30
0.0
 10
105.632647
 20
12.183513
 30
0.0
 10
105.355126
 20
11.996546
 30
0.0
 10
105.015329
 20
11.928095
 30
0.0
 10
104.675710
 20
11.996708
 30
0.0
 10
104.398370
 20
12.183715
 30
0.0
 10
104.211366
 20
12.461055
 30
0.0
 10
104.142757
 20
12.800670
 30
0.0
 10
104.211368
 20
13.140285
 30
0.0
 10
104.398371
 20
13.417625
 30
0.0
 10
104.675710
 20
13.604632
 30
0.0
 10
105.015329
 20
13.673245
 30
0.0
 10
105.015329
 20
13.673245
 30
0.0
  0
LWPOLYLINE
  5
10c
100
AcDbEntity
  8
Layer_1
 62
7
100
AcDbPolyline
 90
18
 70
0
 10
106.592356
 20
5.687231
 30
0.0
 10
106.884957
 20
5.626690
 30
0.0
 10
107.123932
 20
5.461333
 30
0.0
 10
107.285083
 20
5.215997
 30
0.0
 10
107.344216
 20
4.915522
 30
0.0
 10
107.285249
 20
4.614868
 30
0.0
 10
107.124135
 20
4.369359
 30
0.0
 10
106.885096
 20
4.203870
 30
0.0
 10
106.592356
 20
4.143278
 30
0.0
 10
106.299793
 20
4.204033
 30
0.0
 10
106.060934
 20
4.369560
 30
0.0
 10
105.899959
 20
4.615007
 30
0.0
 10
105.841049
 20
4.915522
 30
0.0
 10
105.900126
 20
5.215858
 30
0.0
 10
106.061138
 20
5.461132
 30
0.0
 10
106.299933
 20
5.626528
 30
0.0
 10
106.592356
 20
5.687231
 30
0.0
 10
106.592356
 20
5.687231
 30
0.0
  0
ENDSEC
  0
SECTION
  2
OBJECTS
  0
DICTIONARY
  5
C
330
0
100
AcDbDictionary
  3
ACAD_GROUP
350
D
  3
ACAD_MLINESTYLE
350
17
  0
DICTIONARY
  5
D
330
C
100
AcDbDictionary
  0
DICTIONARY
  5
1A
330
C
100
AcDbDictionary
  0
DICTIONARY
  5
17
330
C
100
AcDbDictionary
  3
STANDARD
350
18
  0
DICTIONARY
  5
19
330
C
100
AcDbDictionary
  0
ENDSEC
  0
EOF
