<?xml version="1.0" encoding="UTF-8" standalone="no"?>
<!-- Created with Inkscape (http://www.inkscape.org/) -->

<svg
   xmlns:dc="http://purl.org/dc/elements/1.1/"
   xmlns:cc="http://creativecommons.org/ns#"
   xmlns:rdf="http://www.w3.org/1999/02/22-rdf-syntax-ns#"
   xmlns:svg="http://www.w3.org/2000/svg"
   xmlns="http://www.w3.org/2000/svg"
   xmlns:sodipodi="http://sodipodi.sourceforge.net/DTD/sodipodi-0.dtd"
   xmlns:inkscape="http://www.inkscape.org/namespaces/inkscape"
   width="439.37006"
   height="524.40942"
   id="svg2"
   version="1.1"
   inkscape:version="0.48.4 r9939"
   sodipodi:docname="Anordnung V1_Layer1.svg">
  <defs
     id="defs4" />
  <sodipodi:namedview
     id="base"
     pagecolor="#ffffff"
     bordercolor="#666666"
     borderopacity="1.0"
     inkscape:pageopacity="0.0"
     inkscape:pageshadow="2"
     inkscape:zoom="3.47375"
     inkscape:cx="112.18293"
     inkscape:cy="61.367269"
     inkscape:document-units="px"
     inkscape:current-layer="layer1"
     showgrid="false"
     units="mm"
     showguides="true"
     inkscape:guide-bbox="true"
     inkscape:window-width="1920"
     inkscape:window-height="1025"
     inkscape:window-x="-2"
     inkscape:window-y="-3"
     inkscape:window-maximized="1" />
  <metadata
     id="metadata7">
    <rdf:RDF>
      <cc:Work
         rdf:about="">
        <dc:format>image/svg+xml</dc:format>
        <dc:type
           rdf:resource="http://purl.org/dc/dcmitype/StillImage" />
        <dc:title />
      </cc:Work>
    </rdf:RDF>
  </metadata>
  <g
     inkscape:label="Ebene 1"
     inkscape:groupmode="layer"
     id="layer1"
     transform="translate(0,-527.95274)">
    <path
       style="fill:#c4c4ff;fill-opacity:0.5138122;stroke:#000000;stroke-width:0.5;stroke-miterlimit:4;stroke-opacity:1;stroke-dasharray:none"
       d="m 24.314453,0.58789062 c -3.378968,0 -6.099609,2.72063938 -6.099609,6.09960938 l 0,510.67969 c 0,3.3789 2.720641,6.09961 6.099609,6.09961 l 23.515625,0 c 3.378968,0 6.097656,-2.72071 6.097656,-6.09961 l 0,-2.9961 300.457036,0 0,2.9961 c 0,3.3789 2.71869,6.09961 6.09765,6.09961 l 23.51758,0 c 3.37897,0 6.09766,-2.72071 6.09766,-6.09961 l 0,-510.67969 c 0,-3.37897 -2.71869,-6.09960938 -6.09766,-6.09960938 l -23.51758,0 c -3.37896,0 -6.09765,2.72063938 -6.09765,6.09960938 l 0,4.421875 -300.457036,0 0,-4.421875 c 0,-3.37897 -2.718688,-6.09960938 -6.097656,-6.09960938 z M 35.927734,16.791016 c 2.651669,2.65e-4 5.064188,2.412784 5.064454,5.064453 -2.66e-4,2.651669 -2.412785,5.064188 -5.064454,5.064453 -2.651669,-2.66e-4 -5.064187,-2.412784 -5.064453,-5.064453 2.66e-4,-2.651669 2.412784,-5.064187 5.064453,-5.064453 z m 336.683596,0.05078 c 2.65167,2.67e-4 5.06418,2.412785 5.06445,5.064453 -2.7e-4,2.651668 -2.41278,5.064186 -5.06445,5.064453 -2.65167,-2.67e-4 -5.06418,-2.412785 -5.06445,-5.064453 2.7e-4,-2.651668 2.41278,-5.064186 5.06445,-5.064453 z m -318.683596,17.269531 68.734376,0 -68.734376,68.734372 z m 100.554686,0 104.21094,0 95.69141,95.691402 0,261.06836 c -0.34556,0.22679 -0.67423,0.49064 -0.97852,0.79493 l -99.70313,99.70312 -104.21093,0 -95.564456,-95.56445 0,-261.28516 c 0.298506,-0.20695 0.585243,-0.43876 0.851563,-0.70508 z m 136.03125,0 63.8711,0 0,63.871094 z m 81.58985,22.416016 c 2.18791,7.35e-4 4.17802,1.991781 4.17773,4.179687 -7.3e-4,2.187255 -1.99047,4.177 -4.17773,4.177735 -2.18791,2.91e-4 -4.17896,-1.989827 -4.17969,-4.177735 -2.9e-4,-2.188559 1.99113,-4.179978 4.17969,-4.179687 z M 77.076172,91.814453 c 2.187908,-2.9e-4 4.178955,1.989828 4.179687,4.177735 2.92e-4,2.18856 -1.991127,4.179982 -4.179687,4.179692 -2.18856,2.9e-4 -4.17998,-1.991132 -4.179688,-4.179692 7.32e-4,-2.187908 1.99178,-4.178025 4.179688,-4.177735 z M 373.73047,359.01367 c 2.18791,-2.9e-4 4.17896,1.98983 4.17969,4.17774 2.9e-4,2.18856 -1.99113,4.17997 -4.17969,4.17968 -2.18791,-7.3e-4 -4.17803,-1.99177 -4.17774,-4.17968 7.3e-4,-2.18726 1.99048,-4.17701 4.17774,-4.17774 z M 43.96875,376.92578 c 2.188559,-2.9e-4 4.179979,1.99113 4.179688,4.17969 2.91e-4,2.18856 -1.991129,4.17998 -4.179688,4.17969 -2.188559,2.9e-4 -4.179979,-1.99113 -4.179688,-4.17969 -2.91e-4,-2.18856 1.991129,-4.17998 4.179688,-4.17969 z m 310.41602,45.58203 0,68.86133 -68.86133,0 z m -300.457036,5.11719 63.744146,63.74414 -63.744146,0 z m -18,69.73438 c 2.652318,2.7e-4 5.065208,2.41408 5.064454,5.0664 -2.67e-4,2.65167 -2.412786,5.06418 -5.064454,5.06445 -2.651668,-2.7e-4 -5.064186,-2.41278 -5.064453,-5.06445 -7.54e-4,-2.65232 2.412135,-5.06613 5.064453,-5.0664 z m 336.531246,0.25585 c 2.65167,2.6e-4 5.0642,2.41279 5.06446,5.06446 -2.7e-4,2.65167 -2.41279,5.06419 -5.06446,5.06445 -2.65167,-2.7e-4 -5.06418,-2.41278 -5.06445,-5.06445 2.6e-4,-2.65167 2.41278,-5.06419 5.06445,-5.06446 z"
       transform="translate(0,527.95274)"
       id="rect4352"
       inkscape:connector-curvature="0"
       sodipodi:nodetypes="ssssssccssssssssccsssccccccccccccccccccsccccsccccccccccccccccccccccccccccccccccccccccccc" />
  </g>
</svg>
