  0
SECTION
  2
HEADER
  9
$ACADVER
  1
AC1014
  9
$HANDSEED
  5
FFFF
  9
$MEASUREMENT
 70
     1
  0
ENDSEC
  0
SECTION
  2
TABLES
  0
TABLE
  2
VPORT
  5
8
330
0
100
AcDbSymbolTable
 70
     4
  0
VPORT
  5
2E
330
8
100
AcDbSymbolTableRecord
100
AcDbViewportTableRecord
  2
*ACTIVE
 70
     0
 10
0.0
 20
0.0
 11
1.0
 21
1.0
 12
210.0
 22
148.5
 13
0.0
 23
0.0
 14
10.0
 24
10.0
 15
10.0
 25
10.0
 16
0.0
 26
0.0
 36
1.0
 17
0.0
 27
0.0
 37
0.0
 40
341.0
 41
1.24
 42
50.0
 43
0.0
 44
0.0
 50
0.0
 51
0.0
 71
     0
 72
   100
 73
     1
 74
     3
 75
     0
 76
     0
 77
     0
 78
     0
  0
ENDTAB
  0
TABLE
  2
LTYPE
  5
5
330
0
100
AcDbSymbolTable
 70
     1
  0
LTYPE
  5
14
330
5
100
AcDbSymbolTableRecord
100
AcDbLinetypeTableRecord
  2
BYBLOCK
 70
     0
  3

 72
    65
 73
     0
 40
0.0
  0
LTYPE
  5
15
330
5
100
AcDbSymbolTableRecord
100
AcDbLinetypeTableRecord
  2
BYLAYER
 70
     0
  3

 72
    65
 73
     0
 40
0.0
  0
LTYPE
  5
16
330
5
100
AcDbSymbolTableRecord
100
AcDbLinetypeTableRecord
  2
CONTINUOUS
 70
     0
  3
Solid line
 72
    65
 73
     0
 40
0.0
  0
ENDTAB
  0
TABLE
  2
LAYER
  5
2
100
AcDbSymbolTable
 70
6
  0
LAYER
  5
50
100
AcDbSymbolTableRecord
100
AcDbLayerTableRecord
  2
0
 70
0
  6
CONTINUOUS
  0
LAYER
  5
51
100
AcDbSymbolTableRecord
100
AcDbLayerTableRecord
  2
Layer_1
 70
0
  6
CONTINUOUS
  0
LAYER
  5
52
100
AcDbSymbolTableRecord
100
AcDbLayerTableRecord
  2
Binding+Ownbuild
 70
0
  6
CONTINUOUS
  0
LAYER
  5
53
100
AcDbSymbolTableRecord
100
AcDbLayerTableRecord
  2
Holes_in_Binding
 70
0
  6
CONTINUOUS
  0
LAYER
  5
54
100
AcDbSymbolTableRecord
100
AcDbLayerTableRecord
  2
Layer2
 70
0
  6
CONTINUOUS
  0
LAYER
  5
55
100
AcDbSymbolTableRecord
100
AcDbLayerTableRecord
  2
Arduino+Raspberry
 70
0
  6
CONTINUOUS
  0
ENDTAB
  0
TABLE
  2
STYLE
  5
3
330
0
100
AcDbSymbolTable
 70
     1
  0
STYLE
  5
11
330
3
100
AcDbSymbolTableRecord
100
AcDbTextStyleTableRecord
  2
STANDARD
 70
     0
 40
0.0
 41
1.0
 50
0.0
 71
     0
 42
2.5
  3
txt
  4

  0
ENDTAB
  0
TABLE
  2
VIEW
  5
6
330
0
100
AcDbSymbolTable
 70
     0
  0
ENDTAB
  0
TABLE
  2
UCS
  5
7
330
0
100
AcDbSymbolTable
 70
     0
  0
ENDTAB
  0
TABLE
  2
APPID
  5
9
330
0
100
AcDbSymbolTable
 70
     2
  0
APPID
  5
12
330
9
100
AcDbSymbolTableRecord
100
AcDbRegAppTableRecord
  2
ACAD
 70
     0
  0
ENDTAB
  0
TABLE
  2
DIMSTYLE
  5
A
330
0
100
AcDbSymbolTable
 70
     1
  0
DIMSTYLE
105
27
330
A
100
AcDbSymbolTableRecord
100
AcDbDimStyleTableRecord
  2
ISO-25
 70
     0
  3

  4

  5

  6

  7

 40
1.0
 41
2.5
 42
0.625
 43
3.75
 44
1.25
 45
0.0
 46
0.0
 47
0.0
 48
0.0
140
2.5
141
2.5
142
0.0
143
0.03937007874016
144
1.0
145
0.0
146
1.0
147
0.625
 71
     0
 72
     0
 73
     0
 74
     0
 75
     0
 76
     0
 77
     1
 78
     8
170
     0
171
     3
172
     1
173
     0
174
     0
175
     0
176
     0
177
     0
178
     0
270
     2
271
     2
272
     2
273
     2
274
     3
340
11
275
     0
280
     0
281
     0
282
     0
283
     0
284
     8
285
     0
286
     0
287
     3
288
     0
  0
ENDTAB
  0
TABLE
  2
BLOCK_RECORD
  5
1
330
0
100
AcDbSymbolTable
 70
     1
  0
BLOCK_RECORD
  5
1F
330
1
100
AcDbSymbolTableRecord
100
AcDbBlockTableRecord
  2
*MODEL_SPACE
  0
BLOCK_RECORD
  5
1B
330
1
100
AcDbSymbolTableRecord
100
AcDbBlockTableRecord
  2
*PAPER_SPACE
  0
ENDTAB
  0
ENDSEC
  0
SECTION
  2
BLOCKS
  0
BLOCK
  5
20
330
1F
100
AcDbEntity
  8
0
100
AcDbBlockBegin
  2
*MODEL_SPACE
 70
     0
 10
0.0
 20
0.0
 30
0.0
  3
*MODEL_SPACE
  1

  0
ENDBLK
  5
21
330
1F
100
AcDbEntity
  8
0
100
AcDbBlockEnd
  0
BLOCK
  5
1C
330
1B
100
AcDbEntity
 67
     1
  8
0
100
AcDbBlockBegin
  2
*PAPER_SPACE
  1

  0
ENDBLK
  5
1D
330
1B
100
AcDbEntity
 67
     1
  8
0
100
AcDbBlockEnd
  0
ENDSEC
  0
SECTION
  2
ENTITIES
  0
SPLINE
  5
100
100
AcDbEntity
  8
Layer_1
 62
7
100
AcDbSpline
 70
8
 71
3
 72
8
 73
4
 74
0
 40
0
 40
0
 40
0
 40
0
 40
1
 40
1
 40
1
 40
1
 10
6.862079
 20
147.374363
 30
0.0
 10
5.908459
 20
147.374363
 30
0.0
 10
5.140634
 20
146.606538
 30
0.0
 10
5.140634
 20
145.652917
 30
0.0
  0
SPLINE
  5
101
100
AcDbEntity
  8
Layer_1
 62
7
100
AcDbSpline
 70
8
 71
3
 72
8
 73
4
 74
0
 40
0
 40
0
 40
0
 40
0
 40
1
 40
1
 40
1
 40
1
 10
5.140634
 20
2.274657
 30
0.0
 10
5.140634
 20
1.321057
 30
0.0
 10
5.908459
 20
0.553212
 30
0.0
 10
6.862079
 20
0.553212
 30
0.0
  0
LWPOLYLINE
  5
102
100
AcDbEntity
  8
Layer_1
 62
7
100
AcDbPolyline
 90
2
 70
1
 10
5.140634
 20
145.652917
 30
0.0
 10
5.140634
 20
2.274657
 30
0.0
  0
SPLINE
  5
103
100
AcDbEntity
  8
Layer_1
 62
7
100
AcDbSpline
 70
8
 71
3
 72
8
 73
4
 74
0
 40
0
 40
0
 40
0
 40
0
 40
1
 40
1
 40
1
 40
1
 10
13.498711
 20
0.553212
 30
0.0
 10
14.452331
 20
0.553212
 30
0.0
 10
15.219605
 20
1.321057
 30
0.0
 10
15.219605
 20
2.274657
 30
0.0
  0
LWPOLYLINE
  5
104
100
AcDbEntity
  8
Layer_1
 62
7
100
AcDbPolyline
 90
2
 70
1
 10
6.862079
 20
0.553212
 30
0.0
 10
13.498711
 20
0.553212
 30
0.0
  0
SPLINE
  5
105
100
AcDbEntity
  8
Layer_1
 62
7
100
AcDbSpline
 70
8
 71
3
 72
8
 73
4
 74
0
 40
0
 40
0
 40
0
 40
0
 40
1
 40
1
 40
1
 40
1
 10
100.015257
 20
2.274657
 30
0.0
 10
100.015257
 20
1.321057
 30
0.0
 10
100.782532
 20
0.553212
 30
0.0
 10
101.736150
 20
0.553212
 30
0.0
  0
LWPOLYLINE
  5
106
100
AcDbEntity
  8
Layer_1
 62
7
100
AcDbPolyline
 90
4
 70
1
 10
15.219605
 20
2.274657
 30
0.0
 10
15.219605
 20
2.833040
 30
0.0
 10
100.015257
 20
2.833040
 30
0.0
 10
100.015257
 20
2.274657
 30
0.0
  0
SPLINE
  5
107
100
AcDbEntity
  8
Layer_1
 62
7
100
AcDbSpline
 70
8
 71
3
 72
8
 73
4
 74
0
 40
0
 40
0
 40
0
 40
0
 40
1
 40
1
 40
1
 40
1
 10
108.373333
 20
0.553212
 30
0.0
 10
109.326954
 20
0.553212
 30
0.0
 10
110.094228
 20
2.274657
 30
0.0
 10
110.094228
 20
2.274657
 30
0.0
  0
SPLINE
  5
108
100
AcDbEntity
  8
Layer_1
 62
7
100
AcDbSpline
 70
8
 71
3
 72
8
 73
4
 74
0
 40
0
 40
0
 40
0
 40
0
 40
1
 40
1
 40
1
 40
1
 10
110.094228
 20
2.274657
 30
0.0
 10
110.094228
 20
2.274657
 30
0.0
 10
109.603667
 20
26.425011
 30
0.0
 10
112.730689
 20
37.922302
 30
0.0
  0
SPLINE
  5
109
100
AcDbEntity
  8
Layer_1
 62
7
100
AcDbSpline
 70
8
 71
3
 72
8
 73
4
 74
0
 40
0
 40
0
 40
0
 40
0
 40
1
 40
1
 40
1
 40
1
 10
112.730689
 20
37.922302
 30
0.0
 10
114.199176
 20
43.321563
 30
0.0
 10
120.141780
 20
52.983706
 30
0.0
 10
120.141780
 20
52.983706
 30
0.0
  0
LWPOLYLINE
  5
10a
100
AcDbEntity
  8
Layer_1
 62
7
100
AcDbPolyline
 90
2
 70
1
 10
101.736150
 20
0.553212
 30
0.0
 10
108.373333
 20
0.553212
 30
0.0
  0
SPLINE
  5
10b
100
AcDbEntity
  8
Layer_1
 62
7
100
AcDbSpline
 70
8
 71
3
 72
8
 73
4
 74
0
 40
0
 40
0
 40
0
 40
0
 40
1
 40
1
 40
1
 40
1
 10
122.075442
 20
139.403790
 30
0.0
 10
122.114431
 20
139.532711
 30
0.0
 10
122.136628
 20
139.668062
 30
0.0
 10
122.136628
 20
139.808382
 30
0.0
  0
LWPOLYLINE
  5
10c
100
AcDbEntity
  8
Layer_1
 62
7
100
AcDbPolyline
 90
4
 70
1
 10
120.141780
 20
52.983706
 30
0.0
 10
123.807911
 20
60.240458
 30
0.0
 10
123.689951
 20
133.265456
 30
0.0
 10
122.075442
 20
139.403790
 30
0.0
  0
SPLINE
  5
10d
100
AcDbEntity
  8
Layer_1
 62
7
100
AcDbSpline
 70
8
 71
3
 72
8
 73
4
 74
0
 40
0
 40
0
 40
0
 40
0
 40
1
 40
1
 40
1
 40
1
 10
122.136628
 20
143.327891
 30
0.0
 10
122.136628
 20
144.111655
 30
0.0
 10
121.487170
 20
144.753156
 30
0.0
 10
120.643938
 20
144.845938
 30
0.0
  0
LWPOLYLINE
  5
10e
100
AcDbEntity
  8
Layer_1
 62
7
100
AcDbPolyline
 90
2
 70
1
 10
122.136628
 20
139.808382
 30
0.0
 10
122.136628
 20
143.327891
 30
0.0
  0
SPLINE
  5
10f
100
AcDbEntity
  8
Layer_1
 62
7
100
AcDbSpline
 70
8
 71
3
 72
8
 73
4
 74
0
 40
0
 40
0
 40
0
 40
0
 40
1
 40
1
 40
1
 40
1
 10
15.219599
 20
145.652918
 30
0.0
 10
15.219599
 20
146.606539
 30
0.0
 10
14.452325
 20
147.374364
 30
0.0
 10
13.498705
 20
147.374364
 30
0.0
  0
LWPOLYLINE
  5
110
100
AcDbEntity
  8
Layer_1
 62
7
100
AcDbPolyline
 90
4
 70
1
 10
120.643938
 20
144.845938
 30
0.0
 10
120.638971
 20
144.864680
 30
0.0
 10
15.219599
 20
144.864680
 30
0.0
 10
15.219599
 20
145.652918
 30
0.0
  0
SPLINE
  5
111
100
AcDbEntity
  8
Layer_1
 62
7
100
AcDbSpline
 70
8
 71
3
 72
8
 73
4
 74
0
 40
0
 40
0
 40
0
 40
0
 40
1
 40
1
 40
1
 40
1
 10
10.139605
 20
143.261194
 30
0.0
 10
10.887965
 20
143.261118
 30
0.0
 10
11.568831
 20
142.580253
 30
0.0
 10
11.568906
 20
141.831893
 30
0.0
  0
SPLINE
  5
112
100
AcDbEntity
  8
Layer_1
 62
7
100
AcDbSpline
 70
8
 71
3
 72
8
 73
4
 74
0
 40
0
 40
0
 40
0
 40
0
 40
1
 40
1
 40
1
 40
1
 10
11.568906
 20
141.831893
 30
0.0
 10
11.568831
 20
141.083533
 30
0.0
 10
10.887965
 20
140.402665
 30
0.0
 10
10.139605
 20
140.402592
 30
0.0
  0
SPLINE
  5
113
100
AcDbEntity
  8
Layer_1
 62
7
100
AcDbSpline
 70
8
 71
3
 72
8
 73
4
 74
0
 40
0
 40
0
 40
0
 40
0
 40
1
 40
1
 40
1
 40
1
 10
10.139605
 20
140.402592
 30
0.0
 10
9.391245
 20
140.402668
 30
0.0
 10
8.710379
 20
141.083533
 30
0.0
 10
8.710304
 20
141.831893
 30
0.0
  0
SPLINE
  5
114
100
AcDbEntity
  8
Layer_1
 62
7
100
AcDbSpline
 70
8
 71
3
 72
8
 73
4
 74
0
 40
0
 40
0
 40
0
 40
0
 40
1
 40
1
 40
1
 40
1
 10
8.710304
 20
141.831893
 30
0.0
 10
8.710379
 20
142.580253
 30
0.0
 10
9.391245
 20
143.261118
 30
0.0
 10
10.139605
 20
143.261194
 30
0.0
  0
LWPOLYLINE
  5
115
100
AcDbEntity
  8
Layer_1
 62
7
100
AcDbPolyline
 90
3
 70
1
 10
13.498705
 20
147.374364
 30
0.0
 10
6.862073
 20
147.374364
 30
0.0
 10
6.862079
 20
147.374363
 30
0.0
  0
SPLINE
  5
116
100
AcDbEntity
  8
Layer_1
 62
7
100
AcDbSpline
 70
8
 71
3
 72
8
 73
4
 74
0
 40
0
 40
0
 40
0
 40
0
 40
1
 40
1
 40
1
 40
1
 10
105.159198
 20
143.246863
 30
0.0
 10
105.907558
 20
143.246787
 30
0.0
 10
106.588422
 20
142.565922
 30
0.0
 10
106.588498
 20
141.817562
 30
0.0
  0
SPLINE
  5
117
100
AcDbEntity
  8
Layer_1
 62
7
100
AcDbSpline
 70
8
 71
3
 72
8
 73
4
 74
0
 40
0
 40
0
 40
0
 40
0
 40
1
 40
1
 40
1
 40
1
 10
106.588498
 20
141.817562
 30
0.0
 10
106.588422
 20
141.069201
 30
0.0
 10
105.907558
 20
140.388337
 30
0.0
 10
105.159198
 20
140.388260
 30
0.0
  0
SPLINE
  5
118
100
AcDbEntity
  8
Layer_1
 62
7
100
AcDbSpline
 70
8
 71
3
 72
8
 73
4
 74
0
 40
0
 40
0
 40
0
 40
0
 40
1
 40
1
 40
1
 40
1
 10
105.159198
 20
140.388260
 30
0.0
 10
104.410837
 20
140.388337
 30
0.0
 10
103.729971
 20
141.069201
 30
0.0
 10
103.729897
 20
141.817562
 30
0.0
  0
SPLINE
  5
119
100
AcDbEntity
  8
Layer_1
 62
7
100
AcDbSpline
 70
8
 71
3
 72
8
 73
4
 74
0
 40
0
 40
0
 40
0
 40
0
 40
1
 40
1
 40
1
 40
1
 10
103.729897
 20
141.817562
 30
0.0
 10
103.729973
 20
142.565922
 30
0.0
 10
104.410837
 20
143.246787
 30
0.0
 10
105.159198
 20
143.246863
 30
0.0
  0
LWPOLYLINE
  5
11a
100
AcDbEntity
  8
Layer_1
 62
7
100
AcDbPolyline
 90
2
 70
1
 10
10.139605
 20
143.261194
 30
0.0
 10
10.139605
 20
143.261194
 30
0.0
  0
LWPOLYLINE
  5
11b
100
AcDbEntity
  8
Layer_1
 62
7
100
AcDbPolyline
 90
2
 70
1
 10
105.159198
 20
143.246863
 30
0.0
 10
105.159198
 20
143.246863
 30
0.0
  0
LWPOLYLINE
  5
11c
100
AcDbEntity
  8
Layer_1
 62
7
100
AcDbPolyline
 90
5
 70
1
 10
15.219605
 20
138.373017
 30
0.0
 10
29.743575
 20
138.373017
 30
0.0
 10
15.219605
 20
118.974650
 30
0.0
 10
15.219605
 20
138.373017
 30
0.0
 10
15.219605
 20
138.373017
 30
0.0
  0
SPLINE
  5
11d
100
AcDbEntity
  8
Layer_1
 62
7
100
AcDbSpline
 70
8
 71
3
 72
8
 73
4
 74
0
 40
0
 40
0
 40
0
 40
0
 40
1
 40
1
 40
1
 40
1
 10
116.732513
 20
106.663806
 30
0.0
 10
116.732513
 20
106.663806
 30
0.0
 10
120.382388
 20
103.227751
 30
0.0
 10
120.465342
 20
100.955972
 30
0.0
  0
SPLINE
  5
11e
100
AcDbEntity
  8
Layer_1
 62
7
100
AcDbSpline
 70
8
 71
3
 72
8
 73
4
 74
0
 40
0
 40
0
 40
0
 40
0
 40
1
 40
1
 40
1
 40
1
 10
120.465342
 20
100.955972
 30
0.0
 10
120.546980
 20
98.720207
 30
0.0
 10
117.210967
 20
95.086083
 30
0.0
 10
117.210967
 20
95.086083
 30
0.0
  0
LWPOLYLINE
  5
11f
100
AcDbEntity
  8
Layer_1
 62
7
100
AcDbPolyline
 90
4
 70
1
 10
38.723976
 20
138.373017
 30
0.0
 10
109.826338
 20
138.373017
 30
0.0
 10
116.330676
 20
125.614037
 30
0.0
 10
116.732513
 20
106.663806
 30
0.0
  0
SPLINE
  5
120
100
AcDbEntity
  8
Layer_1
 62
7
100
AcDbSpline
 70
8
 71
3
 72
8
 73
4
 74
0
 40
0
 40
0
 40
0
 40
0
 40
1
 40
1
 40
1
 40
1
 10
12.944751
 20
104.495877
 30
0.0
 10
20.856782
 20
113.858517
 30
0.0
 10
30.906926
 20
128.917994
 30
0.0
 10
38.723976
 20
138.373017
 30
0.0
  0
LWPOLYLINE
  5
121
100
AcDbEntity
  8
Layer_1
 62
7
100
AcDbPolyline
 90
11
 70
1
 10
117.210967
 20
95.086083
 30
0.0
 10
117.230271
 20
74.830573
 30
0.0
 10
111.400068
 20
57.662422
 30
0.0
 10
104.106938
 20
51.868598
 30
0.0
 10
99.739109
 20
37.463137
 30
0.0
 10
71.600670
 20
9.324701
 30
0.0
 10
42.190029
 20
9.324701
 30
0.0
 10
15.219616
 20
36.295113
 30
0.0
 10
15.219616
 20
71.614233
 30
0.0
 10
12.944751
 20
74.893413
 30
0.0
 10
12.944751
 20
104.495877
 30
0.0
  0
SPLINE
  5
122
100
AcDbEntity
  8
Layer_1
 62
7
100
AcDbSpline
 70
8
 71
3
 72
8
 73
4
 74
0
 40
0
 40
0
 40
0
 40
0
 40
1
 40
1
 40
1
 40
1
 10
21.752609
 20
122.087913
 30
0.0
 10
22.370085
 20
122.087995
 30
0.0
 10
22.932003
 20
121.526340
 30
0.0
 10
22.932209
 20
120.908863
 30
0.0
  0
SPLINE
  5
123
100
AcDbEntity
  8
Layer_1
 62
7
100
AcDbSpline
 70
8
 71
3
 72
8
 73
4
 74
0
 40
0
 40
0
 40
0
 40
0
 40
1
 40
1
 40
1
 40
1
 10
22.932209
 20
120.908863
 30
0.0
 10
22.932292
 20
120.291203
 30
0.0
 10
22.370269
 20
119.729182
 30
0.0
 10
21.752609
 20
119.729261
 30
0.0
  0
SPLINE
  5
124
100
AcDbEntity
  8
Layer_1
 62
7
100
AcDbSpline
 70
8
 71
3
 72
8
 73
4
 74
0
 40
0
 40
0
 40
0
 40
0
 40
1
 40
1
 40
1
 40
1
 10
21.752609
 20
119.729261
 30
0.0
 10
21.134948
 20
119.729182
 30
0.0
 10
20.572925
 20
120.291203
 30
0.0
 10
20.573008
 20
120.908863
 30
0.0
  0
SPLINE
  5
125
100
AcDbEntity
  8
Layer_1
 62
7
100
AcDbSpline
 70
8
 71
3
 72
8
 73
4
 74
0
 40
0
 40
0
 40
0
 40
0
 40
1
 40
1
 40
1
 40
1
 10
20.573008
 20
120.908863
 30
0.0
 10
20.573214
 20
121.526340
 30
0.0
 10
21.135132
 20
122.087995
 30
0.0
 10
21.752609
 20
122.087913
 30
0.0
  0
LWPOLYLINE
  5
126
100
AcDbEntity
  8
Layer_1
 62
7
100
AcDbPolyline
 90
2
 70
1
 10
38.723976
 20
138.373017
 30
0.0
 10
38.723976
 20
138.373017
 30
0.0
  0
SPLINE
  5
127
100
AcDbEntity
  8
Layer_1
 62
7
100
AcDbSpline
 70
8
 71
3
 72
8
 73
4
 74
0
 40
0
 40
0
 40
0
 40
0
 40
1
 40
1
 40
1
 40
1
 10
105.475044
 20
46.678356
 30
0.0
 10
106.092521
 20
46.678438
 30
0.0
 10
106.654439
 20
46.116782
 30
0.0
 10
106.654645
 20
45.499305
 30
0.0
  0
SPLINE
  5
128
100
AcDbEntity
  8
Layer_1
 62
7
100
AcDbSpline
 70
8
 71
3
 72
8
 73
4
 74
0
 40
0
 40
0
 40
0
 40
0
 40
1
 40
1
 40
1
 40
1
 10
106.654645
 20
45.499305
 30
0.0
 10
106.654727
 20
44.881645
 30
0.0
 10
106.092704
 20
44.319625
 30
0.0
 10
105.475044
 20
44.319706
 30
0.0
  0
SPLINE
  5
129
100
AcDbEntity
  8
Layer_1
 62
7
100
AcDbSpline
 70
8
 71
3
 72
8
 73
4
 74
0
 40
0
 40
0
 40
0
 40
0
 40
1
 40
1
 40
1
 40
1
 10
105.475044
 20
44.319706
 30
0.0
 10
104.857567
 20
44.319912
 30
0.0
 10
104.295911
 20
44.881828
 30
0.0
 10
104.295993
 20
45.499305
 30
0.0
  0
SPLINE
  5
12a
100
AcDbEntity
  8
Layer_1
 62
7
100
AcDbSpline
 70
8
 71
3
 72
8
 73
4
 74
0
 40
0
 40
0
 40
0
 40
0
 40
1
 40
1
 40
1
 40
1
 10
104.295993
 20
45.499305
 30
0.0
 10
104.296199
 20
46.116598
 30
0.0
 10
104.857750
 20
46.678150
 30
0.0
 10
105.475044
 20
46.678356
 30
0.0
  0
LWPOLYLINE
  5
12b
100
AcDbEntity
  8
Layer_1
 62
7
100
AcDbPolyline
 90
2
 70
1
 10
21.752609
 20
122.087913
 30
0.0
 10
21.752609
 20
122.087913
 30
0.0
  0
SPLINE
  5
12c
100
AcDbEntity
  8
Layer_1
 62
7
100
AcDbSpline
 70
8
 71
3
 72
8
 73
4
 74
0
 40
0
 40
0
 40
0
 40
0
 40
1
 40
1
 40
1
 40
1
 10
12.408958
 20
41.623161
 30
0.0
 10
13.026618
 20
41.623242
 30
0.0
 10
13.588641
 20
41.061219
 30
0.0
 10
13.588559
 20
40.443559
 30
0.0
  0
SPLINE
  5
12d
100
AcDbEntity
  8
Layer_1
 62
7
100
AcDbSpline
 70
8
 71
3
 72
8
 73
4
 74
0
 40
0
 40
0
 40
0
 40
0
 40
1
 40
1
 40
1
 40
1
 10
13.588559
 20
40.443559
 30
0.0
 10
13.588641
 20
39.825899
 30
0.0
 10
13.026618
 20
39.263876
 30
0.0
 10
12.408958
 20
39.263958
 30
0.0
  0
SPLINE
  5
12e
100
AcDbEntity
  8
Layer_1
 62
7
100
AcDbSpline
 70
8
 71
3
 72
8
 73
4
 74
0
 40
0
 40
0
 40
0
 40
0
 40
1
 40
1
 40
1
 40
1
 10
12.408958
 20
39.263958
 30
0.0
 10
11.791298
 20
39.263876
 30
0.0
 10
11.229275
 20
39.825899
 30
0.0
 10
11.229357
 20
40.443559
 30
0.0
  0
SPLINE
  5
12f
100
AcDbEntity
  8
Layer_1
 62
7
100
AcDbSpline
 70
8
 71
3
 72
8
 73
4
 74
0
 40
0
 40
0
 40
0
 40
0
 40
1
 40
1
 40
1
 40
1
 10
11.229357
 20
40.443559
 30
0.0
 10
11.229276
 20
41.061219
 30
0.0
 10
11.791298
 20
41.623242
 30
0.0
 10
12.408958
 20
41.623161
 30
0.0
  0
LWPOLYLINE
  5
130
100
AcDbEntity
  8
Layer_1
 62
7
100
AcDbPolyline
 90
2
 70
1
 10
105.475044
 20
46.678356
 30
0.0
 10
105.475044
 20
46.678356
 30
0.0
  0
LWPOLYLINE
  5
131
100
AcDbEntity
  8
Layer_1
 62
7
100
AcDbPolyline
 90
2
 70
1
 10
12.408958
 20
41.623161
 30
0.0
 10
12.408958
 20
41.623161
 30
0.0
  0
LWPOLYLINE
  5
132
100
AcDbEntity
  8
Layer_1
 62
7
100
AcDbPolyline
 90
5
 70
1
 10
100.015257
 20
28.758899
 30
0.0
 10
100.015257
 20
9.324701
 30
0.0
 10
80.581060
 20
9.324701
 30
0.0
 10
100.015257
 20
28.758899
 30
0.0
 10
100.015257
 20
28.758899
 30
0.0
  0
SPLINE
  5
133
100
AcDbEntity
  8
Layer_1
 62
7
100
AcDbSpline
 70
8
 71
3
 72
8
 73
4
 74
0
 40
0
 40
0
 40
0
 40
0
 40
1
 40
1
 40
1
 40
1
 10
10.139605
 20
7.634122
 30
0.0
 10
10.888148
 20
7.634041
 30
0.0
 10
11.569119
 20
6.952810
 30
0.0
 10
11.568906
 20
6.204272
 30
0.0
  0
SPLINE
  5
134
100
AcDbEntity
  8
Layer_1
 62
7
100
AcDbSpline
 70
8
 71
3
 72
8
 73
4
 74
0
 40
0
 40
0
 40
0
 40
0
 40
1
 40
1
 40
1
 40
1
 10
11.568906
 20
6.204272
 30
0.0
 10
11.568831
 20
5.455903
 30
0.0
 10
10.887965
 20
4.775056
 30
0.0
 10
10.139605
 20
4.774971
 30
0.0
  0
SPLINE
  5
135
100
AcDbEntity
  8
Layer_1
 62
7
100
AcDbSpline
 70
8
 71
3
 72
8
 73
4
 74
0
 40
0
 40
0
 40
0
 40
0
 40
1
 40
1
 40
1
 40
1
 10
10.139605
 20
4.774971
 30
0.0
 10
9.391245
 20
4.775056
 30
0.0
 10
8.710379
 20
5.455903
 30
0.0
 10
8.710304
 20
6.204272
 30
0.0
  0
SPLINE
  5
136
100
AcDbEntity
  8
Layer_1
 62
7
100
AcDbSpline
 70
8
 71
3
 72
8
 73
4
 74
0
 40
0
 40
0
 40
0
 40
0
 40
1
 40
1
 40
1
 40
1
 10
8.710304
 20
6.204272
 30
0.0
 10
8.710091
 20
6.952810
 30
0.0
 10
9.391062
 20
7.634041
 30
0.0
 10
10.139605
 20
7.634122
 30
0.0
  0
LWPOLYLINE
  5
137
100
AcDbEntity
  8
Layer_1
 62
7
100
AcDbPolyline
 90
5
 70
1
 10
15.219605
 20
27.314714
 30
0.0
 10
33.209619
 20
9.324701
 30
0.0
 10
15.219605
 20
9.324701
 30
0.0
 10
15.219605
 20
27.314714
 30
0.0
 10
15.219605
 20
27.314714
 30
0.0
  0
SPLINE
  5
138
100
AcDbEntity
  8
Layer_1
 62
7
100
AcDbSpline
 70
8
 71
3
 72
8
 73
4
 74
0
 40
0
 40
0
 40
0
 40
0
 40
1
 40
1
 40
1
 40
1
 10
105.116201
 20
7.561916
 30
0.0
 10
105.864561
 20
7.561859
 30
0.0
 10
106.545431
 20
6.880953
 30
0.0
 10
106.545504
 20
6.132613
 30
0.0
  0
SPLINE
  5
139
100
AcDbEntity
  8
Layer_1
 62
7
100
AcDbSpline
 70
8
 71
3
 72
8
 73
4
 74
0
 40
0
 40
0
 40
0
 40
0
 40
1
 40
1
 40
1
 40
1
 10
106.545504
 20
6.132613
 30
0.0
 10
106.545428
 20
5.384244
 30
0.0
 10
105.864561
 20
4.703397
 30
0.0
 10
105.116201
 20
4.703312
 30
0.0
  0
SPLINE
  5
13a
100
AcDbEntity
  8
Layer_1
 62
7
100
AcDbSpline
 70
8
 71
3
 72
8
 73
4
 74
0
 40
0
 40
0
 40
0
 40
0
 40
1
 40
1
 40
1
 40
1
 10
105.116201
 20
4.703312
 30
0.0
 10
104.367841
 20
4.703397
 30
0.0
 10
103.686977
 20
5.384244
 30
0.0
 10
103.686901
 20
6.132613
 30
0.0
  0
SPLINE
  5
13b
100
AcDbEntity
  8
Layer_1
 62
7
100
AcDbSpline
 70
8
 71
3
 72
8
 73
4
 74
0
 40
0
 40
0
 40
0
 40
0
 40
1
 40
1
 40
1
 40
1
 10
103.686901
 20
6.132613
 30
0.0
 10
103.686974
 20
6.880953
 30
0.0
 10
104.367841
 20
7.561831
 30
0.0
 10
105.116201
 20
7.561916
 30
0.0
  0
LWPOLYLINE
  5
13c
100
AcDbEntity
  8
Layer_1
 62
7
100
AcDbPolyline
 90
2
 70
1
 10
10.139605
 20
7.634122
 30
0.0
 10
10.139605
 20
7.634122
 30
0.0
  0
LWPOLYLINE
  5
13d
100
AcDbEntity
  8
Layer_1
 62
7
100
AcDbPolyline
 90
2
 70
1
 10
105.116201
 20
7.561916
 30
0.0
 10
105.116201
 20
7.561916
 30
0.0
  0
SPLINE
  5
13e
100
AcDbEntity
  8
Binding+Ownbuild
 62
7
100
AcDbSpline
 70
8
 71
3
 72
8
 73
4
 74
0
 40
0
 40
0
 40
0
 40
0
 40
1
 40
1
 40
1
 40
1
 10
6.780499
 20
130.071819
 30
0.0
 10
5.837072
 20
130.071819
 30
0.0
 10
5.077795
 20
129.312542
 30
0.0
 10
5.077795
 20
128.369116
 30
0.0
  0
LWPOLYLINE
  5
13f
100
AcDbEntity
  8
Binding+Ownbuild
 62
7
100
AcDbPolyline
 90
2
 70
1
 10
9.586736
 20
130.071819
 30
0.0
 10
6.780499
 20
130.071819
 30
0.0
  0
SPLINE
  5
140
100
AcDbEntity
  8
Binding+Ownbuild
 62
7
100
AcDbSpline
 70
8
 71
3
 72
8
 73
4
 74
0
 40
0
 40
0
 40
0
 40
0
 40
1
 40
1
 40
1
 40
1
 10
5.077795
 20
120.481775
 30
0.0
 10
5.077795
 20
119.538349
 30
0.0
 10
5.837072
 20
118.779073
 30
0.0
 10
6.780499
 20
118.779073
 30
0.0
  0
LWPOLYLINE
  5
141
100
AcDbEntity
  8
Binding+Ownbuild
 62
7
100
AcDbPolyline
 90
2
 70
1
 10
5.077795
 20
128.369116
 30
0.0
 10
5.077795
 20
120.481775
 30
0.0
  0
LWPOLYLINE
  5
142
100
AcDbEntity
  8
Binding+Ownbuild
 62
7
100
AcDbPolyline
 90
4
 70
1
 10
6.780499
 20
118.779073
 30
0.0
 10
9.586736
 20
118.779073
 30
0.0
 10
9.586736
 20
130.071819
 30
0.0
 10
9.586736
 20
130.071819
 30
0.0
  0
LWPOLYLINE
  5
143
100
AcDbEntity
  8
Binding+Ownbuild
 62
7
100
AcDbPolyline
 90
5
 70
1
 10
99.902704
 20
15.759131
 30
0.0
 10
110.128513
 20
15.759131
 30
0.0
 10
110.128513
 20
9.841949
 30
0.0
 10
99.902704
 20
9.841949
 30
0.0
 10
99.902704
 20
15.759131
 30
0.0
  0
LWPOLYLINE
  5
144
100
AcDbEntity
  8
Binding+Ownbuild
 62
7
100
AcDbPolyline
 90
5
 70
1
 10
111.121831
 20
144.858501
 30
0.0
 10
122.136696
 20
144.858501
 30
0.0
 10
122.136696
 20
138.277717
 30
0.0
 10
111.121831
 20
138.277717
 30
0.0
 10
111.121831
 20
144.858501
 30
0.0
  0
LWPOLYLINE
  5
145
100
AcDbEntity
  8
Binding+Ownbuild
 62
7
100
AcDbPolyline
 90
5
 70
1
 10
29.671377
 20
144.858501
 30
0.0
 10
34.815396
 20
144.858501
 30
0.0
 10
34.815396
 20
138.277717
 30
0.0
 10
29.671377
 20
138.277717
 30
0.0
 10
29.671377
 20
144.858501
 30
0.0
  0
SPLINE
  5
146
100
AcDbEntity
  8
Layer2
 62
7
100
AcDbSpline
 70
8
 71
3
 72
8
 73
4
 74
0
 40
0
 40
0
 40
0
 40
0
 40
1
 40
1
 40
1
 40
1
 10
30.976093
 20
144.815070
 30
0.0
 10
30.488848
 20
144.710727
 30
0.0
 10
30.084646
 20
144.420317
 30
0.0
 10
29.860985
 20
144.030140
 30
0.0
  0
LWPOLYLINE
  5
147
100
AcDbEntity
  8
Layer2
 62
7
100
AcDbPolyline
 90
2
 70
1
 10
31.093503
 20
144.897752
 30
0.0
 10
30.976093
 20
144.815070
 30
0.0
  0
SPLINE
  5
148
100
AcDbEntity
  8
Layer2
 62
7
100
AcDbSpline
 70
8
 71
3
 72
8
 73
4
 74
0
 40
0
 40
0
 40
0
 40
0
 40
1
 40
1
 40
1
 40
1
 10
9.603273
 20
129.771303
 30
0.0
 10
9.403406
 20
129.899372
 30
0.0
 10
9.187162
 20
129.976547
 30
0.0
 10
8.967721
 20
130.013837
 30
0.0
  0
SPLINE
  5
149
100
AcDbEntity
  8
Layer2
 62
7
100
AcDbSpline
 70
8
 71
3
 72
8
 73
4
 74
0
 40
0
 40
0
 40
0
 40
0
 40
1
 40
1
 40
1
 40
1
 10
8.967721
 20
130.013837
 30
0.0
 10
8.792281
 20
130.074611
 30
0.0
 10
8.604869
 20
130.109198
 30
0.0
 10
8.408238
 20
130.109198
 30
0.0
  0
LWPOLYLINE
  5
14a
100
AcDbEntity
  8
Layer2
 62
7
100
AcDbPolyline
 90
2
 70
1
 10
29.860985
 20
144.030140
 30
0.0
 10
9.603273
 20
129.771303
 30
0.0
  0
SPLINE
  5
14b
100
AcDbEntity
  8
Layer2
 62
7
100
AcDbSpline
 70
8
 71
3
 72
8
 73
4
 74
0
 40
0
 40
0
 40
0
 40
0
 40
1
 40
1
 40
1
 40
1
 10
6.758451
 20
130.109198
 30
0.0
 10
5.815024
 20
130.109198
 30
0.0
 10
5.055195
 20
129.349920
 30
0.0
 10
5.055195
 20
128.406494
 30
0.0
  0
LWPOLYLINE
  5
14c
100
AcDbEntity
  8
Layer2
 62
7
100
AcDbPolyline
 90
2
 70
1
 10
8.408238
 20
130.109198
 30
0.0
 10
6.758451
 20
130.109198
 30
0.0
  0
SPLINE
  5
14d
100
AcDbEntity
  8
Layer2
 62
7
100
AcDbSpline
 70
8
 71
3
 72
8
 73
4
 74
0
 40
0
 40
0
 40
0
 40
0
 40
1
 40
1
 40
1
 40
1
 10
5.055195
 20
120.610105
 30
0.0
 10
5.055195
 20
119.666679
 30
0.0
 10
5.815024
 20
118.906849
 30
0.0
 10
6.758451
 20
118.906849
 30
0.0
  0
LWPOLYLINE
  5
14e
100
AcDbEntity
  8
Layer2
 62
7
100
AcDbPolyline
 90
2
 70
1
 10
5.055195
 20
128.406494
 30
0.0
 10
5.055195
 20
120.610105
 30
0.0
  0
SPLINE
  5
14f
100
AcDbEntity
  8
Layer2
 62
7
100
AcDbSpline
 70
8
 71
3
 72
8
 73
4
 74
0
 40
0
 40
0
 40
0
 40
0
 40
1
 40
1
 40
1
 40
1
 10
99.969506
 20
9.314228
 30
0.0
 10
99.969506
 20
9.314228
 30
0.0
 10
100.028485
 20
7.570318
 30
0.0
 10
100.028485
 20
3.050218
 30
0.0
  0
SPLINE
  5
150
100
AcDbEntity
  8
Layer2
 62
7
100
AcDbSpline
 70
8
 71
3
 72
8
 73
4
 74
0
 40
0
 40
0
 40
0
 40
0
 40
1
 40
1
 40
1
 40
1
 10
100.028485
 20
3.050218
 30
0.0
 10
100.028485
 20
2.106806
 30
0.0
 10
100.787762
 20
1.347512
 30
0.0
 10
101.731188
 20
1.347512
 30
0.0
  0
SPLINE
  5
151
100
AcDbEntity
  8
Layer2
 62
7
100
AcDbSpline
 70
8
 71
3
 72
8
 73
4
 74
0
 40
0
 40
0
 40
0
 40
0
 40
1
 40
1
 40
1
 40
1
 10
101.731188
 20
1.347512
 30
0.0
 10
105.328966
 20
1.312827
 30
0.0
 10
104.781048
 20
1.289084
 30
0.0
 10
108.391523
 20
1.289084
 30
0.0
  0
SPLINE
  5
152
100
AcDbEntity
  8
Layer2
 62
7
100
AcDbSpline
 70
8
 71
3
 72
8
 73
4
 74
0
 40
0
 40
0
 40
0
 40
0
 40
1
 40
1
 40
1
 40
1
 10
108.391523
 20
1.289084
 30
0.0
 10
109.334949
 20
1.289084
 30
0.0
 10
110.094228
 20
2.048377
 30
0.0
 10
110.094228
 20
2.991790
 30
0.0
  0
LWPOLYLINE
  5
153
100
AcDbEntity
  8
Layer2
 62
7
100
AcDbPolyline
 90
5
 70
1
 10
6.758451
 20
118.906849
 30
0.0
 10
7.791979
 20
118.906849
 30
0.0
 10
57.835159
 20
109.865818
 30
0.0
 10
65.040645
 20
58.991401
 30
0.0
 10
99.969506
 20
9.314228
 30
0.0
  0
SPLINE
  5
154
100
AcDbEntity
  8
Layer2
 62
7
100
AcDbSpline
 70
8
 71
3
 72
8
 73
4
 74
0
 40
0
 40
0
 40
0
 40
0
 40
1
 40
1
 40
1
 40
1
 10
122.136628
 20
143.327891
 30
0.0
 10
122.136628
 20
144.175840
 30
0.0
 10
121.377340
 20
144.858616
 30
0.0
 10
120.433925
 20
144.858616
 30
0.0
  0
LWPOLYLINE
  5
155
100
AcDbEntity
  8
Layer2
 62
7
100
AcDbPolyline
 90
6
 70
1
 10
110.094228
 20
2.991790
 30
0.0
 10
110.297076
 20
16.104650
 30
0.0
 10
122.689496
 20
99.116015
 30
0.0
 10
122.689496
 20
136.879775
 30
0.0
 10
122.136628
 20
139.808382
 30
0.0
 10
122.136628
 20
143.327891
 30
0.0
  0
SPLINE
  5
156
100
AcDbEntity
  8
Layer2
 62
7
100
AcDbSpline
 70
8
 71
3
 72
8
 73
4
 74
0
 40
0
 40
0
 40
0
 40
0
 40
1
 40
1
 40
1
 40
1
 10
107.715733
 20
142.843373
 30
0.0
 10
108.222302
 20
142.843373
 30
0.0
 10
108.632955
 20
142.432720
 30
0.0
 10
108.632955
 20
141.926151
 30
0.0
  0
SPLINE
  5
157
100
AcDbEntity
  8
Layer2
 62
7
100
AcDbSpline
 70
8
 71
3
 72
8
 73
4
 74
0
 40
0
 40
0
 40
0
 40
0
 40
1
 40
1
 40
1
 40
1
 10
108.632955
 20
141.926151
 30
0.0
 10
108.632955
 20
141.419582
 30
0.0
 10
108.222302
 20
141.008929
 30
0.0
 10
107.715733
 20
141.008929
 30
0.0
  0
SPLINE
  5
158
100
AcDbEntity
  8
Layer2
 62
7
100
AcDbSpline
 70
8
 71
3
 72
8
 73
4
 74
0
 40
0
 40
0
 40
0
 40
0
 40
1
 40
1
 40
1
 40
1
 10
107.715733
 20
141.008929
 30
0.0
 10
107.209164
 20
141.008929
 30
0.0
 10
106.798511
 20
141.419582
 30
0.0
 10
106.798511
 20
141.926151
 30
0.0
  0
SPLINE
  5
159
100
AcDbEntity
  8
Layer2
 62
7
100
AcDbSpline
 70
8
 71
3
 72
8
 73
4
 74
0
 40
0
 40
0
 40
0
 40
0
 40
1
 40
1
 40
1
 40
1
 10
106.798511
 20
141.926151
 30
0.0
 10
106.798511
 20
142.432720
 30
0.0
 10
107.209164
 20
142.843373
 30
0.0
 10
107.715733
 20
142.843373
 30
0.0
  0
LWPOLYLINE
  5
15a
100
AcDbEntity
  8
Layer2
 62
7
100
AcDbPolyline
 90
4
 70
1
 10
120.433925
 20
144.858616
 30
0.0
 10
112.824949
 20
144.858616
 30
0.0
 10
31.093503
 20
144.897752
 30
0.0
 10
31.093503
 20
144.897752
 30
0.0
  0
SPLINE
  5
15b
100
AcDbEntity
  8
Layer2
 62
7
100
AcDbSpline
 70
8
 71
3
 72
8
 73
4
 74
0
 40
0
 40
0
 40
0
 40
0
 40
1
 40
1
 40
1
 40
1
 10
32.243339
 20
142.440986
 30
0.0
 10
32.474843
 20
142.440947
 30
0.0
 10
32.696846
 20
142.348927
 30
0.0
 10
32.860493
 20
142.185177
 30
0.0
  0
SPLINE
  5
15c
100
AcDbEntity
  8
Layer2
 62
7
100
AcDbSpline
 70
8
 71
3
 72
8
 73
4
 74
0
 40
0
 40
0
 40
0
 40
0
 40
1
 40
1
 40
1
 40
1
 10
32.860493
 20
142.185177
 30
0.0
 10
33.024139
 20
142.021427
 30
0.0
 10
33.116018
 20
141.799365
 30
0.0
 10
33.115910
 20
141.567861
 30
0.0
  0
SPLINE
  5
15d
100
AcDbEntity
  8
Layer2
 62
7
100
AcDbSpline
 70
8
 71
3
 72
8
 73
4
 74
0
 40
0
 40
0
 40
0
 40
0
 40
1
 40
1
 40
1
 40
1
 10
33.115910
 20
141.567861
 30
0.0
 10
33.115831
 20
141.085985
 30
0.0
 10
32.725214
 20
140.695368
 30
0.0
 10
32.243339
 20
140.695287
 30
0.0
  0
SPLINE
  5
15e
100
AcDbEntity
  8
Layer2
 62
7
100
AcDbSpline
 70
8
 71
3
 72
8
 73
4
 74
0
 40
0
 40
0
 40
0
 40
0
 40
1
 40
1
 40
1
 40
1
 10
32.243339
 20
140.695287
 30
0.0
 10
31.761462
 20
140.695366
 30
0.0
 10
31.370844
 20
141.085984
 30
0.0
 10
31.370764
 20
141.567861
 30
0.0
  0
SPLINE
  5
15f
100
AcDbEntity
  8
Layer2
 62
7
100
AcDbSpline
 70
8
 71
3
 72
8
 73
4
 74
0
 40
0
 40
0
 40
0
 40
0
 40
1
 40
1
 40
1
 40
1
 10
31.370764
 20
141.567861
 30
0.0
 10
31.370656
 20
141.799366
 30
0.0
 10
31.462535
 20
142.021428
 30
0.0
 10
31.626182
 20
142.185178
 30
0.0
  0
SPLINE
  5
160
100
AcDbEntity
  8
Layer2
 62
7
100
AcDbSpline
 70
8
 71
3
 72
8
 73
4
 74
0
 40
0
 40
0
 40
0
 40
0
 40
1
 40
1
 40
1
 40
1
 10
31.626182
 20
142.185178
 30
0.0
 10
31.789829
 20
142.348928
 30
0.0
 10
32.011834
 20
142.440948
 30
0.0
 10
32.243339
 20
142.440986
 30
0.0
  0
LWPOLYLINE
  5
161
100
AcDbEntity
  8
Layer2
 62
7
100
AcDbPolyline
 90
2
 70
1
 10
107.715733
 20
142.843373
 30
0.0
 10
107.715733
 20
142.843373
 30
0.0
  0
SPLINE
  5
162
100
AcDbEntity
  8
Layer2
 62
7
100
AcDbSpline
 70
8
 71
3
 72
8
 73
4
 74
0
 40
0
 40
0
 40
0
 40
0
 40
1
 40
1
 40
1
 40
1
 10
116.629437
 20
142.440986
 30
0.0
 10
116.860941
 20
142.440947
 30
0.0
 10
117.082945
 20
142.348927
 30
0.0
 10
117.246591
 20
142.185177
 30
0.0
  0
SPLINE
  5
163
100
AcDbEntity
  8
Layer2
 62
7
100
AcDbSpline
 70
8
 71
3
 72
8
 73
4
 74
0
 40
0
 40
0
 40
0
 40
0
 40
1
 40
1
 40
1
 40
1
 10
117.246591
 20
142.185177
 30
0.0
 10
117.410238
 20
142.021427
 30
0.0
 10
117.502117
 20
141.799365
 30
0.0
 10
117.502009
 20
141.567861
 30
0.0
  0
SPLINE
  5
164
100
AcDbEntity
  8
Layer2
 62
7
100
AcDbSpline
 70
8
 71
3
 72
8
 73
4
 74
0
 40
0
 40
0
 40
0
 40
0
 40
1
 40
1
 40
1
 40
1
 10
117.502009
 20
141.567861
 30
0.0
 10
117.501929
 20
141.085985
 30
0.0
 10
117.111312
 20
140.695368
 30
0.0
 10
116.629437
 20
140.695287
 30
0.0
  0
SPLINE
  5
165
100
AcDbEntity
  8
Layer2
 62
7
100
AcDbSpline
 70
8
 71
3
 72
8
 73
4
 74
0
 40
0
 40
0
 40
0
 40
0
 40
1
 40
1
 40
1
 40
1
 10
116.629437
 20
140.695287
 30
0.0
 10
116.397932
 20
140.695179
 30
0.0
 10
116.175870
 20
140.787058
 30
0.0
 10
116.012120
 20
140.950705
 30
0.0
  0
SPLINE
  5
166
100
AcDbEntity
  8
Layer2
 62
7
100
AcDbSpline
 70
8
 71
3
 72
8
 73
4
 74
0
 40
0
 40
0
 40
0
 40
0
 40
1
 40
1
 40
1
 40
1
 10
116.012120
 20
140.950705
 30
0.0
 10
115.848370
 20
141.114352
 30
0.0
 10
115.756350
 20
141.336356
 30
0.0
 10
115.756312
 20
141.567861
 30
0.0
  0
SPLINE
  5
167
100
AcDbEntity
  8
Layer2
 62
7
100
AcDbSpline
 70
8
 71
3
 72
8
 73
4
 74
0
 40
0
 40
0
 40
0
 40
0
 40
1
 40
1
 40
1
 40
1
 10
115.756312
 20
141.567861
 30
0.0
 10
115.756204
 20
141.799461
 30
0.0
 10
115.848159
 20
142.021607
 30
0.0
 10
116.011925
 20
142.185373
 30
0.0
  0
SPLINE
  5
168
100
AcDbEntity
  8
Layer2
 62
7
100
AcDbSpline
 70
8
 71
3
 72
8
 73
4
 74
0
 40
0
 40
0
 40
0
 40
0
 40
1
 40
1
 40
1
 40
1
 10
116.011925
 20
142.185373
 30
0.0
 10
116.175691
 20
142.349139
 30
0.0
 10
116.397837
 20
142.441094
 30
0.0
 10
116.629437
 20
142.440986
 30
0.0
  0
LWPOLYLINE
  5
169
100
AcDbEntity
  8
Layer2
 62
7
100
AcDbPolyline
 90
2
 70
1
 10
32.243339
 20
142.440986
 30
0.0
 10
32.243339
 20
142.440986
 30
0.0
  0
LWPOLYLINE
  5
16a
100
AcDbEntity
  8
Layer2
 62
7
100
AcDbPolyline
 90
2
 70
1
 10
116.629437
 20
142.440986
 30
0.0
 10
116.629437
 20
142.440986
 30
0.0
  0
SPLINE
  5
16b
100
AcDbEntity
  8
Layer2
 62
7
100
AcDbSpline
 70
8
 71
3
 72
8
 73
4
 74
0
 40
0
 40
0
 40
0
 40
0
 40
1
 40
1
 40
1
 40
1
 10
33.356793
 20
138.294744
 30
0.0
 10
33.814797
 20
138.353593
 30
0.0
 10
34.211839
 20
138.574918
 30
0.0
 10
34.475759
 20
138.892262
 30
0.0
  0
LWPOLYLINE
  5
16c
100
AcDbEntity
  8
Layer2
 62
7
100
AcDbPolyline
 90
6
 70
1
 10
38.892647
 20
142.006628
 30
0.0
 10
57.835159
 20
142.006628
 30
0.0
 10
57.835159
 20
115.575306
 30
0.0
 10
14.012444
 20
122.458881
 30
0.0
 10
14.012444
 20
127.973790
 30
0.0
 10
33.356793
 20
138.294744
 30
0.0
  0
LWPOLYLINE
  5
16d
100
AcDbEntity
  8
Layer2
 62
7
100
AcDbPolyline
 90
4
 70
1
 10
34.475759
 20
138.892262
 30
0.0
 10
34.698452
 20
139.010773
 30
0.0
 10
38.892647
 20
142.006628
 30
0.0
 10
38.892647
 20
142.006628
 30
0.0
  0
SPLINE
  5
16e
100
AcDbEntity
  8
Layer2
 62
7
100
AcDbSpline
 70
8
 71
3
 72
8
 73
4
 74
0
 40
0
 40
0
 40
0
 40
0
 40
1
 40
1
 40
1
 40
1
 10
7.332266
 20
125.298191
 30
0.0
 10
7.814142
 20
125.298111
 30
0.0
 10
8.204760
 20
124.907493
 30
0.0
 10
8.204840
 20
124.425617
 30
0.0
  0
SPLINE
  5
16f
100
AcDbEntity
  8
Layer2
 62
7
100
AcDbSpline
 70
8
 71
3
 72
8
 73
4
 74
0
 40
0
 40
0
 40
0
 40
0
 40
1
 40
1
 40
1
 40
1
 10
8.204840
 20
124.425617
 30
0.0
 10
8.204948
 20
124.194112
 30
0.0
 10
8.113068
 20
123.972050
 30
0.0
 10
7.949421
 20
123.808300
 30
0.0
  0
SPLINE
  5
170
100
AcDbEntity
  8
Layer2
 62
7
100
AcDbSpline
 70
8
 71
3
 72
8
 73
4
 74
0
 40
0
 40
0
 40
0
 40
0
 40
1
 40
1
 40
1
 40
1
 10
7.949421
 20
123.808300
 30
0.0
 10
7.785774
 20
123.644550
 30
0.0
 10
7.563770
 20
123.552530
 30
0.0
 10
7.332266
 20
123.552492
 30
0.0
  0
SPLINE
  5
171
100
AcDbEntity
  8
Layer2
 62
7
100
AcDbSpline
 70
8
 71
3
 72
8
 73
4
 74
0
 40
0
 40
0
 40
0
 40
0
 40
1
 40
1
 40
1
 40
1
 10
7.332266
 20
123.552492
 30
0.0
 10
7.100761
 20
123.552530
 30
0.0
 10
6.878757
 20
123.644550
 30
0.0
 10
6.715110
 20
123.808300
 30
0.0
  0
SPLINE
  5
172
100
AcDbEntity
  8
Layer2
 62
7
100
AcDbSpline
 70
8
 71
3
 72
8
 73
4
 74
0
 40
0
 40
0
 40
0
 40
0
 40
1
 40
1
 40
1
 40
1
 10
6.715110
 20
123.808300
 30
0.0
 10
6.551463
 20
123.972050
 30
0.0
 10
6.459584
 20
124.194112
 30
0.0
 10
6.459692
 20
124.425617
 30
0.0
  0
SPLINE
  5
173
100
AcDbEntity
  8
Layer2
 62
7
100
AcDbSpline
 70
8
 71
3
 72
8
 73
4
 74
0
 40
0
 40
0
 40
0
 40
0
 40
1
 40
1
 40
1
 40
1
 10
6.459692
 20
124.425617
 30
0.0
 10
6.459771
 20
124.907493
 30
0.0
 10
6.850389
 20
125.298111
 30
0.0
 10
7.332266
 20
125.298191
 30
0.0
  0
LWPOLYLINE
  5
174
100
AcDbEntity
  8
Layer2
 62
7
100
AcDbPolyline
 90
12
 70
1
 10
61.532160
 20
142.006628
 30
0.0
 10
102.339180
 20
142.006628
 30
0.0
 10
118.482070
 20
131.002718
 30
0.0
 10
118.482070
 20
102.586468
 30
0.0
 10
111.990409
 20
95.310427
 30
0.0
 10
112.220265
 20
89.872137
 30
0.0
 10
115.092647
 20
79.493855
 30
0.0
 10
112.909285
 20
62.351610
 30
0.0
 10
67.568521
 20
62.351610
 30
0.0
 10
61.532160
 20
110.654606
 30
0.0
 10
61.532160
 20
142.006628
 30
0.0
 10
61.532160
 20
142.006628
 30
0.0
  0
SPLINE
  5
175
100
AcDbEntity
  8
Layer2
 62
7
100
AcDbSpline
 70
8
 71
3
 72
8
 73
4
 74
0
 40
0
 40
0
 40
0
 40
0
 40
1
 40
1
 40
1
 40
1
 10
114.066836
 20
94.608729
 30
0.0
 10
114.515573
 20
94.608754
 30
0.0
 10
114.879354
 20
94.244973
 30
0.0
 10
114.879326
 20
93.796237
 30
0.0
  0
SPLINE
  5
176
100
AcDbEntity
  8
Layer2
 62
7
100
AcDbSpline
 70
8
 71
3
 72
8
 73
4
 74
0
 40
0
 40
0
 40
0
 40
0
 40
1
 40
1
 40
1
 40
1
 10
114.879326
 20
93.796237
 30
0.0
 10
114.879049
 20
93.347715
 30
0.0
 10
114.515358
 20
92.984272
 30
0.0
 10
114.066836
 20
92.984297
 30
0.0
  0
SPLINE
  5
177
100
AcDbEntity
  8
Layer2
 62
7
100
AcDbSpline
 70
8
 71
3
 72
8
 73
4
 74
0
 40
0
 40
0
 40
0
 40
0
 40
1
 40
1
 40
1
 40
1
 10
114.066836
 20
92.984297
 30
0.0
 10
113.618315
 20
92.984269
 30
0.0
 10
113.254621
 20
93.347715
 30
0.0
 10
113.254344
 20
93.796237
 30
0.0
  0
SPLINE
  5
178
100
AcDbEntity
  8
Layer2
 62
7
100
AcDbSpline
 70
8
 71
3
 72
8
 73
4
 74
0
 40
0
 40
0
 40
0
 40
0
 40
1
 40
1
 40
1
 40
1
 10
113.254344
 20
93.796237
 30
0.0
 10
113.254316
 20
94.244976
 30
0.0
 10
113.618097
 20
94.608757
 30
0.0
 10
114.066836
 20
94.608729
 30
0.0
  0
LWPOLYLINE
  5
179
100
AcDbEntity
  8
Layer2
 62
7
100
AcDbPolyline
 90
2
 70
1
 10
7.332266
 20
125.298191
 30
0.0
 10
7.332266
 20
125.298191
 30
0.0
  0
SPLINE
  5
17a
100
AcDbEntity
  8
Layer2
 62
7
100
AcDbSpline
 70
8
 71
3
 72
8
 73
4
 74
0
 40
0
 40
0
 40
0
 40
0
 40
1
 40
1
 40
1
 40
1
 10
81.146055
 20
60.202422
 30
0.0
 10
81.561186
 20
60.202307
 30
0.0
 10
81.897593
 20
59.856522
 30
0.0
 10
81.897361
 20
59.430169
 30
0.0
  0
SPLINE
  5
17b
100
AcDbEntity
  8
Layer2
 62
7
100
AcDbSpline
 70
8
 71
3
 72
8
 73
4
 74
0
 40
0
 40
0
 40
0
 40
0
 40
1
 40
1
 40
1
 40
1
 10
81.897361
 20
59.430169
 30
0.0
 10
81.897296
 20
59.004033
 30
0.0
 10
81.560978
 20
58.658585
 30
0.0
 10
81.146055
 20
58.658469
 30
0.0
  0
SPLINE
  5
17c
100
AcDbEntity
  8
Layer2
 62
7
100
AcDbSpline
 70
8
 71
3
 72
8
 73
4
 74
0
 40
0
 40
0
 40
0
 40
0
 40
1
 40
1
 40
1
 40
1
 10
81.146055
 20
58.658469
 30
0.0
 10
80.730917
 20
58.658272
 30
0.0
 10
80.394262
 20
59.003813
 30
0.0
 10
80.394198
 20
59.430169
 30
0.0
  0
SPLINE
  5
17d
100
AcDbEntity
  8
Layer2
 62
7
100
AcDbSpline
 70
8
 71
3
 72
8
 73
4
 74
0
 40
0
 40
0
 40
0
 40
0
 40
1
 40
1
 40
1
 40
1
 10
80.394198
 20
59.430169
 30
0.0
 10
80.393963
 20
59.856743
 30
0.0
 10
80.730708
 20
60.202620
 30
0.0
 10
81.146055
 20
60.202422
 30
0.0
  0
LWPOLYLINE
  5
17e
100
AcDbEntity
  8
Layer2
 62
7
100
AcDbPolyline
 90
2
 70
1
 10
114.066836
 20
94.608729
 30
0.0
 10
114.066836
 20
94.608729
 30
0.0
  0
LWPOLYLINE
  5
17f
100
AcDbEntity
  8
Layer2
 62
7
100
AcDbPolyline
 90
2
 70
1
 10
81.146055
 20
60.202422
 30
0.0
 10
81.146055
 20
60.202422
 30
0.0
  0
LWPOLYLINE
  5
180
100
AcDbEntity
  8
Layer2
 62
7
100
AcDbPolyline
 90
6
 70
1
 10
71.121103
 20
56.951355
 30
0.0
 10
102.947171
 20
56.951355
 30
0.0
 10
102.028295
 20
16.104650
 30
0.0
 10
100.304645
 20
16.104650
 30
0.0
 10
71.121103
 20
56.951355
 30
0.0
 10
71.121103
 20
56.951355
 30
0.0
  0
SPLINE
  5
181
100
AcDbEntity
  8
Layer2
 62
7
100
AcDbSpline
 70
8
 71
3
 72
8
 73
4
 74
0
 40
0
 40
0
 40
0
 40
0
 40
1
 40
1
 40
1
 40
1
 10
105.015329
 20
32.900180
 30
0.0
 10
105.497421
 20
32.900406
 30
0.0
 10
105.888375
 20
32.509697
 30
0.0
 10
105.888454
 20
32.027605
 30
0.0
  0
SPLINE
  5
182
100
AcDbEntity
  8
Layer2
 62
7
100
AcDbSpline
 70
8
 71
3
 72
8
 73
4
 74
0
 40
0
 40
0
 40
0
 40
0
 40
1
 40
1
 40
1
 40
1
 10
105.888454
 20
32.027605
 30
0.0
 10
105.888680
 20
31.545299
 30
0.0
 10
105.497636
 20
31.154254
 30
0.0
 10
105.015329
 20
31.154480
 30
0.0
  0
SPLINE
  5
183
100
AcDbEntity
  8
Layer2
 62
7
100
AcDbSpline
 70
8
 71
3
 72
8
 73
4
 74
0
 40
0
 40
0
 40
0
 40
0
 40
1
 40
1
 40
1
 40
1
 10
105.015329
 20
31.154480
 30
0.0
 10
104.533237
 20
31.154562
 30
0.0
 10
104.142532
 20
31.545513
 30
0.0
 10
104.142757
 20
32.027605
 30
0.0
  0
SPLINE
  5
184
100
AcDbEntity
  8
Layer2
 62
7
100
AcDbSpline
 70
8
 71
3
 72
8
 73
4
 74
0
 40
0
 40
0
 40
0
 40
0
 40
1
 40
1
 40
1
 40
1
 10
104.142757
 20
32.027605
 30
0.0
 10
104.142836
 20
32.509480
 30
0.0
 10
104.533454
 20
32.900098
 30
0.0
 10
105.015329
 20
32.900180
 30
0.0
  0
LWPOLYLINE
  5
185
100
AcDbEntity
  8
Layer2
 62
7
100
AcDbPolyline
 90
6
 70
1
 10
107.083490
 20
56.951355
 30
0.0
 10
113.173315
 20
56.951355
 30
0.0
 10
108.807140
 20
16.104650
 30
0.0
 10
106.738979
 20
16.104650
 30
0.0
 10
107.083490
 20
56.951355
 30
0.0
 10
107.083490
 20
56.951355
 30
0.0
  0
SPLINE
  5
186
100
AcDbEntity
  8
Layer2
 62
7
100
AcDbSpline
 70
8
 71
3
 72
8
 73
4
 74
0
 40
0
 40
0
 40
0
 40
0
 40
1
 40
1
 40
1
 40
1
 10
105.015329
 20
13.673238
 30
0.0
 10
105.246834
 20
13.673346
 30
0.0
 10
105.468895
 20
13.581467
 30
0.0
 10
105.632645
 20
13.417820
 30
0.0
  0
SPLINE
  5
187
100
AcDbEntity
  8
Layer2
 62
7
100
AcDbSpline
 70
8
 71
3
 72
8
 73
4
 74
0
 40
0
 40
0
 40
0
 40
0
 40
1
 40
1
 40
1
 40
1
 10
105.632645
 20
13.417820
 30
0.0
 10
105.796396
 20
13.254174
 30
0.0
 10
105.888415
 20
13.032170
 30
0.0
 10
105.888454
 20
12.800666
 30
0.0
  0
SPLINE
  5
188
100
AcDbEntity
  8
Layer2
 62
7
100
AcDbSpline
 70
8
 71
3
 72
8
 73
4
 74
0
 40
0
 40
0
 40
0
 40
0
 40
1
 40
1
 40
1
 40
1
 10
105.888454
 20
12.800666
 30
0.0
 10
105.888416
 20
12.569161
 30
0.0
 10
105.796397
 20
12.347157
 30
0.0
 10
105.632646
 20
12.183510
 30
0.0
  0
SPLINE
  5
189
100
AcDbEntity
  8
Layer2
 62
7
100
AcDbSpline
 70
8
 71
3
 72
8
 73
4
 74
0
 40
0
 40
0
 40
0
 40
0
 40
1
 40
1
 40
1
 40
1
 10
105.632646
 20
12.183510
 30
0.0
 10
105.468896
 20
12.019863
 30
0.0
 10
105.246834
 20
11.927983
 30
0.0
 10
105.015329
 20
11.928091
 30
0.0
  0
SPLINE
  5
18a
100
AcDbEntity
  8
Layer2
 62
7
100
AcDbSpline
 70
8
 71
3
 72
8
 73
4
 74
0
 40
0
 40
0
 40
0
 40
0
 40
1
 40
1
 40
1
 40
1
 10
105.015329
 20
11.928091
 30
0.0
 10
104.533453
 20
11.928172
 30
0.0
 10
104.142836
 20
12.318790
 30
0.0
 10
104.142757
 20
12.800666
 30
0.0
  0
SPLINE
  5
18b
100
AcDbEntity
  8
Layer2
 62
7
100
AcDbSpline
 70
8
 71
3
 72
8
 73
4
 74
0
 40
0
 40
0
 40
0
 40
0
 40
1
 40
1
 40
1
 40
1
 10
104.142757
 20
12.800666
 30
0.0
 10
104.142838
 20
13.282541
 30
0.0
 10
104.533454
 20
13.673157
 30
0.0
 10
105.015329
 20
13.673238
 30
0.0
  0
LWPOLYLINE
  5
18c
100
AcDbEntity
  8
Layer2
 62
7
100
AcDbPolyline
 90
2
 70
1
 10
105.015329
 20
32.900180
 30
0.0
 10
105.015329
 20
32.900180
 30
0.0
  0
SPLINE
  5
18d
100
AcDbEntity
  8
Layer2
 62
7
100
AcDbSpline
 70
8
 71
3
 72
8
 73
4
 74
0
 40
0
 40
0
 40
0
 40
0
 40
1
 40
1
 40
1
 40
1
 10
106.592356
 20
5.687232
 30
0.0
 10
107.007488
 20
5.687430
 30
0.0
 10
107.344139
 20
5.341882
 30
0.0
 10
107.344216
 20
4.915529
 30
0.0
  0
SPLINE
  5
18e
100
AcDbEntity
  8
Layer2
 62
7
100
AcDbSpline
 70
8
 71
3
 72
8
 73
4
 74
0
 40
0
 40
0
 40
0
 40
0
 40
1
 40
1
 40
1
 40
1
 10
107.344216
 20
4.915529
 30
0.0
 10
107.344458
 20
4.488950
 30
0.0
 10
107.007711
 20
4.143079
 30
0.0
 10
106.592356
 20
4.143276
 30
0.0
  0
SPLINE
  5
18f
100
AcDbEntity
  8
Layer2
 62
7
100
AcDbSpline
 70
8
 71
3
 72
8
 73
4
 74
0
 40
0
 40
0
 40
0
 40
0
 40
1
 40
1
 40
1
 40
1
 10
106.592356
 20
4.143276
 30
0.0
 10
106.177215
 20
4.143389
 30
0.0
 10
105.840807
 20
4.489176
 30
0.0
 10
105.841049
 20
4.915529
 30
0.0
  0
SPLINE
  5
190
100
AcDbEntity
  8
Layer2
 62
7
100
AcDbSpline
 70
8
 71
3
 72
8
 73
4
 74
0
 40
0
 40
0
 40
0
 40
0
 40
1
 40
1
 40
1
 40
1
 10
105.841049
 20
4.915529
 30
0.0
 10
105.841125
 20
5.341657
 30
0.0
 10
106.177441
 20
5.687119
 30
0.0
 10
106.592356
 20
5.687232
 30
0.0
  0
LWPOLYLINE
  5
191
100
AcDbEntity
  8
Layer2
 62
7
100
AcDbPolyline
 90
2
 70
1
 10
105.015329
 20
13.673238
 30
0.0
 10
105.015329
 20
13.673238
 30
0.0
  0
LWPOLYLINE
  5
192
100
AcDbEntity
  8
Layer2
 62
7
100
AcDbPolyline
 90
2
 70
1
 10
106.592356
 20
5.687232
 30
0.0
 10
106.592356
 20
5.687232
 30
0.0
  0
LWPOLYLINE
  5
193
100
AcDbEntity
  8
Arduino+Raspberry
 62
7
100
AcDbPolyline
 90
5
 70
1
 10
17.600574
 20
144.441305
 30
0.0
 10
119.196578
 20
144.441305
 30
0.0
 10
119.196578
 20
91.292460
 30
0.0
 10
17.600574
 20
91.292460
 30
0.0
 10
17.600574
 20
144.441305
 30
0.0
  0
LWPOLYLINE
  5
194
100
AcDbEntity
  8
Arduino+Raspberry
 62
1
100
AcDbPolyline
 90
5
 70
1
 10
76.938327
 20
99.442950
 30
0.0
 10
106.267501
 20
99.442950
 30
0.0
 10
106.267501
 20
84.737741
 30
0.0
 10
76.938327
 20
84.737741
 30
0.0
 10
76.938327
 20
99.442950
 30
0.0
  0
ENDSEC
  0
SECTION
  2
OBJECTS
  0
DICTIONARY
  5
C
330
0
100
AcDbDictionary
  3
ACAD_GROUP
350
D
  3
ACAD_MLINESTYLE
350
17
  0
DICTIONARY
  5
D
330
C
100
AcDbDictionary
  0
DICTIONARY
  5
1A
330
C
100
AcDbDictionary
  0
DICTIONARY
  5
17
330
C
100
AcDbDictionary
  3
STANDARD
350
18
  0
DICTIONARY
  5
19
330
C
100
AcDbDictionary
  0
ENDSEC
  0
EOF
