  0
SECTION
  2
HEADER
  9
$ACADVER
  1
AC1014
  9
$HANDSEED
  5
FFFF
  9
$MEASUREMENT
 70
     1
  0
ENDSEC
  0
SECTION
  2
TABLES
  0
TABLE
  2
VPORT
  5
8
330
0
100
AcDbSymbolTable
 70
     4
  0
VPORT
  5
2E
330
8
100
AcDbSymbolTableRecord
100
AcDbViewportTableRecord
  2
*ACTIVE
 70
     0
 10
0.0
 20
0.0
 11
1.0
 21
1.0
 12
210.0
 22
148.5
 13
0.0
 23
0.0
 14
10.0
 24
10.0
 15
10.0
 25
10.0
 16
0.0
 26
0.0
 36
1.0
 17
0.0
 27
0.0
 37
0.0
 40
341.0
 41
1.24
 42
50.0
 43
0.0
 44
0.0
 50
0.0
 51
0.0
 71
     0
 72
   100
 73
     1
 74
     3
 75
     0
 76
     0
 77
     0
 78
     0
  0
ENDTAB
  0
TABLE
  2
LTYPE
  5
5
330
0
100
AcDbSymbolTable
 70
     1
  0
LTYPE
  5
14
330
5
100
AcDbSymbolTableRecord
100
AcDbLinetypeTableRecord
  2
BYBLOCK
 70
     0
  3

 72
    65
 73
     0
 40
0.0
  0
LTYPE
  5
15
330
5
100
AcDbSymbolTableRecord
100
AcDbLinetypeTableRecord
  2
BYLAYER
 70
     0
  3

 72
    65
 73
     0
 40
0.0
  0
LTYPE
  5
16
330
5
100
AcDbSymbolTableRecord
100
AcDbLinetypeTableRecord
  2
CONTINUOUS
 70
     0
  3
Solid line
 72
    65
 73
     0
 40
0.0
  0
ENDTAB
  0
TABLE
  2
LAYER
  5
2
100
AcDbSymbolTable
 70
2
  0
LAYER
  5
50
100
AcDbSymbolTableRecord
100
AcDbLayerTableRecord
  2
0
 70
0
  6
CONTINUOUS
  0
LAYER
  5
51
100
AcDbSymbolTableRecord
100
AcDbLayerTableRecord
  2
Ebene_1
 70
0
  6
CONTINUOUS
  0
ENDTAB
  0
TABLE
  2
STYLE
  5
3
330
0
100
AcDbSymbolTable
 70
     1
  0
STYLE
  5
11
330
3
100
AcDbSymbolTableRecord
100
AcDbTextStyleTableRecord
  2
STANDARD
 70
     0
 40
0.0
 41
1.0
 50
0.0
 71
     0
 42
2.5
  3
txt
  4

  0
ENDTAB
  0
TABLE
  2
VIEW
  5
6
330
0
100
AcDbSymbolTable
 70
     0
  0
ENDTAB
  0
TABLE
  2
UCS
  5
7
330
0
100
AcDbSymbolTable
 70
     0
  0
ENDTAB
  0
TABLE
  2
APPID
  5
9
330
0
100
AcDbSymbolTable
 70
     2
  0
APPID
  5
12
330
9
100
AcDbSymbolTableRecord
100
AcDbRegAppTableRecord
  2
ACAD
 70
     0
  0
ENDTAB
  0
TABLE
  2
DIMSTYLE
  5
A
330
0
100
AcDbSymbolTable
 70
     1
  0
DIMSTYLE
105
27
330
A
100
AcDbSymbolTableRecord
100
AcDbDimStyleTableRecord
  2
ISO-25
 70
     0
  3

  4

  5

  6

  7

 40
1.0
 41
2.5
 42
0.625
 43
3.75
 44
1.25
 45
0.0
 46
0.0
 47
0.0
 48
0.0
140
2.5
141
2.5
142
0.0
143
0.03937007874016
144
1.0
145
0.0
146
1.0
147
0.625
 71
     0
 72
     0
 73
     0
 74
     0
 75
     0
 76
     0
 77
     1
 78
     8
170
     0
171
     3
172
     1
173
     0
174
     0
175
     0
176
     0
177
     0
178
     0
270
     2
271
     2
272
     2
273
     2
274
     3
340
11
275
     0
280
     0
281
     0
282
     0
283
     0
284
     8
285
     0
286
     0
287
     3
288
     0
  0
ENDTAB
  0
TABLE
  2
BLOCK_RECORD
  5
1
330
0
100
AcDbSymbolTable
 70
     1
  0
BLOCK_RECORD
  5
1F
330
1
100
AcDbSymbolTableRecord
100
AcDbBlockTableRecord
  2
*MODEL_SPACE
  0
BLOCK_RECORD
  5
1B
330
1
100
AcDbSymbolTableRecord
100
AcDbBlockTableRecord
  2
*PAPER_SPACE
  0
ENDTAB
  0
ENDSEC
  0
SECTION
  2
BLOCKS
  0
BLOCK
  5
20
330
1F
100
AcDbEntity
  8
0
100
AcDbBlockBegin
  2
*MODEL_SPACE
 70
     0
 10
0.0
 20
0.0
 30
0.0
  3
*MODEL_SPACE
  1

  0
ENDBLK
  5
21
330
1F
100
AcDbEntity
  8
0
100
AcDbBlockEnd
  0
BLOCK
  5
1C
330
1B
100
AcDbEntity
 67
     1
  8
0
100
AcDbBlockBegin
  2
*PAPER_SPACE
  1

  0
ENDBLK
  5
1D
330
1B
100
AcDbEntity
 67
     1
  8
0
100
AcDbBlockEnd
  0
ENDSEC
  0
SECTION
  2
ENTITIES
  0
LWPOLYLINE
  5
100
100
AcDbEntity
  8
Ebene_1
 62
7
100
AcDbPolyline
 90
33
 70
0
 10
32.712973
 20
144.857512
 30
0.0
 10
31.943836
 20
144.774906
 30
0.0
 10
31.218053
 20
144.505048
 30
0.0
 10
30.577722
 20
144.069669
 30
0.0
 10
30.064936
 20
143.490498
 30
0.0
 10
29.777682
 20
142.956734
 30
0.0
 10
29.599207
 20
142.377216
 30
0.0
 10
29.534127
 20
141.774342
 30
0.0
 10
29.587052
 20
141.170508
 30
0.0
 10
29.759402
 20
140.589375
 30
0.0
 10
30.041170
 20
140.052436
 30
0.0
 10
30.419853
 20
139.578836
 30
0.0
 10
30.882937
 20
139.187713
 30
0.0
 10
31.414841
 20
138.896784
 30
0.0
 10
31.993253
 20
138.714359
 30
0.0
 10
32.595797
 20
138.645206
 30
0.0
 10
33.200094
 20
138.694092
 30
0.0
 10
33.782477
 20
138.862596
 30
0.0
 10
34.321377
 20
139.140850
 30
0.0
 10
34.797560
 20
139.516465
 30
0.0
 10
35.191787
 20
139.977055
 30
0.0
 10
35.486179
 20
140.507037
 30
0.0
 10
35.672370
 20
141.084235
 30
0.0
 10
35.745451
 20
141.686300
 30
0.0
 10
35.700504
 20
142.290887
 30
0.0
 10
35.535805
 20
142.874342
 30
0.0
 10
35.261070
 20
143.415035
 30
0.0
 10
34.888568
 20
143.893647
 30
0.0
 10
34.430561
 20
144.290864
 30
0.0
 10
34.362760
 20
144.337165
 30
0.0
 10
33.574558
 20
144.713672
 30
0.0
 10
32.712973
 20
144.857512
 30
0.0
 10
32.712973
 20
144.857512
 30
0.0
  0
LWPOLYLINE
  5
101
100
AcDbEntity
  8
Ebene_1
 62
7
100
AcDbPolyline
 90
14
 70
0
 10
9.586736
 20
115.285365
 30
0.0
 10
6.780499
 20
115.285365
 30
0.0
 10
6.116443
 20
115.151987
 30
0.0
 10
5.575362
 20
114.787798
 30
0.0
 10
5.211173
 20
114.246717
 30
0.0
 10
5.077795
 20
113.582662
 30
0.0
 10
5.077795
 20
105.695321
 30
0.0
 10
5.211173
 20
105.031266
 30
0.0
 10
5.575362
 20
104.490185
 30
0.0
 10
6.116443
 20
104.125996
 30
0.0
 10
6.780499
 20
103.992618
 30
0.0
 10
9.586736
 20
103.992618
 30
0.0
 10
9.586736
 20
115.285365
 30
0.0
 10
9.586736
 20
115.285365
 30
0.0
  0
LWPOLYLINE
  5
102
100
AcDbEntity
  8
Ebene_1
 62
7
100
AcDbPolyline
 90
14
 70
0
 10
101.687091
 20
147.848408
 30
0.0
 10
101.022950
 20
147.714944
 30
0.0
 10
100.481679
 20
147.350566
 30
0.0
 10
100.117302
 20
146.809295
 30
0.0
 10
99.983838
 20
146.145152
 30
0.0
 10
99.983838
 20
144.482687
 30
0.0
 10
110.123441
 20
144.482687
 30
0.0
 10
110.123441
 20
146.145152
 30
0.0
 10
109.990063
 20
146.809295
 30
0.0
 10
109.625875
 20
147.350566
 30
0.0
 10
109.084794
 20
147.714944
 30
0.0
 10
108.420738
 20
147.848408
 30
0.0
 10
101.687091
 20
147.848408
 30
0.0
 10
101.687091
 20
147.848408
 30
0.0
  0
LWPOLYLINE
  5
103
100
AcDbEntity
  8
Ebene_1
 62
7
100
AcDbPolyline
 90
5
 70
0
 10
99.902704
 20
34.986059
 30
0.0
 10
110.128513
 20
34.986059
 30
0.0
 10
110.128513
 20
29.068877
 30
0.0
 10
99.902704
 20
29.068877
 30
0.0
 10
99.902704
 20
34.986059
 30
0.0
  0
ENDSEC
  0
SECTION
  2
OBJECTS
  0
DICTIONARY
  5
C
330
0
100
AcDbDictionary
  3
ACAD_GROUP
350
D
  3
ACAD_MLINESTYLE
350
17
  0
DICTIONARY
  5
D
330
C
100
AcDbDictionary
  0
DICTIONARY
  5
1A
330
C
100
AcDbDictionary
  0
DICTIONARY
  5
17
330
C
100
AcDbDictionary
  3
STANDARD
350
18
  0
DICTIONARY
  5
19
330
C
100
AcDbDictionary
  0
ENDSEC
  0
EOF
