<?xml version="1.0" encoding="UTF-8" standalone="no"?>
<!-- Created with Inkscape (http://www.inkscape.org/) -->

<svg
   xmlns:dc="http://purl.org/dc/elements/1.1/"
   xmlns:cc="http://creativecommons.org/ns#"
   xmlns:rdf="http://www.w3.org/1999/02/22-rdf-syntax-ns#"
   xmlns:svg="http://www.w3.org/2000/svg"
   xmlns="http://www.w3.org/2000/svg"
   xmlns:sodipodi="http://sodipodi.sourceforge.net/DTD/sodipodi-0.dtd"
   xmlns:inkscape="http://www.inkscape.org/namespaces/inkscape"
   width="439.37006"
   height="524.40942"
   id="svg2"
   version="1.1"
   inkscape:version="0.91 r13725"
   sodipodi:docname="Anordnung V1_Layer2V2.svg">
  <defs
     id="defs4" />
  <sodipodi:namedview
     id="base"
     pagecolor="#ffffff"
     bordercolor="#666666"
     borderopacity="1.0"
     inkscape:pageopacity="0.0"
     inkscape:pageshadow="2"
     inkscape:zoom="2.4563122"
     inkscape:cx="320.51664"
     inkscape:cy="239.60122"
     inkscape:document-units="px"
     inkscape:current-layer="layer1"
     showgrid="false"
     units="mm"
     showguides="true"
     inkscape:guide-bbox="true"
     inkscape:window-width="1920"
     inkscape:window-height="1025"
     inkscape:window-x="-2"
     inkscape:window-y="-3"
     inkscape:window-maximized="1" />
  <metadata
     id="metadata7">
    <rdf:RDF>
      <cc:Work
         rdf:about="">
        <dc:format>image/svg+xml</dc:format>
        <dc:type
           rdf:resource="http://purl.org/dc/dcmitype/StillImage" />
        <dc:title />
      </cc:Work>
    </rdf:RDF>
  </metadata>
  <g
     inkscape:label="Ebene 1"
     inkscape:groupmode="layer"
     id="layer1"
     transform="translate(0,-527.95274)">
    <path
       style="fill:#c4c4ff;fill-opacity:0.5138122;stroke:#000000;stroke-width:0.49999997;stroke-miterlimit:4;stroke-dasharray:none;stroke-opacity:1"
       d="m 360.25586,0.58789062 c -3.34285,0 -6.0332,2.69035318 -6.0332,6.03320318 l 0,127.7851562 c -0.2505,0.18312 -0.49417,0.38088 -0.72071,0.60742 0,0 -97.13914,3.54495 -145.61914,1.10938 -58.21805,-2.9248 -173.855466,-18.85157 -173.855466,-18.85157 -0.708189,-0.45379 -1.474407,-0.72724 -2.251953,-0.85937 -0.621641,-0.21534 -1.285699,-0.33789 -1.982422,-0.33789 l -5.845703,0 c -3.342852,0 -6.035157,2.69035 -6.035157,6.0332 l 0,27.625 c 0,3.34285 2.692305,6.03516 6.035157,6.03516 l 3.662109,0 151.894535,97.0664 c 0,0 13.77169,-3.01386 28.10937,7.82618 19.89089,15.03856 25.51758,39.49218 25.51758,39.49218 l 121.0918,80.3711 0,110.88281 c 0,15.6918 0.20898,6.17921 0.20898,22.19531 0,3.3428 2.69035,6.03321 6.0332,6.03321 12.74803,0.1229 10.80659,0.20703 23.59961,0.20703 3.34285,0 6.03321,-2.69041 6.03321,-6.03321 l 0,-132.52539 c 0,0 17.77214,-67.5823 21.30273,-87.5664 4.31304,-24.41297 8.65501,-115.27884 -0.57617,-138.28711 -3.75263,-9.35326 -20.72656,-22.01172 -20.72656,-22.01172 l 0,-126.7968762 c 0,-3.34285 -2.69036,-6.03320318 -6.03321,-6.03320318 z m 11.98242,2.82031248 c 1.70744,2.8e-4 3.09152,1.3843569 3.0918,3.0917969 -2.8e-4,1.70744 -1.38436,3.0915169 -3.0918,3.0917969 -1.7082,8e-4 -3.09347,-1.3835969 -3.09375,-3.0917969 2.8e-4,-1.7082 1.38555,-3.0925969 3.09375,-3.0917969 z m 9.43164,14.8632809 c 1.79493,0 3.25,1.45507 3.25,3.25 0,1.79493 -1.45507,3.25 -3.25,3.25 -1.79493,0 -3.25,-1.45507 -3.25,-3.25 0,-1.79493 1.45507,-3.25 3.25,-3.25 z M 25.980469,132.83203 c 1.708198,2.8e-4 3.092594,1.38555 3.091797,3.09375 -2.8e-4,1.70744 -1.38436,3.09152 -3.091797,3.0918 -1.707437,-2.8e-4 -3.091517,-1.38436 -3.091797,-3.0918 -7.97e-4,-1.7082 1.383599,-3.09347 3.091797,-3.09375 z m 79.548831,32.98438 275.8164,0 0,135.27539 c -10.98401,15.70417 -13.25819,16.11549 -27.12304,38.86328 l -61.25779,-42.00781 -20.60354,-0.0879 -0.14453,-14.03321 z m 5.60547,23.04297 c 1.79493,0 3.25,1.45506 3.25,3.25 0,1.79492 -1.45507,3.25 -3.25,3.25 -1.79493,0 -3.25,-1.45508 -3.25,-3.25 0,-1.79494 1.45507,-3.25 3.25,-3.25 z m 293.03906,0.32226 c 1.59001,-9e-5 2.879,1.2889 2.8789,2.87891 -9.8e-4,1.58925 -1.28965,2.87704 -2.8789,2.87695 -1.58925,1e-4 -2.87793,-1.2877 -2.87891,-2.87695 -10e-5,-1.59002 1.28889,-2.87901 2.87891,-2.87891 z m -155.90644,94.2168 9.50781,0 c 3.34285,0 6.03516,2.69035 6.03516,6.0332 l 0,3.80859 c 0,3.34286 -2.69231,6.03516 -6.03516,6.03516 l -9.50781,0 c -3.34286,0 -6.03516,-2.6923 -6.03516,-6.03516 l 0,-3.80859 c 0,-3.34285 2.6923,-6.0332 6.03516,-6.0332 z m 39.258,27.69531 c 1.47094,4.1e-4 2.66293,1.22563 2.66211,2.73633 -2.3e-4,1.50993 -1.19191,2.73396 -2.66211,2.73437 -1.47096,7e-4 -2.66383,-1.22366 -2.66406,-2.73437 -8.3e-4,-1.51148 1.19236,-2.73703 2.66406,-2.73633 z m 84.57617,96.74023 c 1.7082,-8e-4 3.09347,1.3836 3.09375,3.0918 8e-4,1.70896 -1.38479,3.09455 -3.09375,3.09375 -1.7082,-2.9e-4 -3.09259,-1.38555 -3.09179,-3.09375 2.8e-4,-1.70743 1.38436,-3.09151 3.09179,-3.0918 z m 5.58789,96.42383 c 1.47094,-7e-4 2.6638,1.22368 2.66407,2.73438 8.6e-4,1.5115 -1.19234,2.73703 -2.66407,2.73633 -1.47097,-4e-4 -2.66297,-1.22563 -2.66211,-2.73633 2.7e-4,-1.5099 1.19194,-2.73398 2.66211,-2.73438 z"
       transform="translate(0,527.95274)"
       id="rect4639-3"
       inkscape:connector-curvature="0"
       sodipodi:nodetypes="ssccsccsssssccsccsscsscsscssscccccssssscccccccccccccssssscccccsssssssssccccccccccccccc" />
  </g>
</svg>
