  0
SECTION
  2
HEADER
  9
$ACADVER
  1
AC1014
  9
$HANDSEED
  5
FFFF
  9
$MEASUREMENT
 70
     1
  0
ENDSEC
  0
SECTION
  2
TABLES
  0
TABLE
  2
VPORT
  5
8
330
0
100
AcDbSymbolTable
 70
     4
  0
VPORT
  5
2E
330
8
100
AcDbSymbolTableRecord
100
AcDbViewportTableRecord
  2
*ACTIVE
 70
     0
 10
0.0
 20
0.0
 11
1.0
 21
1.0
 12
210.0
 22
148.5
 13
0.0
 23
0.0
 14
10.0
 24
10.0
 15
10.0
 25
10.0
 16
0.0
 26
0.0
 36
1.0
 17
0.0
 27
0.0
 37
0.0
 40
341.0
 41
1.24
 42
50.0
 43
0.0
 44
0.0
 50
0.0
 51
0.0
 71
     0
 72
   100
 73
     1
 74
     3
 75
     0
 76
     0
 77
     0
 78
     0
  0
ENDTAB
  0
TABLE
  2
LTYPE
  5
5
330
0
100
AcDbSymbolTable
 70
     1
  0
LTYPE
  5
14
330
5
100
AcDbSymbolTableRecord
100
AcDbLinetypeTableRecord
  2
BYBLOCK
 70
     0
  3

 72
    65
 73
     0
 40
0.0
  0
LTYPE
  5
15
330
5
100
AcDbSymbolTableRecord
100
AcDbLinetypeTableRecord
  2
BYLAYER
 70
     0
  3

 72
    65
 73
     0
 40
0.0
  0
LTYPE
  5
16
330
5
100
AcDbSymbolTableRecord
100
AcDbLinetypeTableRecord
  2
CONTINUOUS
 70
     0
  3
Solid line
 72
    65
 73
     0
 40
0.0
  0
ENDTAB
  0
TABLE
  2
LAYER
  5
2
100
AcDbSymbolTable
 70
2
  0
LAYER
  5
50
100
AcDbSymbolTableRecord
100
AcDbLayerTableRecord
  2
0
 70
0
  6
CONTINUOUS
  0
LAYER
  5
51
100
AcDbSymbolTableRecord
100
AcDbLayerTableRecord
  2
Ebene_1
 70
0
  6
CONTINUOUS
  0
ENDTAB
  0
TABLE
  2
STYLE
  5
3
330
0
100
AcDbSymbolTable
 70
     1
  0
STYLE
  5
11
330
3
100
AcDbSymbolTableRecord
100
AcDbTextStyleTableRecord
  2
STANDARD
 70
     0
 40
0.0
 41
1.0
 50
0.0
 71
     0
 42
2.5
  3
txt
  4

  0
ENDTAB
  0
TABLE
  2
VIEW
  5
6
330
0
100
AcDbSymbolTable
 70
     0
  0
ENDTAB
  0
TABLE
  2
UCS
  5
7
330
0
100
AcDbSymbolTable
 70
     0
  0
ENDTAB
  0
TABLE
  2
APPID
  5
9
330
0
100
AcDbSymbolTable
 70
     2
  0
APPID
  5
12
330
9
100
AcDbSymbolTableRecord
100
AcDbRegAppTableRecord
  2
ACAD
 70
     0
  0
ENDTAB
  0
TABLE
  2
DIMSTYLE
  5
A
330
0
100
AcDbSymbolTable
 70
     1
  0
DIMSTYLE
105
27
330
A
100
AcDbSymbolTableRecord
100
AcDbDimStyleTableRecord
  2
ISO-25
 70
     0
  3

  4

  5

  6

  7

 40
1.0
 41
2.5
 42
0.625
 43
3.75
 44
1.25
 45
0.0
 46
0.0
 47
0.0
 48
0.0
140
2.5
141
2.5
142
0.0
143
0.03937007874016
144
1.0
145
0.0
146
1.0
147
0.625
 71
     0
 72
     0
 73
     0
 74
     0
 75
     0
 76
     0
 77
     1
 78
     8
170
     0
171
     3
172
     1
173
     0
174
     0
175
     0
176
     0
177
     0
178
     0
270
     2
271
     2
272
     2
273
     2
274
     3
340
11
275
     0
280
     0
281
     0
282
     0
283
     0
284
     8
285
     0
286
     0
287
     3
288
     0
  0
ENDTAB
  0
TABLE
  2
BLOCK_RECORD
  5
1
330
0
100
AcDbSymbolTable
 70
     1
  0
BLOCK_RECORD
  5
1F
330
1
100
AcDbSymbolTableRecord
100
AcDbBlockTableRecord
  2
*MODEL_SPACE
  0
BLOCK_RECORD
  5
1B
330
1
100
AcDbSymbolTableRecord
100
AcDbBlockTableRecord
  2
*PAPER_SPACE
  0
ENDTAB
  0
ENDSEC
  0
SECTION
  2
BLOCKS
  0
BLOCK
  5
20
330
1F
100
AcDbEntity
  8
0
100
AcDbBlockBegin
  2
*MODEL_SPACE
 70
     0
 10
0.0
 20
0.0
 30
0.0
  3
*MODEL_SPACE
  1

  0
ENDBLK
  5
21
330
1F
100
AcDbEntity
  8
0
100
AcDbBlockEnd
  0
BLOCK
  5
1C
330
1B
100
AcDbEntity
 67
     1
  8
0
100
AcDbBlockBegin
  2
*PAPER_SPACE
  1

  0
ENDBLK
  5
1D
330
1B
100
AcDbEntity
 67
     1
  8
0
100
AcDbBlockEnd
  0
ENDSEC
  0
SECTION
  2
ENTITIES
  0
LWPOLYLINE
  5
100
100
AcDbEntity
  8
Ebene_1
 62
7
100
AcDbPolyline
 90
48
 70
0
 10
101.670556
 20
147.832422
 30
0.0
 10
101.009097
 20
147.700131
 30
0.0
 10
100.471111
 20
147.338534
 30
0.0
 10
100.100694
 20
146.791728
 30
0.0
 10
99.968403
 20
146.130270
 30
0.0
 10
99.968403
 20
110.067561
 30
0.0
 10
99.765556
 20
109.899992
 30
0.0
 10
67.609861
 20
77.735478
 30
0.0
 10
9.604375
 20
114.900617
 30
0.0
 10
8.969375
 20
115.147561
 30
0.0
 10
8.404931
 20
115.244575
 30
0.0
 10
6.755694
 20
115.244575
 30
0.0
 10
6.094236
 20
115.112284
 30
0.0
 10
5.556250
 20
114.741867
 30
0.0
 10
5.185833
 20
114.203881
 30
0.0
 10
5.053542
 20
113.542422
 30
0.0
 10
5.053542
 20
105.746034
 30
0.0
 10
5.185833
 20
105.075756
 30
0.0
 10
5.556250
 20
104.537770
 30
0.0
 10
6.094236
 20
104.176172
 30
0.0
 10
6.755694
 20
104.035061
 30
0.0
 10
7.796389
 20
104.035061
 30
0.0
 10
99.968403
 20
49.680825
 30
0.0
 10
99.968403
 20
31.600964
 30
0.0
 10
97.648889
 20
31.600964
 30
0.0
 10
96.987431
 20
31.468672
 30
0.0
 10
96.449444
 20
31.107075
 30
0.0
 10
96.079028
 20
30.569089
 30
0.0
 10
95.946736
 20
29.898811
 30
0.0
 10
95.946736
 20
22.578672
 30
0.0
 10
96.079028
 20
21.917214
 30
0.0
 10
96.449444
 20
21.379228
 30
0.0
 10
96.987431
 20
21.008811
 30
0.0
 10
97.648889
 20
20.876520
 30
0.0
 10
101.238403
 20
20.876520
 30
0.0
 10
101.670556
 20
20.823603
 30
0.0
 10
108.390972
 20
20.823603
 30
0.0
 10
109.052431
 20
20.955895
 30
0.0
 10
109.599236
 20
21.317492
 30
0.0
 10
109.960833
 20
21.864297
 30
0.0
 10
110.093125
 20
22.525756
 30
0.0
 10
110.093125
 20
146.130270
 30
0.0
 10
109.960833
 20
146.791728
 30
0.0
 10
109.599236
 20
147.338534
 30
0.0
 10
109.052431
 20
147.700131
 30
0.0
 10
108.390972
 20
147.832422
 30
0.0
 10
101.670556
 20
147.832422
 30
0.0
 10
101.670556
 20
147.832422
 30
0.0
  0
LWPOLYLINE
  5
101
100
AcDbEntity
  8
Ebene_1
 62
7
100
AcDbPolyline
 90
18
 70
0
 10
105.057222
 20
147.038672
 30
0.0
 10
105.392361
 20
146.968117
 30
0.0
 10
105.674583
 20
146.782909
 30
0.0
 10
105.859792
 20
146.509506
 30
0.0
 10
105.930347
 20
146.165547
 30
0.0
 10
105.859792
 20
145.821589
 30
0.0
 10
105.674583
 20
145.548186
 30
0.0
 10
105.392361
 20
145.362978
 30
0.0
 10
105.057222
 20
145.292422
 30
0.0
 10
104.713264
 20
145.362978
 30
0.0
 10
104.439861
 20
145.548186
 30
0.0
 10
104.245833
 20
145.821589
 30
0.0
 10
104.184097
 20
146.165547
 30
0.0
 10
104.245833
 20
146.509506
 30
0.0
 10
104.439861
 20
146.782909
 30
0.0
 10
104.713264
 20
146.968117
 30
0.0
 10
105.057222
 20
147.038672
 30
0.0
 10
105.057222
 20
147.038672
 30
0.0
  0
LWPOLYLINE
  5
102
100
AcDbEntity
  8
Ebene_1
 62
7
100
AcDbPolyline
 90
18
 70
0
 10
107.711875
 20
142.840617
 30
0.0
 10
108.073472
 20
142.770061
 30
0.0
 10
108.364514
 20
142.576034
 30
0.0
 10
108.558542
 20
142.284992
 30
0.0
 10
108.629097
 20
141.923395
 30
0.0
 10
108.558542
 20
141.570617
 30
0.0
 10
108.364514
 20
141.279575
 30
0.0
 10
108.073472
 20
141.076728
 30
0.0
 10
107.711875
 20
141.006172
 30
0.0
 10
107.359097
 20
141.076728
 30
0.0
 10
107.068056
 20
141.279575
 30
0.0
 10
106.874028
 20
141.570617
 30
0.0
 10
106.794653
 20
141.923395
 30
0.0
 10
106.874028
 20
142.284992
 30
0.0
 10
107.068056
 20
142.576034
 30
0.0
 10
107.359097
 20
142.770061
 30
0.0
 10
107.711875
 20
142.840617
 30
0.0
 10
107.711875
 20
142.840617
 30
0.0
  0
LWPOLYLINE
  5
103
100
AcDbEntity
  8
Ebene_1
 62
7
100
AcDbPolyline
 90
18
 70
0
 10
7.328958
 20
110.508534
 30
0.0
 10
7.672917
 20
110.446797
 30
0.0
 10
7.946319
 20
110.252770
 30
0.0
 10
8.140347
 20
109.979367
 30
0.0
 10
8.202083
 20
109.635409
 30
0.0
 10
8.140347
 20
109.300270
 30
0.0
 10
7.946319
 20
109.018047
 30
0.0
 10
7.672917
 20
108.832839
 30
0.0
 10
7.328958
 20
108.762284
 30
0.0
 10
6.993819
 20
108.832839
 30
0.0
 10
6.711597
 20
109.018047
 30
0.0
 10
6.526389
 20
109.300270
 30
0.0
 10
6.455833
 20
109.635409
 30
0.0
 10
6.526389
 20
109.979367
 30
0.0
 10
6.711597
 20
110.252770
 30
0.0
 10
6.993819
 20
110.446797
 30
0.0
 10
7.328958
 20
110.508534
 30
0.0
 10
7.328958
 20
110.508534
 30
0.0
  0
LWPOLYLINE
  5
104
100
AcDbEntity
  8
Ebene_1
 62
7
100
AcDbPolyline
 90
5
 70
0
 10
99.968403
 20
100.304436
 30
0.0
 10
99.968403
 20
57.000964
 30
0.0
 10
73.571806
 20
73.907839
 30
0.0
 10
99.968403
 20
100.304436
 30
0.0
 10
99.968403
 20
100.304436
 30
0.0
  0
LWPOLYLINE
  5
105
100
AcDbEntity
  8
Ebene_1
 62
7
100
AcDbPolyline
 90
18
 70
0
 10
31.361944
 20
94.695270
 30
0.0
 10
31.723542
 20
94.624714
 30
0.0
 10
32.014583
 20
94.430686
 30
0.0
 10
32.208611
 20
94.139645
 30
0.0
 10
32.279167
 20
93.778047
 30
0.0
 10
32.208611
 20
93.425270
 30
0.0
 10
32.014583
 20
93.134228
 30
0.0
 10
31.723542
 20
92.940200
 30
0.0
 10
31.361944
 20
92.860825
 30
0.0
 10
31.009167
 20
92.940200
 30
0.0
 10
30.718125
 20
93.134228
 30
0.0
 10
30.515278
 20
93.425270
 30
0.0
 10
30.444722
 20
93.778047
 30
0.0
 10
30.515278
 20
94.139645
 30
0.0
 10
30.718125
 20
94.430686
 30
0.0
 10
31.009167
 20
94.624714
 30
0.0
 10
31.361944
 20
94.695270
 30
0.0
 10
31.361944
 20
94.695270
 30
0.0
  0
LWPOLYLINE
  5
106
100
AcDbEntity
  8
Ebene_1
 62
7
100
AcDbPolyline
 90
18
 70
0
 10
75.476806
 20
81.589575
 30
0.0
 10
75.829583
 20
81.519020
 30
0.0
 10
76.120625
 20
81.324992
 30
0.0
 10
76.323472
 20
81.033950
 30
0.0
 10
76.394028
 20
80.672353
 30
0.0
 10
76.323472
 20
80.319575
 30
0.0
 10
76.120625
 20
80.028534
 30
0.0
 10
75.829583
 20
79.834506
 30
0.0
 10
75.476806
 20
79.755131
 30
0.0
 10
75.115208
 20
79.834506
 30
0.0
 10
74.824167
 20
80.028534
 30
0.0
 10
74.630139
 20
80.319575
 30
0.0
 10
74.559583
 20
80.672353
 30
0.0
 10
74.630139
 20
81.033950
 30
0.0
 10
74.824167
 20
81.324992
 30
0.0
 10
75.115208
 20
81.519020
 30
0.0
 10
75.476806
 20
81.589575
 30
0.0
 10
75.476806
 20
81.589575
 30
0.0
  0
LWPOLYLINE
  5
107
100
AcDbEntity
  8
Ebene_1
 62
7
100
AcDbPolyline
 90
18
 70
0
 10
105.013125
 20
32.897422
 30
0.0
 10
105.357083
 20
32.835686
 30
0.0
 10
105.630486
 20
32.641659
 30
0.0
 10
105.815694
 20
32.368256
 30
0.0
 10
105.886250
 20
32.024297
 30
0.0
 10
105.815694
 20
31.689159
 30
0.0
 10
105.630486
 20
31.406936
 30
0.0
 10
105.357083
 20
31.221728
 30
0.0
 10
105.013125
 20
31.151172
 30
0.0
 10
104.677986
 20
31.221728
 30
0.0
 10
104.395764
 20
31.406936
 30
0.0
 10
104.210556
 20
31.689159
 30
0.0
 10
104.140000
 20
32.024297
 30
0.0
 10
104.210556
 20
32.368256
 30
0.0
 10
104.395764
 20
32.641659
 30
0.0
 10
104.677986
 20
32.835686
 30
0.0
 10
105.013125
 20
32.897422
 30
0.0
 10
105.013125
 20
32.897422
 30
0.0
  0
LWPOLYLINE
  5
108
100
AcDbEntity
  8
Ebene_1
 62
7
100
AcDbPolyline
 90
18
 70
0
 10
101.026736
 20
27.076589
 30
0.0
 10
101.388333
 20
27.006034
 30
0.0
 10
101.679375
 20
26.812006
 30
0.0
 10
101.873403
 20
26.520964
 30
0.0
 10
101.943958
 20
26.159367
 30
0.0
 10
101.873403
 20
25.806589
 30
0.0
 10
101.679375
 20
25.515547
 30
0.0
 10
101.388333
 20
25.312700
 30
0.0
 10
101.026736
 20
25.242145
 30
0.0
 10
100.673958
 20
25.312700
 30
0.0
 10
100.382917
 20
25.515547
 30
0.0
 10
100.180069
 20
25.806589
 30
0.0
 10
100.109514
 20
26.159367
 30
0.0
 10
100.180069
 20
26.520964
 30
0.0
 10
100.382917
 20
26.812006
 30
0.0
 10
100.673958
 20
27.006034
 30
0.0
 10
101.026736
 20
27.076589
 30
0.0
 10
101.026736
 20
27.076589
 30
0.0
  0
ENDSEC
  0
SECTION
  2
OBJECTS
  0
DICTIONARY
  5
C
330
0
100
AcDbDictionary
  3
ACAD_GROUP
350
D
  3
ACAD_MLINESTYLE
350
17
  0
DICTIONARY
  5
D
330
C
100
AcDbDictionary
  0
DICTIONARY
  5
1A
330
C
100
AcDbDictionary
  0
DICTIONARY
  5
17
330
C
100
AcDbDictionary
  3
STANDARD
350
18
  0
DICTIONARY
  5
19
330
C
100
AcDbDictionary
  0
ENDSEC
  0
EOF
