  0
SECTION
  2
HEADER
  9
$ACADVER
  1
AC1014
  9
$HANDSEED
  5
FFFF
  9
$MEASUREMENT
 70
     1
  0
ENDSEC
  0
SECTION
  2
TABLES
  0
TABLE
  2
VPORT
  5
8
330
0
100
AcDbSymbolTable
 70
     4
  0
VPORT
  5
2E
330
8
100
AcDbSymbolTableRecord
100
AcDbViewportTableRecord
  2
*ACTIVE
 70
     0
 10
0.0
 20
0.0
 11
1.0
 21
1.0
 12
210.0
 22
148.5
 13
0.0
 23
0.0
 14
10.0
 24
10.0
 15
10.0
 25
10.0
 16
0.0
 26
0.0
 36
1.0
 17
0.0
 27
0.0
 37
0.0
 40
341.0
 41
1.24
 42
50.0
 43
0.0
 44
0.0
 50
0.0
 51
0.0
 71
     0
 72
   100
 73
     1
 74
     3
 75
     0
 76
     0
 77
     0
 78
     0
  0
ENDTAB
  0
TABLE
  2
LTYPE
  5
5
330
0
100
AcDbSymbolTable
 70
     1
  0
LTYPE
  5
14
330
5
100
AcDbSymbolTableRecord
100
AcDbLinetypeTableRecord
  2
BYBLOCK
 70
     0
  3

 72
    65
 73
     0
 40
0.0
  0
LTYPE
  5
15
330
5
100
AcDbSymbolTableRecord
100
AcDbLinetypeTableRecord
  2
BYLAYER
 70
     0
  3

 72
    65
 73
     0
 40
0.0
  0
LTYPE
  5
16
330
5
100
AcDbSymbolTableRecord
100
AcDbLinetypeTableRecord
  2
CONTINUOUS
 70
     0
  3
Solid line
 72
    65
 73
     0
 40
0.0
  0
ENDTAB
  0
TABLE
  2
LAYER
  5
2
100
AcDbSymbolTable
 70
2
  0
LAYER
  5
50
100
AcDbSymbolTableRecord
100
AcDbLayerTableRecord
  2
0
 70
0
  6
CONTINUOUS
  0
LAYER
  5
51
100
AcDbSymbolTableRecord
100
AcDbLayerTableRecord
  2
Layer_1
 70
0
  6
CONTINUOUS
  0
ENDTAB
  0
TABLE
  2
STYLE
  5
3
330
0
100
AcDbSymbolTable
 70
     1
  0
STYLE
  5
11
330
3
100
AcDbSymbolTableRecord
100
AcDbTextStyleTableRecord
  2
STANDARD
 70
     0
 40
0.0
 41
1.0
 50
0.0
 71
     0
 42
2.5
  3
txt
  4

  0
ENDTAB
  0
TABLE
  2
VIEW
  5
6
330
0
100
AcDbSymbolTable
 70
     0
  0
ENDTAB
  0
TABLE
  2
UCS
  5
7
330
0
100
AcDbSymbolTable
 70
     0
  0
ENDTAB
  0
TABLE
  2
APPID
  5
9
330
0
100
AcDbSymbolTable
 70
     2
  0
APPID
  5
12
330
9
100
AcDbSymbolTableRecord
100
AcDbRegAppTableRecord
  2
ACAD
 70
     0
  0
ENDTAB
  0
TABLE
  2
DIMSTYLE
  5
A
330
0
100
AcDbSymbolTable
 70
     1
  0
DIMSTYLE
105
27
330
A
100
AcDbSymbolTableRecord
100
AcDbDimStyleTableRecord
  2
ISO-25
 70
     0
  3

  4

  5

  6

  7

 40
1.0
 41
2.5
 42
0.625
 43
3.75
 44
1.25
 45
0.0
 46
0.0
 47
0.0
 48
0.0
140
2.5
141
2.5
142
0.0
143
0.03937007874016
144
1.0
145
0.0
146
1.0
147
0.625
 71
     0
 72
     0
 73
     0
 74
     0
 75
     0
 76
     0
 77
     1
 78
     8
170
     0
171
     3
172
     1
173
     0
174
     0
175
     0
176
     0
177
     0
178
     0
270
     2
271
     2
272
     2
273
     2
274
     3
340
11
275
     0
280
     0
281
     0
282
     0
283
     0
284
     8
285
     0
286
     0
287
     3
288
     0
  0
ENDTAB
  0
TABLE
  2
BLOCK_RECORD
  5
1
330
0
100
AcDbSymbolTable
 70
     1
  0
BLOCK_RECORD
  5
1F
330
1
100
AcDbSymbolTableRecord
100
AcDbBlockTableRecord
  2
*MODEL_SPACE
  0
BLOCK_RECORD
  5
1B
330
1
100
AcDbSymbolTableRecord
100
AcDbBlockTableRecord
  2
*PAPER_SPACE
  0
ENDTAB
  0
ENDSEC
  0
SECTION
  2
BLOCKS
  0
BLOCK
  5
20
330
1F
100
AcDbEntity
  8
0
100
AcDbBlockBegin
  2
*MODEL_SPACE
 70
     0
 10
0.0
 20
0.0
 30
0.0
  3
*MODEL_SPACE
  1

  0
ENDBLK
  5
21
330
1F
100
AcDbEntity
  8
0
100
AcDbBlockEnd
  0
BLOCK
  5
1C
330
1B
100
AcDbEntity
 67
     1
  8
0
100
AcDbBlockBegin
  2
*PAPER_SPACE
  1

  0
ENDBLK
  5
1D
330
1B
100
AcDbEntity
 67
     1
  8
0
100
AcDbBlockEnd
  0
ENDSEC
  0
SECTION
  2
ENTITIES
  0
LWPOLYLINE
  5
100
100
AcDbEntity
  8
Layer_1
 62
7
100
AcDbPolyline
 90
89
 70
0
 10
6.862079
 20
147.374363
 30
0.0
 10
6.514317
 20
147.339508
 30
0.0
 10
6.190795
 20
147.239490
 30
0.0
 10
5.898332
 20
147.081130
 30
0.0
 10
5.643749
 20
146.871248
 30
0.0
 10
5.433867
 20
146.616665
 30
0.0
 10
5.275507
 20
146.324202
 30
0.0
 10
5.175489
 20
146.000679
 30
0.0
 10
5.140634
 20
145.652917
 30
0.0
 10
5.140634
 20
2.274656
 30
0.0
 10
5.175489
 20
1.926900
 30
0.0
 10
5.275507
 20
1.603380
 30
0.0
 10
5.433867
 20
1.310918
 30
0.0
 10
5.643749
 20
1.056334
 30
0.0
 10
5.898332
 20
0.846451
 30
0.0
 10
6.190795
 20
0.688089
 30
0.0
 10
6.514317
 20
0.588069
 30
0.0
 10
6.862079
 20
0.553213
 30
0.0
 10
13.498711
 20
0.553213
 30
0.0
 10
13.846449
 20
0.588069
 30
0.0
 10
14.169909
 20
0.688089
 30
0.0
 10
14.462284
 20
0.846451
 30
0.0
 10
14.716765
 20
1.056334
 30
0.0
 10
14.926546
 20
1.310918
 30
0.0
 10
15.084818
 20
1.603380
 30
0.0
 10
15.184774
 20
1.926900
 30
0.0
 10
15.219605
 20
2.274656
 30
0.0
 10
15.219605
 20
2.833033
 30
0.0
 10
100.015257
 20
2.833033
 30
0.0
 10
100.015257
 20
2.274656
 30
0.0
 10
100.050089
 20
1.926900
 30
0.0
 10
100.150044
 20
1.603380
 30
0.0
 10
100.308316
 20
1.310918
 30
0.0
 10
100.518097
 20
1.056334
 30
0.0
 10
100.772578
 20
0.846451
 30
0.0
 10
101.064953
 20
0.688089
 30
0.0
 10
101.388412
 20
0.588069
 30
0.0
 10
101.736150
 20
0.553213
 30
0.0
 10
108.373333
 20
0.553213
 30
0.0
 10
108.721071
 20
0.627182
 30
0.0
 10
109.044532
 20
0.822189
 30
0.0
 10
109.336907
 20
1.097889
 30
0.0
 10
109.591389
 20
1.413935
 30
0.0
 10
109.959441
 20
2.005681
 30
0.0
 10
110.094228
 20
2.274656
 30
0.0
 10
110.066438
 20
6.227794
 30
0.0
 10
110.103913
 20
10.522282
 30
0.0
 10
110.239826
 20
15.786996
 30
0.0
 10
110.522317
 20
21.590645
 30
0.0
 10
110.733574
 20
24.559792
 30
0.0
 10
110.999530
 20
27.501939
 30
0.0
 10
111.326201
 20
30.363175
 30
0.0
 10
111.719606
 20
33.089588
 30
0.0
 10
112.185763
 20
35.627268
 30
0.0
 10
112.730689
 20
37.922303
 30
0.0
 10
113.055918
 20
38.981220
 30
0.0
 10
113.470751
 20
40.119651
 30
0.0
 10
114.508190
 20
42.553461
 30
0.0
 10
115.720936
 20
45.060547
 30
0.0
 10
116.986917
 20
47.477728
 30
0.0
 10
118.184063
 20
49.641818
 30
0.0
 10
119.190303
 20
51.389634
 30
0.0
 10
120.141780
 20
52.983707
 30
0.0
 10
123.807911
 20
60.240459
 30
0.0
 10
123.689951
 20
133.265456
 30
0.0
 10
122.075442
 20
139.403789
 30
0.0
 10
122.136628
 20
139.808383
 30
0.0
 10
122.136628
 20
143.327892
 30
0.0
 10
122.107075
 20
143.614341
 30
0.0
 10
122.021975
 20
143.882690
 30
0.0
 10
121.886668
 20
144.128175
 30
0.0
 10
121.706495
 20
144.346034
 30
0.0
 10
121.486795
 20
144.531503
 30
0.0
 10
121.232909
 20
144.679819
 30
0.0
 10
120.950177
 20
144.786219
 30
0.0
 10
120.643938
 20
144.845940
 30
0.0
 10
120.638971
 20
144.864679
 30
0.0
 10
15.219599
 20
144.864679
 30
0.0
 10
15.219599
 20
145.652917
 30
0.0
 10
15.184768
 20
146.000679
 30
0.0
 10
15.084812
 20
146.324202
 30
0.0
 10
14.926540
 20
146.616665
 30
0.0
 10
14.716760
 20
146.871248
 30
0.0
 10
14.462278
 20
147.081130
 30
0.0
 10
14.169903
 20
147.239490
 30
0.0
 10
13.846443
 20
147.339508
 30
0.0
 10
13.498705
 20
147.374363
 30
0.0
 10
6.862073
 20
147.374363
 30
0.0
 10
6.862079
 20
147.374363
 30
0.0
  0
LWPOLYLINE
  5
101
100
AcDbEntity
  8
Layer_1
 62
7
100
AcDbPolyline
 90
34
 70
0
 10
10.139605
 20
143.261194
 30
0.0
 10
10.415878
 20
143.230452
 30
0.0
 10
10.678637
 20
143.143072
 30
0.0
 10
10.920694
 20
143.006243
 30
0.0
 10
11.134862
 20
142.827151
 30
0.0
 10
11.313955
 20
142.612983
 30
0.0
 10
11.450784
 20
142.370926
 30
0.0
 10
11.538164
 20
142.108167
 30
0.0
 10
11.568906
 20
141.831894
 30
0.0
 10
11.538164
 20
141.555620
 30
0.0
 10
11.450784
 20
141.292862
 30
0.0
 10
11.313955
 20
141.050804
 30
0.0
 10
11.134862
 20
140.836636
 30
0.0
 10
10.920694
 20
140.657544
 30
0.0
 10
10.678637
 20
140.520715
 30
0.0
 10
10.415878
 20
140.433335
 30
0.0
 10
10.139605
 20
140.402594
 30
0.0
 10
9.863332
 20
140.433336
 30
0.0
 10
9.600573
 20
140.520716
 30
0.0
 10
9.358516
 20
140.657545
 30
0.0
 10
9.144348
 20
140.836637
 30
0.0
 10
8.965255
 20
141.050805
 30
0.0
 10
8.828426
 20
141.292862
 30
0.0
 10
8.741046
 20
141.555621
 30
0.0
 10
8.710304
 20
141.831894
 30
0.0
 10
8.741046
 20
142.108167
 30
0.0
 10
8.828426
 20
142.370926
 30
0.0
 10
8.965255
 20
142.612983
 30
0.0
 10
9.144348
 20
142.827151
 30
0.0
 10
9.358516
 20
143.006243
 30
0.0
 10
9.600573
 20
143.143072
 30
0.0
 10
9.863332
 20
143.230452
 30
0.0
 10
10.139605
 20
143.261194
 30
0.0
 10
10.139605
 20
143.261194
 30
0.0
  0
LWPOLYLINE
  5
102
100
AcDbEntity
  8
Layer_1
 62
7
100
AcDbPolyline
 90
34
 70
0
 10
105.159198
 20
143.246857
 30
0.0
 10
105.435471
 20
143.216115
 30
0.0
 10
105.698229
 20
143.128735
 30
0.0
 10
105.940286
 20
142.991906
 30
0.0
 10
106.154454
 20
142.812814
 30
0.0
 10
106.333546
 20
142.598646
 30
0.0
 10
106.470376
 20
142.356589
 30
0.0
 10
106.557755
 20
142.093830
 30
0.0
 10
106.588498
 20
141.817557
 30
0.0
 10
106.557755
 20
141.541284
 30
0.0
 10
106.470376
 20
141.278525
 30
0.0
 10
106.333546
 20
141.036468
 30
0.0
 10
106.154454
 20
140.822300
 30
0.0
 10
105.940286
 20
140.643208
 30
0.0
 10
105.698229
 20
140.506379
 30
0.0
 10
105.435471
 20
140.418999
 30
0.0
 10
105.159198
 20
140.388257
 30
0.0
 10
104.882924
 20
140.418999
 30
0.0
 10
104.620165
 20
140.506379
 30
0.0
 10
104.378108
 20
140.643208
 30
0.0
 10
104.163940
 20
140.822300
 30
0.0
 10
103.984848
 20
141.036468
 30
0.0
 10
103.848018
 20
141.278525
 30
0.0
 10
103.760639
 20
141.541284
 30
0.0
 10
103.729897
 20
141.817557
 30
0.0
 10
103.760640
 20
142.093830
 30
0.0
 10
103.848019
 20
142.356589
 30
0.0
 10
103.984849
 20
142.598646
 30
0.0
 10
104.163941
 20
142.812814
 30
0.0
 10
104.378109
 20
142.991906
 30
0.0
 10
104.620166
 20
143.128735
 30
0.0
 10
104.882924
 20
143.216115
 30
0.0
 10
105.159198
 20
143.246857
 30
0.0
 10
105.159198
 20
143.246857
 30
0.0
  0
LWPOLYLINE
  5
103
100
AcDbEntity
  8
Layer_1
 62
7
100
AcDbPolyline
 90
5
 70
0
 10
15.219605
 20
138.373012
 30
0.0
 10
29.743575
 20
138.373012
 30
0.0
 10
15.219605
 20
118.974646
 30
0.0
 10
15.219605
 20
138.373012
 30
0.0
 10
15.219605
 20
138.373012
 30
0.0
  0
LWPOLYLINE
  5
104
100
AcDbEntity
  8
Layer_1
 62
7
100
AcDbPolyline
 90
41
 70
0
 10
38.723976
 20
138.373012
 30
0.0
 10
109.826338
 20
138.373012
 30
0.0
 10
116.330676
 20
125.614033
 30
0.0
 10
116.732513
 20
106.663802
 30
0.0
 10
117.304102
 20
106.091422
 30
0.0
 10
117.891731
 20
105.456811
 30
0.0
 10
118.567820
 20
104.661802
 30
0.0
 10
119.247797
 20
103.760302
 30
0.0
 10
119.847091
 20
102.806223
 30
0.0
 10
120.090053
 20
102.326313
 30
0.0
 10
120.281130
 20
101.853475
 30
0.0
 10
120.409750
 20
101.394447
 30
0.0
 10
120.465342
 20
100.955967
 30
0.0
 10
120.442247
 20
100.521603
 30
0.0
 10
120.348945
 20
100.061837
 30
0.0
 10
120.195327
 20
99.584040
 30
0.0
 10
119.991287
 20
99.095584
 30
0.0
 10
119.471514
 20
98.116184
 30
0.0
 10
118.868769
 20
97.182611
 30
0.0
 10
118.262197
 20
96.353840
 30
0.0
 10
117.730943
 20
95.688844
 30
0.0
 10
117.210967
 20
95.086078
 30
0.0
 10
117.230271
 20
74.830569
 30
0.0
 10
111.400068
 20
57.662418
 30
0.0
 10
104.106938
 20
51.868593
 30
0.0
 10
99.739109
 20
37.463133
 30
0.0
 10
71.600670
 20
9.324703
 30
0.0
 10
42.190029
 20
9.324703
 30
0.0
 10
15.219616
 20
36.295108
 30
0.0
 10
15.219616
 20
71.614229
 30
0.0
 10
12.944751
 20
74.893408
 30
0.0
 10
12.944751
 20
104.495872
 30
0.0
 10
16.003449
 20
108.251831
 30
0.0
 10
19.211370
 20
112.409430
 30
0.0
 10
22.517289
 20
116.836233
 30
0.0
 10
25.869981
 20
121.399804
 30
0.0
 10
29.218221
 20
125.967704
 30
0.0
 10
32.510784
 20
130.407498
 30
0.0
 10
35.696444
 20
134.586748
 30
0.0
 10
38.723976
 20
138.373018
 30
0.0
 10
38.723976
 20
138.373012
 30
0.0
  0
LWPOLYLINE
  5
105
100
AcDbEntity
  8
Layer_1
 62
7
100
AcDbPolyline
 90
26
 70
0
 10
21.752609
 20
122.087909
 30
0.0
 10
21.980569
 20
122.062597
 30
0.0
 10
22.197390
 20
121.990550
 30
0.0
 10
22.573885
 20
121.729968
 30
0.0
 10
22.834642
 20
121.353595
 30
0.0
 10
22.906790
 20
121.136807
 30
0.0
 10
22.932209
 20
120.908858
 30
0.0
 10
22.906881
 20
120.680833
 30
0.0
 10
22.834790
 20
120.463959
 30
0.0
 10
22.574062
 20
120.087405
 30
0.0
 10
22.197508
 20
119.826678
 30
0.0
 10
21.980634
 20
119.754587
 30
0.0
 10
21.752609
 20
119.729257
 30
0.0
 10
21.524583
 20
119.754587
 30
0.0
 10
21.307709
 20
119.826678
 30
0.0
 10
20.931155
 20
120.087405
 30
0.0
 10
20.670427
 20
120.463959
 30
0.0
 10
20.598336
 20
120.680833
 30
0.0
 10
20.573008
 20
120.908858
 30
0.0
 10
20.598427
 20
121.136807
 30
0.0
 10
20.670575
 20
121.353595
 30
0.0
 10
20.931332
 20
121.729968
 30
0.0
 10
21.307827
 20
121.990550
 30
0.0
 10
21.524648
 20
122.062597
 30
0.0
 10
21.752609
 20
122.087909
 30
0.0
 10
21.752609
 20
122.087909
 30
0.0
  0
LWPOLYLINE
  5
106
100
AcDbEntity
  8
Layer_1
 62
7
100
AcDbPolyline
 90
26
 70
0
 10
105.475044
 20
46.678357
 30
0.0
 10
105.703005
 20
46.653045
 30
0.0
 10
105.919826
 20
46.580998
 30
0.0
 10
106.296321
 20
46.320416
 30
0.0
 10
106.557078
 20
45.944043
 30
0.0
 10
106.629226
 20
45.727255
 30
0.0
 10
106.654645
 20
45.499306
 30
0.0
 10
106.629316
 20
45.271281
 30
0.0
 10
106.557225
 20
45.054407
 30
0.0
 10
106.296498
 20
44.677854
 30
0.0
 10
105.919943
 20
44.417127
 30
0.0
 10
105.703069
 20
44.345036
 30
0.0
 10
105.475044
 20
44.319708
 30
0.0
 10
105.247095
 20
44.345127
 30
0.0
 10
105.030307
 20
44.417274
 30
0.0
 10
104.653934
 20
44.678031
 30
0.0
 10
104.393352
 20
45.054525
 30
0.0
 10
104.321305
 20
45.271346
 30
0.0
 10
104.295993
 20
45.499306
 30
0.0
 10
104.321396
 20
45.727191
 30
0.0
 10
104.393499
 20
45.943925
 30
0.0
 10
104.654110
 20
46.320240
 30
0.0
 10
105.030425
 20
46.580851
 30
0.0
 10
105.247159
 20
46.652955
 30
0.0
 10
105.475044
 20
46.678357
 30
0.0
 10
105.475044
 20
46.678357
 30
0.0
  0
LWPOLYLINE
  5
107
100
AcDbEntity
  8
Layer_1
 62
7
100
AcDbPolyline
 90
26
 70
0
 10
12.408958
 20
41.623162
 30
0.0
 10
12.636984
 20
41.597833
 30
0.0
 10
12.853858
 20
41.525742
 30
0.0
 10
13.230412
 20
41.265015
 30
0.0
 10
13.491140
 20
40.888460
 30
0.0
 10
13.563230
 20
40.671586
 30
0.0
 10
13.588559
 20
40.443561
 30
0.0
 10
13.563230
 20
40.215535
 30
0.0
 10
13.491140
 20
39.998661
 30
0.0
 10
13.230412
 20
39.622107
 30
0.0
 10
12.853858
 20
39.361379
 30
0.0
 10
12.636984
 20
39.289288
 30
0.0
 10
12.408958
 20
39.263959
 30
0.0
 10
12.180933
 20
39.289288
 30
0.0
 10
11.964059
 20
39.361379
 30
0.0
 10
11.587505
 20
39.622107
 30
0.0
 10
11.326777
 20
39.998661
 30
0.0
 10
11.254686
 20
40.215535
 30
0.0
 10
11.229357
 20
40.443561
 30
0.0
 10
11.254686
 20
40.671586
 30
0.0
 10
11.326777
 20
40.888460
 30
0.0
 10
11.587505
 20
41.265015
 30
0.0
 10
11.964059
 20
41.525742
 30
0.0
 10
12.180933
 20
41.597833
 30
0.0
 10
12.408958
 20
41.623162
 30
0.0
 10
12.408958
 20
41.623162
 30
0.0
  0
LWPOLYLINE
  5
108
100
AcDbEntity
  8
Layer_1
 62
7
100
AcDbPolyline
 90
5
 70
0
 10
100.015257
 20
28.758900
 30
0.0
 10
100.015257
 20
9.324708
 30
0.0
 10
80.581060
 20
9.324708
 30
0.0
 10
100.015257
 20
28.758900
 30
0.0
 10
100.015257
 20
28.758900
 30
0.0
  0
LWPOLYLINE
  5
109
100
AcDbEntity
  8
Layer_1
 62
7
100
AcDbPolyline
 90
5
 70
0
 10
15.219605
 20
27.314715
 30
0.0
 10
33.209619
 20
9.324708
 30
0.0
 10
15.219605
 20
9.324708
 30
0.0
 10
15.219605
 20
27.314715
 30
0.0
 10
15.219605
 20
27.314715
 30
0.0
  0
LWPOLYLINE
  5
10a
100
AcDbEntity
  8
Layer_1
 62
7
100
AcDbPolyline
 90
34
 70
0
 10
10.139605
 20
7.634112
 30
0.0
 10
10.415943
 20
7.603351
 30
0.0
 10
10.678755
 20
7.515926
 30
0.0
 10
10.920851
 20
7.379030
 30
0.0
 10
11.135039
 20
7.199857
 30
0.0
 10
11.314130
 20
6.985601
 30
0.0
 10
11.450932
 20
6.743454
 30
0.0
 10
11.538254
 20
6.480609
 30
0.0
 10
11.568906
 20
6.204262
 30
0.0
 10
11.538164
 20
5.927987
 30
0.0
 10
11.450784
 20
5.665230
 30
0.0
 10
11.313955
 20
5.423176
 30
0.0
 10
11.134862
 20
5.209012
 30
0.0
 10
10.920694
 20
5.029924
 30
0.0
 10
10.678637
 20
4.893098
 30
0.0
 10
10.415878
 20
4.805720
 30
0.0
 10
10.139605
 20
4.774976
 30
0.0
 10
9.863332
 20
4.805720
 30
0.0
 10
9.600573
 20
4.893098
 30
0.0
 10
9.358516
 20
5.029924
 30
0.0
 10
9.144348
 20
5.209012
 30
0.0
 10
8.965255
 20
5.423176
 30
0.0
 10
8.828426
 20
5.665230
 30
0.0
 10
8.741046
 20
5.927987
 30
0.0
 10
8.710304
 20
6.204262
 30
0.0
 10
8.740956
 20
6.480609
 30
0.0
 10
8.828278
 20
6.743454
 30
0.0
 10
8.965080
 20
6.985601
 30
0.0
 10
9.144171
 20
7.199857
 30
0.0
 10
9.358359
 20
7.379030
 30
0.0
 10
9.600455
 20
7.515926
 30
0.0
 10
9.863267
 20
7.603351
 30
0.0
 10
10.139605
 20
7.634112
 30
0.0
 10
10.139605
 20
7.634112
 30
0.0
  0
LWPOLYLINE
  5
10b
100
AcDbEntity
  8
Layer_1
 62
7
100
AcDbPolyline
 90
34
 70
0
 10
105.116201
 20
7.561920
 30
0.0
 10
105.392475
 20
7.531182
 30
0.0
 10
105.655234
 20
7.443801
 30
0.0
 10
105.897291
 20
7.306967
 30
0.0
 10
106.111460
 20
7.127869
 30
0.0
 10
106.290553
 20
6.913695
 30
0.0
 10
106.427383
 20
6.671634
 30
0.0
 10
106.514762
 20
6.408875
 30
0.0
 10
106.545504
 20
6.132606
 30
0.0
 10
106.514761
 20
5.856331
 30
0.0
 10
106.427382
 20
5.593573
 30
0.0
 10
106.290552
 20
5.351520
 30
0.0
 10
106.111459
 20
5.137356
 30
0.0
 10
105.897291
 20
4.958268
 30
0.0
 10
105.655233
 20
4.821442
 30
0.0
 10
105.392474
 20
4.734063
 30
0.0
 10
105.116201
 20
4.703319
 30
0.0
 10
104.839928
 20
4.734063
 30
0.0
 10
104.577169
 20
4.821442
 30
0.0
 10
104.335112
 20
4.958268
 30
0.0
 10
104.120944
 20
5.137356
 30
0.0
 10
103.941852
 20
5.351520
 30
0.0
 10
103.805023
 20
5.593573
 30
0.0
 10
103.717643
 20
5.856331
 30
0.0
 10
103.686901
 20
6.132606
 30
0.0
 10
103.717643
 20
6.408873
 30
0.0
 10
103.805022
 20
6.671630
 30
0.0
 10
103.941851
 20
6.913688
 30
0.0
 10
104.120943
 20
7.127859
 30
0.0
 10
104.335112
 20
7.306955
 30
0.0
 10
104.577169
 20
7.443789
 30
0.0
 10
104.839928
 20
7.531173
 30
0.0
 10
105.116201
 20
7.561920
 30
0.0
 10
105.116201
 20
7.561920
 30
0.0
  0
ENDSEC
  0
SECTION
  2
OBJECTS
  0
DICTIONARY
  5
C
330
0
100
AcDbDictionary
  3
ACAD_GROUP
350
D
  3
ACAD_MLINESTYLE
350
17
  0
DICTIONARY
  5
D
330
C
100
AcDbDictionary
  0
DICTIONARY
  5
1A
330
C
100
AcDbDictionary
  0
DICTIONARY
  5
17
330
C
100
AcDbDictionary
  3
STANDARD
350
18
  0
DICTIONARY
  5
19
330
C
100
AcDbDictionary
  0
ENDSEC
  0
EOF
