  0
SECTION
  2
HEADER
  9
$ACADVER
  1
AC1014
  9
$HANDSEED
  5
FFFF
  9
$MEASUREMENT
 70
     1
  0
ENDSEC
  0
SECTION
  2
TABLES
  0
TABLE
  2
VPORT
  5
8
330
0
100
AcDbSymbolTable
 70
     4
  0
VPORT
  5
2E
330
8
100
AcDbSymbolTableRecord
100
AcDbViewportTableRecord
  2
*ACTIVE
 70
     0
 10
0.0
 20
0.0
 11
1.0
 21
1.0
 12
210.0
 22
148.5
 13
0.0
 23
0.0
 14
10.0
 24
10.0
 15
10.0
 25
10.0
 16
0.0
 26
0.0
 36
1.0
 17
0.0
 27
0.0
 37
0.0
 40
341.0
 41
1.24
 42
50.0
 43
0.0
 44
0.0
 50
0.0
 51
0.0
 71
     0
 72
   100
 73
     1
 74
     3
 75
     0
 76
     0
 77
     0
 78
     0
  0
ENDTAB
  0
TABLE
  2
LTYPE
  5
5
330
0
100
AcDbSymbolTable
 70
     1
  0
LTYPE
  5
14
330
5
100
AcDbSymbolTableRecord
100
AcDbLinetypeTableRecord
  2
BYBLOCK
 70
     0
  3

 72
    65
 73
     0
 40
0.0
  0
LTYPE
  5
15
330
5
100
AcDbSymbolTableRecord
100
AcDbLinetypeTableRecord
  2
BYLAYER
 70
     0
  3

 72
    65
 73
     0
 40
0.0
  0
LTYPE
  5
16
330
5
100
AcDbSymbolTableRecord
100
AcDbLinetypeTableRecord
  2
CONTINUOUS
 70
     0
  3
Solid line
 72
    65
 73
     0
 40
0.0
  0
ENDTAB
  0
TABLE
  2
LAYER
  5
2
100
AcDbSymbolTable
 70
2
  0
LAYER
  5
50
100
AcDbSymbolTableRecord
100
AcDbLayerTableRecord
  2
0
 70
0
  6
CONTINUOUS
  0
LAYER
  5
51
100
AcDbSymbolTableRecord
100
AcDbLayerTableRecord
  2
Ebene_1
 70
0
  6
CONTINUOUS
  0
ENDTAB
  0
TABLE
  2
STYLE
  5
3
330
0
100
AcDbSymbolTable
 70
     1
  0
STYLE
  5
11
330
3
100
AcDbSymbolTableRecord
100
AcDbTextStyleTableRecord
  2
STANDARD
 70
     0
 40
0.0
 41
1.0
 50
0.0
 71
     0
 42
2.5
  3
txt
  4

  0
ENDTAB
  0
TABLE
  2
VIEW
  5
6
330
0
100
AcDbSymbolTable
 70
     0
  0
ENDTAB
  0
TABLE
  2
UCS
  5
7
330
0
100
AcDbSymbolTable
 70
     0
  0
ENDTAB
  0
TABLE
  2
APPID
  5
9
330
0
100
AcDbSymbolTable
 70
     2
  0
APPID
  5
12
330
9
100
AcDbSymbolTableRecord
100
AcDbRegAppTableRecord
  2
ACAD
 70
     0
  0
ENDTAB
  0
TABLE
  2
DIMSTYLE
  5
A
330
0
100
AcDbSymbolTable
 70
     1
  0
DIMSTYLE
105
27
330
A
100
AcDbSymbolTableRecord
100
AcDbDimStyleTableRecord
  2
ISO-25
 70
     0
  3

  4

  5

  6

  7

 40
1.0
 41
2.5
 42
0.625
 43
3.75
 44
1.25
 45
0.0
 46
0.0
 47
0.0
 48
0.0
140
2.5
141
2.5
142
0.0
143
0.03937007874016
144
1.0
145
0.0
146
1.0
147
0.625
 71
     0
 72
     0
 73
     0
 74
     0
 75
     0
 76
     0
 77
     1
 78
     8
170
     0
171
     3
172
     1
173
     0
174
     0
175
     0
176
     0
177
     0
178
     0
270
     2
271
     2
272
     2
273
     2
274
     3
340
11
275
     0
280
     0
281
     0
282
     0
283
     0
284
     8
285
     0
286
     0
287
     3
288
     0
  0
ENDTAB
  0
TABLE
  2
BLOCK_RECORD
  5
1
330
0
100
AcDbSymbolTable
 70
     1
  0
BLOCK_RECORD
  5
1F
330
1
100
AcDbSymbolTableRecord
100
AcDbBlockTableRecord
  2
*MODEL_SPACE
  0
BLOCK_RECORD
  5
1B
330
1
100
AcDbSymbolTableRecord
100
AcDbBlockTableRecord
  2
*PAPER_SPACE
  0
ENDTAB
  0
ENDSEC
  0
SECTION
  2
BLOCKS
  0
BLOCK
  5
20
330
1F
100
AcDbEntity
  8
0
100
AcDbBlockBegin
  2
*MODEL_SPACE
 70
     0
 10
0.0
 20
0.0
 30
0.0
  3
*MODEL_SPACE
  1

  0
ENDBLK
  5
21
330
1F
100
AcDbEntity
  8
0
100
AcDbBlockEnd
  0
BLOCK
  5
1C
330
1B
100
AcDbEntity
 67
     1
  8
0
100
AcDbBlockBegin
  2
*PAPER_SPACE
  1

  0
ENDBLK
  5
1D
330
1B
100
AcDbEntity
 67
     1
  8
0
100
AcDbBlockEnd
  0
ENDSEC
  0
SECTION
  2
ENTITIES
  0
LWPOLYLINE
  5
100
100
AcDbEntity
  8
Ebene_1
 62
7
100
AcDbPolyline
 90
18
 70
0
 10
8.204983
 20
109.638992
 30
0.0
 10
8.136401
 20
109.299291
 30
0.0
 10
7.949370
 20
109.021888
 30
0.0
 10
7.671967
 20
108.834857
 30
0.0
 10
7.332266
 20
108.766275
 30
0.0
 10
6.992565
 20
108.834857
 30
0.0
 10
6.715161
 20
109.021888
 30
0.0
 10
6.528130
 20
109.299291
 30
0.0
 10
6.459548
 20
109.638992
 30
0.0
 10
6.528130
 20
109.978693
 30
0.0
 10
6.715161
 20
110.256097
 30
0.0
 10
6.992565
 20
110.443128
 30
0.0
 10
7.332266
 20
110.511711
 30
0.0
 10
7.671967
 20
110.443128
 30
0.0
 10
7.949370
 20
110.256097
 30
0.0
 10
8.136401
 20
109.978693
 30
0.0
 10
8.204983
 20
109.638992
 30
0.0
 10
8.204983
 20
109.638992
 30
0.0
  0
LWPOLYLINE
  5
101
100
AcDbEntity
  8
Ebene_1
 62
7
100
AcDbPolyline
 90
18
 70
0
 10
33.512507
 20
141.751359
 30
0.0
 10
33.443924
 20
141.411659
 30
0.0
 10
33.256894
 20
141.134255
 30
0.0
 10
32.979490
 20
140.947225
 30
0.0
 10
32.639789
 20
140.878643
 30
0.0
 10
32.300088
 20
140.947225
 30
0.0
 10
32.022684
 20
141.134255
 30
0.0
 10
31.835654
 20
141.411659
 30
0.0
 10
31.767071
 20
141.751359
 30
0.0
 10
31.835654
 20
142.091061
 30
0.0
 10
32.022684
 20
142.368465
 30
0.0
 10
32.300088
 20
142.555496
 30
0.0
 10
32.639789
 20
142.624078
 30
0.0
 10
32.979490
 20
142.555496
 30
0.0
 10
33.256894
 20
142.368465
 30
0.0
 10
33.443924
 20
142.091061
 30
0.0
 10
33.512507
 20
141.751359
 30
0.0
 10
33.512507
 20
141.751359
 30
0.0
  0
LWPOLYLINE
  5
102
100
AcDbEntity
  8
Ebene_1
 62
7
100
AcDbPolyline
 90
18
 70
0
 10
105.926356
 20
146.165546
 30
0.0
 10
105.857773
 20
145.825845
 30
0.0
 10
105.670743
 20
145.548442
 30
0.0
 10
105.393339
 20
145.361412
 30
0.0
 10
105.053638
 20
145.292830
 30
0.0
 10
104.713937
 20
145.361412
 30
0.0
 10
104.436533
 20
145.548442
 30
0.0
 10
104.249503
 20
145.825845
 30
0.0
 10
104.180920
 20
146.165546
 30
0.0
 10
104.249503
 20
146.505248
 30
0.0
 10
104.436533
 20
146.782652
 30
0.0
 10
104.713937
 20
146.969683
 30
0.0
 10
105.053638
 20
147.038265
 30
0.0
 10
105.393339
 20
146.969683
 30
0.0
 10
105.670743
 20
146.782652
 30
0.0
 10
105.857773
 20
146.505248
 30
0.0
 10
105.926356
 20
146.165546
 30
0.0
 10
105.926356
 20
146.165546
 30
0.0
  0
LWPOLYLINE
  5
103
100
AcDbEntity
  8
Ebene_1
 62
7
100
AcDbPolyline
 90
18
 70
0
 10
105.888326
 20
32.027466
 30
0.0
 10
105.819744
 20
31.687765
 30
0.0
 10
105.632713
 20
31.410362
 30
0.0
 10
105.355310
 20
31.223331
 30
0.0
 10
105.015609
 20
31.154749
 30
0.0
 10
104.675907
 20
31.223331
 30
0.0
 10
104.398504
 20
31.410362
 30
0.0
 10
104.211473
 20
31.687765
 30
0.0
 10
104.142891
 20
32.027466
 30
0.0
 10
104.211473
 20
32.367167
 30
0.0
 10
104.398504
 20
32.644571
 30
0.0
 10
104.675907
 20
32.831602
 30
0.0
 10
105.015609
 20
32.900185
 30
0.0
 10
105.355310
 20
32.831602
 30
0.0
 10
105.632713
 20
32.644571
 30
0.0
 10
105.819744
 20
32.367167
 30
0.0
 10
105.888326
 20
32.027466
 30
0.0
 10
105.888326
 20
32.027466
 30
0.0
  0
ENDSEC
  0
SECTION
  2
OBJECTS
  0
DICTIONARY
  5
C
330
0
100
AcDbDictionary
  3
ACAD_GROUP
350
D
  3
ACAD_MLINESTYLE
350
17
  0
DICTIONARY
  5
D
330
C
100
AcDbDictionary
  0
DICTIONARY
  5
1A
330
C
100
AcDbDictionary
  0
DICTIONARY
  5
17
330
C
100
AcDbDictionary
  3
STANDARD
350
18
  0
DICTIONARY
  5
19
330
C
100
AcDbDictionary
  0
ENDSEC
  0
EOF
