  0
SECTION
  2
HEADER
  9
$ACADVER
  1
AC1014
  9
$HANDSEED
  5
FFFF
  9
$MEASUREMENT
 70
     1
  0
ENDSEC
  0
SECTION
  2
TABLES
  0
TABLE
  2
VPORT
  5
8
330
0
100
AcDbSymbolTable
 70
     4
  0
VPORT
  5
2E
330
8
100
AcDbSymbolTableRecord
100
AcDbViewportTableRecord
  2
*ACTIVE
 70
     0
 10
0.0
 20
0.0
 11
1.0
 21
1.0
 12
210.0
 22
148.5
 13
0.0
 23
0.0
 14
10.0
 24
10.0
 15
10.0
 25
10.0
 16
0.0
 26
0.0
 36
1.0
 17
0.0
 27
0.0
 37
0.0
 40
341.0
 41
1.24
 42
50.0
 43
0.0
 44
0.0
 50
0.0
 51
0.0
 71
     0
 72
   100
 73
     1
 74
     3
 75
     0
 76
     0
 77
     0
 78
     0
  0
ENDTAB
  0
TABLE
  2
LTYPE
  5
5
330
0
100
AcDbSymbolTable
 70
     1
  0
LTYPE
  5
14
330
5
100
AcDbSymbolTableRecord
100
AcDbLinetypeTableRecord
  2
BYBLOCK
 70
     0
  3

 72
    65
 73
     0
 40
0.0
  0
LTYPE
  5
15
330
5
100
AcDbSymbolTableRecord
100
AcDbLinetypeTableRecord
  2
BYLAYER
 70
     0
  3

 72
    65
 73
     0
 40
0.0
  0
LTYPE
  5
16
330
5
100
AcDbSymbolTableRecord
100
AcDbLinetypeTableRecord
  2
CONTINUOUS
 70
     0
  3
Solid line
 72
    65
 73
     0
 40
0.0
  0
ENDTAB
  0
TABLE
  2
LAYER
  5
2
100
AcDbSymbolTable
 70
2
  0
LAYER
  5
50
100
AcDbSymbolTableRecord
100
AcDbLayerTableRecord
  2
0
 70
0
  6
CONTINUOUS
  0
LAYER
  5
51
100
AcDbSymbolTableRecord
100
AcDbLayerTableRecord
  2
Ebene_1
 70
0
  6
CONTINUOUS
  0
ENDTAB
  0
TABLE
  2
STYLE
  5
3
330
0
100
AcDbSymbolTable
 70
     1
  0
STYLE
  5
11
330
3
100
AcDbSymbolTableRecord
100
AcDbTextStyleTableRecord
  2
STANDARD
 70
     0
 40
0.0
 41
1.0
 50
0.0
 71
     0
 42
2.5
  3
txt
  4

  0
ENDTAB
  0
TABLE
  2
VIEW
  5
6
330
0
100
AcDbSymbolTable
 70
     0
  0
ENDTAB
  0
TABLE
  2
UCS
  5
7
330
0
100
AcDbSymbolTable
 70
     0
  0
ENDTAB
  0
TABLE
  2
APPID
  5
9
330
0
100
AcDbSymbolTable
 70
     2
  0
APPID
  5
12
330
9
100
AcDbSymbolTableRecord
100
AcDbRegAppTableRecord
  2
ACAD
 70
     0
  0
ENDTAB
  0
TABLE
  2
DIMSTYLE
  5
A
330
0
100
AcDbSymbolTable
 70
     1
  0
DIMSTYLE
105
27
330
A
100
AcDbSymbolTableRecord
100
AcDbDimStyleTableRecord
  2
ISO-25
 70
     0
  3

  4

  5

  6

  7

 40
1.0
 41
2.5
 42
0.625
 43
3.75
 44
1.25
 45
0.0
 46
0.0
 47
0.0
 48
0.0
140
2.5
141
2.5
142
0.0
143
0.03937007874016
144
1.0
145
0.0
146
1.0
147
0.625
 71
     0
 72
     0
 73
     0
 74
     0
 75
     0
 76
     0
 77
     1
 78
     8
170
     0
171
     3
172
     1
173
     0
174
     0
175
     0
176
     0
177
     0
178
     0
270
     2
271
     2
272
     2
273
     2
274
     3
340
11
275
     0
280
     0
281
     0
282
     0
283
     0
284
     8
285
     0
286
     0
287
     3
288
     0
  0
ENDTAB
  0
TABLE
  2
BLOCK_RECORD
  5
1
330
0
100
AcDbSymbolTable
 70
     1
  0
BLOCK_RECORD
  5
1F
330
1
100
AcDbSymbolTableRecord
100
AcDbBlockTableRecord
  2
*MODEL_SPACE
  0
BLOCK_RECORD
  5
1B
330
1
100
AcDbSymbolTableRecord
100
AcDbBlockTableRecord
  2
*PAPER_SPACE
  0
ENDTAB
  0
ENDSEC
  0
SECTION
  2
BLOCKS
  0
BLOCK
  5
20
330
1F
100
AcDbEntity
  8
0
100
AcDbBlockBegin
  2
*MODEL_SPACE
 70
     0
 10
0.0
 20
0.0
 30
0.0
  3
*MODEL_SPACE
  1

  0
ENDBLK
  5
21
330
1F
100
AcDbEntity
  8
0
100
AcDbBlockEnd
  0
BLOCK
  5
1C
330
1B
100
AcDbEntity
 67
     1
  8
0
100
AcDbBlockBegin
  2
*PAPER_SPACE
  1

  0
ENDBLK
  5
1D
330
1B
100
AcDbEntity
 67
     1
  8
0
100
AcDbBlockEnd
  0
ENDSEC
  0
SECTION
  2
ENTITIES
  0
LWPOLYLINE
  5
100
100
AcDbEntity
  8
Ebene_1
 62
7
100
AcDbPolyline
 90
45
 70
0
 10
6.862079
 20
147.834076
 30
0.0
 10
6.190795
 20
147.699203
 30
0.0
 10
5.643749
 20
147.330961
 30
0.0
 10
5.275507
 20
146.783915
 30
0.0
 10
5.140634
 20
146.112631
 30
0.0
 10
5.140634
 20
1.987474
 30
0.0
 10
5.275507
 20
1.316198
 30
0.0
 10
5.643749
 20
0.769151
 30
0.0
 10
6.190795
 20
0.400904
 30
0.0
 10
6.862079
 20
0.266028
 30
0.0
 10
13.498711
 20
0.266028
 30
0.0
 10
14.169909
 20
0.400904
 30
0.0
 10
14.716765
 20
0.769151
 30
0.0
 10
15.084818
 20
1.316198
 30
0.0
 10
15.219605
 20
1.987474
 30
0.0
 10
15.219605
 20
2.833040
 30
0.0
 10
100.015257
 20
2.833040
 30
0.0
 10
100.015257
 20
1.987474
 30
0.0
 10
100.150044
 20
1.316198
 30
0.0
 10
100.518097
 20
0.769151
 30
0.0
 10
101.064953
 20
0.400904
 30
0.0
 10
101.736150
 20
0.266028
 30
0.0
 10
108.373333
 20
0.266028
 30
0.0
 10
109.044532
 20
0.400904
 30
0.0
 10
109.591389
 20
0.769151
 30
0.0
 10
109.959441
 20
1.316198
 30
0.0
 10
110.094228
 20
1.987474
 30
0.0
 10
110.094228
 20
146.112631
 30
0.0
 10
109.959441
 20
146.783915
 30
0.0
 10
109.591389
 20
147.330961
 30
0.0
 10
109.044532
 20
147.699203
 30
0.0
 10
108.373333
 20
147.834076
 30
0.0
 10
101.736150
 20
147.834076
 30
0.0
 10
101.064953
 20
147.699203
 30
0.0
 10
100.518097
 20
147.330961
 30
0.0
 10
100.150044
 20
146.783915
 30
0.0
 10
100.015257
 20
146.112631
 30
0.0
 10
100.015257
 20
144.864679
 30
0.0
 10
15.219605
 20
144.864679
 30
0.0
 10
15.219605
 20
146.112631
 30
0.0
 10
15.084818
 20
146.783915
 30
0.0
 10
14.716765
 20
147.330961
 30
0.0
 10
14.169909
 20
147.699203
 30
0.0
 10
13.498711
 20
147.834076
 30
0.0
 10
6.862079
 20
147.834076
 30
0.0
  0
LWPOLYLINE
  5
101
100
AcDbEntity
  8
Ebene_1
 62
7
100
AcDbPolyline
 90
18
 70
0
 10
10.139605
 20
143.261194
 30
0.0
 10
10.678637
 20
143.143072
 30
0.0
 10
11.134862
 20
142.827150
 30
0.0
 10
11.450784
 20
142.370925
 30
0.0
 10
11.568906
 20
141.831893
 30
0.0
 10
11.450784
 20
141.292861
 30
0.0
 10
11.134862
 20
140.836635
 30
0.0
 10
10.678637
 20
140.520713
 30
0.0
 10
10.139605
 20
140.402592
 30
0.0
 10
9.600573
 20
140.520714
 30
0.0
 10
9.144348
 20
140.836635
 30
0.0
 10
8.828426
 20
141.292861
 30
0.0
 10
8.710304
 20
141.831893
 30
0.0
 10
8.828426
 20
142.370925
 30
0.0
 10
9.144348
 20
142.827150
 30
0.0
 10
9.600573
 20
143.143072
 30
0.0
 10
10.139605
 20
143.261194
 30
0.0
 10
10.139605
 20
143.261194
 30
0.0
  0
LWPOLYLINE
  5
102
100
AcDbEntity
  8
Ebene_1
 62
7
100
AcDbPolyline
 90
18
 70
0
 10
105.159198
 20
143.246863
 30
0.0
 10
105.698229
 20
143.128741
 30
0.0
 10
106.154454
 20
142.812819
 30
0.0
 10
106.470376
 20
142.356594
 30
0.0
 10
106.588498
 20
141.817562
 30
0.0
 10
106.470376
 20
141.278530
 30
0.0
 10
106.154454
 20
140.822304
 30
0.0
 10
105.698229
 20
140.506382
 30
0.0
 10
105.159198
 20
140.388260
 30
0.0
 10
104.620166
 20
140.506382
 30
0.0
 10
104.163941
 20
140.822304
 30
0.0
 10
103.848019
 20
141.278530
 30
0.0
 10
103.729897
 20
141.817562
 30
0.0
 10
103.848019
 20
142.356594
 30
0.0
 10
104.163941
 20
142.812819
 30
0.0
 10
104.620166
 20
143.128741
 30
0.0
 10
105.159198
 20
143.246863
 30
0.0
 10
105.159198
 20
143.246863
 30
0.0
  0
LWPOLYLINE
  5
103
100
AcDbEntity
  8
Ebene_1
 62
7
100
AcDbPolyline
 90
4
 70
0
 10
15.219605
 20
138.373017
 30
0.0
 10
34.617973
 20
138.373017
 30
0.0
 10
15.219605
 20
118.974650
 30
0.0
 10
15.219605
 20
138.373017
 30
0.0
  0
LWPOLYLINE
  5
104
100
AcDbEntity
  8
Ebene_1
 62
7
100
AcDbPolyline
 90
11
 70
0
 10
43.598372
 20
138.373017
 30
0.0
 10
73.009015
 20
138.373017
 30
0.0
 10
100.015257
 20
111.366777
 30
0.0
 10
100.015257
 20
37.687485
 30
0.0
 10
99.739097
 20
37.463138
 30
0.0
 10
71.600658
 20
9.324702
 30
0.0
 10
42.190018
 20
9.324702
 30
0.0
 10
15.219605
 20
36.295113
 30
0.0
 10
15.219605
 20
110.035591
 30
0.0
 10
15.459935
 20
110.234581
 30
0.0
 10
43.598372
 20
138.373017
 30
0.0
  0
LWPOLYLINE
  5
105
100
AcDbEntity
  8
Ebene_1
 62
7
100
AcDbPolyline
 90
4
 70
0
 10
81.989414
 20
138.373017
 30
0.0
 10
100.015257
 20
138.373017
 30
0.0
 10
100.015257
 20
120.347175
 30
0.0
 10
81.989414
 20
138.373017
 30
0.0
  0
LWPOLYLINE
  5
106
100
AcDbEntity
  8
Ebene_1
 62
7
100
AcDbPolyline
 90
18
 70
0
 10
105.015882
 20
132.046720
 30
0.0
 10
105.460618
 20
131.949152
 30
0.0
 10
105.836991
 20
131.688395
 30
0.0
 10
106.097571
 20
131.311900
 30
0.0
 10
106.194931
 20
130.867119
 30
0.0
 10
106.097424
 20
130.422502
 30
0.0
 10
105.836814
 20
130.046187
 30
0.0
 10
105.460500
 20
129.785577
 30
0.0
 10
105.015882
 20
129.688069
 30
0.0
 10
104.571101
 20
129.785429
 30
0.0
 10
104.194605
 20
130.046010
 30
0.0
 10
103.933848
 20
130.422383
 30
0.0
 10
103.836281
 20
130.867119
 30
0.0
 10
103.933701
 20
131.312018
 30
0.0
 10
104.194428
 20
131.688573
 30
0.0
 10
104.570983
 20
131.949300
 30
0.0
 10
105.015882
 20
132.046720
 30
0.0
 10
105.015882
 20
132.046720
 30
0.0
  0
LWPOLYLINE
  5
107
100
AcDbEntity
  8
Ebene_1
 62
7
100
AcDbPolyline
 90
18
 70
0
 10
21.752609
 20
122.087913
 30
0.0
 10
22.197390
 20
121.990553
 30
0.0
 10
22.573885
 20
121.729972
 30
0.0
 10
22.834642
 20
121.353599
 30
0.0
 10
22.932209
 20
120.908863
 30
0.0
 10
22.834790
 20
120.463964
 30
0.0
 10
22.574062
 20
120.087409
 30
0.0
 10
22.197508
 20
119.826681
 30
0.0
 10
21.752609
 20
119.729261
 30
0.0
 10
21.307709
 20
119.826681
 30
0.0
 10
20.931155
 20
120.087409
 30
0.0
 10
20.670427
 20
120.463964
 30
0.0
 10
20.573008
 20
120.908863
 30
0.0
 10
20.670575
 20
121.353599
 30
0.0
 10
20.931332
 20
121.729972
 30
0.0
 10
21.307827
 20
121.990554
 30
0.0
 10
21.752609
 20
122.087913
 30
0.0
 10
21.752609
 20
122.087913
 30
0.0
  0
LWPOLYLINE
  5
108
100
AcDbEntity
  8
Ebene_1
 62
7
100
AcDbPolyline
 90
18
 70
0
 10
105.475044
 20
46.678356
 30
0.0
 10
105.919826
 20
46.580997
 30
0.0
 10
106.296321
 20
46.320415
 30
0.0
 10
106.557078
 20
45.944041
 30
0.0
 10
106.654645
 20
45.499305
 30
0.0
 10
106.557225
 20
45.054406
 30
0.0
 10
106.296498
 20
44.677852
 30
0.0
 10
105.919943
 20
44.417126
 30
0.0
 10
105.475044
 20
44.319706
 30
0.0
 10
105.030307
 20
44.417273
 30
0.0
 10
104.653934
 20
44.678029
 30
0.0
 10
104.393352
 20
45.054524
 30
0.0
 10
104.295993
 20
45.499305
 30
0.0
 10
104.393499
 20
45.943923
 30
0.0
 10
104.654110
 20
46.320238
 30
0.0
 10
105.030425
 20
46.580849
 30
0.0
 10
105.475044
 20
46.678356
 30
0.0
 10
105.475044
 20
46.678356
 30
0.0
  0
LWPOLYLINE
  5
109
100
AcDbEntity
  8
Ebene_1
 62
7
100
AcDbPolyline
 90
18
 70
0
 10
12.408958
 20
41.623161
 30
0.0
 10
12.853858
 20
41.525741
 30
0.0
 10
13.230412
 20
41.265013
 30
0.0
 10
13.491140
 20
40.888459
 30
0.0
 10
13.588559
 20
40.443559
 30
0.0
 10
13.491140
 20
39.998660
 30
0.0
 10
13.230412
 20
39.622105
 30
0.0
 10
12.853858
 20
39.361378
 30
0.0
 10
12.408958
 20
39.263958
 30
0.0
 10
11.964059
 20
39.361378
 30
0.0
 10
11.587505
 20
39.622105
 30
0.0
 10
11.326777
 20
39.998660
 30
0.0
 10
11.229357
 20
40.443559
 30
0.0
 10
11.326777
 20
40.888459
 30
0.0
 10
11.587505
 20
41.265013
 30
0.0
 10
11.964059
 20
41.525741
 30
0.0
 10
12.408958
 20
41.623161
 30
0.0
 10
12.408958
 20
41.623161
 30
0.0
  0
LWPOLYLINE
  5
10a
100
AcDbEntity
  8
Ebene_1
 62
7
100
AcDbPolyline
 90
4
 70
0
 10
100.015257
 20
28.758899
 30
0.0
 10
100.015257
 20
9.324701
 30
0.0
 10
80.581060
 20
9.324701
 30
0.0
 10
100.015257
 20
28.758899
 30
0.0
  0
LWPOLYLINE
  5
10b
100
AcDbEntity
  8
Ebene_1
 62
7
100
AcDbPolyline
 90
4
 70
0
 10
15.219605
 20
27.314714
 30
0.0
 10
33.209619
 20
9.324701
 30
0.0
 10
15.219605
 20
9.324701
 30
0.0
 10
15.219605
 20
27.314714
 30
0.0
  0
LWPOLYLINE
  5
10c
100
AcDbEntity
  8
Ebene_1
 62
7
100
AcDbPolyline
 90
18
 70
0
 10
10.139605
 20
7.634122
 30
0.0
 10
10.678755
 20
7.515940
 30
0.0
 10
11.135039
 20
7.199872
 30
0.0
 10
11.450932
 20
6.743467
 30
0.0
 10
11.568906
 20
6.204272
 30
0.0
 10
11.450784
 20
5.665240
 30
0.0
 10
11.134862
 20
5.209015
 30
0.0
 10
10.678637
 20
4.893094
 30
0.0
 10
10.139605
 20
4.774971
 30
0.0
 10
9.600573
 20
4.893094
 30
0.0
 10
9.144348
 20
5.209015
 30
0.0
 10
8.828426
 20
5.665240
 30
0.0
 10
8.710304
 20
6.204272
 30
0.0
 10
8.828278
 20
6.743467
 30
0.0
 10
9.144171
 20
7.199872
 30
0.0
 10
9.600455
 20
7.515940
 30
0.0
 10
10.139605
 20
7.634122
 30
0.0
 10
10.139605
 20
7.634122
 30
0.0
  0
LWPOLYLINE
  5
10d
100
AcDbEntity
  8
Ebene_1
 62
7
100
AcDbPolyline
 90
18
 70
0
 10
105.116201
 20
7.561916
 30
0.0
 10
105.655234
 20
7.443794
 30
0.0
 10
106.111460
 20
7.127872
 30
0.0
 10
106.427383
 20
6.671645
 30
0.0
 10
106.545504
 20
6.132613
 30
0.0
 10
106.427382
 20
5.593580
 30
0.0
 10
106.111459
 20
5.137355
 30
0.0
 10
105.655233
 20
4.821433
 30
0.0
 10
105.116201
 20
4.703312
 30
0.0
 10
104.577169
 20
4.821435
 30
0.0
 10
104.120944
 20
5.137356
 30
0.0
 10
103.805023
 20
5.593581
 30
0.0
 10
103.686901
 20
6.132613
 30
0.0
 10
103.805022
 20
6.671645
 30
0.0
 10
104.120943
 20
7.127871
 30
0.0
 10
104.577169
 20
7.443793
 30
0.0
 10
105.116201
 20
7.561916
 30
0.0
 10
105.116201
 20
7.561916
 30
0.0
  0
ENDSEC
  0
SECTION
  2
OBJECTS
  0
DICTIONARY
  5
C
330
0
100
AcDbDictionary
  3
ACAD_GROUP
350
D
  3
ACAD_MLINESTYLE
350
17
  0
DICTIONARY
  5
D
330
C
100
AcDbDictionary
  0
DICTIONARY
  5
1A
330
C
100
AcDbDictionary
  0
DICTIONARY
  5
17
330
C
100
AcDbDictionary
  3
STANDARD
350
18
  0
DICTIONARY
  5
19
330
C
100
AcDbDictionary
  0
ENDSEC
  0
EOF
