  0
SECTION
  2
HEADER
  9
$ACADVER
  1
AC1014
  9
$HANDSEED
  5
FFFF
  9
$MEASUREMENT
 70
     1
  0
ENDSEC
  0
SECTION
  2
TABLES
  0
TABLE
  2
VPORT
  5
8
330
0
100
AcDbSymbolTable
 70
     4
  0
VPORT
  5
2E
330
8
100
AcDbSymbolTableRecord
100
AcDbViewportTableRecord
  2
*ACTIVE
 70
     0
 10
0.0
 20
0.0
 11
1.0
 21
1.0
 12
210.0
 22
148.5
 13
0.0
 23
0.0
 14
10.0
 24
10.0
 15
10.0
 25
10.0
 16
0.0
 26
0.0
 36
1.0
 17
0.0
 27
0.0
 37
0.0
 40
341.0
 41
1.24
 42
50.0
 43
0.0
 44
0.0
 50
0.0
 51
0.0
 71
     0
 72
   100
 73
     1
 74
     3
 75
     0
 76
     0
 77
     0
 78
     0
  0
ENDTAB
  0
TABLE
  2
LTYPE
  5
5
330
0
100
AcDbSymbolTable
 70
     1
  0
LTYPE
  5
14
330
5
100
AcDbSymbolTableRecord
100
AcDbLinetypeTableRecord
  2
BYBLOCK
 70
     0
  3

 72
    65
 73
     0
 40
0.0
  0
LTYPE
  5
15
330
5
100
AcDbSymbolTableRecord
100
AcDbLinetypeTableRecord
  2
BYLAYER
 70
     0
  3

 72
    65
 73
     0
 40
0.0
  0
LTYPE
  5
16
330
5
100
AcDbSymbolTableRecord
100
AcDbLinetypeTableRecord
  2
CONTINUOUS
 70
     0
  3
Solid line
 72
    65
 73
     0
 40
0.0
  0
ENDTAB
  0
TABLE
  2
LAYER
  5
2
100
AcDbSymbolTable
 70
2
  0
LAYER
  5
50
100
AcDbSymbolTableRecord
100
AcDbLayerTableRecord
  2
0
 70
0
  6
CONTINUOUS
  0
LAYER
  5
51
100
AcDbSymbolTableRecord
100
AcDbLayerTableRecord
  2
Layer_1
 70
0
  6
CONTINUOUS
  0
ENDTAB
  0
TABLE
  2
STYLE
  5
3
330
0
100
AcDbSymbolTable
 70
     1
  0
STYLE
  5
11
330
3
100
AcDbSymbolTableRecord
100
AcDbTextStyleTableRecord
  2
STANDARD
 70
     0
 40
0.0
 41
1.0
 50
0.0
 71
     0
 42
2.5
  3
txt
  4

  0
ENDTAB
  0
TABLE
  2
VIEW
  5
6
330
0
100
AcDbSymbolTable
 70
     0
  0
ENDTAB
  0
TABLE
  2
UCS
  5
7
330
0
100
AcDbSymbolTable
 70
     0
  0
ENDTAB
  0
TABLE
  2
APPID
  5
9
330
0
100
AcDbSymbolTable
 70
     2
  0
APPID
  5
12
330
9
100
AcDbSymbolTableRecord
100
AcDbRegAppTableRecord
  2
ACAD
 70
     0
  0
ENDTAB
  0
TABLE
  2
DIMSTYLE
  5
A
330
0
100
AcDbSymbolTable
 70
     1
  0
DIMSTYLE
105
27
330
A
100
AcDbSymbolTableRecord
100
AcDbDimStyleTableRecord
  2
ISO-25
 70
     0
  3

  4

  5

  6

  7

 40
1.0
 41
2.5
 42
0.625
 43
3.75
 44
1.25
 45
0.0
 46
0.0
 47
0.0
 48
0.0
140
2.5
141
2.5
142
0.0
143
0.03937007874016
144
1.0
145
0.0
146
1.0
147
0.625
 71
     0
 72
     0
 73
     0
 74
     0
 75
     0
 76
     0
 77
     1
 78
     8
170
     0
171
     3
172
     1
173
     0
174
     0
175
     0
176
     0
177
     0
178
     0
270
     2
271
     2
272
     2
273
     2
274
     3
340
11
275
     0
280
     0
281
     0
282
     0
283
     0
284
     8
285
     0
286
     0
287
     3
288
     0
  0
ENDTAB
  0
TABLE
  2
BLOCK_RECORD
  5
1
330
0
100
AcDbSymbolTable
 70
     1
  0
BLOCK_RECORD
  5
1F
330
1
100
AcDbSymbolTableRecord
100
AcDbBlockTableRecord
  2
*MODEL_SPACE
  0
BLOCK_RECORD
  5
1B
330
1
100
AcDbSymbolTableRecord
100
AcDbBlockTableRecord
  2
*PAPER_SPACE
  0
ENDTAB
  0
ENDSEC
  0
SECTION
  2
BLOCKS
  0
BLOCK
  5
20
330
1F
100
AcDbEntity
  8
0
100
AcDbBlockBegin
  2
*MODEL_SPACE
 70
     0
 10
0.0
 20
0.0
 30
0.0
  3
*MODEL_SPACE
  1

  0
ENDBLK
  5
21
330
1F
100
AcDbEntity
  8
0
100
AcDbBlockEnd
  0
BLOCK
  5
1C
330
1B
100
AcDbEntity
 67
     1
  8
0
100
AcDbBlockBegin
  2
*PAPER_SPACE
  1

  0
ENDBLK
  5
1D
330
1B
100
AcDbEntity
 67
     1
  8
0
100
AcDbBlockEnd
  0
ENDSEC
  0
SECTION
  2
ENTITIES
  0
LWPOLYLINE
  5
100
100
AcDbEntity
  8
Layer_1
 62
7
100
AcDbPolyline
 90
22
 70
0
 10
9.586736
 20
130.071821
 30
0.0
 10
6.780499
 20
130.071821
 30
0.0
 10
6.436469
 20
130.037353
 30
0.0
 10
6.116443
 20
129.938443
 30
0.0
 10
5.827161
 20
129.781830
 30
0.0
 10
5.575362
 20
129.574254
 30
0.0
 10
5.367786
 20
129.322455
 30
0.0
 10
5.211173
 20
129.033173
 30
0.0
 10
5.112263
 20
128.713147
 30
0.0
 10
5.077795
 20
128.369118
 30
0.0
 10
5.077795
 20
120.481777
 30
0.0
 10
5.112263
 20
120.137747
 30
0.0
 10
5.211173
 20
119.817722
 30
0.0
 10
5.367786
 20
119.528439
 30
0.0
 10
5.575362
 20
119.276641
 30
0.0
 10
5.827161
 20
119.069065
 30
0.0
 10
6.116443
 20
118.912452
 30
0.0
 10
6.436469
 20
118.813542
 30
0.0
 10
6.780499
 20
118.779074
 30
0.0
 10
9.586736
 20
118.779074
 30
0.0
 10
9.586736
 20
130.071821
 30
0.0
 10
9.586736
 20
130.071821
 30
0.0
  0
LWPOLYLINE
  5
101
100
AcDbEntity
  8
Layer_1
 62
7
100
AcDbPolyline
 90
38
 70
0
 10
101.605642
 20
15.759129
 30
0.0
 10
108.425575
 20
15.759129
 30
0.0
 10
108.769616
 20
15.724652
 30
0.0
 10
109.089669
 20
15.625715
 30
0.0
 10
109.378988
 20
15.469065
 30
0.0
 10
109.630830
 20
15.261447
 30
0.0
 10
109.838449
 20
15.009605
 30
0.0
 10
109.995099
 20
14.720285
 30
0.0
 10
110.094035
 20
14.400233
 30
0.0
 10
110.128513
 20
14.056192
 30
0.0
 10
110.128513
 20
11.544894
 30
0.0
 10
110.094035
 20
11.200849
 30
0.0
 10
109.995099
 20
10.880793
 30
0.0
 10
109.838449
 20
10.591470
 30
0.0
 10
109.630830
 20
10.339625
 30
0.0
 10
109.378988
 20
10.132004
 30
0.0
 10
109.089669
 20
9.975353
 30
0.0
 10
108.769616
 20
9.876415
 30
0.0
 10
108.425575
 20
9.841937
 30
0.0
 10
101.605642
 20
9.841937
 30
0.0
 10
101.261602
 20
9.876415
 30
0.0
 10
100.941550
 20
9.975353
 30
0.0
 10
100.652230
 20
10.132004
 30
0.0
 10
100.400388
 20
10.339625
 30
0.0
 10
100.192769
 20
10.591470
 30
0.0
 10
100.036119
 20
10.880793
 30
0.0
 10
99.937182
 20
11.200849
 30
0.0
 10
99.902704
 20
11.544894
 30
0.0
 10
99.902704
 20
14.056192
 30
0.0
 10
99.937182
 20
14.400233
 30
0.0
 10
100.036119
 20
14.720285
 30
0.0
 10
100.192769
 20
15.009605
 30
0.0
 10
100.400388
 20
15.261447
 30
0.0
 10
100.652230
 20
15.469065
 30
0.0
 10
100.941550
 20
15.625715
 30
0.0
 10
101.261602
 20
15.724652
 30
0.0
 10
101.605642
 20
15.759129
 30
0.0
 10
101.605642
 20
15.759129
 30
0.0
  0
LWPOLYLINE
  5
102
100
AcDbEntity
  8
Layer_1
 62
7
100
AcDbPolyline
 90
38
 70
0
 10
112.824768
 20
144.858501
 30
0.0
 10
120.433759
 20
144.858501
 30
0.0
 10
120.777798
 20
144.827513
 30
0.0
 10
121.097851
 20
144.738589
 30
0.0
 10
121.387170
 20
144.597793
 30
0.0
 10
121.639012
 20
144.411187
 30
0.0
 10
121.846631
 20
144.184833
 30
0.0
 10
122.003281
 20
143.924794
 30
0.0
 10
122.102218
 20
143.637133
 30
0.0
 10
122.136696
 20
143.327912
 30
0.0
 10
122.136696
 20
139.808310
 30
0.0
 10
122.102218
 20
139.499088
 30
0.0
 10
122.003281
 20
139.211427
 30
0.0
 10
121.846631
 20
138.951388
 30
0.0
 10
121.639012
 20
138.725034
 30
0.0
 10
121.387170
 20
138.538428
 30
0.0
 10
121.097851
 20
138.397632
 30
0.0
 10
120.777798
 20
138.308708
 30
0.0
 10
120.433759
 20
138.277720
 30
0.0
 10
112.824768
 20
138.277720
 30
0.0
 10
112.480728
 20
138.308708
 30
0.0
 10
112.160676
 20
138.397632
 30
0.0
 10
111.871356
 20
138.538428
 30
0.0
 10
111.619514
 20
138.725034
 30
0.0
 10
111.411896
 20
138.951388
 30
0.0
 10
111.255245
 20
139.211427
 30
0.0
 10
111.156309
 20
139.499088
 30
0.0
 10
111.121831
 20
139.808310
 30
0.0
 10
111.121831
 20
143.327912
 30
0.0
 10
111.156309
 20
143.637133
 30
0.0
 10
111.255245
 20
143.924794
 30
0.0
 10
111.411896
 20
144.184833
 30
0.0
 10
111.619514
 20
144.411187
 30
0.0
 10
111.871356
 20
144.597793
 30
0.0
 10
112.160676
 20
144.738589
 30
0.0
 10
112.480728
 20
144.827513
 30
0.0
 10
112.824768
 20
144.858501
 30
0.0
 10
112.824768
 20
144.858501
 30
0.0
  0
LWPOLYLINE
  5
103
100
AcDbEntity
  8
Layer_1
 62
7
100
AcDbPolyline
 90
38
 70
0
 10
31.374314
 20
144.858501
 30
0.0
 10
33.112462
 20
144.858501
 30
0.0
 10
33.456501
 20
144.827513
 30
0.0
 10
33.776553
 20
144.738589
 30
0.0
 10
34.065873
 20
144.597793
 30
0.0
 10
34.317714
 20
144.411187
 30
0.0
 10
34.525332
 20
144.184833
 30
0.0
 10
34.681982
 20
143.924794
 30
0.0
 10
34.780918
 20
143.637133
 30
0.0
 10
34.815396
 20
143.327912
 30
0.0
 10
34.815396
 20
139.808310
 30
0.0
 10
34.780918
 20
139.499088
 30
0.0
 10
34.681982
 20
139.211427
 30
0.0
 10
34.525332
 20
138.951388
 30
0.0
 10
34.317714
 20
138.725034
 30
0.0
 10
34.065873
 20
138.538428
 30
0.0
 10
33.776553
 20
138.397632
 30
0.0
 10
33.456501
 20
138.308708
 30
0.0
 10
33.112462
 20
138.277720
 30
0.0
 10
31.374314
 20
138.277720
 30
0.0
 10
31.030275
 20
138.308708
 30
0.0
 10
30.710222
 20
138.397632
 30
0.0
 10
30.420902
 20
138.538428
 30
0.0
 10
30.169061
 20
138.725034
 30
0.0
 10
29.961442
 20
138.951388
 30
0.0
 10
29.804791
 20
139.211427
 30
0.0
 10
29.705855
 20
139.499088
 30
0.0
 10
29.671377
 20
139.808310
 30
0.0
 10
29.671377
 20
143.327912
 30
0.0
 10
29.705855
 20
143.637133
 30
0.0
 10
29.804791
 20
143.924794
 30
0.0
 10
29.961442
 20
144.184833
 30
0.0
 10
30.169061
 20
144.411187
 30
0.0
 10
30.420902
 20
144.597793
 30
0.0
 10
30.710222
 20
144.738589
 30
0.0
 10
31.030275
 20
144.827513
 30
0.0
 10
31.374314
 20
144.858501
 30
0.0
 10
31.374314
 20
144.858501
 30
0.0
  0
ENDSEC
  0
SECTION
  2
OBJECTS
  0
DICTIONARY
  5
C
330
0
100
AcDbDictionary
  3
ACAD_GROUP
350
D
  3
ACAD_MLINESTYLE
350
17
  0
DICTIONARY
  5
D
330
C
100
AcDbDictionary
  0
DICTIONARY
  5
1A
330
C
100
AcDbDictionary
  0
DICTIONARY
  5
17
330
C
100
AcDbDictionary
  3
STANDARD
350
18
  0
DICTIONARY
  5
19
330
C
100
AcDbDictionary
  0
ENDSEC
  0
EOF
