  0
SECTION
  2
HEADER
  9
$ACADVER
  1
AC1014
  9
$HANDSEED
  5
FFFF
  9
$MEASUREMENT
 70
     1
  0
ENDSEC
  0
SECTION
  2
TABLES
  0
TABLE
  2
VPORT
  5
8
330
0
100
AcDbSymbolTable
 70
     4
  0
VPORT
  5
2E
330
8
100
AcDbSymbolTableRecord
100
AcDbViewportTableRecord
  2
*ACTIVE
 70
     0
 10
0.0
 20
0.0
 11
1.0
 21
1.0
 12
210.0
 22
148.5
 13
0.0
 23
0.0
 14
10.0
 24
10.0
 15
10.0
 25
10.0
 16
0.0
 26
0.0
 36
1.0
 17
0.0
 27
0.0
 37
0.0
 40
341.0
 41
1.24
 42
50.0
 43
0.0
 44
0.0
 50
0.0
 51
0.0
 71
     0
 72
   100
 73
     1
 74
     3
 75
     0
 76
     0
 77
     0
 78
     0
  0
ENDTAB
  0
TABLE
  2
LTYPE
  5
5
330
0
100
AcDbSymbolTable
 70
     1
  0
LTYPE
  5
14
330
5
100
AcDbSymbolTableRecord
100
AcDbLinetypeTableRecord
  2
BYBLOCK
 70
     0
  3

 72
    65
 73
     0
 40
0.0
  0
LTYPE
  5
15
330
5
100
AcDbSymbolTableRecord
100
AcDbLinetypeTableRecord
  2
BYLAYER
 70
     0
  3

 72
    65
 73
     0
 40
0.0
  0
LTYPE
  5
16
330
5
100
AcDbSymbolTableRecord
100
AcDbLinetypeTableRecord
  2
CONTINUOUS
 70
     0
  3
Solid line
 72
    65
 73
     0
 40
0.0
  0
ENDTAB
  0
TABLE
  2
LAYER
  5
2
100
AcDbSymbolTable
 70
2
  0
LAYER
  5
50
100
AcDbSymbolTableRecord
100
AcDbLayerTableRecord
  2
0
 70
0
  6
CONTINUOUS
  0
LAYER
  5
51
100
AcDbSymbolTableRecord
100
AcDbLayerTableRecord
  2
Ebene_1
 70
0
  6
CONTINUOUS
  0
ENDTAB
  0
TABLE
  2
STYLE
  5
3
330
0
100
AcDbSymbolTable
 70
     1
  0
STYLE
  5
11
330
3
100
AcDbSymbolTableRecord
100
AcDbTextStyleTableRecord
  2
STANDARD
 70
     0
 40
0.0
 41
1.0
 50
0.0
 71
     0
 42
2.5
  3
txt
  4

  0
ENDTAB
  0
TABLE
  2
VIEW
  5
6
330
0
100
AcDbSymbolTable
 70
     0
  0
ENDTAB
  0
TABLE
  2
UCS
  5
7
330
0
100
AcDbSymbolTable
 70
     0
  0
ENDTAB
  0
TABLE
  2
APPID
  5
9
330
0
100
AcDbSymbolTable
 70
     2
  0
APPID
  5
12
330
9
100
AcDbSymbolTableRecord
100
AcDbRegAppTableRecord
  2
ACAD
 70
     0
  0
ENDTAB
  0
TABLE
  2
DIMSTYLE
  5
A
330
0
100
AcDbSymbolTable
 70
     1
  0
DIMSTYLE
105
27
330
A
100
AcDbSymbolTableRecord
100
AcDbDimStyleTableRecord
  2
ISO-25
 70
     0
  3

  4

  5

  6

  7

 40
1.0
 41
2.5
 42
0.625
 43
3.75
 44
1.25
 45
0.0
 46
0.0
 47
0.0
 48
0.0
140
2.5
141
2.5
142
0.0
143
0.03937007874016
144
1.0
145
0.0
146
1.0
147
0.625
 71
     0
 72
     0
 73
     0
 74
     0
 75
     0
 76
     0
 77
     1
 78
     8
170
     0
171
     3
172
     1
173
     0
174
     0
175
     0
176
     0
177
     0
178
     0
270
     2
271
     2
272
     2
273
     2
274
     3
340
11
275
     0
280
     0
281
     0
282
     0
283
     0
284
     8
285
     0
286
     0
287
     3
288
     0
  0
ENDTAB
  0
TABLE
  2
BLOCK_RECORD
  5
1
330
0
100
AcDbSymbolTable
 70
     1
  0
BLOCK_RECORD
  5
1F
330
1
100
AcDbSymbolTableRecord
100
AcDbBlockTableRecord
  2
*MODEL_SPACE
  0
BLOCK_RECORD
  5
1B
330
1
100
AcDbSymbolTableRecord
100
AcDbBlockTableRecord
  2
*PAPER_SPACE
  0
ENDTAB
  0
ENDSEC
  0
SECTION
  2
BLOCKS
  0
BLOCK
  5
20
330
1F
100
AcDbEntity
  8
0
100
AcDbBlockBegin
  2
*MODEL_SPACE
 70
     0
 10
0.0
 20
0.0
 30
0.0
  3
*MODEL_SPACE
  1

  0
ENDBLK
  5
21
330
1F
100
AcDbEntity
  8
0
100
AcDbBlockEnd
  0
BLOCK
  5
1C
330
1B
100
AcDbEntity
 67
     1
  8
0
100
AcDbBlockBegin
  2
*PAPER_SPACE
  1

  0
ENDBLK
  5
1D
330
1B
100
AcDbEntity
 67
     1
  8
0
100
AcDbBlockEnd
  0
ENDSEC
  0
SECTION
  2
ENTITIES
  0
LWPOLYLINE
  5
100
100
AcDbEntity
  8
Ebene_1
 62
7
100
AcDbPolyline
 90
86
 70
0
 10
101.672209
 20
147.834076
 30
0.0
 10
101.008154
 20
147.700698
 30
0.0
 10
100.467073
 20
147.336509
 30
0.0
 10
100.102884
 20
146.795428
 30
0.0
 10
99.969506
 20
146.131372
 30
0.0
 10
99.969506
 20
110.067561
 30
0.0
 10
99.766106
 20
109.896134
 30
0.0
 10
95.268756
 20
109.750552
 30
0.0
 10
84.348427
 20
109.481824
 30
0.0
 10
70.862698
 20
109.341978
 30
0.0
 10
64.363302
 20
109.399144
 30
0.0
 10
58.669149
 20
109.583042
 30
0.0
 10
51.843519
 20
110.048643
 30
0.0
 10
44.071019
 20
110.762578
 30
0.0
 10
35.923996
 20
111.629172
 30
0.0
 10
27.974800
 20
112.552750
 30
0.0
 10
14.959287
 20
114.188150
 30
0.0
 10
9.603273
 20
114.903374
 30
0.0
 10
8.967721
 20
115.145907
 30
0.0
 10
8.408238
 20
115.241268
 30
0.0
 10
6.758451
 20
115.241268
 30
0.0
 10
6.094309
 20
115.107890
 30
0.0
 10
5.553038
 20
114.743701
 30
0.0
 10
5.188659
 20
114.202620
 30
0.0
 10
5.055195
 20
113.538564
 30
0.0
 10
5.055195
 20
105.742176
 30
0.0
 10
5.188659
 20
105.078034
 30
0.0
 10
5.553038
 20
104.536762
 30
0.0
 10
6.094309
 20
104.172384
 30
0.0
 10
6.758451
 20
104.038919
 30
0.0
 10
7.791979
 20
104.038919
 30
0.0
 10
50.659992
 20
76.644624
 30
0.0
 10
51.330511
 20
76.729725
 30
0.0
 10
52.103146
 20
76.752422
 30
0.0
 10
53.109132
 20
76.687501
 30
0.0
 10
54.304794
 20
76.479175
 30
0.0
 10
55.646456
 20
76.071657
 30
0.0
 10
57.090444
 20
75.409162
 30
0.0
 10
58.593081
 20
74.435902
 30
0.0
 10
59.599060
 20
73.611307
 30
0.0
 10
60.514258
 20
72.738437
 30
0.0
 10
62.086595
 20
70.903878
 30
0.0
 10
63.338658
 20
69.044240
 30
0.0
 10
64.299015
 20
67.271536
 30
0.0
 10
64.996231
 20
65.697779
 30
0.0
 10
65.458875
 20
64.434984
 30
0.0
 10
65.794709
 20
63.290331
 30
0.0
 10
99.969506
 20
40.607821
 30
0.0
 10
99.969506
 20
9.314228
 30
0.0
 10
100.028485
 20
3.050218
 30
0.0
 10
100.161863
 20
2.386168
 30
0.0
 10
100.526052
 20
1.845086
 30
0.0
 10
101.067133
 20
1.480893
 30
0.0
 10
101.731188
 20
1.347512
 30
0.0
 10
108.391523
 20
1.289084
 30
0.0
 10
109.055578
 20
1.422464
 30
0.0
 10
109.596660
 20
1.786657
 30
0.0
 10
109.960850
 20
2.327740
 30
0.0
 10
110.094228
 20
2.991790
 30
0.0
 10
110.094228
 20
40.393400
 30
0.0
 10
112.726626
 20
50.635008
 30
0.0
 10
114.746580
 20
58.865792
 30
0.0
 10
115.561921
 20
62.425405
 30
0.0
 10
116.106332
 20
65.106584
 30
0.0
 10
116.555681
 20
68.495372
 30
0.0
 10
116.960809
 20
73.198190
 30
0.0
 10
117.276730
 20
78.770832
 30
0.0
 10
117.458458
 20
84.769096
 30
0.0
 10
117.461008
 20
90.748776
 30
0.0
 10
117.239393
 20
96.265670
 30
0.0
 10
117.030465
 20
98.711757
 30
0.0
 10
116.748627
 20
100.875572
 30
0.0
 10
116.388254
 20
102.701588
 30
0.0
 10
115.943724
 20
104.134279
 30
0.0
 10
115.388308
 20
105.159092
 30
0.0
 10
114.582943
 20
106.218558
 30
0.0
 10
113.627493
 20
107.259881
 30
0.0
 10
112.621823
 20
108.230264
 30
0.0
 10
110.859280
 20
109.747028
 30
0.0
 10
110.094228
 20
110.346476
 30
0.0
 10
110.094228
 20
146.131372
 30
0.0
 10
109.960850
 20
146.795428
 30
0.0
 10
109.596660
 20
147.336509
 30
0.0
 10
109.055578
 20
147.700698
 30
0.0
 10
108.391523
 20
147.834076
 30
0.0
 10
101.672209
 20
147.834076
 30
0.0
  0
LWPOLYLINE
  5
101
100
AcDbEntity
  8
Ebene_1
 62
7
100
AcDbPolyline
 90
18
 70
0
 10
105.053915
 20
147.038121
 30
0.0
 10
105.393535
 20
146.969512
 30
0.0
 10
105.670876
 20
146.782509
 30
0.0
 10
105.857880
 20
146.505168
 30
0.0
 10
105.926489
 20
146.165547
 30
0.0
 10
105.857880
 20
145.825927
 30
0.0
 10
105.670876
 20
145.548586
 30
0.0
 10
105.393535
 20
145.361583
 30
0.0
 10
105.053915
 20
145.292974
 30
0.0
 10
104.714117
 20
145.361424
 30
0.0
 10
104.436597
 20
145.548391
 30
0.0
 10
104.249455
 20
145.825793
 30
0.0
 10
104.180790
 20
146.165547
 30
0.0
 10
104.249455
 20
146.505301
 30
0.0
 10
104.436597
 20
146.782703
 30
0.0
 10
104.714117
 20
146.969671
 30
0.0
 10
105.053915
 20
147.038121
 30
0.0
 10
105.053915
 20
147.038121
 30
0.0
  0
LWPOLYLINE
  5
102
100
AcDbEntity
  8
Ebene_1
 62
7
100
AcDbPolyline
 90
18
 70
0
 10
107.715733
 20
142.843373
 30
0.0
 10
108.072758
 20
142.771293
 30
0.0
 10
108.364308
 20
142.574725
 30
0.0
 10
108.560876
 20
142.283176
 30
0.0
 10
108.632955
 20
141.926151
 30
0.0
 10
108.560876
 20
141.569126
 30
0.0
 10
108.364308
 20
141.277576
 30
0.0
 10
108.072758
 20
141.081008
 30
0.0
 10
107.715733
 20
141.008929
 30
0.0
 10
107.358708
 20
141.081008
 30
0.0
 10
107.067158
 20
141.277576
 30
0.0
 10
106.870590
 20
141.569126
 30
0.0
 10
106.798511
 20
141.926151
 30
0.0
 10
106.870590
 20
142.283176
 30
0.0
 10
107.067158
 20
142.574725
 30
0.0
 10
107.358708
 20
142.771293
 30
0.0
 10
107.715733
 20
142.843373
 30
0.0
 10
107.715733
 20
142.843373
 30
0.0
  0
LWPOLYLINE
  5
103
100
AcDbEntity
  8
Ebene_1
 62
7
100
AcDbPolyline
 90
18
 70
0
 10
7.332266
 20
110.511841
 30
0.0
 10
7.672019
 20
110.443176
 30
0.0
 10
7.949421
 20
110.256034
 30
0.0
 10
8.136389
 20
109.978513
 30
0.0
 10
8.204840
 20
109.638716
 30
0.0
 10
8.136230
 20
109.299095
 30
0.0
 10
7.949227
 20
109.021754
 30
0.0
 10
7.671886
 20
108.834751
 30
0.0
 10
7.332266
 20
108.766142
 30
0.0
 10
6.992645
 20
108.834751
 30
0.0
 10
6.715305
 20
109.021754
 30
0.0
 10
6.528301
 20
109.299095
 30
0.0
 10
6.459692
 20
109.638716
 30
0.0
 10
6.528143
 20
109.978513
 30
0.0
 10
6.715110
 20
110.256034
 30
0.0
 10
6.992512
 20
110.443176
 30
0.0
 10
7.332266
 20
110.511841
 30
0.0
 10
7.332266
 20
110.511841
 30
0.0
  0
LWPOLYLINE
  5
104
100
AcDbEntity
  8
Ebene_1
 62
7
100
AcDbPolyline
 90
11
 70
0
 10
29.782714
 20
101.202916
 30
0.0
 10
107.624231
 20
101.202916
 30
0.0
 10
107.624231
 20
63.025195
 30
0.0
 10
105.670658
 20
60.344457
 30
0.0
 10
104.101757
 20
58.286604
 30
0.0
 10
102.380413
 20
55.856026
 30
0.0
 10
99.969506
 20
52.057114
 30
0.0
 10
82.681197
 20
63.912651
 30
0.0
 10
76.866420
 20
63.937459
 30
0.0
 10
76.825630
 20
67.897942
 30
0.0
 10
29.782714
 20
101.202916
 30
0.0
  0
LWPOLYLINE
  5
105
100
AcDbEntity
  8
Ebene_1
 62
7
100
AcDbPolyline
 90
18
 70
0
 10
31.364702
 20
94.699678
 30
0.0
 10
31.721727
 20
94.627599
 30
0.0
 10
32.013276
 20
94.431031
 30
0.0
 10
32.209844
 20
94.139482
 30
0.0
 10
32.281924
 20
93.782456
 30
0.0
 10
32.209844
 20
93.425432
 30
0.0
 10
32.013276
 20
93.133882
 30
0.0
 10
31.721727
 20
92.937314
 30
0.0
 10
31.364702
 20
92.865234
 30
0.0
 10
31.007677
 20
92.937314
 30
0.0
 10
30.716127
 20
93.133882
 30
0.0
 10
30.519559
 20
93.425432
 30
0.0
 10
30.447480
 20
93.782456
 30
0.0
 10
30.519559
 20
94.139482
 30
0.0
 10
30.716127
 20
94.431031
 30
0.0
 10
31.007677
 20
94.627599
 30
0.0
 10
31.364702
 20
94.699678
 30
0.0
 10
31.364702
 20
94.699678
 30
0.0
  0
LWPOLYLINE
  5
106
100
AcDbEntity
  8
Ebene_1
 62
7
100
AcDbPolyline
 90
18
 70
0
 10
114.066836
 20
94.608729
 30
0.0
 10
114.383102
 20
94.544891
 30
0.0
 10
114.641368
 20
94.370768
 30
0.0
 10
114.815490
 20
94.112503
 30
0.0
 10
114.879326
 20
93.796237
 30
0.0
 10
114.815331
 20
93.480147
 30
0.0
 10
114.641173
 20
93.222062
 30
0.0
 10
114.382969
 20
93.048079
 30
0.0
 10
114.066836
 20
92.984297
 30
0.0
 10
113.750703
 20
93.048078
 30
0.0
 10
113.492498
 20
93.222061
 30
0.0
 10
113.318339
 20
93.480147
 30
0.0
 10
113.254344
 20
93.796237
 30
0.0
 10
113.318180
 20
94.112504
 30
0.0
 10
113.492303
 20
94.370771
 30
0.0
 10
113.750569
 20
94.544893
 30
0.0
 10
114.066836
 20
94.608729
 30
0.0
 10
114.066836
 20
94.608729
 30
0.0
  0
LWPOLYLINE
  5
107
100
AcDbEntity
  8
Ebene_1
 62
7
100
AcDbPolyline
 90
22
 70
0
 10
70.066575
 20
68.018654
 30
0.0
 10
72.749890
 20
68.018654
 30
0.0
 10
73.414032
 20
67.885276
 30
0.0
 10
73.955303
 20
67.521088
 30
0.0
 10
74.319682
 20
66.980007
 30
0.0
 10
74.453146
 20
66.315951
 30
0.0
 10
74.453146
 20
65.241083
 30
0.0
 10
74.319682
 20
64.576939
 30
0.0
 10
73.955303
 20
64.035668
 30
0.0
 10
73.414032
 20
63.671290
 30
0.0
 10
72.749890
 20
63.537826
 30
0.0
 10
70.066575
 20
63.537826
 30
0.0
 10
69.402431
 20
63.671290
 30
0.0
 10
68.861160
 20
64.035668
 30
0.0
 10
68.496782
 20
64.576939
 30
0.0
 10
68.363318
 20
65.241083
 30
0.0
 10
68.363318
 20
66.315951
 30
0.0
 10
68.496782
 20
66.980007
 30
0.0
 10
68.861160
 20
67.521088
 30
0.0
 10
69.402431
 20
67.885276
 30
0.0
 10
70.066575
 20
68.018654
 30
0.0
 10
70.066575
 20
68.018654
 30
0.0
  0
LWPOLYLINE
  5
108
100
AcDbEntity
  8
Ebene_1
 62
7
100
AcDbPolyline
 90
18
 70
0
 10
81.146055
 20
60.202422
 30
0.0
 10
81.438613
 20
60.141665
 30
0.0
 10
81.677469
 20
59.976135
 30
0.0
 10
81.838445
 20
59.730685
 30
0.0
 10
81.897361
 20
59.430169
 30
0.0
 10
81.838291
 20
59.129831
 30
0.0
 10
81.677280
 20
58.884562
 30
0.0
 10
81.438483
 20
58.719171
 30
0.0
 10
81.146055
 20
58.658469
 30
0.0
 10
80.853450
 20
58.719008
 30
0.0
 10
80.614474
 20
58.884362
 30
0.0
 10
80.453324
 20
59.129694
 30
0.0
 10
80.394198
 20
59.430169
 30
0.0
 10
80.453168
 20
59.730822
 30
0.0
 10
80.614283
 20
59.976335
 30
0.0
 10
80.853320
 20
60.141828
 30
0.0
 10
81.146055
 20
60.202422
 30
0.0
 10
81.146055
 20
60.202422
 30
0.0
  0
LWPOLYLINE
  5
109
100
AcDbEntity
  8
Ebene_1
 62
7
100
AcDbPolyline
 90
18
 70
0
 10
105.015329
 20
32.900180
 30
0.0
 10
105.355126
 20
32.831729
 30
0.0
 10
105.632647
 20
32.644762
 30
0.0
 10
105.819789
 20
32.367359
 30
0.0
 10
105.888454
 20
32.027605
 30
0.0
 10
105.819948
 20
31.687674
 30
0.0
 10
105.632841
 20
31.410093
 30
0.0
 10
105.355260
 20
31.222986
 30
0.0
 10
105.015329
 20
31.154480
 30
0.0
 10
104.675575
 20
31.223146
 30
0.0
 10
104.398174
 20
31.410289
 30
0.0
 10
104.211207
 20
31.687808
 30
0.0
 10
104.142757
 20
32.027605
 30
0.0
 10
104.211366
 20
32.367224
 30
0.0
 10
104.398370
 20
32.644565
 30
0.0
 10
104.675710
 20
32.831569
 30
0.0
 10
105.015329
 20
32.900180
 30
0.0
 10
105.015329
 20
32.900180
 30
0.0
  0
LWPOLYLINE
  5
10a
100
AcDbEntity
  8
Ebene_1
 62
7
100
AcDbPolyline
 90
18
 70
0
 10
106.592356
 20
5.687232
 30
0.0
 10
106.884957
 20
5.626693
 30
0.0
 10
107.123932
 20
5.461337
 30
0.0
 10
107.285083
 20
5.216003
 30
0.0
 10
107.344216
 20
4.915529
 30
0.0
 10
107.285249
 20
4.614874
 30
0.0
 10
107.124135
 20
4.369362
 30
0.0
 10
106.885096
 20
4.203870
 30
0.0
 10
106.592356
 20
4.143276
 30
0.0
 10
106.299793
 20
4.204032
 30
0.0
 10
106.060934
 20
4.369563
 30
0.0
 10
105.899959
 20
4.615013
 30
0.0
 10
105.841049
 20
4.915529
 30
0.0
 10
105.900126
 20
5.215865
 30
0.0
 10
106.061138
 20
5.461136
 30
0.0
 10
106.299933
 20
5.626530
 30
0.0
 10
106.592356
 20
5.687232
 30
0.0
 10
106.592356
 20
5.687232
 30
0.0
  0
ENDSEC
  0
SECTION
  2
OBJECTS
  0
DICTIONARY
  5
C
330
0
100
AcDbDictionary
  3
ACAD_GROUP
350
D
  3
ACAD_MLINESTYLE
350
17
  0
DICTIONARY
  5
D
330
C
100
AcDbDictionary
  0
DICTIONARY
  5
1A
330
C
100
AcDbDictionary
  0
DICTIONARY
  5
17
330
C
100
AcDbDictionary
  3
STANDARD
350
18
  0
DICTIONARY
  5
19
330
C
100
AcDbDictionary
  0
ENDSEC
  0
EOF
