<?xml version="1.0" encoding="UTF-8" standalone="no"?>
<svg
   xmlns:dc="http://purl.org/dc/elements/1.1/"
   xmlns:cc="http://creativecommons.org/ns#"
   xmlns:rdf="http://www.w3.org/1999/02/22-rdf-syntax-ns#"
   xmlns:svg="http://www.w3.org/2000/svg"
   xmlns="http://www.w3.org/2000/svg"
   xmlns:sodipodi="http://sodipodi.sourceforge.net/DTD/sodipodi-0.dtd"
   xmlns:inkscape="http://www.inkscape.org/namespaces/inkscape"
   width="744.094488189"
   height="1052.36220472"
   id="svg3355"
   version="1.1"
   inkscape:version="0.48.4 r9939"
   sodipodi:docname="Blende_Gehaeuse_ATX_Beschr.svg">
  <sodipodi:namedview
     pagecolor="#ffffff"
     bordercolor="#666666"
     borderopacity="1"
     objecttolerance="10"
     gridtolerance="10"
     guidetolerance="10"
     inkscape:pageopacity="0"
     inkscape:pageshadow="2"
     inkscape:window-width="1920"
     inkscape:window-height="1025"
     id="namedview3453"
     showgrid="true"
     inkscape:zoom="1.0723898"
     inkscape:cx="237.34629"
     inkscape:cy="70.124464"
     inkscape:window-x="-2"
     inkscape:window-y="-3"
     inkscape:window-maximized="1"
     inkscape:current-layer="g3375"
     inkscape:snap-global="true">
    <inkscape:grid
       type="xygrid"
       id="grid3946" />
  </sodipodi:namedview>
  <metadata
     id="metadata3455">
    <rdf:RDF>
      <cc:Work
         rdf:about="">
        <dc:format>image/svg+xml</dc:format>
        <dc:type
           rdf:resource="http://purl.org/dc/dcmitype/StillImage" />
        <dc:title></dc:title>
      </cc:Work>
    </rdf:RDF>
  </metadata>
  <desc
     id="desc3357">/home/hardy/Downloads/emptypanel_dxfR12.dxf - scale = 0.500000, origin = (0.000000, 0.000000), auto = True</desc>
  <defs
     id="defs3359">
    <inkscape:path-effect
       effect="skeletal"
       id="path-effect3110"
       is_visible="true"
       pattern="M 0,0 1,0"
       copytype="single_stretched"
       prop_scale="1"
       scale_y_rel="false"
       spacing="0"
       normal_offset="0"
       tang_offset="0"
       prop_units="false"
       vertical_pattern="false"
       fuse_tolerance="0" />
    <marker
       style="overflow:visible"
       refY="0.0"
       refX="0.0"
       orient="auto"
       id="DistanceX">
      <path
         id="path3362"
         style="stroke:#000000; stroke-width:0.5"
         d="M 3,-3 L -3,3 M 0,-5 L  0,5" />
    </marker>
    <pattern
       y="0"
       x="0"
       width="8"
       patternUnits="userSpaceOnUse"
       id="Hatch"
       height="8">
      <path
         id="path3365"
         stroke-width="0.25"
         stroke="#000000"
         linecap="square"
         d="M8 4 l-4,4" />
      <path
         id="path3367"
         stroke-width="0.25"
         stroke="#000000"
         linecap="square"
         d="M6 2 l-4,4" />
      <path
         id="path3369"
         stroke-width="0.25"
         stroke="#000000"
         linecap="square"
         d="M4 0 l-4,4" />
    </pattern>
    <symbol
       id="$MODEL_SPACE" />
    <symbol
       id="$PAPER_SPACE" />
    <pattern
       patternUnits="userSpaceOnUse"
       width="285.71875"
       height="108.03125"
       patternTransform="translate(0,944.34375)"
       id="pattern3124">
      <g
         id="g3093"
         transform="translate(0,-944.34375)">
        <path
           inkscape:connector-curvature="0"
           id="path3441"
           style="fill:none;stroke:#000000"
           d="m 0.5,963.66625 0,88.19595" />
        <path
           inkscape:connector-curvature="0"
           id="path3443"
           style="fill:none;stroke:#000000"
           d="M 13.815457,944.83535 0.5,963.66625" />
        <path
           inkscape:connector-curvature="0"
           id="path3445"
           style="fill:none;stroke:#000000"
           d="m 271.88927,944.83535 -258.073813,0" />
        <path
           inkscape:connector-curvature="0"
           id="path3447"
           style="fill:none;stroke:#000000"
           d="m 285.20472,963.66625 -13.31545,-18.8309" />
        <path
           inkscape:connector-curvature="0"
           id="path3449"
           style="fill:none;stroke:#000000"
           d="m 285.20472,1051.8622 0,-88.19595" />
        <path
           inkscape:connector-curvature="0"
           id="path3451"
           style="fill:none;stroke:#000000"
           d="m 0.5,1051.8622 284.70472,0" />
      </g>
    </pattern>
  </defs>
  <g
     id="g3373"
     inkscape:label="0"
     inkscape:groupmode="layer" />
  <g
     id="g3375"
     inkscape:label="VISIBLE__ISO_"
     inkscape:groupmode="layer">
    <path
       sodipodi:type="arc"
       style="fill:none;stroke:#000000;stroke-width:0.35058442;stroke-linecap:round;stroke-linejoin:round;stroke-miterlimit:4;stroke-opacity:1;stroke-dasharray:none"
       id="path3053"
       sodipodi:cx="61.894474"
       sodipodi:cy="990.58429"
       sodipodi:rx="9.0918436"
       sodipodi:ry="9.0918436"
       d="m 70.986318,990.58429 a 9.0918436,9.0918436 0 1 1 -18.183688,0 9.0918436,9.0918436 0 1 1 18.183688,0 z"
       transform="matrix(2.5805466,0,0,2.5651696,-52.019418,-1622.0529)" />
    <path
       sodipodi:type="arc"
       style="fill:none;stroke:#000000;stroke-width:0.35058442;stroke-linecap:round;stroke-linejoin:round;stroke-miterlimit:4;stroke-opacity:1;stroke-dasharray:none"
       id="path3053-6"
       sodipodi:cx="61.894474"
       sodipodi:cy="990.58429"
       sodipodi:rx="9.0918436"
       sodipodi:ry="9.0918436"
       d="m 70.986318,990.58429 a 9.0918436,9.0918436 0 1 1 -18.183688,0 9.0918436,9.0918436 0 1 1 18.183688,0 z"
       transform="matrix(2.5805466,0,0,2.5651696,3.3832439,-1653.5725)" />
    <path
       sodipodi:type="arc"
       style="fill:none;stroke:#000000;stroke-width:0.35058442;stroke-linecap:round;stroke-linejoin:round;stroke-miterlimit:4;stroke-opacity:1;stroke-dasharray:none"
       id="path3053-7"
       sodipodi:cx="61.894474"
       sodipodi:cy="990.58429"
       sodipodi:rx="9.0918436"
       sodipodi:ry="9.0918436"
       d="m 70.986318,990.58429 a 9.0918436,9.0918436 0 1 1 -18.183688,0 9.0918436,9.0918436 0 1 1 18.183688,0 z"
       transform="matrix(2.5805466,0,0,2.5651696,3.3832439,-1595.3827)" />
    <path
       sodipodi:type="arc"
       style="fill:none;stroke:#000000;stroke-width:0.35058442;stroke-linecap:round;stroke-linejoin:round;stroke-miterlimit:4;stroke-opacity:1;stroke-dasharray:none"
       id="path3053-5"
       sodipodi:cx="61.894474"
       sodipodi:cy="990.58429"
       sodipodi:rx="9.0918436"
       sodipodi:ry="9.0918436"
       d="m 70.986318,990.58429 a 9.0918436,9.0918436 0 1 1 -18.183688,0 9.0918436,9.0918436 0 1 1 18.183688,0 z"
       transform="matrix(2.5805466,0,0,2.5651696,59.366649,-1622.0529)" />
    <path
       sodipodi:type="arc"
       style="fill:none;stroke:#000000;stroke-width:0.35058442;stroke-linecap:round;stroke-linejoin:round;stroke-miterlimit:4;stroke-opacity:1;stroke-dasharray:none"
       id="path3053-3"
       sodipodi:cx="61.894474"
       sodipodi:cy="990.58429"
       sodipodi:rx="9.0918436"
       sodipodi:ry="9.0918436"
       d="m 70.986318,990.58429 a 9.0918436,9.0918436 0 1 1 -18.183688,0 9.0918436,9.0918436 0 1 1 18.183688,0 z"
       transform="matrix(2.5805466,0,0,2.5651696,3.3832439,-1536.9619)" />
    <path
       sodipodi:type="arc"
       style="fill:none;stroke:#000000;stroke-width:0.35058442;stroke-linecap:round;stroke-linejoin:round;stroke-miterlimit:4;stroke-opacity:1;stroke-dasharray:none"
       id="path3053-56"
       sodipodi:cx="61.894474"
       sodipodi:cy="990.58429"
       sodipodi:rx="9.0918436"
       sodipodi:ry="9.0918436"
       d="m 70.986318,990.58429 a 9.0918436,9.0918436 0 1 1 -18.183688,0 9.0918436,9.0918436 0 1 1 18.183688,0 z"
       transform="matrix(2.5805466,0,0,2.5651696,-90.348309,-1536.9619)" />
    <path
       sodipodi:type="arc"
       style="fill:none;stroke:#000000;stroke-width:0.22992878;stroke-linecap:round;stroke-linejoin:round;stroke-miterlimit:4;stroke-opacity:1;stroke-dasharray:none"
       id="path3053-2"
       sodipodi:cx="61.894474"
       sodipodi:cy="990.58429"
       sodipodi:rx="9.0918436"
       sodipodi:ry="9.0918436"
       d="m 70.986318,990.58429 a 9.0918436,9.0918436 0 1 1 -18.183688,0 9.0918436,9.0918436 0 1 1 18.183688,0 z"
       transform="matrix(3.9346948,0,0,3.9112487,176.18831,-2928.8435)" />
    <path
       sodipodi:type="arc"
       style="fill:none;stroke:#000000;stroke-width:0.90905708;stroke-linecap:round;stroke-linejoin:round;stroke-miterlimit:4;stroke-opacity:1;stroke-dasharray:none"
       id="path3053-9"
       sodipodi:cx="61.894474"
       sodipodi:cy="990.58429"
       sodipodi:rx="9.0918436"
       sodipodi:ry="9.0918436"
       d="m 70.986318,990.58429 a 9.0918436,9.0918436 0 1 1 -18.183688,0 9.0918436,9.0918436 0 1 1 18.183688,0 z"
       transform="matrix(0.99520644,0,0,0.98927623,222.67109,-123.24208)" />
    <path
       sodipodi:type="arc"
       style="fill:none;stroke:#000000;stroke-width:0.90905708;stroke-linecap:round;stroke-linejoin:round;stroke-miterlimit:4;stroke-opacity:1;stroke-dasharray:none"
       id="path3053-9-1"
       sodipodi:cx="61.894474"
       sodipodi:cy="990.58429"
       sodipodi:rx="9.0918436"
       sodipodi:ry="9.0918436"
       d="m 70.986318,990.58429 a 9.0918436,9.0918436 0 1 1 -18.183688,0 9.0918436,9.0918436 0 1 1 18.183688,0 z"
       transform="matrix(0.99520644,0,0,0.98927623,470.77037,-123.07588)" />
    <path
       sodipodi:type="arc"
       style="fill:none;stroke:#000000;stroke-width:0.90905708;stroke-linecap:round;stroke-linejoin:round;stroke-miterlimit:4;stroke-opacity:1;stroke-dasharray:none"
       id="path3053-9-2"
       sodipodi:cx="61.894474"
       sodipodi:cy="990.58429"
       sodipodi:rx="9.0918436"
       sodipodi:ry="9.0918436"
       d="m 70.986318,990.58429 a 9.0918436,9.0918436 0 1 1 -18.183688,0 9.0918436,9.0918436 0 1 1 18.183688,0 z"
       transform="matrix(0.99520644,0,0,0.98927623,489.26964,54.888997)" />
    <path
       sodipodi:type="arc"
       style="fill:none;stroke:#000000;stroke-width:0.90905708;stroke-linecap:round;stroke-linejoin:round;stroke-miterlimit:4;stroke-opacity:1;stroke-dasharray:none"
       id="path3053-9-7"
       sodipodi:cx="61.894474"
       sodipodi:cy="990.58429"
       sodipodi:rx="9.0918436"
       sodipodi:ry="9.0918436"
       d="m 70.986318,990.58429 a 9.0918436,9.0918436 0 1 1 -18.183688,0 9.0918436,9.0918436 0 1 1 18.183688,0 z"
       transform="matrix(0.99520644,0,0,0.98927623,222.59148,54.689191)" />
    <path
       sodipodi:type="arc"
       style="fill:none;stroke:#000000;stroke-width:0.90905708;stroke-linecap:round;stroke-linejoin:round;stroke-miterlimit:4;stroke-opacity:1;stroke-dasharray:none"
       id="path3053-9-0"
       sodipodi:cx="61.894474"
       sodipodi:cy="990.58429"
       sodipodi:rx="9.0918436"
       sodipodi:ry="9.0918436"
       d="m 70.986318,990.58429 a 9.0918436,9.0918436 0 1 1 -18.183688,0 9.0918436,9.0918436 0 1 1 18.183688,0 z"
       transform="matrix(0.99520644,0,0,0.98927623,-43.879013,54.855042)" />
    <path
       sodipodi:type="arc"
       style="fill:none;stroke:#000000;stroke-width:0.90905708;stroke-linecap:round;stroke-linejoin:round;stroke-miterlimit:4;stroke-opacity:1;stroke-dasharray:none"
       id="path3053-9-9"
       sodipodi:cx="61.894474"
       sodipodi:cy="990.58429"
       sodipodi:rx="9.0918436"
       sodipodi:ry="9.0918436"
       d="m 70.986318,990.58429 a 9.0918436,9.0918436 0 1 1 -18.183688,0 9.0918436,9.0918436 0 1 1 18.183688,0 z"
       transform="matrix(0.99520644,0,0,0.98927623,-25.646342,-123.36454)" />
    <path
       style="fill:none;stroke:#000000;stroke-width:1px;stroke-linecap:butt;stroke-linejoin:miter;stroke-opacity:1"
       d="m 3.7157685,879.94591 c 0,0 26.3223705,-37.1461 26.7330165,-37.1461 0.410644,0 508.609955,0 508.609955,0 l 25.88066,36.3297 0,169.32079 -561.2236315,0 z"
       id="path3161"
       inkscape:connector-curvature="0"
       sodipodi:nodetypes="csccccc" />
  </g>
</svg>
