<?xml version="1.0" encoding="UTF-8" standalone="no"?>
<svg
   xmlns:dc="http://purl.org/dc/elements/1.1/"
   xmlns:cc="http://creativecommons.org/ns#"
   xmlns:rdf="http://www.w3.org/1999/02/22-rdf-syntax-ns#"
   xmlns:svg="http://www.w3.org/2000/svg"
   xmlns="http://www.w3.org/2000/svg"
   xmlns:sodipodi="http://sodipodi.sourceforge.net/DTD/sodipodi-0.dtd"
   xmlns:inkscape="http://www.inkscape.org/namespaces/inkscape"
   width="744.094488189"
   height="1052.36220472"
   id="svg3355"
   version="1.1"
   inkscape:version="0.48.4 r9939"
   sodipodi:docname="Blende_Gehaeuse_ATX_Beschr.svg">
  <sodipodi:namedview
     pagecolor="#ffffff"
     bordercolor="#666666"
     borderopacity="1"
     objecttolerance="10"
     gridtolerance="10"
     guidetolerance="10"
     inkscape:pageopacity="0"
     inkscape:pageshadow="2"
     inkscape:window-width="1920"
     inkscape:window-height="1025"
     id="namedview3453"
     showgrid="false"
     inkscape:zoom="2.1447796"
     inkscape:cx="103.60096"
     inkscape:cy="-7.3591231"
     inkscape:window-x="-2"
     inkscape:window-y="-3"
     inkscape:window-maximized="1"
     inkscape:current-layer="g3375" />
  <metadata
     id="metadata3455">
    <rdf:RDF>
      <cc:Work
         rdf:about="">
        <dc:format>image/svg+xml</dc:format>
        <dc:type
           rdf:resource="http://purl.org/dc/dcmitype/StillImage" />
        <dc:title></dc:title>
      </cc:Work>
    </rdf:RDF>
  </metadata>
  <desc
     id="desc3357">/home/hardy/Downloads/emptypanel_dxfR12.dxf - scale = 0.500000, origin = (0.000000, 0.000000), auto = True</desc>
  <defs
     id="defs3359">
    <inkscape:path-effect
       fuse_tolerance="0"
       vertical_pattern="false"
       prop_units="false"
       tang_offset="0"
       normal_offset="0"
       spacing="0"
       scale_y_rel="false"
       prop_scale="1"
       copytype="single_stretched"
       pattern="M 0,0 1,0"
       is_visible="true"
       id="path-effect3110"
       effect="skeletal" />
    <marker
       id="DistanceX"
       orient="auto"
       refX="0.0"
       refY="0.0"
       style="overflow:visible">
      <path
         d="M 3,-3 L -3,3 M 0,-5 L  0,5"
         style="stroke:#000000; stroke-width:0.5"
         id="path3362" />
    </marker>
    <pattern
       height="8"
       id="Hatch"
       patternUnits="userSpaceOnUse"
       width="8"
       x="0"
       y="0">
      <path
         d="M8 4 l-4,4"
         linecap="square"
         stroke="#000000"
         stroke-width="0.25"
         id="path3365" />
      <path
         d="M6 2 l-4,4"
         linecap="square"
         stroke="#000000"
         stroke-width="0.25"
         id="path3367" />
      <path
         d="M4 0 l-4,4"
         linecap="square"
         stroke="#000000"
         stroke-width="0.25"
         id="path3369" />
    </pattern>
    <symbol
       id="$MODEL_SPACE" />
    <symbol
       id="$PAPER_SPACE" />
    <pattern
       id="pattern3124"
       patternTransform="translate(0,944.34375)"
       height="108.03125"
       width="285.71875"
       patternUnits="userSpaceOnUse">
      <g
         transform="translate(0,-944.34375)"
         id="g3093">
        <path
           d="m 0.5,963.66625 0,88.19595"
           style="fill:none;stroke:#000000"
           id="path3441"
           inkscape:connector-curvature="0" />
        <path
           d="M 13.815457,944.83535 0.5,963.66625"
           style="fill:none;stroke:#000000"
           id="path3443"
           inkscape:connector-curvature="0" />
        <path
           d="m 271.88927,944.83535 -258.073813,0"
           style="fill:none;stroke:#000000"
           id="path3445"
           inkscape:connector-curvature="0" />
        <path
           d="m 285.20472,963.66625 -13.31545,-18.8309"
           style="fill:none;stroke:#000000"
           id="path3447"
           inkscape:connector-curvature="0" />
        <path
           d="m 285.20472,1051.8622 0,-88.19595"
           style="fill:none;stroke:#000000"
           id="path3449"
           inkscape:connector-curvature="0" />
        <path
           d="m 0.5,1051.8622 284.70472,0"
           style="fill:none;stroke:#000000"
           id="path3451"
           inkscape:connector-curvature="0" />
      </g>
    </pattern>
  </defs>
  <g
     inkscape:groupmode="layer"
     inkscape:label="0"
     id="g3373" />
  <g
     inkscape:groupmode="layer"
     inkscape:label="VISIBLE__ISO_"
     id="g3375">
    <g
       style="fill:none;fill-opacity:1"
       id="g3878">
      <path
         d="m 276.61221,1034.4114 a 8.858268,8.858268 0 0 0 -8.85827,8.8583 m 8.85827,-8.8583 a 3.543307,3.543307 0 0 0 3.54331,-3.5433 m 0,0 0,-65.59702 m 0,0 -2.66091,-3.76309 m 0,0 a 3.543307,3.543307 0 0 0 -4.93883,-0.84737 m -13.97259,-7.23275 a 8.858268,8.858268 0 0 0 13.97259,7.23275 m -13.97259,-7.23275 a 3.543307,3.543307 0 0 0 -3.54332,-3.5433 m 0,0 -99.78593,0 m 0,0 a 3.543307,3.543307 0 0 0 -3.54331,3.5433 m -17.71653,0 a 8.858268,8.858268 0 0 0 17.71653,0 m -17.71653,0 a 3.543307,3.543307 0 0 0 -3.54331,-3.5433 m 0,0 -99.785942,0 m 0,0 a 3.543307,3.543307 0 0 0 -3.543307,3.5433 m -13.972591,7.23275 a 8.858268,8.858268 0 0 0 13.972591,-7.23275 m -13.972591,7.23275 a 3.543307,3.543307 0 0 0 -4.938828,0.84737 m 0,0 -2.66091,3.76309 m 0,0 0,65.59702 m 0,0 a 3.543307,3.543307 0 0 0 3.543307,3.5433 m 8.858268,8.8583 a 8.858268,8.858268 0 0 0 -8.858268,-8.8583 m 8.858268,8.8583 a 3.543307,3.543307 0 0 0 3.543307,3.5433 m 0,0 108.956696,0 m 0,0 a 3.543307,3.543307 0 0 0 3.54331,-3.5433 m 17.71653,0 a 8.858268,8.858268 0 0 0 -17.71653,0 m 17.71653,0 a 3.543307,3.543307 0 0 0 3.54331,3.5433 m 0,0 108.95668,0 m 0,0 a 3.543307,3.543307 0 0 0 3.54332,-3.5433"
         style="fill:none;stroke:#000000;fill-opacity:1"
         id="path3427" />
    </g>
    <path
       style="fill:none;stroke:#00ff00;stroke-width:0.30000000999999998;stroke-linecap:butt;stroke-linejoin:miter;stroke-miterlimit:4;stroke-opacity:1;stroke-dasharray:none;fill-opacity:1"
       d="m 30.74335,949.85001 c 0,0 -1.257969,-0.0597 -2.082187,0.72326 -0.824219,0.78301 -1.496985,1.579 -1.474023,2.78027 0.03621,1.8945 -0.831962,4.30415 -2.513866,6.05801 -2.004158,2.08991 -4.41315,2.87463 -6.787733,2.78113 -2.083003,-0.082 -5.422772,-1.79621 -5.876092,-2.00227 -0.701014,-0.2789 -2.1158984,-0.19148 -3.0058975,0.51868 -0.821264,0.65531 -3.4400767,4.65683 -3.4400767,4.65683 l 0,65.52538 c 0,0 -0.2239826,1.1888 1.1126949,2.5551 0.7830076,0.5357 1.7112889,0.9695 2.4314446,1.0302 2.1917517,0.061 2.9658997,0.4076 4.2035147,0.9891 0.806895,0.3791 2.999261,1.8357 4.203514,4.698 0.735426,1.748 -0.09292,3.8614 1.442811,5.469 0.476634,0.499 1.112266,1.2896 2.472227,1.2072 0.165199,0.035 109.085319,0 109.085319,0 0,0 1.41943,0.1026 2.51946,-1.2707 1.73255,-1.7683 0.37548,-5.4179 3.3837,-8.2756 3.00822,-2.8577 4.79845,-2.7716 5.84195,-2.8582 2.10238,-0.1744 5.23849,0.6512 7.1707,2.7612 1.25735,1.3731 1.90716,3.1428 2.23246,4.6593 0.31991,1.4914 -0.0166,2.6316 1.17848,3.9633 1.31167,1.0986 3.22402,1.0207 3.22402,1.0207 l 108.54958,0 c 0,0 1.47566,-0.3006 2.18417,-1.1539 0.56705,-0.683 1.14112,-1.7707 1.07149,-3.1732 -0.0864,-1.7399 1.13632,-4.3064 2.68371,-5.6967 1.3049,-1.1725 3.66203,-2.2507 6.01179,-2.2982 0.7876,-0.016 2.323,-0.6613 2.8987,-1.5595 0.54083,-0.8437 0.64359,-1.4656 0.6848,-2.0426 0.0412,-0.5769 0,-65.67351 0,-65.67351 l -3.13018,-4.24473 c 0,0 -1.17597,-0.91121 -2.07304,-0.92121 -1.1302,-0.19941 -2.31389,0.7568 -2.94012,1.01113 -3.93811,1.59937 -5.19329,1.59584 -7.84464,0.65188 -2.11958,-0.75463 -4.11372,-2.93576 -4.69805,-4.40957 -1.23719,-3.12046 -0.49701,-4.55888 -1.48359,-5.85195 -1.32785,-1.74036 -2.43145,-1.58662 -2.88477,-1.62783 -0.45332,-0.0412 -99.93649,0 -99.93649,0 0.0295,-0.04 -1.3026,0.0361 -2.32842,1.07149 -0.60166,0.60729 -1.17451,1.9163 -1.05088,2.86415 -0.61816,3.51323 -0.83457,3.52071 -2.27074,5.51347 -0.94077,1.35169 -4.06402,3.0634 -6.75445,2.97598 -3.41713,-0.11103 -6.22708,-2.18502 -7.58281,-4.4737 -1.73435,-2.92784 -0.91665,-4.79383 -1.5248,-5.87024 -0.75636,-1.33875 -2.10176,-2.08115 -3.04961,-2.08115 -0.94785,0 -99.85407,-10e-6 -99.85407,0 z"
       id="path3972"
       inkscape:connector-curvature="0"
       sodipodi:nodetypes="csssscsccccsssccczssscccsssssscccssssccsccssssc" />
  </g>
</svg>
