  0
SECTION
  2
HEADER
  9
$ACADVER
  1
AC1009
  9
$EXTMIN
 10
0.0
 20
0.0
 30
0.0
  9
$EXTMAX
 10
1000.0
 20
1000.0
 30
0.0
  9
$FILLMODE
 70
 0
  9
$SPLFRAME
 70
 1
  0
ENDSEC
  0
SECTION
  2
TABLES
  0
TABLE
  2
LAYER
 70
1
  0
LAYER
  2
0
 70
     0
 62
     7
  6
CONTINUOUS
  0
ENDTAB
  0
ENDSEC
  0
SECTION
  2
ENTITIES
  0
POLYLINE
  8
0
 62
     174
 66
     1
 10
0
 20
0
 30
0.0
 70
     1
 40
0
 41
0
  0
VERTEX
  8
0
 10
0.155925
 20
1.20036
 30
0.0
 40
0
 41
0
  0
VERTEX
  8
0
 10
0
 20
0.978842
 30
0.0
 40
0
 41
0
  0
VERTEX
  8
0
 10
0
 20
-0
 30
0.0
 40
0
 41
0
  0
VERTEX
  8
0
 10
3.17464
 20
-0
 30
0.0
 40
0
 41
0
  0
VERTEX
  8
0
 10
3.17464
 20
0.977431
 30
0.0
 40
0
 41
0
  0
VERTEX
  8
0
 10
3.01768
 20
1.20036
 30
0.0
 40
0
 41
0
  0
VERTEX
  8
0
 10
0.155925
 20
1.20036
 30
0.0
 40
0
 41
0
  0
SEQEND
 8
0
  0
POLYLINE
  8
0
 62
     174
 66
     1
 10
0
 20
0
 30
0.0
 70
     1
 40
0
 41
0
  0
VERTEX
  8
0
 10
0.202094
 20
1.13406
 30
0.0
 40
0
 41
0
  0
VERTEX
  8
0
 10
0.226725
 20
1.12381
 30
0.0
 40
0
 41
0
  0
VERTEX
  8
0
 10
0.237522
 20
1.09934
 30
0.0
 40
0
 41
0
  0
VERTEX
  8
0
 10
0.226997
 20
1.0753
 30
0.0
 40
0
 41
0
  0
VERTEX
  8
0
 10
0.202963
 20
1.06478
 30
0.0
 40
0
 41
0
  0
VERTEX
  8
0
 10
0.178874
 20
1.0753
 30
0.0
 40
0
 41
0
  0
VERTEX
  8
0
 10
0.168403
 20
1.09934
 30
0.0
 40
0
 41
0
  0
VERTEX
  8
0
 10
0.177246
 20
1.12202
 30
0.0
 40
0
 41
0
  0
VERTEX
  8
0
 10
0.198622
 20
1.13368
 30
0.0
 40
0
 41
0
  0
VERTEX
  8
0
 10
0.202094
 20
1.13406
 30
0.0
 40
0
 41
0
  0
SEQEND
 8
0
  0
POLYLINE
  8
0
 62
     174
 66
     1
 10
0
 20
0
 30
0.0
 70
     1
 40
0
 41
0
  0
VERTEX
  8
0
 10
1.5861
 20
1.13406
 30
0.0
 40
0
 41
0
  0
VERTEX
  8
0
 10
1.61079
 20
1.12381
 30
0.0
 40
0
 41
0
  0
VERTEX
  8
0
 10
1.62153
 20
1.09934
 30
0.0
 40
0
 41
0
  0
VERTEX
  8
0
 10
1.61035
 20
1.07677
 30
0.0
 40
0
 41
0
  0
VERTEX
  8
0
 10
1.58713
 20
1.06711
 30
0.0
 40
0
 41
0
  0
VERTEX
  8
0
 10
1.56392
 20
1.07677
 30
0.0
 40
0
 41
0
  0
VERTEX
  8
0
 10
1.55279
 20
1.09934
 30
0.0
 40
0
 41
0
  0
VERTEX
  8
0
 10
1.56147
 20
1.12191
 30
0.0
 40
0
 41
0
  0
VERTEX
  8
0
 10
1.58262
 20
1.13368
 30
0.0
 40
0
 41
0
  0
VERTEX
  8
0
 10
1.5861
 20
1.13406
 30
0.0
 40
0
 41
0
  0
SEQEND
 8
0
  0
POLYLINE
  8
0
 62
     174
 66
     1
 10
0
 20
0
 30
0.0
 70
     1
 40
0
 41
0
  0
VERTEX
  8
0
 10
2.97049
 20
1.13406
 30
0.0
 40
0
 41
0
  0
VERTEX
  8
0
 10
2.99517
 20
1.12381
 30
0.0
 40
0
 41
0
  0
VERTEX
  8
0
 10
3.00592
 20
1.09934
 30
0.0
 40
0
 41
0
  0
VERTEX
  8
0
 10
2.99474
 20
1.07677
 30
0.0
 40
0
 41
0
  0
VERTEX
  8
0
 10
2.97151
 20
1.06711
 30
0.0
 40
0
 41
0
  0
VERTEX
  8
0
 10
2.94824
 20
1.07677
 30
0.0
 40
0
 41
0
  0
VERTEX
  8
0
 10
2.93718
 20
1.09934
 30
0.0
 40
0
 41
0
  0
VERTEX
  8
0
 10
2.94586
 20
1.12191
 30
0.0
 40
0
 41
0
  0
VERTEX
  8
0
 10
2.96701
 20
1.13368
 30
0.0
 40
0
 41
0
  0
VERTEX
  8
0
 10
2.97049
 20
1.13406
 30
0.0
 40
0
 41
0
  0
SEQEND
 8
0
  0
POLYLINE
  8
0
 62
     174
 66
     1
 10
0
 20
0
 30
0.0
 70
     1
 40
0
 41
0
  0
VERTEX
  8
0
 10
2.26318
 20
1.04134
 30
0.0
 40
0
 41
0
  0
VERTEX
  8
0
 10
2.30701
 20
1.0325
 30
0.0
 40
0
 41
0
  0
VERTEX
  8
0
 10
2.34293
 20
1.0083
 30
0.0
 40
0
 41
0
  0
VERTEX
  8
0
 10
2.36714
 20
0.972385
 30
0.0
 40
0
 41
0
  0
VERTEX
  8
0
 10
2.37603
 20
0.928494
 30
0.0
 40
0
 41
0
  0
VERTEX
  8
0
 10
2.36714
 20
0.884711
 30
0.0
 40
0
 41
0
  0
VERTEX
  8
0
 10
2.34293
 20
0.848904
 30
0.0
 40
0
 41
0
  0
VERTEX
  8
0
 10
2.30701
 20
0.824815
 30
0.0
 40
0
 41
0
  0
VERTEX
  8
0
 10
2.26318
 20
0.815972
 30
0.0
 40
0
 41
0
  0
VERTEX
  8
0
 10
2.21935
 20
0.824815
 30
0.0
 40
0
 41
0
  0
VERTEX
  8
0
 10
2.1836
 20
0.848904
 30
0.0
 40
0
 41
0
  0
VERTEX
  8
0
 10
2.1595
 20
0.884711
 30
0.0
 40
0
 41
0
  0
VERTEX
  8
0
 10
2.15072
 20
0.928494
 30
0.0
 40
0
 41
0
  0
VERTEX
  8
0
 10
2.1595
 20
0.972385
 30
0.0
 40
0
 41
0
  0
VERTEX
  8
0
 10
2.1836
 20
1.0083
 30
0.0
 40
0
 41
0
  0
VERTEX
  8
0
 10
2.21935
 20
1.0325
 30
0.0
 40
0
 41
0
  0
VERTEX
  8
0
 10
2.26318
 20
1.04134
 30
0.0
 40
0
 41
0
  0
SEQEND
 8
0
  0
POLYLINE
  8
0
 62
     174
 66
     1
 10
0
 20
0
 30
0.0
 70
     1
 40
0
 41
0
  0
VERTEX
  8
0
 10
1.95036
 20
0.863878
 30
0.0
 40
0
 41
0
  0
VERTEX
  8
0
 10
1.99419
 20
0.855089
 30
0.0
 40
0
 41
0
  0
VERTEX
  8
0
 10
2.03011
 20
0.831
 30
0.0
 40
0
 41
0
  0
VERTEX
  8
0
 10
2.05431
 20
0.795247
 30
0.0
 40
0
 41
0
  0
VERTEX
  8
0
 10
2.06321
 20
0.751411
 30
0.0
 40
0
 41
0
  0
VERTEX
  8
0
 10
2.05431
 20
0.707574
 30
0.0
 40
0
 41
0
  0
VERTEX
  8
0
 10
2.03011
 20
0.671658
 30
0.0
 40
0
 41
0
  0
VERTEX
  8
0
 10
1.99419
 20
0.647461
 30
0.0
 40
0
 41
0
  0
VERTEX
  8
0
 10
1.95036
 20
0.638564
 30
0.0
 40
0
 41
0
  0
VERTEX
  8
0
 10
1.90653
 20
0.647461
 30
0.0
 40
0
 41
0
  0
VERTEX
  8
0
 10
1.87071
 20
0.671658
 30
0.0
 40
0
 41
0
  0
VERTEX
  8
0
 10
1.84663
 20
0.707574
 30
0.0
 40
0
 41
0
  0
VERTEX
  8
0
 10
1.83783
 20
0.751411
 30
0.0
 40
0
 41
0
  0
VERTEX
  8
0
 10
1.84663
 20
0.795247
 30
0.0
 40
0
 41
0
  0
VERTEX
  8
0
 10
1.87071
 20
0.831
 30
0.0
 40
0
 41
0
  0
VERTEX
  8
0
 10
1.90653
 20
0.855089
 30
0.0
 40
0
 41
0
  0
VERTEX
  8
0
 10
1.95036
 20
0.863878
 30
0.0
 40
0
 41
0
  0
SEQEND
 8
0
  0
POLYLINE
  8
0
 62
     174
 66
     1
 10
0
 20
0
 30
0.0
 70
     1
 40
0
 41
0
  0
VERTEX
  8
0
 10
2.57221
 20
0.863878
 30
0.0
 40
0
 41
0
  0
VERTEX
  8
0
 10
2.616
 20
0.855089
 30
0.0
 40
0
 41
0
  0
VERTEX
  8
0
 10
2.65181
 20
0.831
 30
0.0
 40
0
 41
0
  0
VERTEX
  8
0
 10
2.67589
 20
0.795247
 30
0.0
 40
0
 41
0
  0
VERTEX
  8
0
 10
2.68474
 20
0.751411
 30
0.0
 40
0
 41
0
  0
VERTEX
  8
0
 10
2.67589
 20
0.707574
 30
0.0
 40
0
 41
0
  0
VERTEX
  8
0
 10
2.65181
 20
0.671658
 30
0.0
 40
0
 41
0
  0
VERTEX
  8
0
 10
2.616
 20
0.647461
 30
0.0
 40
0
 41
0
  0
VERTEX
  8
0
 10
2.57221
 20
0.638564
 30
0.0
 40
0
 41
0
  0
VERTEX
  8
0
 10
2.52832
 20
0.647461
 30
0.0
 40
0
 41
0
  0
VERTEX
  8
0
 10
2.4924
 20
0.671658
 30
0.0
 40
0
 41
0
  0
VERTEX
  8
0
 10
2.46821
 20
0.707574
 30
0.0
 40
0
 41
0
  0
VERTEX
  8
0
 10
2.45936
 20
0.751411
 30
0.0
 40
0
 41
0
  0
VERTEX
  8
0
 10
2.46821
 20
0.795247
 30
0.0
 40
0
 41
0
  0
VERTEX
  8
0
 10
2.4924
 20
0.831
 30
0.0
 40
0
 41
0
  0
VERTEX
  8
0
 10
2.52832
 20
0.855089
 30
0.0
 40
0
 41
0
  0
VERTEX
  8
0
 10
2.57221
 20
0.863878
 30
0.0
 40
0
 41
0
  0
SEQEND
 8
0
  0
POLYLINE
  8
0
 62
     174
 66
     1
 10
0
 20
0
 30
0.0
 70
     1
 40
0
 41
0
  0
VERTEX
  8
0
 10
0.831597
 20
0.780219
 30
0.0
 40
0
 41
0
  0
VERTEX
  8
0
 10
0.867839
 20
0.776585
 30
0.0
 40
0
 41
0
  0
VERTEX
  8
0
 10
0.901585
 20
0.766114
 30
0.0
 40
0
 41
0
  0
VERTEX
  8
0
 10
0.932129
 20
0.749511
 30
0.0
 40
0
 41
0
  0
VERTEX
  8
0
 10
0.958768
 20
0.727593
 30
0.0
 40
0
 41
0
  0
VERTEX
  8
0
 10
0.98074
 20
0.700956
 30
0.0
 40
0
 41
0
  0
VERTEX
  8
0
 10
0.997288
 20
0.67041
 30
0.0
 40
0
 41
0
  0
VERTEX
  8
0
 10
1.00776
 20
0.636664
 30
0.0
 40
0
 41
0
  0
VERTEX
  8
0
 10
1.01145
 20
0.600369
 30
0.0
 40
0
 41
0
  0
VERTEX
  8
0
 10
1.00776
 20
0.564128
 30
0.0
 40
0
 41
0
  0
VERTEX
  8
0
 10
0.997288
 20
0.530382
 30
0.0
 40
0
 41
0
  0
VERTEX
  8
0
 10
0.98074
 20
0.499838
 30
0.0
 40
0
 41
0
  0
VERTEX
  8
0
 10
0.958768
 20
0.473199
 30
0.0
 40
0
 41
0
  0
VERTEX
  8
0
 10
0.932129
 20
0.451226
 30
0.0
 40
0
 41
0
  0
VERTEX
  8
0
 10
0.901585
 20
0.434679
 30
0.0
 40
0
 41
0
  0
VERTEX
  8
0
 10
0.867839
 20
0.424208
 30
0.0
 40
0
 41
0
  0
VERTEX
  8
0
 10
0.831597
 20
0.420518
 30
0.0
 40
0
 41
0
  0
VERTEX
  8
0
 10
0.795301
 20
0.424208
 30
0.0
 40
0
 41
0
  0
VERTEX
  8
0
 10
0.761556
 20
0.434679
 30
0.0
 40
0
 41
0
  0
VERTEX
  8
0
 10
0.731011
 20
0.451226
 30
0.0
 40
0
 41
0
  0
VERTEX
  8
0
 10
0.704372
 20
0.473199
 30
0.0
 40
0
 41
0
  0
VERTEX
  8
0
 10
0.6824
 20
0.499838
 30
0.0
 40
0
 41
0
  0
VERTEX
  8
0
 10
0.665853
 20
0.530382
 30
0.0
 40
0
 41
0
  0
VERTEX
  8
0
 10
0.655382
 20
0.564128
 30
0.0
 40
0
 41
0
  0
VERTEX
  8
0
 10
0.651747
 20
0.600369
 30
0.0
 40
0
 41
0
  0
VERTEX
  8
0
 10
0.655382
 20
0.636664
 30
0.0
 40
0
 41
0
  0
VERTEX
  8
0
 10
0.665853
 20
0.67041
 30
0.0
 40
0
 41
0
  0
VERTEX
  8
0
 10
0.6824
 20
0.700956
 30
0.0
 40
0
 41
0
  0
VERTEX
  8
0
 10
0.704372
 20
0.727593
 30
0.0
 40
0
 41
0
  0
VERTEX
  8
0
 10
0.731011
 20
0.749511
 30
0.0
 40
0
 41
0
  0
VERTEX
  8
0
 10
0.761556
 20
0.766114
 30
0.0
 40
0
 41
0
  0
VERTEX
  8
0
 10
0.795301
 20
0.776585
 30
0.0
 40
0
 41
0
  0
VERTEX
  8
0
 10
0.831597
 20
0.780219
 30
0.0
 40
0
 41
0
  0
SEQEND
 8
0
  0
POLYLINE
  8
0
 62
     174
 66
     1
 10
0
 20
0
 30
0.0
 70
     1
 40
0
 41
0
  0
VERTEX
  8
0
 10
2.26318
 20
0.714247
 30
0.0
 40
0
 41
0
  0
VERTEX
  8
0
 10
2.30701
 20
0.705458
 30
0.0
 40
0
 41
0
  0
VERTEX
  8
0
 10
2.34293
 20
0.681369
 30
0.0
 40
0
 41
0
  0
VERTEX
  8
0
 10
2.36714
 20
0.645562
 30
0.0
 40
0
 41
0
  0
VERTEX
  8
0
 10
2.37603
 20
0.601725
 30
0.0
 40
0
 41
0
  0
VERTEX
  8
0
 10
2.36714
 20
0.557889
 30
0.0
 40
0
 41
0
  0
VERTEX
  8
0
 10
2.34293
 20
0.521972
 30
0.0
 40
0
 41
0
  0
VERTEX
  8
0
 10
2.30701
 20
0.497775
 30
0.0
 40
0
 41
0
  0
VERTEX
  8
0
 10
2.26318
 20
0.488878
 30
0.0
 40
0
 41
0
  0
VERTEX
  8
0
 10
2.21935
 20
0.497775
 30
0.0
 40
0
 41
0
  0
VERTEX
  8
0
 10
2.1836
 20
0.521972
 30
0.0
 40
0
 41
0
  0
VERTEX
  8
0
 10
2.1595
 20
0.557889
 30
0.0
 40
0
 41
0
  0
VERTEX
  8
0
 10
2.15072
 20
0.601725
 30
0.0
 40
0
 41
0
  0
VERTEX
  8
0
 10
2.1595
 20
0.645562
 30
0.0
 40
0
 41
0
  0
VERTEX
  8
0
 10
2.1836
 20
0.681369
 30
0.0
 40
0
 41
0
  0
VERTEX
  8
0
 10
2.21935
 20
0.705458
 30
0.0
 40
0
 41
0
  0
VERTEX
  8
0
 10
2.26318
 20
0.714247
 30
0.0
 40
0
 41
0
  0
SEQEND
 8
0
  0
POLYLINE
  8
0
 62
     174
 66
     1
 10
0
 20
0
 30
0.0
 70
     1
 40
0
 41
0
  0
VERTEX
  8
0
 10
2.26318
 20
0.387532
 30
0.0
 40
0
 41
0
  0
VERTEX
  8
0
 10
2.30701
 20
0.378689
 30
0.0
 40
0
 41
0
  0
VERTEX
  8
0
 10
2.34293
 20
0.354492
 30
0.0
 40
0
 41
0
  0
VERTEX
  8
0
 10
2.36714
 20
0.318576
 30
0.0
 40
0
 41
0
  0
VERTEX
  8
0
 10
2.37603
 20
0.274685
 30
0.0
 40
0
 41
0
  0
VERTEX
  8
0
 10
2.36714
 20
0.230849
 30
0.0
 40
0
 41
0
  0
VERTEX
  8
0
 10
2.34293
 20
0.195096
 30
0.0
 40
0
 41
0
  0
VERTEX
  8
0
 10
2.30701
 20
0.171007
 30
0.0
 40
0
 41
0
  0
VERTEX
  8
0
 10
2.26318
 20
0.162164
 30
0.0
 40
0
 41
0
  0
VERTEX
  8
0
 10
2.21935
 20
0.171007
 30
0.0
 40
0
 41
0
  0
VERTEX
  8
0
 10
2.1836
 20
0.195096
 30
0.0
 40
0
 41
0
  0
VERTEX
  8
0
 10
2.1595
 20
0.230849
 30
0.0
 40
0
 41
0
  0
VERTEX
  8
0
 10
2.15072
 20
0.274685
 30
0.0
 40
0
 41
0
  0
VERTEX
  8
0
 10
2.1595
 20
0.318576
 30
0.0
 40
0
 41
0
  0
VERTEX
  8
0
 10
2.1836
 20
0.354492
 30
0.0
 40
0
 41
0
  0
VERTEX
  8
0
 10
2.21935
 20
0.378689
 30
0.0
 40
0
 41
0
  0
VERTEX
  8
0
 10
2.26318
 20
0.387532
 30
0.0
 40
0
 41
0
  0
SEQEND
 8
0
  0
POLYLINE
  8
0
 62
     174
 66
     1
 10
0
 20
0
 30
0.0
 70
     1
 40
0
 41
0
  0
VERTEX
  8
0
 10
2.7844
 20
0.387532
 30
0.0
 40
0
 41
0
  0
VERTEX
  8
0
 10
2.82824
 20
0.378689
 30
0.0
 40
0
 41
0
  0
VERTEX
  8
0
 10
2.86415
 20
0.354492
 30
0.0
 40
0
 41
0
  0
VERTEX
  8
0
 10
2.88835
 20
0.318576
 30
0.0
 40
0
 41
0
  0
VERTEX
  8
0
 10
2.89725
 20
0.274685
 30
0.0
 40
0
 41
0
  0
VERTEX
  8
0
 10
2.88835
 20
0.230849
 30
0.0
 40
0
 41
0
  0
VERTEX
  8
0
 10
2.86415
 20
0.195096
 30
0.0
 40
0
 41
0
  0
VERTEX
  8
0
 10
2.82824
 20
0.171007
 30
0.0
 40
0
 41
0
  0
VERTEX
  8
0
 10
2.7844
 20
0.162164
 30
0.0
 40
0
 41
0
  0
VERTEX
  8
0
 10
2.74056
 20
0.171007
 30
0.0
 40
0
 41
0
  0
VERTEX
  8
0
 10
2.70475
 20
0.195096
 30
0.0
 40
0
 41
0
  0
VERTEX
  8
0
 10
2.68067
 20
0.230849
 30
0.0
 40
0
 41
0
  0
VERTEX
  8
0
 10
2.67188
 20
0.274685
 30
0.0
 40
0
 41
0
  0
VERTEX
  8
0
 10
2.68067
 20
0.318576
 30
0.0
 40
0
 41
0
  0
VERTEX
  8
0
 10
2.70475
 20
0.354492
 30
0.0
 40
0
 41
0
  0
VERTEX
  8
0
 10
2.74056
 20
0.378689
 30
0.0
 40
0
 41
0
  0
VERTEX
  8
0
 10
2.7844
 20
0.387532
 30
0.0
 40
0
 41
0
  0
SEQEND
 8
0
  0
POLYLINE
  8
0
 62
     174
 66
     1
 10
0
 20
0
 30
0.0
 70
     1
 40
0
 41
0
  0
VERTEX
  8
0
 10
0.0982531
 20
0.135796
 30
0.0
 40
0
 41
0
  0
VERTEX
  8
0
 10
0.0999892
 20
0.135796
 30
0.0
 40
0
 41
0
  0
VERTEX
  8
0
 10
0.124674
 20
0.125542
 30
0.0
 40
0
 41
0
  0
VERTEX
  8
0
 10
0.135417
 20
0.101074
 30
0.0
 40
0
 41
0
  0
VERTEX
  8
0
 10
0.125705
 20
0.0756836
 30
0.0
 40
0
 41
0
  0
VERTEX
  8
0
 10
0.10102
 20
0.0643446
 30
0.0
 40
0
 41
0
  0
VERTEX
  8
0
 10
0.0763346
 20
0.0756836
 30
0.0
 40
0
 41
0
  0
VERTEX
  8
0
 10
0.0666775
 20
0.101074
 30
0.0
 40
0
 41
0
  0
VERTEX
  8
0
 10
0.0759549
 20
0.124349
 30
0.0
 40
0
 41
0
  0
VERTEX
  8
0
 10
0.0982531
 20
0.135796
 30
0.0
 40
0
 41
0
  0
SEQEND
 8
0
  0
POLYLINE
  8
0
 62
     174
 66
     1
 10
0
 20
0
 30
0.0
 70
     1
 40
0
 41
0
  0
VERTEX
  8
0
 10
1.5861
 20
0.135796
 30
0.0
 40
0
 41
0
  0
VERTEX
  8
0
 10
1.61079
 20
0.125542
 30
0.0
 40
0
 41
0
  0
VERTEX
  8
0
 10
1.62153
 20
0.101074
 30
0.0
 40
0
 41
0
  0
VERTEX
  8
0
 10
1.61035
 20
0.0785047
 30
0.0
 40
0
 41
0
  0
VERTEX
  8
0
 10
1.58713
 20
0.0688476
 30
0.0
 40
0
 41
0
  0
VERTEX
  8
0
 10
1.56392
 20
0.0785047
 30
0.0
 40
0
 41
0
  0
VERTEX
  8
0
 10
1.55279
 20
0.101074
 30
0.0
 40
0
 41
0
  0
VERTEX
  8
0
 10
1.56272
 20
0.124892
 30
0.0
 40
0
 41
0
  0
VERTEX
  8
0
 10
1.5861
 20
0.135796
 30
0.0
 40
0
 41
0
  0
SEQEND
 8
0
  0
POLYLINE
  8
0
 62
     174
 66
     1
 10
0
 20
0
 30
0.0
 70
     1
 40
0
 41
0
  0
VERTEX
  8
0
 10
3.07047
 20
0.135796
 30
0.0
 40
0
 41
0
  0
VERTEX
  8
0
 10
3.0726
 20
0.135796
 30
0.0
 40
0
 41
0
  0
VERTEX
  8
0
 10
3.09722
 20
0.125542
 30
0.0
 40
0
 41
0
  0
VERTEX
  8
0
 10
3.10796
 20
0.101074
 30
0.0
 40
0
 41
0
  0
VERTEX
  8
0
 10
3.09744
 20
0.07704
 30
0.0
 40
0
 41
0
  0
VERTEX
  8
0
 10
3.07346
 20
0.0665147
 30
0.0
 40
0
 41
0
  0
VERTEX
  8
0
 10
3.04937
 20
0.07704
 30
0.0
 40
0
 41
0
  0
VERTEX
  8
0
 10
3.0389
 20
0.101074
 30
0.0
 40
0
 41
0
  0
VERTEX
  8
0
 10
3.04818
 20
0.124349
 30
0.0
 40
0
 41
0
  0
VERTEX
  8
0
 10
3.07047
 20
0.135796
 30
0.0
 40
0
 41
0
  0
SEQEND
 8
0
  0
POLYLINE
  8
0
 62
     0
 66
     1
 10
0
 20
0
 30
0.0
 40
0.8
 41
0.8
  0
VERTEX
  8
0
 10
2.93565
 20
0.0617947
 30
0.0
 40
0.0111111
 41
0.0111111
  0
VERTEX
  8
0
 10
2.95047
 20
0.0650499
 30
0.0
 40
0.0111111
 41
0.0111111
  0
VERTEX
  8
0
 10
2.96306
 20
0.0737847
 30
0.0
 40
0.0111111
 41
0.0111111
  0
VERTEX
  8
0
 10
2.97179
 20
0.0863715
 30
0.0
 40
0.0111111
 41
0.0111111
  0
VERTEX
  8
0
 10
2.97504
 20
0.101183
 30
0.0
 40
0.0111111
 41
0.0111111
  0
SEQEND
 8
0
  0
POLYLINE
  8
0
 62
     0
 66
     1
 10
0
 20
0
 30
0.0
 40
0.8
 41
0.8
  0
VERTEX
  8
0
 10
1.72504
 20
0.0617947
 30
0.0
 40
0.0111111
 41
0.0111111
  0
VERTEX
  8
0
 10
2.93565
 20
0.0617947
 30
0.0
 40
0.0111111
 41
0.0111111
  0
SEQEND
 8
0
  0
POLYLINE
  8
0
 62
     0
 66
     1
 10
0
 20
0
 30
0.0
 40
0.8
 41
0.8
  0
VERTEX
  8
0
 10
1.68565
 20
0.101183
 30
0.0
 40
0.0111111
 41
0.0111111
  0
VERTEX
  8
0
 10
1.68892
 20
0.0863715
 30
0.0
 40
0.0111111
 41
0.0111111
  0
VERTEX
  8
0
 10
1.6976
 20
0.0737847
 30
0.0
 40
0.0111111
 41
0.0111111
  0
VERTEX
  8
0
 10
1.71018
 20
0.0650499
 30
0.0
 40
0.0111111
 41
0.0111111
  0
VERTEX
  8
0
 10
1.72504
 20
0.0617947
 30
0.0
 40
0.0111111
 41
0.0111111
  0
SEQEND
 8
0
  0
POLYLINE
  8
0
 62
     0
 66
     1
 10
0
 20
0
 30
0.0
 40
0.8
 41
0.8
  0
VERTEX
  8
0
 10
1.68565
 20
0.101183
 30
0.0
 40
0.0111111
 41
0.0111111
  0
VERTEX
  8
0
 10
1.67806
 20
0.138835
 30
0.0
 40
0.0111111
 41
0.0111111
  0
VERTEX
  8
0
 10
1.65679
 20
0.170736
 30
0.0
 40
0.0111111
 41
0.0111111
  0
VERTEX
  8
0
 10
1.62483
 20
0.192003
 30
0.0
 40
0.0111111
 41
0.0111111
  0
VERTEX
  8
0
 10
1.58724
 20
0.199544
 30
0.0
 40
0.0111111
 41
0.0111111
  0
VERTEX
  8
0
 10
1.54958
 20
0.192003
 30
0.0
 40
0.0111111
 41
0.0111111
  0
VERTEX
  8
0
 10
1.51768
 20
0.170736
 30
0.0
 40
0.0111111
 41
0.0111111
  0
VERTEX
  8
0
 10
1.49642
 20
0.138835
 30
0.0
 40
0.0111111
 41
0.0111111
  0
VERTEX
  8
0
 10
1.48882
 20
0.101183
 30
0.0
 40
0.0111111
 41
0.0111111
  0
SEQEND
 8
0
  0
POLYLINE
  8
0
 62
     0
 66
     1
 10
0
 20
0
 30
0.0
 40
0.8
 41
0.8
  0
VERTEX
  8
0
 10
1.44943
 20
0.0617947
 30
0.0
 40
0.0111111
 41
0.0111111
  0
VERTEX
  8
0
 10
1.46425
 20
0.0650499
 30
0.0
 40
0.0111111
 41
0.0111111
  0
VERTEX
  8
0
 10
1.47683
 20
0.0737847
 30
0.0
 40
0.0111111
 41
0.0111111
  0
VERTEX
  8
0
 10
1.48557
 20
0.0863715
 30
0.0
 40
0.0111111
 41
0.0111111
  0
VERTEX
  8
0
 10
1.48882
 20
0.101183
 30
0.0
 40
0.0111111
 41
0.0111111
  0
SEQEND
 8
0
  0
POLYLINE
  8
0
 62
     0
 66
     1
 10
0
 20
0
 30
0.0
 40
0.8
 41
0.8
  0
VERTEX
  8
0
 10
0.238824
 20
0.0617947
 30
0.0
 40
0.0111111
 41
0.0111111
  0
VERTEX
  8
0
 10
1.44943
 20
0.0617947
 30
0.0
 40
0.0111111
 41
0.0111111
  0
SEQEND
 8
0
  0
POLYLINE
  8
0
 62
     0
 66
     1
 10
0
 20
0
 30
0.0
 40
0.8
 41
0.8
  0
VERTEX
  8
0
 10
0.199436
 20
0.101183
 30
0.0
 40
0.0111111
 41
0.0111111
  0
VERTEX
  8
0
 10
0.202692
 20
0.0863715
 30
0.0
 40
0.0111111
 41
0.0111111
  0
VERTEX
  8
0
 10
0.211372
 20
0.0737847
 30
0.0
 40
0.0111111
 41
0.0111111
  0
VERTEX
  8
0
 10
0.223958
 20
0.0650499
 30
0.0
 40
0.0111111
 41
0.0111111
  0
VERTEX
  8
0
 10
0.238824
 20
0.0617947
 30
0.0
 40
0.0111111
 41
0.0111111
  0
SEQEND
 8
0
  0
POLYLINE
  8
0
 62
     0
 66
     1
 10
0
 20
0
 30
0.0
 40
0.8
 41
0.8
  0
VERTEX
  8
0
 10
0.199436
 20
0.101183
 30
0.0
 40
0.0111111
 41
0.0111111
  0
VERTEX
  8
0
 10
0.19184
 20
0.138835
 30
0.0
 40
0.0111111
 41
0.0111111
  0
VERTEX
  8
0
 10
0.170628
 20
0.17079
 30
0.0
 40
0.0111111
 41
0.0111111
  0
VERTEX
  8
0
 10
0.138618
 20
0.192057
 30
0.0
 40
0.0111111
 41
0.0111111
  0
VERTEX
  8
0
 10
0.10102
 20
0.199599
 30
0.0
 40
0.0111111
 41
0.0111111
  0
SEQEND
 8
0
  0
POLYLINE
  8
0
 62
     0
 66
     1
 10
0
 20
0
 30
0.0
 40
0.8
 41
0.8
  0
VERTEX
  8
0
 10
0.0616319
 20
0.238986
 30
0.0
 40
0.0111111
 41
0.0111111
  0
VERTEX
  8
0
 10
0.0648872
 20
0.224175
 30
0.0
 40
0.0111111
 41
0.0111111
  0
VERTEX
  8
0
 10
0.0735678
 20
0.211589
 30
0.0
 40
0.0111111
 41
0.0111111
  0
VERTEX
  8
0
 10
0.0861546
 20
0.202854
 30
0.0
 40
0.0111111
 41
0.0111111
  0
VERTEX
  8
0
 10
0.10102
 20
0.199599
 30
0.0
 40
0.0111111
 41
0.0111111
  0
SEQEND
 8
0
  0
POLYLINE
  8
0
 62
     0
 66
     1
 10
0
 20
0
 30
0.0
 40
0.8
 41
0.8
  0
VERTEX
  8
0
 10
0.0616319
 20
0.967828
 30
0.0
 40
0.0111111
 41
0.0111111
  0
VERTEX
  8
0
 10
0.0616319
 20
0.238986
 30
0.0
 40
0.0111111
 41
0.0111111
  0
SEQEND
 8
0
  0
POLYLINE
  8
0
 62
     0
 66
     1
 10
0
 20
0
 30
0.0
 40
0.8
 41
0.8
  0
VERTEX
  8
0
 10
0.0912001
 20
1.00966
 30
0.0
 40
0.0111111
 41
0.0111111
  0
VERTEX
  8
0
 10
0.0616319
 20
0.967828
 30
0.0
 40
0.0111111
 41
0.0111111
  0
SEQEND
 8
0
  0
POLYLINE
  8
0
 62
     0
 66
     1
 10
0
 20
0
 30
0.0
 40
0.8
 41
0.8
  0
VERTEX
  8
0
 10
0.146104
 20
1.01904
 30
0.0
 40
0.0111111
 41
0.0111111
  0
VERTEX
  8
0
 10
0.116808
 20
1.02517
 30
0.0
 40
0.0111111
 41
0.0111111
  0
VERTEX
  8
0
 10
0.0912001
 20
1.00966
 30
0.0
 40
0.0111111
 41
0.0111111
  0
SEQEND
 8
0
  0
POLYLINE
  8
0
 62
     0
 66
     1
 10
0
 20
0
 30
0.0
 40
0.8
 41
0.8
  0
VERTEX
  8
0
 10
0.146104
 20
1.01904
 30
0.0
 40
0.0111111
 41
0.0111111
  0
VERTEX
  8
0
 10
0.196126
 20
1.00163
 30
0.0
 40
0.0111111
 41
0.0111111
  0
VERTEX
  8
0
 10
0.248156
 20
1.01199
 30
0.0
 40
0.0111111
 41
0.0111111
  0
VERTEX
  8
0
 10
0.269857
 20
1.02762
 30
0.0
 40
0.0111111
 41
0.0111111
  0
VERTEX
  8
0
 10
0.286675
 20
1.0485
 30
0.0
 40
0.0111111
 41
0.0111111
  0
VERTEX
  8
0
 10
0.297472
 20
1.07302
 30
0.0
 40
0.0111111
 41
0.0111111
  0
VERTEX
  8
0
 10
0.301324
 20
1.09945
 30
0.0
 40
0.0111111
 41
0.0111111
  0
SEQEND
 8
0
  0
POLYLINE
  8
0
 62
     0
 66
     1
 10
0
 20
0
 30
0.0
 40
0.8
 41
0.8
  0
VERTEX
  8
0
 10
0.340712
 20
1.13878
 30
0.0
 40
0.0111111
 41
0.0111111
  0
VERTEX
  8
0
 10
0.325846
 20
1.13558
 30
0.0
 40
0.0111111
 41
0.0111111
  0
VERTEX
  8
0
 10
0.31326
 20
1.12684
 30
0.0
 40
0.0111111
 41
0.0111111
  0
VERTEX
  8
0
 10
0.304579
 20
1.11431
 30
0.0
 40
0.0111111
 41
0.0111111
  0
VERTEX
  8
0
 10
0.301324
 20
1.09945
 30
0.0
 40
0.0111111
 41
0.0111111
  0
SEQEND
 8
0
  0
POLYLINE
  8
0
 62
     0
 66
     1
 10
0
 20
0
 30
0.0
 40
0.8
 41
0.8
  0
VERTEX
  8
0
 10
1.44943
 20
1.13878
 30
0.0
 40
0.0111111
 41
0.0111111
  0
VERTEX
  8
0
 10
0.340712
 20
1.13878
 30
0.0
 40
0.0111111
 41
0.0111111
  0
SEQEND
 8
0
  0
POLYLINE
  8
0
 62
     0
 66
     1
 10
0
 20
0
 30
0.0
 40
0.8
 41
0.8
  0
VERTEX
  8
0
 10
1.48882
 20
1.09945
 30
0.0
 40
0.0111111
 41
0.0111111
  0
VERTEX
  8
0
 10
1.48557
 20
1.11431
 30
0.0
 40
0.0111111
 41
0.0111111
  0
VERTEX
  8
0
 10
1.47683
 20
1.12684
 30
0.0
 40
0.0111111
 41
0.0111111
  0
VERTEX
  8
0
 10
1.46425
 20
1.13558
 30
0.0
 40
0.0111111
 41
0.0111111
  0
VERTEX
  8
0
 10
1.44943
 20
1.13878
 30
0.0
 40
0.0111111
 41
0.0111111
  0
SEQEND
 8
0
  0
POLYLINE
  8
0
 62
     0
 66
     1
 10
0
 20
0
 30
0.0
 40
0.8
 41
0.8
  0
VERTEX
  8
0
 10
1.48882
 20
1.09945
 30
0.0
 40
0.0111111
 41
0.0111111
  0
VERTEX
  8
0
 10
1.49642
 20
1.06185
 30
0.0
 40
0.0111111
 41
0.0111111
  0
VERTEX
  8
0
 10
1.51768
 20
1.02989
 30
0.0
 40
0.0111111
 41
0.0111111
  0
VERTEX
  8
0
 10
1.54958
 20
1.00868
 30
0.0
 40
0.0111111
 41
0.0111111
  0
VERTEX
  8
0
 10
1.58724
 20
1.00108
 30
0.0
 40
0.0111111
 41
0.0111111
  0
VERTEX
  8
0
 10
1.62483
 20
1.00868
 30
0.0
 40
0.0111111
 41
0.0111111
  0
VERTEX
  8
0
 10
1.65679
 20
1.02989
 30
0.0
 40
0.0111111
 41
0.0111111
  0
VERTEX
  8
0
 10
1.67806
 20
1.06185
 30
0.0
 40
0.0111111
 41
0.0111111
  0
VERTEX
  8
0
 10
1.68565
 20
1.09945
 30
0.0
 40
0.0111111
 41
0.0111111
  0
SEQEND
 8
0
  0
POLYLINE
  8
0
 62
     0
 66
     1
 10
0
 20
0
 30
0.0
 40
0.8
 41
0.8
  0
VERTEX
  8
0
 10
1.72504
 20
1.13878
 30
0.0
 40
0.0111111
 41
0.0111111
  0
VERTEX
  8
0
 10
1.71018
 20
1.13558
 30
0.0
 40
0.0111111
 41
0.0111111
  0
VERTEX
  8
0
 10
1.6976
 20
1.12684
 30
0.0
 40
0.0111111
 41
0.0111111
  0
VERTEX
  8
0
 10
1.68892
 20
1.11431
 30
0.0
 40
0.0111111
 41
0.0111111
  0
VERTEX
  8
0
 10
1.68565
 20
1.09945
 30
0.0
 40
0.0111111
 41
0.0111111
  0
SEQEND
 8
0
  0
POLYLINE
  8
0
 62
     0
 66
     1
 10
0
 20
0
 30
0.0
 40
0.8
 41
0.8
  0
VERTEX
  8
0
 10
2.83376
 20
1.13878
 30
0.0
 40
0.0111111
 41
0.0111111
  0
VERTEX
  8
0
 10
1.72504
 20
1.13878
 30
0.0
 40
0.0111111
 41
0.0111111
  0
SEQEND
 8
0
  0
POLYLINE
  8
0
 62
     0
 66
     1
 10
0
 20
0
 30
0.0
 40
0.8
 41
0.8
  0
VERTEX
  8
0
 10
2.87315
 20
1.09945
 30
0.0
 40
0.0111111
 41
0.0111111
  0
VERTEX
  8
0
 10
2.8699
 20
1.11431
 30
0.0
 40
0.0111111
 41
0.0111111
  0
VERTEX
  8
0
 10
2.86117
 20
1.12684
 30
0.0
 40
0.0111111
 41
0.0111111
  0
VERTEX
  8
0
 10
2.84858
 20
1.13558
 30
0.0
 40
0.0111111
 41
0.0111111
  0
VERTEX
  8
0
 10
2.83376
 20
1.13878
 30
0.0
 40
0.0111111
 41
0.0111111
  0
SEQEND
 8
0
  0
POLYLINE
  8
0
 62
     0
 66
     1
 10
0
 20
0
 30
0.0
 40
0.8
 41
0.8
  0
VERTEX
  8
0
 10
2.87315
 20
1.09945
 30
0.0
 40
0.0111111
 41
0.0111111
  0
VERTEX
  8
0
 10
2.87696
 20
1.07302
 30
0.0
 40
0.0111111
 41
0.0111111
  0
VERTEX
  8
0
 10
2.88775
 20
1.0485
 30
0.0
 40
0.0111111
 41
0.0111111
  0
VERTEX
  8
0
 10
2.90457
 20
1.02762
 30
0.0
 40
0.0111111
 41
0.0111111
  0
VERTEX
  8
0
 10
2.92632
 20
1.01199
 30
0.0
 40
0.0111111
 41
0.0111111
  0
VERTEX
  8
0
 10
2.97831
 20
1.00163
 30
0.0
 40
0.0111111
 41
0.0111111
  0
VERTEX
  8
0
 10
3.02838
 20
1.01904
 30
0.0
 40
0.0111111
 41
0.0111111
  0
SEQEND
 8
0
  0
POLYLINE
  8
0
 62
     0
 66
     1
 10
0
 20
0
 30
0.0
 40
0.8
 41
0.8
  0
VERTEX
  8
0
 10
3.08328
 20
1.00966
 30
0.0
 40
0.0111111
 41
0.0111111
  0
VERTEX
  8
0
 10
3.05767
 20
1.02517
 30
0.0
 40
0.0111111
 41
0.0111111
  0
VERTEX
  8
0
 10
3.02838
 20
1.01904
 30
0.0
 40
0.0111111
 41
0.0111111
  0
SEQEND
 8
0
  0
POLYLINE
  8
0
 62
     0
 66
     1
 10
0
 20
0
 30
0.0
 40
0.8
 41
0.8
  0
VERTEX
  8
0
 10
3.11285
 20
0.967828
 30
0.0
 40
0.0111111
 41
0.0111111
  0
VERTEX
  8
0
 10
3.08328
 20
1.00966
 30
0.0
 40
0.0111111
 41
0.0111111
  0
SEQEND
 8
0
  0
POLYLINE
  8
0
 62
     0
 66
     1
 10
0
 20
0
 30
0.0
 40
0.8
 41
0.8
  0
VERTEX
  8
0
 10
3.11285
 20
0.238986
 30
0.0
 40
0.0111111
 41
0.0111111
  0
VERTEX
  8
0
 10
3.11285
 20
0.967828
 30
0.0
 40
0.0111111
 41
0.0111111
  0
SEQEND
 8
0
  0
POLYLINE
  8
0
 62
     0
 66
     1
 10
0
 20
0
 30
0.0
 40
0.8
 41
0.8
  0
VERTEX
  8
0
 10
3.07346
 20
0.199599
 30
0.0
 40
0.0111111
 41
0.0111111
  0
VERTEX
  8
0
 10
3.08826
 20
0.202854
 30
0.0
 40
0.0111111
 41
0.0111111
  0
VERTEX
  8
0
 10
3.10086
 20
0.211589
 30
0.0
 40
0.0111111
 41
0.0111111
  0
VERTEX
  8
0
 10
3.1096
 20
0.224175
 30
0.0
 40
0.0111111
 41
0.0111111
  0
VERTEX
  8
0
 10
3.11285
 20
0.238986
 30
0.0
 40
0.0111111
 41
0.0111111
  0
SEQEND
 8
0
  0
POLYLINE
  8
0
 62
     0
 66
     1
 10
0
 20
0
 30
0.0
 40
0.8
 41
0.8
  0
VERTEX
  8
0
 10
3.07346
 20
0.199599
 30
0.0
 40
0.0111111
 41
0.0111111
  0
VERTEX
  8
0
 10
3.03581
 20
0.192057
 30
0.0
 40
0.0111111
 41
0.0111111
  0
VERTEX
  8
0
 10
3.00385
 20
0.17079
 30
0.0
 40
0.0111111
 41
0.0111111
  0
VERTEX
  8
0
 10
2.98258
 20
0.138835
 30
0.0
 40
0.0111111
 41
0.0111111
  0
VERTEX
  8
0
 10
2.97504
 20
0.101183
 30
0.0
 40
0.0111111
 41
0.0111111
  0
SEQEND
 8
0
  0
ENDSEC
  0
EOF
