  0
SECTION
  2
HEADER
  9
$ACADVER
  1
AC1014
  9
$HANDSEED
  5
FFFF
  9
$MEASUREMENT
 70
     1
  0
ENDSEC
  0
SECTION
  2
TABLES
  0
TABLE
  2
VPORT
  5
8
330
0
100
AcDbSymbolTable
 70
     4
  0
VPORT
  5
2E
330
8
100
AcDbSymbolTableRecord
100
AcDbViewportTableRecord
  2
*ACTIVE
 70
     0
 10
0.0
 20
0.0
 11
1.0
 21
1.0
 12
210.0
 22
148.5
 13
0.0
 23
0.0
 14
10.0
 24
10.0
 15
10.0
 25
10.0
 16
0.0
 26
0.0
 36
1.0
 17
0.0
 27
0.0
 37
0.0
 40
341.0
 41
1.24
 42
50.0
 43
0.0
 44
0.0
 50
0.0
 51
0.0
 71
     0
 72
   100
 73
     1
 74
     3
 75
     0
 76
     0
 77
     0
 78
     0
  0
ENDTAB
  0
TABLE
  2
LTYPE
  5
5
330
0
100
AcDbSymbolTable
 70
     1
  0
LTYPE
  5
14
330
5
100
AcDbSymbolTableRecord
100
AcDbLinetypeTableRecord
  2
BYBLOCK
 70
     0
  3

 72
    65
 73
     0
 40
0.0
  0
LTYPE
  5
15
330
5
100
AcDbSymbolTableRecord
100
AcDbLinetypeTableRecord
  2
BYLAYER
 70
     0
  3

 72
    65
 73
     0
 40
0.0
  0
LTYPE
  5
16
330
5
100
AcDbSymbolTableRecord
100
AcDbLinetypeTableRecord
  2
CONTINUOUS
 70
     0
  3
Solid line
 72
    65
 73
     0
 40
0.0
  0
ENDTAB
  0
TABLE
  2
LAYER
  5
2
100
AcDbSymbolTable
 70
2
  0
LAYER
  5
50
100
AcDbSymbolTableRecord
100
AcDbLayerTableRecord
  2
0
 70
0
  6
CONTINUOUS
  0
LAYER
  5
51
100
AcDbSymbolTableRecord
100
AcDbLayerTableRecord
  2
VISIBLE__ISO_
 70
0
  6
CONTINUOUS
  0
ENDTAB
  0
TABLE
  2
STYLE
  5
3
330
0
100
AcDbSymbolTable
 70
     1
  0
STYLE
  5
11
330
3
100
AcDbSymbolTableRecord
100
AcDbTextStyleTableRecord
  2
STANDARD
 70
     0
 40
0.0
 41
1.0
 50
0.0
 71
     0
 42
2.5
  3
txt
  4

  0
ENDTAB
  0
TABLE
  2
VIEW
  5
6
330
0
100
AcDbSymbolTable
 70
     0
  0
ENDTAB
  0
TABLE
  2
UCS
  5
7
330
0
100
AcDbSymbolTable
 70
     0
  0
ENDTAB
  0
TABLE
  2
APPID
  5
9
330
0
100
AcDbSymbolTable
 70
     2
  0
APPID
  5
12
330
9
100
AcDbSymbolTableRecord
100
AcDbRegAppTableRecord
  2
ACAD
 70
     0
  0
ENDTAB
  0
TABLE
  2
DIMSTYLE
  5
A
330
0
100
AcDbSymbolTable
 70
     1
  0
DIMSTYLE
105
27
330
A
100
AcDbSymbolTableRecord
100
AcDbDimStyleTableRecord
  2
ISO-25
 70
     0
  3

  4

  5

  6

  7

 40
1.0
 41
2.5
 42
0.625
 43
3.75
 44
1.25
 45
0.0
 46
0.0
 47
0.0
 48
0.0
140
2.5
141
2.5
142
0.0
143
0.03937007874016
144
1.0
145
0.0
146
1.0
147
0.625
 71
     0
 72
     0
 73
     0
 74
     0
 75
     0
 76
     0
 77
     1
 78
     8
170
     0
171
     3
172
     1
173
     0
174
     0
175
     0
176
     0
177
     0
178
     0
270
     2
271
     2
272
     2
273
     2
274
     3
340
11
275
     0
280
     0
281
     0
282
     0
283
     0
284
     8
285
     0
286
     0
287
     3
288
     0
  0
ENDTAB
  0
TABLE
  2
BLOCK_RECORD
  5
1
330
0
100
AcDbSymbolTable
 70
     1
  0
BLOCK_RECORD
  5
1F
330
1
100
AcDbSymbolTableRecord
100
AcDbBlockTableRecord
  2
*MODEL_SPACE
  0
BLOCK_RECORD
  5
1B
330
1
100
AcDbSymbolTableRecord
100
AcDbBlockTableRecord
  2
*PAPER_SPACE
  0
ENDTAB
  0
ENDSEC
  0
SECTION
  2
BLOCKS
  0
BLOCK
  5
20
330
1F
100
AcDbEntity
  8
0
100
AcDbBlockBegin
  2
*MODEL_SPACE
 70
     0
 10
0.0
 20
0.0
 30
0.0
  3
*MODEL_SPACE
  1

  0
ENDBLK
  5
21
330
1F
100
AcDbEntity
  8
0
100
AcDbBlockEnd
  0
BLOCK
  5
1C
330
1B
100
AcDbEntity
 67
     1
  8
0
100
AcDbBlockBegin
  2
*PAPER_SPACE
  1

  0
ENDBLK
  5
1D
330
1B
100
AcDbEntity
 67
     1
  8
0
100
AcDbBlockEnd
  0
ENDSEC
  0
SECTION
  2
ENTITIES
  0
SPLINE
  5
100
100
AcDbEntity
  8
VISIBLE__ISO_
 62
7
100
AcDbSpline
 70
8
 71
3
 72
8
 73
4
 74
0
 40
0
 40
0
 40
0
 40
0
 40
1
 40
1
 40
1
 40
1
 10
37.017419
 20
37.647992
 30
0.0
 10
37.017419
 20
35.296463
 30
0.0
 10
35.755372
 20
33.123560
 30
0.0
 10
33.706680
 20
31.947795
 30
0.0
  0
SPLINE
  5
101
100
AcDbEntity
  8
VISIBLE__ISO_
 62
7
100
AcDbSpline
 70
8
 71
3
 72
8
 73
4
 74
0
 40
0
 40
0
 40
0
 40
0
 40
1
 40
1
 40
1
 40
1
 10
33.706680
 20
31.947795
 30
0.0
 10
31.657988
 20
30.772030
 30
0.0
 10
29.133896
 20
30.772030
 30
0.0
 10
27.085203
 20
31.947795
 30
0.0
  0
SPLINE
  5
102
100
AcDbEntity
  8
VISIBLE__ISO_
 62
7
100
AcDbSpline
 70
8
 71
3
 72
8
 73
4
 74
0
 40
0
 40
0
 40
0
 40
0
 40
1
 40
1
 40
1
 40
1
 10
27.085203
 20
31.947795
 30
0.0
 10
25.036511
 20
33.123560
 30
0.0
 10
23.774465
 20
35.296463
 30
0.0
 10
23.774465
 20
37.647992
 30
0.0
  0
SPLINE
  5
103
100
AcDbEntity
  8
VISIBLE__ISO_
 62
7
100
AcDbSpline
 70
8
 71
3
 72
8
 73
4
 74
0
 40
0
 40
0
 40
0
 40
0
 40
1
 40
1
 40
1
 40
1
 10
23.774465
 20
37.647992
 30
0.0
 10
23.774465
 20
39.999522
 30
0.0
 10
25.036512
 20
42.172425
 30
0.0
 10
27.085204
 20
43.348189
 30
0.0
  0
SPLINE
  5
104
100
AcDbEntity
  8
VISIBLE__ISO_
 62
7
100
AcDbSpline
 70
8
 71
3
 72
8
 73
4
 74
0
 40
0
 40
0
 40
0
 40
0
 40
1
 40
1
 40
1
 40
1
 10
27.085204
 20
43.348189
 30
0.0
 10
29.133896
 20
44.523954
 30
0.0
 10
31.657988
 20
44.523954
 30
0.0
 10
33.706681
 20
43.348189
 30
0.0
  0
SPLINE
  5
105
100
AcDbEntity
  8
VISIBLE__ISO_
 62
7
100
AcDbSpline
 70
8
 71
3
 72
8
 73
4
 74
0
 40
0
 40
0
 40
0
 40
0
 40
1
 40
1
 40
1
 40
1
 10
33.706681
 20
43.348189
 30
0.0
 10
35.755373
 20
42.172425
 30
0.0
 10
37.017419
 20
39.999522
 30
0.0
 10
37.017419
 20
37.647992
 30
0.0
  0
SPLINE
  5
106
100
AcDbEntity
  8
VISIBLE__ISO_
 62
7
100
AcDbSpline
 70
8
 71
3
 72
8
 73
4
 74
0
 40
0
 40
0
 40
0
 40
0
 40
1
 40
1
 40
1
 40
1
 10
52.653281
 20
46.543524
 30
0.0
 10
52.653281
 20
44.191994
 30
0.0
 10
51.391235
 20
42.019091
 30
0.0
 10
49.342543
 20
40.843327
 30
0.0
  0
SPLINE
  5
107
100
AcDbEntity
  8
VISIBLE__ISO_
 62
7
100
AcDbSpline
 70
8
 71
3
 72
8
 73
4
 74
0
 40
0
 40
0
 40
0
 40
0
 40
1
 40
1
 40
1
 40
1
 10
49.342543
 20
40.843327
 30
0.0
 10
47.293851
 20
39.667562
 30
0.0
 10
44.769758
 20
39.667562
 30
0.0
 10
42.721066
 20
40.843327
 30
0.0
  0
SPLINE
  5
108
100
AcDbEntity
  8
VISIBLE__ISO_
 62
7
100
AcDbSpline
 70
8
 71
3
 72
8
 73
4
 74
0
 40
0
 40
0
 40
0
 40
0
 40
1
 40
1
 40
1
 40
1
 10
42.721066
 20
40.843327
 30
0.0
 10
40.672374
 20
42.019091
 30
0.0
 10
39.410327
 20
44.191994
 30
0.0
 10
39.410328
 20
46.543524
 30
0.0
  0
SPLINE
  5
109
100
AcDbEntity
  8
VISIBLE__ISO_
 62
7
100
AcDbSpline
 70
8
 71
3
 72
8
 73
4
 74
0
 40
0
 40
0
 40
0
 40
0
 40
1
 40
1
 40
1
 40
1
 10
39.410328
 20
46.543524
 30
0.0
 10
39.410328
 20
48.895053
 30
0.0
 10
40.672374
 20
51.067956
 30
0.0
 10
42.721066
 20
52.243721
 30
0.0
  0
SPLINE
  5
10a
100
AcDbEntity
  8
VISIBLE__ISO_
 62
7
100
AcDbSpline
 70
8
 71
3
 72
8
 73
4
 74
0
 40
0
 40
0
 40
0
 40
0
 40
1
 40
1
 40
1
 40
1
 10
42.721066
 20
52.243721
 30
0.0
 10
44.769758
 20
53.419486
 30
0.0
 10
47.293851
 20
53.419486
 30
0.0
 10
49.342543
 20
52.243721
 30
0.0
  0
SPLINE
  5
10b
100
AcDbEntity
  8
VISIBLE__ISO_
 62
7
100
AcDbSpline
 70
8
 71
3
 72
8
 73
4
 74
0
 40
0
 40
0
 40
0
 40
0
 40
1
 40
1
 40
1
 40
1
 10
49.342543
 20
52.243721
 30
0.0
 10
51.391235
 20
51.067956
 30
0.0
 10
52.653281
 20
48.895053
 30
0.0
 10
52.653281
 20
46.543524
 30
0.0
  0
LWPOLYLINE
  5
10c
100
AcDbEntity
  8
VISIBLE__ISO_
 62
7
100
AcDbPolyline
 90
2
 70
0
 10
37.017419
 20
37.647992
 30
0.0
 10
37.017419
 20
37.647992
 30
0.0
  0
SPLINE
  5
10d
100
AcDbEntity
  8
VISIBLE__ISO_
 62
7
100
AcDbSpline
 70
8
 71
3
 72
8
 73
4
 74
0
 40
0
 40
0
 40
0
 40
0
 40
1
 40
1
 40
1
 40
1
 10
52.653281
 20
30.121069
 30
0.0
 10
52.653281
 20
27.769540
 30
0.0
 10
51.391235
 20
25.596637
 30
0.0
 10
49.342543
 20
24.420872
 30
0.0
  0
SPLINE
  5
10e
100
AcDbEntity
  8
VISIBLE__ISO_
 62
7
100
AcDbSpline
 70
8
 71
3
 72
8
 73
4
 74
0
 40
0
 40
0
 40
0
 40
0
 40
1
 40
1
 40
1
 40
1
 10
49.342543
 20
24.420872
 30
0.0
 10
47.293851
 20
23.245107
 30
0.0
 10
44.769758
 20
23.245107
 30
0.0
 10
42.721066
 20
24.420872
 30
0.0
  0
SPLINE
  5
10f
100
AcDbEntity
  8
VISIBLE__ISO_
 62
7
100
AcDbSpline
 70
8
 71
3
 72
8
 73
4
 74
0
 40
0
 40
0
 40
0
 40
0
 40
1
 40
1
 40
1
 40
1
 10
42.721066
 20
24.420872
 30
0.0
 10
40.672374
 20
25.596637
 30
0.0
 10
39.410327
 20
27.769540
 30
0.0
 10
39.410328
 20
30.121069
 30
0.0
  0
SPLINE
  5
110
100
AcDbEntity
  8
VISIBLE__ISO_
 62
7
100
AcDbSpline
 70
8
 71
3
 72
8
 73
4
 74
0
 40
0
 40
0
 40
0
 40
0
 40
1
 40
1
 40
1
 40
1
 10
39.410328
 20
30.121069
 30
0.0
 10
39.410328
 20
32.472599
 30
0.0
 10
40.672374
 20
34.645502
 30
0.0
 10
42.721066
 20
35.821266
 30
0.0
  0
SPLINE
  5
111
100
AcDbEntity
  8
VISIBLE__ISO_
 62
7
100
AcDbSpline
 70
8
 71
3
 72
8
 73
4
 74
0
 40
0
 40
0
 40
0
 40
0
 40
1
 40
1
 40
1
 40
1
 10
42.721066
 20
35.821266
 30
0.0
 10
44.769758
 20
36.997031
 30
0.0
 10
47.293851
 20
36.997031
 30
0.0
 10
49.342543
 20
35.821266
 30
0.0
  0
SPLINE
  5
112
100
AcDbEntity
  8
VISIBLE__ISO_
 62
7
100
AcDbSpline
 70
8
 71
3
 72
8
 73
4
 74
0
 40
0
 40
0
 40
0
 40
0
 40
1
 40
1
 40
1
 40
1
 10
49.342543
 20
35.821266
 30
0.0
 10
51.391235
 20
34.645502
 30
0.0
 10
52.653281
 20
32.472599
 30
0.0
 10
52.653281
 20
30.121069
 30
0.0
  0
LWPOLYLINE
  5
113
100
AcDbEntity
  8
VISIBLE__ISO_
 62
7
100
AcDbPolyline
 90
2
 70
0
 10
52.653281
 20
46.543524
 30
0.0
 10
52.653281
 20
46.543524
 30
0.0
  0
SPLINE
  5
114
100
AcDbEntity
  8
VISIBLE__ISO_
 62
7
100
AcDbSpline
 70
8
 71
3
 72
8
 73
4
 74
0
 40
0
 40
0
 40
0
 40
0
 40
1
 40
1
 40
1
 40
1
 10
68.453042
 20
37.647992
 30
0.0
 10
68.453042
 20
35.296463
 30
0.0
 10
67.190996
 20
33.123560
 30
0.0
 10
65.142304
 20
31.947795
 30
0.0
  0
SPLINE
  5
115
100
AcDbEntity
  8
VISIBLE__ISO_
 62
7
100
AcDbSpline
 70
8
 71
3
 72
8
 73
4
 74
0
 40
0
 40
0
 40
0
 40
0
 40
1
 40
1
 40
1
 40
1
 10
65.142304
 20
31.947795
 30
0.0
 10
63.093612
 20
30.772030
 30
0.0
 10
60.569519
 20
30.772030
 30
0.0
 10
58.520827
 20
31.947795
 30
0.0
  0
SPLINE
  5
116
100
AcDbEntity
  8
VISIBLE__ISO_
 62
7
100
AcDbSpline
 70
8
 71
3
 72
8
 73
4
 74
0
 40
0
 40
0
 40
0
 40
0
 40
1
 40
1
 40
1
 40
1
 10
58.520827
 20
31.947795
 30
0.0
 10
56.472135
 20
33.123560
 30
0.0
 10
55.210088
 20
35.296463
 30
0.0
 10
55.210089
 20
37.647992
 30
0.0
  0
SPLINE
  5
117
100
AcDbEntity
  8
VISIBLE__ISO_
 62
7
100
AcDbSpline
 70
8
 71
3
 72
8
 73
4
 74
0
 40
0
 40
0
 40
0
 40
0
 40
1
 40
1
 40
1
 40
1
 10
55.210089
 20
37.647992
 30
0.0
 10
55.210089
 20
39.999522
 30
0.0
 10
56.472135
 20
42.172425
 30
0.0
 10
58.520827
 20
43.348189
 30
0.0
  0
SPLINE
  5
118
100
AcDbEntity
  8
VISIBLE__ISO_
 62
7
100
AcDbSpline
 70
8
 71
3
 72
8
 73
4
 74
0
 40
0
 40
0
 40
0
 40
0
 40
1
 40
1
 40
1
 40
1
 10
58.520827
 20
43.348189
 30
0.0
 10
60.569519
 20
44.523954
 30
0.0
 10
63.093612
 20
44.523954
 30
0.0
 10
65.142304
 20
43.348189
 30
0.0
  0
SPLINE
  5
119
100
AcDbEntity
  8
VISIBLE__ISO_
 62
7
100
AcDbSpline
 70
8
 71
3
 72
8
 73
4
 74
0
 40
0
 40
0
 40
0
 40
0
 40
1
 40
1
 40
1
 40
1
 10
65.142304
 20
43.348189
 30
0.0
 10
67.190996
 20
42.172425
 30
0.0
 10
68.453042
 20
39.999522
 30
0.0
 10
68.453042
 20
37.647992
 30
0.0
  0
LWPOLYLINE
  5
11a
100
AcDbEntity
  8
VISIBLE__ISO_
 62
7
100
AcDbPolyline
 90
2
 70
0
 10
52.653281
 20
30.121069
 30
0.0
 10
52.653281
 20
30.121069
 30
0.0
  0
SPLINE
  5
11b
100
AcDbEntity
  8
VISIBLE__ISO_
 62
7
100
AcDbSpline
 70
8
 71
3
 72
8
 73
4
 74
0
 40
0
 40
0
 40
0
 40
0
 40
1
 40
1
 40
1
 40
1
 10
52.653281
 20
13.633421
 30
0.0
 10
52.653281
 20
11.281892
 30
0.0
 10
51.391235
 20
9.108989
 30
0.0
 10
49.342543
 20
7.933224
 30
0.0
  0
SPLINE
  5
11c
100
AcDbEntity
  8
VISIBLE__ISO_
 62
7
100
AcDbSpline
 70
8
 71
3
 72
8
 73
4
 74
0
 40
0
 40
0
 40
0
 40
0
 40
1
 40
1
 40
1
 40
1
 10
49.342543
 20
7.933224
 30
0.0
 10
47.293851
 20
6.757459
 30
0.0
 10
44.769758
 20
6.757459
 30
0.0
 10
42.721066
 20
7.933224
 30
0.0
  0
SPLINE
  5
11d
100
AcDbEntity
  8
VISIBLE__ISO_
 62
7
100
AcDbSpline
 70
8
 71
3
 72
8
 73
4
 74
0
 40
0
 40
0
 40
0
 40
0
 40
1
 40
1
 40
1
 40
1
 10
42.721066
 20
7.933224
 30
0.0
 10
40.672374
 20
9.108989
 30
0.0
 10
39.410327
 20
11.281892
 30
0.0
 10
39.410328
 20
13.633421
 30
0.0
  0
SPLINE
  5
11e
100
AcDbEntity
  8
VISIBLE__ISO_
 62
7
100
AcDbSpline
 70
8
 71
3
 72
8
 73
4
 74
0
 40
0
 40
0
 40
0
 40
0
 40
1
 40
1
 40
1
 40
1
 10
39.410328
 20
13.633421
 30
0.0
 10
39.410328
 20
15.984951
 30
0.0
 10
40.672374
 20
18.157854
 30
0.0
 10
42.721066
 20
19.333618
 30
0.0
  0
SPLINE
  5
11f
100
AcDbEntity
  8
VISIBLE__ISO_
 62
7
100
AcDbSpline
 70
8
 71
3
 72
8
 73
4
 74
0
 40
0
 40
0
 40
0
 40
0
 40
1
 40
1
 40
1
 40
1
 10
42.721066
 20
19.333618
 30
0.0
 10
44.769758
 20
20.509383
 30
0.0
 10
47.293851
 20
20.509383
 30
0.0
 10
49.342543
 20
19.333618
 30
0.0
  0
SPLINE
  5
120
100
AcDbEntity
  8
VISIBLE__ISO_
 62
7
100
AcDbSpline
 70
8
 71
3
 72
8
 73
4
 74
0
 40
0
 40
0
 40
0
 40
0
 40
1
 40
1
 40
1
 40
1
 10
49.342543
 20
19.333618
 30
0.0
 10
51.391235
 20
18.157854
 30
0.0
 10
52.653281
 20
15.984951
 30
0.0
 10
52.653281
 20
13.633421
 30
0.0
  0
LWPOLYLINE
  5
121
100
AcDbEntity
  8
VISIBLE__ISO_
 62
7
100
AcDbPolyline
 90
2
 70
0
 10
68.453042
 20
37.647992
 30
0.0
 10
68.453042
 20
37.647992
 30
0.0
  0
SPLINE
  5
122
100
AcDbEntity
  8
VISIBLE__ISO_
 62
7
100
AcDbSpline
 70
8
 71
3
 72
8
 73
4
 74
0
 40
0
 40
0
 40
0
 40
0
 40
1
 40
1
 40
1
 40
1
 10
26.200154
 20
13.633421
 30
0.0
 10
26.200154
 20
11.281892
 30
0.0
 10
24.938108
 20
9.108989
 30
0.0
 10
22.889416
 20
7.933224
 30
0.0
  0
SPLINE
  5
123
100
AcDbEntity
  8
VISIBLE__ISO_
 62
7
100
AcDbSpline
 70
8
 71
3
 72
8
 73
4
 74
0
 40
0
 40
0
 40
0
 40
0
 40
1
 40
1
 40
1
 40
1
 10
22.889416
 20
7.933224
 30
0.0
 10
20.840724
 20
6.757459
 30
0.0
 10
18.316631
 20
6.757459
 30
0.0
 10
16.267939
 20
7.933224
 30
0.0
  0
SPLINE
  5
124
100
AcDbEntity
  8
VISIBLE__ISO_
 62
7
100
AcDbSpline
 70
8
 71
3
 72
8
 73
4
 74
0
 40
0
 40
0
 40
0
 40
0
 40
1
 40
1
 40
1
 40
1
 10
16.267939
 20
7.933224
 30
0.0
 10
14.219247
 20
9.108989
 30
0.0
 10
12.957200
 20
11.281892
 30
0.0
 10
12.957200
 20
13.633421
 30
0.0
  0
SPLINE
  5
125
100
AcDbEntity
  8
VISIBLE__ISO_
 62
7
100
AcDbSpline
 70
8
 71
3
 72
8
 73
4
 74
0
 40
0
 40
0
 40
0
 40
0
 40
1
 40
1
 40
1
 40
1
 10
12.957200
 20
13.633421
 30
0.0
 10
12.957200
 20
15.984951
 30
0.0
 10
14.219247
 20
18.157854
 30
0.0
 10
16.267939
 20
19.333618
 30
0.0
  0
SPLINE
  5
126
100
AcDbEntity
  8
VISIBLE__ISO_
 62
7
100
AcDbSpline
 70
8
 71
3
 72
8
 73
4
 74
0
 40
0
 40
0
 40
0
 40
0
 40
1
 40
1
 40
1
 40
1
 10
16.267939
 20
19.333618
 30
0.0
 10
18.316631
 20
20.509383
 30
0.0
 10
20.840724
 20
20.509383
 30
0.0
 10
22.889416
 20
19.333618
 30
0.0
  0
SPLINE
  5
127
100
AcDbEntity
  8
VISIBLE__ISO_
 62
7
100
AcDbSpline
 70
8
 71
3
 72
8
 73
4
 74
0
 40
0
 40
0
 40
0
 40
0
 40
1
 40
1
 40
1
 40
1
 10
22.889416
 20
19.333618
 30
0.0
 10
24.938108
 20
18.157854
 30
0.0
 10
26.200154
 20
15.984951
 30
0.0
 10
26.200154
 20
13.633421
 30
0.0
  0
LWPOLYLINE
  5
128
100
AcDbEntity
  8
VISIBLE__ISO_
 62
7
100
AcDbPolyline
 90
2
 70
0
 10
52.653281
 20
13.633421
 30
0.0
 10
52.653281
 20
13.633421
 30
0.0
  0
SPLINE
  5
129
100
AcDbEntity
  8
VISIBLE__ISO_
 62
7
100
AcDbSpline
 70
8
 71
3
 72
8
 73
4
 74
0
 40
0
 40
0
 40
0
 40
0
 40
1
 40
1
 40
1
 40
1
 10
128.551603
 20
30.136871
 30
0.0
 10
128.551603
 20
26.551370
 30
0.0
 10
126.627294
 20
23.238231
 30
0.0
 10
123.503546
 20
21.445481
 30
0.0
  0
SPLINE
  5
12a
100
AcDbEntity
  8
VISIBLE__ISO_
 62
7
100
AcDbSpline
 70
8
 71
3
 72
8
 73
4
 74
0
 40
0
 40
0
 40
0
 40
0
 40
1
 40
1
 40
1
 40
1
 10
123.503546
 20
21.445481
 30
0.0
 10
120.379798
 20
19.652731
 30
0.0
 10
116.531181
 20
19.652731
 30
0.0
 10
113.407433
 20
21.445481
 30
0.0
  0
SPLINE
  5
12b
100
AcDbEntity
  8
VISIBLE__ISO_
 62
7
100
AcDbSpline
 70
8
 71
3
 72
8
 73
4
 74
0
 40
0
 40
0
 40
0
 40
0
 40
1
 40
1
 40
1
 40
1
 10
113.407433
 20
21.445481
 30
0.0
 10
110.283684
 20
23.238231
 30
0.0
 10
108.359376
 20
26.551370
 30
0.0
 10
108.359376
 20
30.136871
 30
0.0
  0
SPLINE
  5
12c
100
AcDbEntity
  8
VISIBLE__ISO_
 62
7
100
AcDbSpline
 70
8
 71
3
 72
8
 73
4
 74
0
 40
0
 40
0
 40
0
 40
0
 40
1
 40
1
 40
1
 40
1
 10
108.359376
 20
30.136871
 30
0.0
 10
108.359376
 20
33.722371
 30
0.0
 10
110.283685
 20
37.035510
 30
0.0
 10
113.407433
 20
38.828261
 30
0.0
  0
SPLINE
  5
12d
100
AcDbEntity
  8
VISIBLE__ISO_
 62
7
100
AcDbSpline
 70
8
 71
3
 72
8
 73
4
 74
0
 40
0
 40
0
 40
0
 40
0
 40
1
 40
1
 40
1
 40
1
 10
113.407433
 20
38.828261
 30
0.0
 10
116.531181
 20
40.621011
 30
0.0
 10
120.379798
 20
40.621011
 30
0.0
 10
123.503546
 20
38.828261
 30
0.0
  0
SPLINE
  5
12e
100
AcDbEntity
  8
VISIBLE__ISO_
 62
7
100
AcDbSpline
 70
8
 71
3
 72
8
 73
4
 74
0
 40
0
 40
0
 40
0
 40
0
 40
1
 40
1
 40
1
 40
1
 10
123.503546
 20
38.828261
 30
0.0
 10
126.627295
 20
37.035510
 30
0.0
 10
128.551603
 20
33.722371
 30
0.0
 10
128.551603
 20
30.136871
 30
0.0
  0
LWPOLYLINE
  5
12f
100
AcDbEntity
  8
VISIBLE__ISO_
 62
7
100
AcDbPolyline
 90
2
 70
0
 10
26.200154
 20
13.633421
 30
0.0
 10
26.200154
 20
13.633421
 30
0.0
  0
SPLINE
  5
130
100
AcDbEntity
  8
VISIBLE__ISO_
 62
7
100
AcDbSpline
 70
8
 71
3
 72
8
 73
4
 74
0
 40
0
 40
0
 40
0
 40
0
 40
1
 40
1
 40
1
 40
1
 10
82.780612
 20
55.214744
 30
0.0
 10
82.780612
 20
54.307859
 30
0.0
 10
82.293895
 20
53.469864
 30
0.0
 10
81.503802
 20
53.016421
 30
0.0
  0
SPLINE
  5
131
100
AcDbEntity
  8
VISIBLE__ISO_
 62
7
100
AcDbSpline
 70
8
 71
3
 72
8
 73
4
 74
0
 40
0
 40
0
 40
0
 40
0
 40
1
 40
1
 40
1
 40
1
 10
81.503802
 20
53.016421
 30
0.0
 10
80.713709
 20
52.562979
 30
0.0
 10
79.740275
 20
52.562979
 30
0.0
 10
78.950182
 20
53.016421
 30
0.0
  0
SPLINE
  5
132
100
AcDbEntity
  8
VISIBLE__ISO_
 62
7
100
AcDbSpline
 70
8
 71
3
 72
8
 73
4
 74
0
 40
0
 40
0
 40
0
 40
0
 40
1
 40
1
 40
1
 40
1
 10
78.950182
 20
53.016421
 30
0.0
 10
78.160089
 20
53.469864
 30
0.0
 10
77.673372
 20
54.307859
 30
0.0
 10
77.673372
 20
55.214744
 30
0.0
  0
SPLINE
  5
133
100
AcDbEntity
  8
VISIBLE__ISO_
 62
7
100
AcDbSpline
 70
8
 71
3
 72
8
 73
4
 74
0
 40
0
 40
0
 40
0
 40
0
 40
1
 40
1
 40
1
 40
1
 10
77.673372
 20
55.214744
 30
0.0
 10
77.673372
 20
56.121628
 30
0.0
 10
78.160089
 20
56.959624
 30
0.0
 10
78.950182
 20
57.413066
 30
0.0
  0
SPLINE
  5
134
100
AcDbEntity
  8
VISIBLE__ISO_
 62
7
100
AcDbSpline
 70
8
 71
3
 72
8
 73
4
 74
0
 40
0
 40
0
 40
0
 40
0
 40
1
 40
1
 40
1
 40
1
 10
78.950182
 20
57.413066
 30
0.0
 10
79.740275
 20
57.866508
 30
0.0
 10
80.713709
 20
57.866508
 30
0.0
 10
81.503802
 20
57.413066
 30
0.0
  0
SPLINE
  5
135
100
AcDbEntity
  8
VISIBLE__ISO_
 62
7
100
AcDbSpline
 70
8
 71
3
 72
8
 73
4
 74
0
 40
0
 40
0
 40
0
 40
0
 40
1
 40
1
 40
1
 40
1
 10
81.503802
 20
57.413066
 30
0.0
 10
82.293895
 20
56.959624
 30
0.0
 10
82.780612
 20
56.121628
 30
0.0
 10
82.780612
 20
55.214744
 30
0.0
  0
LWPOLYLINE
  5
136
100
AcDbEntity
  8
VISIBLE__ISO_
 62
7
100
AcDbPolyline
 90
2
 70
0
 10
128.551603
 20
30.136871
 30
0.0
 10
128.551603
 20
30.136871
 30
0.0
  0
SPLINE
  5
137
100
AcDbEntity
  8
VISIBLE__ISO_
 62
7
100
AcDbSpline
 70
8
 71
3
 72
8
 73
4
 74
0
 40
0
 40
0
 40
0
 40
0
 40
1
 40
1
 40
1
 40
1
 10
152.799742
 20
55.167838
 30
0.0
 10
152.799742
 20
54.260954
 30
0.0
 10
152.313025
 20
53.422958
 30
0.0
 10
151.522932
 20
52.969516
 30
0.0
  0
SPLINE
  5
138
100
AcDbEntity
  8
VISIBLE__ISO_
 62
7
100
AcDbSpline
 70
8
 71
3
 72
8
 73
4
 74
0
 40
0
 40
0
 40
0
 40
0
 40
1
 40
1
 40
1
 40
1
 10
151.522932
 20
52.969516
 30
0.0
 10
150.732839
 20
52.516074
 30
0.0
 10
149.759405
 20
52.516074
 30
0.0
 10
148.969312
 20
52.969516
 30
0.0
  0
SPLINE
  5
139
100
AcDbEntity
  8
VISIBLE__ISO_
 62
7
100
AcDbSpline
 70
8
 71
3
 72
8
 73
4
 74
0
 40
0
 40
0
 40
0
 40
0
 40
1
 40
1
 40
1
 40
1
 10
148.969312
 20
52.969516
 30
0.0
 10
148.179219
 20
53.422958
 30
0.0
 10
147.692502
 20
54.260954
 30
0.0
 10
147.692502
 20
55.167838
 30
0.0
  0
SPLINE
  5
13a
100
AcDbEntity
  8
VISIBLE__ISO_
 62
7
100
AcDbSpline
 70
8
 71
3
 72
8
 73
4
 74
0
 40
0
 40
0
 40
0
 40
0
 40
1
 40
1
 40
1
 40
1
 10
147.692502
 20
55.167838
 30
0.0
 10
147.692502
 20
56.074723
 30
0.0
 10
148.179219
 20
56.912719
 30
0.0
 10
148.969312
 20
57.366161
 30
0.0
  0
SPLINE
  5
13b
100
AcDbEntity
  8
VISIBLE__ISO_
 62
7
100
AcDbSpline
 70
8
 71
3
 72
8
 73
4
 74
0
 40
0
 40
0
 40
0
 40
0
 40
1
 40
1
 40
1
 40
1
 10
148.969312
 20
57.366161
 30
0.0
 10
149.759405
 20
57.819603
 30
0.0
 10
150.732839
 20
57.819603
 30
0.0
 10
151.522932
 20
57.366161
 30
0.0
  0
SPLINE
  5
13c
100
AcDbEntity
  8
VISIBLE__ISO_
 62
7
100
AcDbSpline
 70
8
 71
3
 72
8
 73
4
 74
0
 40
0
 40
0
 40
0
 40
0
 40
1
 40
1
 40
1
 40
1
 10
151.522932
 20
57.366161
 30
0.0
 10
152.313025
 20
56.912719
 30
0.0
 10
152.799743
 20
56.074723
 30
0.0
 10
152.799743
 20
55.167838
 30
0.0
  0
LWPOLYLINE
  5
13d
100
AcDbEntity
  8
VISIBLE__ISO_
 62
7
100
AcDbPolyline
 90
2
 70
0
 10
82.780612
 20
55.214744
 30
0.0
 10
82.780612
 20
55.214744
 30
0.0
  0
SPLINE
  5
13e
100
AcDbEntity
  8
VISIBLE__ISO_
 62
7
100
AcDbSpline
 70
8
 71
3
 72
8
 73
4
 74
0
 40
0
 40
0
 40
0
 40
0
 40
1
 40
1
 40
1
 40
1
 10
158.020648
 20
4.942195
 30
0.0
 10
158.020648
 20
4.035311
 30
0.0
 10
157.533930
 20
3.197315
 30
0.0
 10
156.743837
 20
2.743873
 30
0.0
  0
SPLINE
  5
13f
100
AcDbEntity
  8
VISIBLE__ISO_
 62
7
100
AcDbSpline
 70
8
 71
3
 72
8
 73
4
 74
0
 40
0
 40
0
 40
0
 40
0
 40
1
 40
1
 40
1
 40
1
 10
156.743837
 20
2.743873
 30
0.0
 10
155.953744
 20
2.290431
 30
0.0
 10
154.980310
 20
2.290431
 30
0.0
 10
154.190217
 20
2.743873
 30
0.0
  0
SPLINE
  5
140
100
AcDbEntity
  8
VISIBLE__ISO_
 62
7
100
AcDbSpline
 70
8
 71
3
 72
8
 73
4
 74
0
 40
0
 40
0
 40
0
 40
0
 40
1
 40
1
 40
1
 40
1
 10
154.190217
 20
2.743873
 30
0.0
 10
153.400124
 20
3.197315
 30
0.0
 10
152.913407
 20
4.035311
 30
0.0
 10
152.913407
 20
4.942195
 30
0.0
  0
SPLINE
  5
141
100
AcDbEntity
  8
VISIBLE__ISO_
 62
7
100
AcDbSpline
 70
8
 71
3
 72
8
 73
4
 74
0
 40
0
 40
0
 40
0
 40
0
 40
1
 40
1
 40
1
 40
1
 10
152.913407
 20
4.942195
 30
0.0
 10
152.913407
 20
5.849080
 30
0.0
 10
153.400124
 20
6.687075
 30
0.0
 10
154.190217
 20
7.140518
 30
0.0
  0
SPLINE
  5
142
100
AcDbEntity
  8
VISIBLE__ISO_
 62
7
100
AcDbSpline
 70
8
 71
3
 72
8
 73
4
 74
0
 40
0
 40
0
 40
0
 40
0
 40
1
 40
1
 40
1
 40
1
 10
154.190217
 20
7.140518
 30
0.0
 10
154.980310
 20
7.593960
 30
0.0
 10
155.953745
 20
7.593960
 30
0.0
 10
156.743837
 20
7.140518
 30
0.0
  0
SPLINE
  5
143
100
AcDbEntity
  8
VISIBLE__ISO_
 62
7
100
AcDbSpline
 70
8
 71
3
 72
8
 73
4
 74
0
 40
0
 40
0
 40
0
 40
0
 40
1
 40
1
 40
1
 40
1
 10
156.743837
 20
7.140518
 30
0.0
 10
157.533930
 20
6.687075
 30
0.0
 10
158.020648
 20
5.849080
 30
0.0
 10
158.020648
 20
4.942195
 30
0.0
  0
LWPOLYLINE
  5
144
100
AcDbEntity
  8
VISIBLE__ISO_
 62
7
100
AcDbPolyline
 90
2
 70
0
 10
152.799743
 20
55.167838
 30
0.0
 10
152.799743
 20
55.167838
 30
0.0
  0
SPLINE
  5
145
100
AcDbEntity
  8
VISIBLE__ISO_
 62
7
100
AcDbSpline
 70
8
 71
3
 72
8
 73
4
 74
0
 40
0
 40
0
 40
0
 40
0
 40
1
 40
1
 40
1
 40
1
 10
82.758145
 20
4.998585
 30
0.0
 10
82.758145
 20
4.091701
 30
0.0
 10
82.271427
 20
3.253705
 30
0.0
 10
81.481334
 20
2.800263
 30
0.0
  0
SPLINE
  5
146
100
AcDbEntity
  8
VISIBLE__ISO_
 62
7
100
AcDbSpline
 70
8
 71
3
 72
8
 73
4
 74
0
 40
0
 40
0
 40
0
 40
0
 40
1
 40
1
 40
1
 40
1
 10
81.481334
 20
2.800263
 30
0.0
 10
80.691242
 20
2.346821
 30
0.0
 10
79.717807
 20
2.346821
 30
0.0
 10
78.927714
 20
2.800263
 30
0.0
  0
SPLINE
  5
147
100
AcDbEntity
  8
VISIBLE__ISO_
 62
7
100
AcDbSpline
 70
8
 71
3
 72
8
 73
4
 74
0
 40
0
 40
0
 40
0
 40
0
 40
1
 40
1
 40
1
 40
1
 10
78.927714
 20
2.800263
 30
0.0
 10
78.137621
 20
3.253705
 30
0.0
 10
77.650904
 20
4.091701
 30
0.0
 10
77.650904
 20
4.998585
 30
0.0
  0
SPLINE
  5
148
100
AcDbEntity
  8
VISIBLE__ISO_
 62
7
100
AcDbSpline
 70
8
 71
3
 72
8
 73
4
 74
0
 40
0
 40
0
 40
0
 40
0
 40
1
 40
1
 40
1
 40
1
 10
77.650904
 20
4.998585
 30
0.0
 10
77.650904
 20
5.905469
 30
0.0
 10
78.137621
 20
6.743465
 30
0.0
 10
78.927714
 20
7.196907
 30
0.0
  0
SPLINE
  5
149
100
AcDbEntity
  8
VISIBLE__ISO_
 62
7
100
AcDbSpline
 70
8
 71
3
 72
8
 73
4
 74
0
 40
0
 40
0
 40
0
 40
0
 40
1
 40
1
 40
1
 40
1
 10
78.927714
 20
7.196907
 30
0.0
 10
79.717807
 20
7.650350
 30
0.0
 10
80.691242
 20
7.650350
 30
0.0
 10
81.481335
 20
7.196907
 30
0.0
  0
SPLINE
  5
14a
100
AcDbEntity
  8
VISIBLE__ISO_
 62
7
100
AcDbSpline
 70
8
 71
3
 72
8
 73
4
 74
0
 40
0
 40
0
 40
0
 40
0
 40
1
 40
1
 40
1
 40
1
 10
81.481335
 20
7.196907
 30
0.0
 10
82.271427
 20
6.743465
 30
0.0
 10
82.758145
 20
5.905469
 30
0.0
 10
82.758145
 20
4.998585
 30
0.0
  0
LWPOLYLINE
  5
14b
100
AcDbEntity
  8
VISIBLE__ISO_
 62
7
100
AcDbPolyline
 90
2
 70
0
 10
158.020648
 20
4.942195
 30
0.0
 10
158.020648
 20
4.942195
 30
0.0
  0
SPLINE
  5
14c
100
AcDbEntity
  8
VISIBLE__ISO_
 62
7
100
AcDbSpline
 70
8
 71
3
 72
8
 73
4
 74
0
 40
0
 40
0
 40
0
 40
0
 40
1
 40
1
 40
1
 40
1
 10
7.554250
 20
4.951778
 30
0.0
 10
7.554250
 20
4.044894
 30
0.0
 10
7.067533
 20
3.206898
 30
0.0
 10
6.277440
 20
2.753456
 30
0.0
  0
SPLINE
  5
14d
100
AcDbEntity
  8
VISIBLE__ISO_
 62
7
100
AcDbSpline
 70
8
 71
3
 72
8
 73
4
 74
0
 40
0
 40
0
 40
0
 40
0
 40
1
 40
1
 40
1
 40
1
 10
6.277440
 20
2.753456
 30
0.0
 10
5.487347
 20
2.300014
 30
0.0
 10
4.513912
 20
2.300014
 30
0.0
 10
3.723819
 20
2.753456
 30
0.0
  0
SPLINE
  5
14e
100
AcDbEntity
  8
VISIBLE__ISO_
 62
7
100
AcDbSpline
 70
8
 71
3
 72
8
 73
4
 74
0
 40
0
 40
0
 40
0
 40
0
 40
1
 40
1
 40
1
 40
1
 10
3.723819
 20
2.753456
 30
0.0
 10
2.933726
 20
3.206898
 30
0.0
 10
2.447009
 20
4.044894
 30
0.0
 10
2.447009
 20
4.951778
 30
0.0
  0
SPLINE
  5
14f
100
AcDbEntity
  8
VISIBLE__ISO_
 62
7
100
AcDbSpline
 70
8
 71
3
 72
8
 73
4
 74
0
 40
0
 40
0
 40
0
 40
0
 40
1
 40
1
 40
1
 40
1
 10
2.447009
 20
4.951778
 30
0.0
 10
2.447009
 20
5.858663
 30
0.0
 10
2.933726
 20
6.696658
 30
0.0
 10
3.723819
 20
7.150101
 30
0.0
  0
SPLINE
  5
150
100
AcDbEntity
  8
VISIBLE__ISO_
 62
7
100
AcDbSpline
 70
8
 71
3
 72
8
 73
4
 74
0
 40
0
 40
0
 40
0
 40
0
 40
1
 40
1
 40
1
 40
1
 10
3.723819
 20
7.150101
 30
0.0
 10
4.513912
 20
7.603543
 30
0.0
 10
5.487347
 20
7.603543
 30
0.0
 10
6.277440
 20
7.150101
 30
0.0
  0
SPLINE
  5
151
100
AcDbEntity
  8
VISIBLE__ISO_
 62
7
100
AcDbSpline
 70
8
 71
3
 72
8
 73
4
 74
0
 40
0
 40
0
 40
0
 40
0
 40
1
 40
1
 40
1
 40
1
 10
6.277440
 20
7.150101
 30
0.0
 10
7.067533
 20
6.696658
 30
0.0
 10
7.554250
 20
5.858663
 30
0.0
 10
7.554250
 20
4.951778
 30
0.0
  0
LWPOLYLINE
  5
152
100
AcDbEntity
  8
VISIBLE__ISO_
 62
7
100
AcDbPolyline
 90
2
 70
0
 10
82.758145
 20
4.998585
 30
0.0
 10
82.758145
 20
4.998585
 30
0.0
  0
SPLINE
  5
153
100
AcDbEntity
  8
VISIBLE__ISO_
 62
7
100
AcDbSpline
 70
8
 71
3
 72
8
 73
4
 74
0
 40
0
 40
0
 40
0
 40
0
 40
1
 40
1
 40
1
 40
1
 10
12.699915
 20
55.249305
 30
0.0
 10
12.699915
 20
54.342420
 30
0.0
 10
12.213198
 20
53.504425
 30
0.0
 10
11.423105
 20
53.050982
 30
0.0
  0
SPLINE
  5
154
100
AcDbEntity
  8
VISIBLE__ISO_
 62
7
100
AcDbSpline
 70
8
 71
3
 72
8
 73
4
 74
0
 40
0
 40
0
 40
0
 40
0
 40
1
 40
1
 40
1
 40
1
 10
11.423105
 20
53.050982
 30
0.0
 10
10.633012
 20
52.597540
 30
0.0
 10
9.659577
 20
52.597540
 30
0.0
 10
8.869484
 20
53.050982
 30
0.0
  0
SPLINE
  5
155
100
AcDbEntity
  8
VISIBLE__ISO_
 62
7
100
AcDbSpline
 70
8
 71
3
 72
8
 73
4
 74
0
 40
0
 40
0
 40
0
 40
0
 40
1
 40
1
 40
1
 40
1
 10
8.869484
 20
53.050982
 30
0.0
 10
8.079391
 20
53.504425
 30
0.0
 10
7.592674
 20
54.342420
 30
0.0
 10
7.592674
 20
55.249305
 30
0.0
  0
SPLINE
  5
156
100
AcDbEntity
  8
VISIBLE__ISO_
 62
7
100
AcDbSpline
 70
8
 71
3
 72
8
 73
4
 74
0
 40
0
 40
0
 40
0
 40
0
 40
1
 40
1
 40
1
 40
1
 10
7.592674
 20
55.249305
 30
0.0
 10
7.592674
 20
56.156189
 30
0.0
 10
8.079391
 20
56.994185
 30
0.0
 10
8.869484
 20
57.447627
 30
0.0
  0
SPLINE
  5
157
100
AcDbEntity
  8
VISIBLE__ISO_
 62
7
100
AcDbSpline
 70
8
 71
3
 72
8
 73
4
 74
0
 40
0
 40
0
 40
0
 40
0
 40
1
 40
1
 40
1
 40
1
 10
8.869484
 20
57.447627
 30
0.0
 10
9.659577
 20
57.901069
 30
0.0
 10
10.633012
 20
57.901069
 30
0.0
 10
11.423105
 20
57.447627
 30
0.0
  0
SPLINE
  5
158
100
AcDbEntity
  8
VISIBLE__ISO_
 62
7
100
AcDbSpline
 70
8
 71
3
 72
8
 73
4
 74
0
 40
0
 40
0
 40
0
 40
0
 40
1
 40
1
 40
1
 40
1
 10
11.423105
 20
57.447627
 30
0.0
 10
12.213198
 20
56.994185
 30
0.0
 10
12.699915
 20
56.156189
 30
0.0
 10
12.699915
 20
55.249305
 30
0.0
  0
LWPOLYLINE
  5
159
100
AcDbEntity
  8
VISIBLE__ISO_
 62
7
100
AcDbPolyline
 90
2
 70
0
 10
7.554250
 20
4.951778
 30
0.0
 10
7.554250
 20
4.951778
 30
0.0
  0
SPLINE
  5
15a
100
AcDbEntity
  8
VISIBLE__ISO_
 62
7
100
AcDbSpline
 70
8
 71
3
 72
8
 73
4
 74
0
 40
0
 40
0
 40
0
 40
0
 40
1
 40
1
 40
1
 40
1
 10
1.048672
 20
48.659710
 30
0.0
 10
1.048672
 20
48.659710
 30
0.0
 10
8.477430
 20
59.143165
 30
0.0
 10
8.593324
 20
59.143165
 30
0.0
  0
SPLINE
  5
15b
100
AcDbEntity
  8
VISIBLE__ISO_
 62
7
100
AcDbSpline
 70
8
 71
3
 72
8
 73
4
 74
0
 40
0
 40
0
 40
0
 40
0
 40
1
 40
1
 40
1
 40
1
 10
8.593324
 20
59.143165
 30
0.0
 10
8.709217
 20
59.143165
 30
0.0
 10
152.134356
 20
59.143165
 30
0.0
 10
152.134356
 20
59.143165
 30
0.0
  0
LWPOLYLINE
  5
15c
100
AcDbEntity
  8
VISIBLE__ISO_
 62
7
100
AcDbPolyline
 90
2
 70
0
 10
12.699915
 20
55.249305
 30
0.0
 10
12.699915
 20
55.249305
 30
0.0
  0
LWPOLYLINE
  5
15d
100
AcDbEntity
  8
VISIBLE__ISO_
 62
7
100
AcDbPolyline
 90
5
 70
0
 10
152.134356
 20
59.143165
 30
0.0
 10
159.438453
 20
48.890116
 30
0.0
 10
159.438453
 20
1.104026
 30
0.0
 10
1.048672
 20
1.104026
 30
0.0
 10
1.048672
 20
48.659710
 30
0.0
  0
ENDSEC
  0
SECTION
  2
OBJECTS
  0
DICTIONARY
  5
C
330
0
100
AcDbDictionary
  3
ACAD_GROUP
350
D
  3
ACAD_MLINESTYLE
350
17
  0
DICTIONARY
  5
D
330
C
100
AcDbDictionary
  0
DICTIONARY
  5
1A
330
C
100
AcDbDictionary
  0
DICTIONARY
  5
17
330
C
100
AcDbDictionary
  3
STANDARD
350
18
  0
DICTIONARY
  5
19
330
C
100
AcDbDictionary
  0
ENDSEC
  0
EOF
