  0
SECTION
  2
HEADER
  9
$ACADVER
  1
AC1014
  9
$HANDSEED
  5
FFFF
  9
$MEASUREMENT
 70
     1
  0
ENDSEC
  0
SECTION
  2
TABLES
  0
TABLE
  2
VPORT
  5
8
330
0
100
AcDbSymbolTable
 70
     4
  0
VPORT
  5
2E
330
8
100
AcDbSymbolTableRecord
100
AcDbViewportTableRecord
  2
*ACTIVE
 70
     0
 10
0.0
 20
0.0
 11
1.0
 21
1.0
 12
210.0
 22
148.5
 13
0.0
 23
0.0
 14
10.0
 24
10.0
 15
10.0
 25
10.0
 16
0.0
 26
0.0
 36
1.0
 17
0.0
 27
0.0
 37
0.0
 40
341.0
 41
1.24
 42
50.0
 43
0.0
 44
0.0
 50
0.0
 51
0.0
 71
     0
 72
   100
 73
     1
 74
     3
 75
     0
 76
     0
 77
     0
 78
     0
  0
ENDTAB
  0
TABLE
  2
LTYPE
  5
5
330
0
100
AcDbSymbolTable
 70
     1
  0
LTYPE
  5
14
330
5
100
AcDbSymbolTableRecord
100
AcDbLinetypeTableRecord
  2
BYBLOCK
 70
     0
  3

 72
    65
 73
     0
 40
0.0
  0
LTYPE
  5
15
330
5
100
AcDbSymbolTableRecord
100
AcDbLinetypeTableRecord
  2
BYLAYER
 70
     0
  3

 72
    65
 73
     0
 40
0.0
  0
LTYPE
  5
16
330
5
100
AcDbSymbolTableRecord
100
AcDbLinetypeTableRecord
  2
CONTINUOUS
 70
     0
  3
Solid line
 72
    65
 73
     0
 40
0.0
  0
ENDTAB
  0
TABLE
  2
LAYER
  5
2
100
AcDbSymbolTable
 70
2
  0
LAYER
  5
50
100
AcDbSymbolTableRecord
100
AcDbLayerTableRecord
  2
0
 70
0
  6
CONTINUOUS
  0
LAYER
  5
51
100
AcDbSymbolTableRecord
100
AcDbLayerTableRecord
  2
VISIBLE__ISO_
 70
0
  6
CONTINUOUS
  0
ENDTAB
  0
TABLE
  2
STYLE
  5
3
330
0
100
AcDbSymbolTable
 70
     1
  0
STYLE
  5
11
330
3
100
AcDbSymbolTableRecord
100
AcDbTextStyleTableRecord
  2
STANDARD
 70
     0
 40
0.0
 41
1.0
 50
0.0
 71
     0
 42
2.5
  3
txt
  4

  0
ENDTAB
  0
TABLE
  2
VIEW
  5
6
330
0
100
AcDbSymbolTable
 70
     0
  0
ENDTAB
  0
TABLE
  2
UCS
  5
7
330
0
100
AcDbSymbolTable
 70
     0
  0
ENDTAB
  0
TABLE
  2
APPID
  5
9
330
0
100
AcDbSymbolTable
 70
     2
  0
APPID
  5
12
330
9
100
AcDbSymbolTableRecord
100
AcDbRegAppTableRecord
  2
ACAD
 70
     0
  0
ENDTAB
  0
TABLE
  2
DIMSTYLE
  5
A
330
0
100
AcDbSymbolTable
 70
     1
  0
DIMSTYLE
105
27
330
A
100
AcDbSymbolTableRecord
100
AcDbDimStyleTableRecord
  2
ISO-25
 70
     0
  3

  4

  5

  6

  7

 40
1.0
 41
2.5
 42
0.625
 43
3.75
 44
1.25
 45
0.0
 46
0.0
 47
0.0
 48
0.0
140
2.5
141
2.5
142
0.0
143
0.03937007874016
144
1.0
145
0.0
146
1.0
147
0.625
 71
     0
 72
     0
 73
     0
 74
     0
 75
     0
 76
     0
 77
     1
 78
     8
170
     0
171
     3
172
     1
173
     0
174
     0
175
     0
176
     0
177
     0
178
     0
270
     2
271
     2
272
     2
273
     2
274
     3
340
11
275
     0
280
     0
281
     0
282
     0
283
     0
284
     8
285
     0
286
     0
287
     3
288
     0
  0
ENDTAB
  0
TABLE
  2
BLOCK_RECORD
  5
1
330
0
100
AcDbSymbolTable
 70
     1
  0
BLOCK_RECORD
  5
1F
330
1
100
AcDbSymbolTableRecord
100
AcDbBlockTableRecord
  2
*MODEL_SPACE
  0
BLOCK_RECORD
  5
1B
330
1
100
AcDbSymbolTableRecord
100
AcDbBlockTableRecord
  2
*PAPER_SPACE
  0
ENDTAB
  0
ENDSEC
  0
SECTION
  2
BLOCKS
  0
BLOCK
  5
20
330
1F
100
AcDbEntity
  8
0
100
AcDbBlockBegin
  2
*MODEL_SPACE
 70
     0
 10
0.0
 20
0.0
 30
0.0
  3
*MODEL_SPACE
  1

  0
ENDBLK
  5
21
330
1F
100
AcDbEntity
  8
0
100
AcDbBlockEnd
  0
BLOCK
  5
1C
330
1B
100
AcDbEntity
 67
     1
  8
0
100
AcDbBlockBegin
  2
*PAPER_SPACE
  1

  0
ENDBLK
  5
1D
330
1B
100
AcDbEntity
 67
     1
  8
0
100
AcDbBlockEnd
  0
ENDSEC
  0
SECTION
  2
ENTITIES
  0
SPLINE
  5
100
100
AcDbEntity
  8
VISIBLE__ISO_
 62
7
100
AcDbSpline
 70
8
 71
3
 72
8
 73
4
 74
0
 40
0
 40
0
 40
0
 40
0
 40
1
 40
1
 40
1
 40
1
 10
74.566108
 20
1.566109
 30
0.0
 10
74.831325
 20
1.566108
 30
0.0
 10
75.085680
 20
1.671464
 30
0.0
 10
75.273217
 20
1.859000
 30
0.0
  0
SPLINE
  5
101
100
AcDbEntity
  8
VISIBLE__ISO_
 62
7
100
AcDbSpline
 70
8
 71
3
 72
8
 73
4
 74
0
 40
0
 40
0
 40
0
 40
0
 40
1
 40
1
 40
1
 40
1
 10
75.273217
 20
1.859000
 30
0.0
 10
75.460754
 20
2.046536
 30
0.0
 10
75.566111
 20
2.300890
 30
0.0
 10
75.566112
 20
2.566107
 30
0.0
  0
SPLINE
  5
102
100
AcDbEntity
  8
VISIBLE__ISO_
 62
7
100
AcDbSpline
 70
8
 71
3
 72
8
 73
4
 74
0
 40
0
 40
0
 40
0
 40
0
 40
1
 40
1
 40
1
 40
1
 10
42.816111
 20
2.566107
 30
0.0
 10
42.816112
 20
2.013823
 30
0.0
 10
43.263828
 20
1.566108
 30
0.0
 10
43.816112
 20
1.566109
 30
0.0
  0
SPLINE
  5
103
100
AcDbEntity
  8
VISIBLE__ISO_
 62
7
100
AcDbSpline
 70
8
 71
3
 72
8
 73
4
 74
0
 40
0
 40
0
 40
0
 40
0
 40
1
 40
1
 40
1
 40
1
 10
42.816111
 20
2.566107
 30
0.0
 10
42.814975
 20
3.946015
 30
0.0
 10
41.696020
 20
5.064049
 30
0.0
 10
40.316112
 20
5.064049
 30
0.0
  0
SPLINE
  5
104
100
AcDbEntity
  8
VISIBLE__ISO_
 62
7
100
AcDbSpline
 70
8
 71
3
 72
8
 73
4
 74
0
 40
0
 40
0
 40
0
 40
0
 40
1
 40
1
 40
1
 40
1
 10
40.316112
 20
5.064049
 30
0.0
 10
38.936203
 20
5.064049
 30
0.0
 10
37.817248
 20
3.946015
 30
0.0
 10
37.816113
 20
2.566107
 30
0.0
  0
SPLINE
  5
105
100
AcDbEntity
  8
VISIBLE__ISO_
 62
7
100
AcDbSpline
 70
8
 71
3
 72
8
 73
4
 74
0
 40
0
 40
0
 40
0
 40
0
 40
1
 40
1
 40
1
 40
1
 10
36.816112
 20
1.566109
 30
0.0
 10
37.368396
 20
1.566108
 30
0.0
 10
37.816112
 20
2.013823
 30
0.0
 10
37.816113
 20
2.566107
 30
0.0
  0
LWPOLYLINE
  5
106
100
AcDbEntity
  8
VISIBLE__ISO_
 62
7
100
AcDbPolyline
 90
2
 70
0
 10
43.816112
 20
1.566109
 30
0.0
 10
74.566108
 20
1.566109
 30
0.0
  0
SPLINE
  5
107
100
AcDbEntity
  8
VISIBLE__ISO_
 62
7
100
AcDbSpline
 70
8
 71
3
 72
8
 73
4
 74
0
 40
0
 40
0
 40
0
 40
0
 40
1
 40
1
 40
1
 40
1
 10
5.066111
 20
2.566107
 30
0.0
 10
5.066112
 20
2.013823
 30
0.0
 10
5.513827
 20
1.566109
 30
0.0
 10
6.066111
 20
1.566109
 30
0.0
  0
SPLINE
  5
108
100
AcDbEntity
  8
VISIBLE__ISO_
 62
7
100
AcDbSpline
 70
8
 71
3
 72
8
 73
4
 74
0
 40
0
 40
0
 40
0
 40
0
 40
1
 40
1
 40
1
 40
1
 10
5.066111
 20
2.566107
 30
0.0
 10
5.066113
 20
3.229150
 30
0.0
 10
4.802722
 20
3.865037
 30
0.0
 10
4.333881
 20
4.333880
 30
0.0
  0
SPLINE
  5
109
100
AcDbEntity
  8
VISIBLE__ISO_
 62
7
100
AcDbSpline
 70
8
 71
3
 72
8
 73
4
 74
0
 40
0
 40
0
 40
0
 40
0
 40
1
 40
1
 40
1
 40
1
 10
4.333881
 20
4.333880
 30
0.0
 10
3.865040
 20
4.802723
 30
0.0
 10
3.229154
 20
5.066116
 30
0.0
 10
2.566111
 20
5.066116
 30
0.0
  0
SPLINE
  5
10a
100
AcDbEntity
  8
VISIBLE__ISO_
 62
7
100
AcDbSpline
 70
8
 71
3
 72
8
 73
4
 74
0
 40
0
 40
0
 40
0
 40
0
 40
1
 40
1
 40
1
 40
1
 10
1.566111
 20
6.066114
 30
0.0
 10
1.566112
 20
5.513830
 30
0.0
 10
2.013827
 20
5.066116
 30
0.0
 10
2.566111
 20
5.066116
 30
0.0
  0
LWPOLYLINE
  5
10b
100
AcDbEntity
  8
VISIBLE__ISO_
 62
7
100
AcDbPolyline
 90
2
 70
0
 10
6.066111
 20
1.566109
 30
0.0
 10
36.816112
 20
1.566109
 30
0.0
  0
LWPOLYLINE
  5
10c
100
AcDbEntity
  8
VISIBLE__ISO_
 62
7
100
AcDbPolyline
 90
2
 70
0
 10
1.566111
 20
24.579051
 30
0.0
 10
1.566111
 20
6.066114
 30
0.0
  0
SPLINE
  5
10d
100
AcDbEntity
  8
VISIBLE__ISO_
 62
7
100
AcDbSpline
 70
8
 71
3
 72
8
 73
4
 74
0
 40
0
 40
0
 40
0
 40
0
 40
1
 40
1
 40
1
 40
1
 10
3.710926
 20
25.880225
 30
0.0
 10
3.494377
 20
26.033348
 30
0.0
 10
3.225871
 20
26.094176
 30
0.0
 10
2.964473
 20
26.049327
 30
0.0
  0
SPLINE
  5
10e
100
AcDbEntity
  8
VISIBLE__ISO_
 62
7
100
AcDbSpline
 70
8
 71
3
 72
8
 73
4
 74
0
 40
0
 40
0
 40
0
 40
0
 40
1
 40
1
 40
1
 40
1
 10
2.964473
 20
26.049327
 30
0.0
 10
2.703076
 20
26.004478
 30
0.0
 10
2.470202
 20
25.857627
 30
0.0
 10
2.317079
 20
25.641078
 30
0.0
  0
SPLINE
  5
10f
100
AcDbEntity
  8
VISIBLE__ISO_
 62
7
100
AcDbSpline
 70
8
 71
3
 72
8
 73
4
 74
0
 40
0
 40
0
 40
0
 40
0
 40
1
 40
1
 40
1
 40
1
 10
3.710926
 20
25.880225
 30
0.0
 10
4.473799
 20
25.340792
 30
0.0
 10
5.473805
 20
25.271772
 30
0.0
 10
6.303554
 20
25.701282
 30
0.0
  0
SPLINE
  5
110
100
AcDbEntity
  8
VISIBLE__ISO_
 62
7
100
AcDbSpline
 70
8
 71
3
 72
8
 73
4
 74
0
 40
0
 40
0
 40
0
 40
0
 40
1
 40
1
 40
1
 40
1
 10
6.303554
 20
25.701282
 30
0.0
 10
7.133304
 20
26.130792
 30
0.0
 10
7.654302
 20
26.987143
 30
0.0
 10
7.654302
 20
27.921468
 30
0.0
  0
SPLINE
  5
111
100
AcDbEntity
  8
VISIBLE__ISO_
 62
7
100
AcDbSpline
 70
8
 71
3
 72
8
 73
4
 74
0
 40
0
 40
0
 40
0
 40
0
 40
1
 40
1
 40
1
 40
1
 10
8.654302
 20
28.921466
 30
0.0
 10
8.102018
 20
28.921466
 30
0.0
 10
7.654303
 20
28.473752
 30
0.0
 10
7.654302
 20
27.921468
 30
0.0
  0
LWPOLYLINE
  5
112
100
AcDbEntity
  8
VISIBLE__ISO_
 62
7
100
AcDbPolyline
 90
2
 70
0
 10
2.317079
 20
25.641078
 30
0.0
 10
1.566111
 20
24.579051
 30
0.0
  0
SPLINE
  5
113
100
AcDbEntity
  8
VISIBLE__ISO_
 62
7
100
AcDbSpline
 70
8
 71
3
 72
8
 73
4
 74
0
 40
0
 40
0
 40
0
 40
0
 40
1
 40
1
 40
1
 40
1
 10
37.816113
 20
27.921468
 30
0.0
 10
37.816112
 20
28.473752
 30
0.0
 10
37.368396
 20
28.921466
 30
0.0
 10
36.816112
 20
28.921466
 30
0.0
  0
SPLINE
  5
114
100
AcDbEntity
  8
VISIBLE__ISO_
 62
7
100
AcDbSpline
 70
8
 71
3
 72
8
 73
4
 74
0
 40
0
 40
0
 40
0
 40
0
 40
1
 40
1
 40
1
 40
1
 10
37.816113
 20
27.921468
 30
0.0
 10
37.817248
 20
26.541560
 30
0.0
 10
38.936203
 20
25.423525
 30
0.0
 10
40.316112
 20
25.423525
 30
0.0
  0
SPLINE
  5
115
100
AcDbEntity
  8
VISIBLE__ISO_
 62
7
100
AcDbSpline
 70
8
 71
3
 72
8
 73
4
 74
0
 40
0
 40
0
 40
0
 40
0
 40
1
 40
1
 40
1
 40
1
 10
40.316112
 20
25.423525
 30
0.0
 10
41.696020
 20
25.423525
 30
0.0
 10
42.814975
 20
26.541560
 30
0.0
 10
42.816111
 20
27.921468
 30
0.0
  0
SPLINE
  5
116
100
AcDbEntity
  8
VISIBLE__ISO_
 62
7
100
AcDbSpline
 70
8
 71
3
 72
8
 73
4
 74
0
 40
0
 40
0
 40
0
 40
0
 40
1
 40
1
 40
1
 40
1
 10
43.816112
 20
28.921466
 30
0.0
 10
43.263828
 20
28.921466
 30
0.0
 10
42.816112
 20
28.473752
 30
0.0
 10
42.816111
 20
27.921468
 30
0.0
  0
LWPOLYLINE
  5
117
100
AcDbEntity
  8
VISIBLE__ISO_
 62
7
100
AcDbPolyline
 90
2
 70
0
 10
36.816112
 20
28.921466
 30
0.0
 10
8.654302
 20
28.921466
 30
0.0
  0
SPLINE
  5
118
100
AcDbEntity
  8
VISIBLE__ISO_
 62
7
100
AcDbSpline
 70
8
 71
3
 72
8
 73
4
 74
0
 40
0
 40
0
 40
0
 40
0
 40
1
 40
1
 40
1
 40
1
 10
72.977923
 20
27.921468
 30
0.0
 10
72.977922
 20
28.186685
 30
0.0
 10
72.872564
 20
28.441039
 30
0.0
 10
72.685027
 20
28.628575
 30
0.0
  0
SPLINE
  5
119
100
AcDbEntity
  8
VISIBLE__ISO_
 62
7
100
AcDbSpline
 70
8
 71
3
 72
8
 73
4
 74
0
 40
0
 40
0
 40
0
 40
0
 40
1
 40
1
 40
1
 40
1
 10
72.685027
 20
28.628575
 30
0.0
 10
72.497490
 20
28.816111
 30
0.0
 10
72.243136
 20
28.921467
 30
0.0
 10
71.977919
 20
28.921466
 30
0.0
  0
SPLINE
  5
11a
100
AcDbEntity
  8
VISIBLE__ISO_
 62
7
100
AcDbSpline
 70
8
 71
3
 72
8
 73
4
 74
0
 40
0
 40
0
 40
0
 40
0
 40
1
 40
1
 40
1
 40
1
 10
72.977923
 20
27.921468
 30
0.0
 10
72.977922
 20
26.987143
 30
0.0
 10
73.498920
 20
26.130793
 30
0.0
 10
74.328670
 20
25.701283
 30
0.0
  0
SPLINE
  5
11b
100
AcDbEntity
  8
VISIBLE__ISO_
 62
7
100
AcDbSpline
 70
8
 71
3
 72
8
 73
4
 74
0
 40
0
 40
0
 40
0
 40
0
 40
1
 40
1
 40
1
 40
1
 10
74.328670
 20
25.701283
 30
0.0
 10
75.158419
 20
25.271772
 30
0.0
 10
76.158425
 20
25.340792
 30
0.0
 10
76.921298
 20
25.880225
 30
0.0
  0
SPLINE
  5
11c
100
AcDbEntity
  8
VISIBLE__ISO_
 62
7
100
AcDbSpline
 70
8
 71
3
 72
8
 73
4
 74
0
 40
0
 40
0
 40
0
 40
0
 40
1
 40
1
 40
1
 40
1
 10
78.315145
 20
25.641078
 30
0.0
 10
78.162023
 20
25.857627
 30
0.0
 10
77.929148
 20
26.004479
 30
0.0
 10
77.667751
 20
26.049327
 30
0.0
  0
SPLINE
  5
11d
100
AcDbEntity
  8
VISIBLE__ISO_
 62
7
100
AcDbSpline
 70
8
 71
3
 72
8
 73
4
 74
0
 40
0
 40
0
 40
0
 40
0
 40
1
 40
1
 40
1
 40
1
 10
77.667751
 20
26.049327
 30
0.0
 10
77.406353
 20
26.094176
 30
0.0
 10
77.137846
 20
26.033348
 30
0.0
 10
76.921298
 20
25.880225
 30
0.0
  0
LWPOLYLINE
  5
11e
100
AcDbEntity
  8
VISIBLE__ISO_
 62
7
100
AcDbPolyline
 90
2
 70
0
 10
71.977919
 20
28.921466
 30
0.0
 10
43.816112
 20
28.921466
 30
0.0
  0
LWPOLYLINE
  5
11f
100
AcDbEntity
  8
VISIBLE__ISO_
 62
7
100
AcDbPolyline
 90
2
 70
0
 10
79.066113
 20
24.579051
 30
0.0
 10
78.315145
 20
25.641078
 30
0.0
  0
SPLINE
  5
120
100
AcDbEntity
  8
VISIBLE__ISO_
 62
7
100
AcDbSpline
 70
8
 71
3
 72
8
 73
4
 74
0
 40
0
 40
0
 40
0
 40
0
 40
1
 40
1
 40
1
 40
1
 10
78.066113
 20
5.066116
 30
0.0
 10
78.618397
 20
5.066116
 30
0.0
 10
79.066112
 20
5.513830
 30
0.0
 10
79.066113
 20
6.066114
 30
0.0
  0
SPLINE
  5
121
100
AcDbEntity
  8
VISIBLE__ISO_
 62
7
100
AcDbSpline
 70
8
 71
3
 72
8
 73
4
 74
0
 40
0
 40
0
 40
0
 40
0
 40
1
 40
1
 40
1
 40
1
 10
78.066113
 20
5.066116
 30
0.0
 10
77.403070
 20
5.066116
 30
0.0
 10
76.767183
 20
4.802723
 30
0.0
 10
76.298342
 20
4.333880
 30
0.0
  0
SPLINE
  5
122
100
AcDbEntity
  8
VISIBLE__ISO_
 62
7
100
AcDbSpline
 70
8
 71
3
 72
8
 73
4
 74
0
 40
0
 40
0
 40
0
 40
0
 40
1
 40
1
 40
1
 40
1
 10
76.298342
 20
4.333880
 30
0.0
 10
75.829501
 20
3.865037
 30
0.0
 10
75.566110
 20
3.229150
 30
0.0
 10
75.566112
 20
2.566107
 30
0.0
  0
SPLINE
  5
123
100
AcDbEntity
  8
VISIBLE__ISO_
 62
7
100
AcDbSpline
 70
8
 71
3
 72
8
 73
4
 74
0
 40
0
 40
0
 40
0
 40
0
 40
1
 40
1
 40
1
 40
1
 10
78.941112
 20
2.566107
 30
0.0
 10
78.941614
 20
2.879049
 30
0.0
 10
78.774950
 20
3.168434
 30
0.0
 10
78.504018
 20
3.325050
 30
0.0
  0
SPLINE
  5
124
100
AcDbEntity
  8
VISIBLE__ISO_
 62
7
100
AcDbSpline
 70
8
 71
3
 72
8
 73
4
 74
0
 40
0
 40
0
 40
0
 40
0
 40
1
 40
1
 40
1
 40
1
 10
78.504018
 20
3.325050
 30
0.0
 10
78.233086
 20
3.481667
 30
0.0
 10
77.899139
 20
3.481667
 30
0.0
 10
77.628207
 20
3.325050
 30
0.0
  0
SPLINE
  5
125
100
AcDbEntity
  8
VISIBLE__ISO_
 62
7
100
AcDbSpline
 70
8
 71
3
 72
8
 73
4
 74
0
 40
0
 40
0
 40
0
 40
0
 40
1
 40
1
 40
1
 40
1
 10
77.628207
 20
3.325050
 30
0.0
 10
77.357275
 20
3.168434
 30
0.0
 10
77.190611
 20
2.879049
 30
0.0
 10
77.191114
 20
2.566107
 30
0.0
  0
SPLINE
  5
126
100
AcDbEntity
  8
VISIBLE__ISO_
 62
7
100
AcDbSpline
 70
8
 71
3
 72
8
 73
4
 74
0
 40
0
 40
0
 40
0
 40
0
 40
1
 40
1
 40
1
 40
1
 10
77.191114
 20
2.566107
 30
0.0
 10
77.190611
 20
2.253165
 30
0.0
 10
77.357275
 20
1.963780
 30
0.0
 10
77.628207
 20
1.807163
 30
0.0
  0
SPLINE
  5
127
100
AcDbEntity
  8
VISIBLE__ISO_
 62
7
100
AcDbSpline
 70
8
 71
3
 72
8
 73
4
 74
0
 40
0
 40
0
 40
0
 40
0
 40
1
 40
1
 40
1
 40
1
 10
77.628207
 20
1.807163
 30
0.0
 10
77.899139
 20
1.650547
 30
0.0
 10
78.233086
 20
1.650547
 30
0.0
 10
78.504018
 20
1.807163
 30
0.0
  0
SPLINE
  5
128
100
AcDbEntity
  8
VISIBLE__ISO_
 62
7
100
AcDbSpline
 70
8
 71
3
 72
8
 73
4
 74
0
 40
0
 40
0
 40
0
 40
0
 40
1
 40
1
 40
1
 40
1
 10
78.504018
 20
1.807163
 30
0.0
 10
78.774950
 20
1.963780
 30
0.0
 10
78.941614
 20
2.253165
 30
0.0
 10
78.941112
 20
2.566107
 30
0.0
  0
LWPOLYLINE
  5
129
100
AcDbEntity
  8
VISIBLE__ISO_
 62
7
100
AcDbPolyline
 90
2
 70
0
 10
79.066113
 20
6.066114
 30
0.0
 10
79.066113
 20
24.579051
 30
0.0
  0
SPLINE
  5
12a
100
AcDbEntity
  8
VISIBLE__ISO_
 62
7
100
AcDbSpline
 70
8
 71
3
 72
8
 73
4
 74
0
 40
0
 40
0
 40
0
 40
0
 40
1
 40
1
 40
1
 40
1
 10
76.352922
 20
27.921468
 30
0.0
 10
76.352922
 20
28.234075
 30
0.0
 10
76.186148
 20
28.522937
 30
0.0
 10
75.915422
 20
28.679240
 30
0.0
  0
SPLINE
  5
12b
100
AcDbEntity
  8
VISIBLE__ISO_
 62
7
100
AcDbSpline
 70
8
 71
3
 72
8
 73
4
 74
0
 40
0
 40
0
 40
0
 40
0
 40
1
 40
1
 40
1
 40
1
 10
75.915422
 20
28.679240
 30
0.0
 10
75.644696
 20
28.835544
 30
0.0
 10
75.311148
 20
28.835544
 30
0.0
 10
75.040422
 20
28.679240
 30
0.0
  0
SPLINE
  5
12c
100
AcDbEntity
  8
VISIBLE__ISO_
 62
7
100
AcDbSpline
 70
8
 71
3
 72
8
 73
4
 74
0
 40
0
 40
0
 40
0
 40
0
 40
1
 40
1
 40
1
 40
1
 10
75.040422
 20
28.679240
 30
0.0
 10
74.769696
 20
28.522937
 30
0.0
 10
74.602921
 20
28.234075
 30
0.0
 10
74.602921
 20
27.921468
 30
0.0
  0
SPLINE
  5
12d
100
AcDbEntity
  8
VISIBLE__ISO_
 62
7
100
AcDbSpline
 70
8
 71
3
 72
8
 73
4
 74
0
 40
0
 40
0
 40
0
 40
0
 40
1
 40
1
 40
1
 40
1
 10
74.602921
 20
27.921468
 30
0.0
 10
74.602921
 20
27.608860
 30
0.0
 10
74.769696
 20
27.319999
 30
0.0
 10
75.040422
 20
27.163695
 30
0.0
  0
SPLINE
  5
12e
100
AcDbEntity
  8
VISIBLE__ISO_
 62
7
100
AcDbSpline
 70
8
 71
3
 72
8
 73
4
 74
0
 40
0
 40
0
 40
0
 40
0
 40
1
 40
1
 40
1
 40
1
 10
75.040422
 20
27.163695
 30
0.0
 10
75.311148
 20
27.007391
 30
0.0
 10
75.644696
 20
27.007391
 30
0.0
 10
75.915422
 20
27.163695
 30
0.0
  0
SPLINE
  5
12f
100
AcDbEntity
  8
VISIBLE__ISO_
 62
7
100
AcDbSpline
 70
8
 71
3
 72
8
 73
4
 74
0
 40
0
 40
0
 40
0
 40
0
 40
1
 40
1
 40
1
 40
1
 10
75.915422
 20
27.163695
 30
0.0
 10
76.186148
 20
27.319999
 30
0.0
 10
76.352922
 20
27.608860
 30
0.0
 10
76.352922
 20
27.921468
 30
0.0
  0
LWPOLYLINE
  5
130
100
AcDbEntity
  8
VISIBLE__ISO_
 62
7
100
AcDbPolyline
 90
2
 70
1
 10
78.941112
 20
2.566107
 30
0.0
 10
78.941112
 20
2.566107
 30
0.0
  0
SPLINE
  5
131
100
AcDbEntity
  8
VISIBLE__ISO_
 62
7
100
AcDbSpline
 70
8
 71
3
 72
8
 73
4
 74
0
 40
0
 40
0
 40
0
 40
0
 40
1
 40
1
 40
1
 40
1
 10
6.029302
 20
27.921468
 30
0.0
 10
6.029302
 20
28.234075
 30
0.0
 10
5.862528
 20
28.522936
 30
0.0
 10
5.591802
 20
28.679240
 30
0.0
  0
SPLINE
  5
132
100
AcDbEntity
  8
VISIBLE__ISO_
 62
7
100
AcDbSpline
 70
8
 71
3
 72
8
 73
4
 74
0
 40
0
 40
0
 40
0
 40
0
 40
1
 40
1
 40
1
 40
1
 10
5.591802
 20
28.679240
 30
0.0
 10
5.321076
 20
28.835544
 30
0.0
 10
4.987527
 20
28.835544
 30
0.0
 10
4.716801
 20
28.679240
 30
0.0
  0
SPLINE
  5
133
100
AcDbEntity
  8
VISIBLE__ISO_
 62
7
100
AcDbSpline
 70
8
 71
3
 72
8
 73
4
 74
0
 40
0
 40
0
 40
0
 40
0
 40
1
 40
1
 40
1
 40
1
 10
4.716801
 20
28.679240
 30
0.0
 10
4.446075
 20
28.522936
 30
0.0
 10
4.279301
 20
28.234075
 30
0.0
 10
4.279301
 20
27.921468
 30
0.0
  0
SPLINE
  5
134
100
AcDbEntity
  8
VISIBLE__ISO_
 62
7
100
AcDbSpline
 70
8
 71
3
 72
8
 73
4
 74
0
 40
0
 40
0
 40
0
 40
0
 40
1
 40
1
 40
1
 40
1
 10
4.279301
 20
27.921468
 30
0.0
 10
4.279301
 20
27.608860
 30
0.0
 10
4.446075
 20
27.319999
 30
0.0
 10
4.716801
 20
27.163695
 30
0.0
  0
SPLINE
  5
135
100
AcDbEntity
  8
VISIBLE__ISO_
 62
7
100
AcDbSpline
 70
8
 71
3
 72
8
 73
4
 74
0
 40
0
 40
0
 40
0
 40
0
 40
1
 40
1
 40
1
 40
1
 10
4.716801
 20
27.163695
 30
0.0
 10
4.987527
 20
27.007392
 30
0.0
 10
5.321076
 20
27.007392
 30
0.0
 10
5.591802
 20
27.163695
 30
0.0
  0
SPLINE
  5
136
100
AcDbEntity
  8
VISIBLE__ISO_
 62
7
100
AcDbSpline
 70
8
 71
3
 72
8
 73
4
 74
0
 40
0
 40
0
 40
0
 40
0
 40
1
 40
1
 40
1
 40
1
 10
5.591802
 20
27.163695
 30
0.0
 10
5.862528
 20
27.319999
 30
0.0
 10
6.029302
 20
27.608860
 30
0.0
 10
6.029302
 20
27.921468
 30
0.0
  0
LWPOLYLINE
  5
137
100
AcDbEntity
  8
VISIBLE__ISO_
 62
7
100
AcDbPolyline
 90
2
 70
1
 10
76.352922
 20
27.921468
 30
0.0
 10
76.352922
 20
27.921468
 30
0.0
  0
SPLINE
  5
138
100
AcDbEntity
  8
VISIBLE__ISO_
 62
7
100
AcDbSpline
 70
8
 71
3
 72
8
 73
4
 74
0
 40
0
 40
0
 40
0
 40
0
 40
1
 40
1
 40
1
 40
1
 10
41.191112
 20
27.921468
 30
0.0
 10
41.191112
 20
28.234075
 30
0.0
 10
41.024338
 20
28.522937
 30
0.0
 10
40.753612
 20
28.679240
 30
0.0
  0
SPLINE
  5
139
100
AcDbEntity
  8
VISIBLE__ISO_
 62
7
100
AcDbSpline
 70
8
 71
3
 72
8
 73
4
 74
0
 40
0
 40
0
 40
0
 40
0
 40
1
 40
1
 40
1
 40
1
 10
40.753612
 20
28.679240
 30
0.0
 10
40.482886
 20
28.835544
 30
0.0
 10
40.149338
 20
28.835544
 30
0.0
 10
39.878612
 20
28.679240
 30
0.0
  0
SPLINE
  5
13a
100
AcDbEntity
  8
VISIBLE__ISO_
 62
7
100
AcDbSpline
 70
8
 71
3
 72
8
 73
4
 74
0
 40
0
 40
0
 40
0
 40
0
 40
1
 40
1
 40
1
 40
1
 10
39.878612
 20
28.679240
 30
0.0
 10
39.607886
 20
28.522937
 30
0.0
 10
39.441112
 20
28.234075
 30
0.0
 10
39.441112
 20
27.921468
 30
0.0
  0
SPLINE
  5
13b
100
AcDbEntity
  8
VISIBLE__ISO_
 62
7
100
AcDbSpline
 70
8
 71
3
 72
8
 73
4
 74
0
 40
0
 40
0
 40
0
 40
0
 40
1
 40
1
 40
1
 40
1
 10
39.441112
 20
27.921468
 30
0.0
 10
39.441112
 20
27.608860
 30
0.0
 10
39.607886
 20
27.319999
 30
0.0
 10
39.878612
 20
27.163695
 30
0.0
  0
SPLINE
  5
13c
100
AcDbEntity
  8
VISIBLE__ISO_
 62
7
100
AcDbSpline
 70
8
 71
3
 72
8
 73
4
 74
0
 40
0
 40
0
 40
0
 40
0
 40
1
 40
1
 40
1
 40
1
 10
39.878612
 20
27.163695
 30
0.0
 10
40.149338
 20
27.007391
 30
0.0
 10
40.482886
 20
27.007391
 30
0.0
 10
40.753612
 20
27.163695
 30
0.0
  0
SPLINE
  5
13d
100
AcDbEntity
  8
VISIBLE__ISO_
 62
7
100
AcDbSpline
 70
8
 71
3
 72
8
 73
4
 74
0
 40
0
 40
0
 40
0
 40
0
 40
1
 40
1
 40
1
 40
1
 10
40.753612
 20
27.163695
 30
0.0
 10
41.024338
 20
27.319999
 30
0.0
 10
41.191112
 20
27.608860
 30
0.0
 10
41.191112
 20
27.921468
 30
0.0
  0
LWPOLYLINE
  5
13e
100
AcDbEntity
  8
VISIBLE__ISO_
 62
7
100
AcDbPolyline
 90
2
 70
1
 10
6.029302
 20
27.921468
 30
0.0
 10
6.029302
 20
27.921468
 30
0.0
  0
SPLINE
  5
13f
100
AcDbEntity
  8
VISIBLE__ISO_
 62
7
100
AcDbSpline
 70
8
 71
3
 72
8
 73
4
 74
0
 40
0
 40
0
 40
0
 40
0
 40
1
 40
1
 40
1
 40
1
 10
3.441111
 20
2.566107
 30
0.0
 10
3.441289
 20
2.878833
 30
0.0
 10
3.274553
 20
3.167879
 30
0.0
 10
3.003755
 20
3.324293
 30
0.0
  0
SPLINE
  5
140
100
AcDbEntity
  8
VISIBLE__ISO_
 62
7
100
AcDbSpline
 70
8
 71
3
 72
8
 73
4
 74
0
 40
0
 40
0
 40
0
 40
0
 40
1
 40
1
 40
1
 40
1
 10
3.003755
 20
3.324293
 30
0.0
 10
2.732956
 20
3.480707
 30
0.0
 10
2.399266
 20
3.480707
 30
0.0
 10
2.128468
 20
3.324293
 30
0.0
  0
SPLINE
  5
141
100
AcDbEntity
  8
VISIBLE__ISO_
 62
7
100
AcDbSpline
 70
8
 71
3
 72
8
 73
4
 74
0
 40
0
 40
0
 40
0
 40
0
 40
1
 40
1
 40
1
 40
1
 10
2.128468
 20
3.324293
 30
0.0
 10
1.857669
 20
3.167879
 30
0.0
 10
1.690934
 20
2.878833
 30
0.0
 10
1.691111
 20
2.566107
 30
0.0
  0
SPLINE
  5
142
100
AcDbEntity
  8
VISIBLE__ISO_
 62
7
100
AcDbSpline
 70
8
 71
3
 72
8
 73
4
 74
0
 40
0
 40
0
 40
0
 40
0
 40
1
 40
1
 40
1
 40
1
 10
1.691111
 20
2.566107
 30
0.0
 10
1.690934
 20
2.253381
 30
0.0
 10
1.857669
 20
1.964335
 30
0.0
 10
2.128468
 20
1.807920
 30
0.0
  0
SPLINE
  5
143
100
AcDbEntity
  8
VISIBLE__ISO_
 62
7
100
AcDbSpline
 70
8
 71
3
 72
8
 73
4
 74
0
 40
0
 40
0
 40
0
 40
0
 40
1
 40
1
 40
1
 40
1
 10
2.128468
 20
1.807920
 30
0.0
 10
2.399266
 20
1.651506
 30
0.0
 10
2.732956
 20
1.651506
 30
0.0
 10
3.003755
 20
1.807920
 30
0.0
  0
SPLINE
  5
144
100
AcDbEntity
  8
VISIBLE__ISO_
 62
7
100
AcDbSpline
 70
8
 71
3
 72
8
 73
4
 74
0
 40
0
 40
0
 40
0
 40
0
 40
1
 40
1
 40
1
 40
1
 10
3.003755
 20
1.807920
 30
0.0
 10
3.274553
 20
1.964335
 30
0.0
 10
3.441289
 20
2.253381
 30
0.0
 10
3.441111
 20
2.566107
 30
0.0
  0
LWPOLYLINE
  5
145
100
AcDbEntity
  8
VISIBLE__ISO_
 62
7
100
AcDbPolyline
 90
2
 70
1
 10
41.191112
 20
27.921468
 30
0.0
 10
41.191112
 20
27.921468
 30
0.0
  0
SPLINE
  5
146
100
AcDbEntity
  8
VISIBLE__ISO_
 62
7
100
AcDbSpline
 70
8
 71
3
 72
8
 73
4
 74
0
 40
0
 40
0
 40
0
 40
0
 40
1
 40
1
 40
1
 40
1
 10
41.191112
 20
2.566107
 30
0.0
 10
41.191112
 20
2.878714
 30
0.0
 10
41.024338
 20
3.167576
 30
0.0
 10
40.753612
 20
3.323879
 30
0.0
  0
SPLINE
  5
147
100
AcDbEntity
  8
VISIBLE__ISO_
 62
7
100
AcDbSpline
 70
8
 71
3
 72
8
 73
4
 74
0
 40
0
 40
0
 40
0
 40
0
 40
1
 40
1
 40
1
 40
1
 10
40.753612
 20
3.323879
 30
0.0
 10
40.482886
 20
3.480183
 30
0.0
 10
40.149338
 20
3.480183
 30
0.0
 10
39.878612
 20
3.323879
 30
0.0
  0
SPLINE
  5
148
100
AcDbEntity
  8
VISIBLE__ISO_
 62
7
100
AcDbSpline
 70
8
 71
3
 72
8
 73
4
 74
0
 40
0
 40
0
 40
0
 40
0
 40
1
 40
1
 40
1
 40
1
 10
39.878612
 20
3.323879
 30
0.0
 10
39.607886
 20
3.167576
 30
0.0
 10
39.441112
 20
2.878714
 30
0.0
 10
39.441112
 20
2.566107
 30
0.0
  0
SPLINE
  5
149
100
AcDbEntity
  8
VISIBLE__ISO_
 62
7
100
AcDbSpline
 70
8
 71
3
 72
8
 73
4
 74
0
 40
0
 40
0
 40
0
 40
0
 40
1
 40
1
 40
1
 40
1
 10
39.441112
 20
2.566107
 30
0.0
 10
39.441112
 20
2.253499
 30
0.0
 10
39.607886
 20
1.964638
 30
0.0
 10
39.878612
 20
1.808334
 30
0.0
  0
SPLINE
  5
14a
100
AcDbEntity
  8
VISIBLE__ISO_
 62
7
100
AcDbSpline
 70
8
 71
3
 72
8
 73
4
 74
0
 40
0
 40
0
 40
0
 40
0
 40
1
 40
1
 40
1
 40
1
 10
39.878612
 20
1.808334
 30
0.0
 10
40.149338
 20
1.652031
 30
0.0
 10
40.482886
 20
1.652031
 30
0.0
 10
40.753612
 20
1.808334
 30
0.0
  0
SPLINE
  5
14b
100
AcDbEntity
  8
VISIBLE__ISO_
 62
7
100
AcDbSpline
 70
8
 71
3
 72
8
 73
4
 74
0
 40
0
 40
0
 40
0
 40
0
 40
1
 40
1
 40
1
 40
1
 10
40.753612
 20
1.808334
 30
0.0
 10
41.024338
 20
1.964638
 30
0.0
 10
41.191112
 20
2.253499
 30
0.0
 10
41.191112
 20
2.566107
 30
0.0
  0
LWPOLYLINE
  5
14c
100
AcDbEntity
  8
VISIBLE__ISO_
 62
7
100
AcDbPolyline
 90
2
 70
1
 10
3.441111
 20
2.566107
 30
0.0
 10
3.441111
 20
2.566107
 30
0.0
  0
LWPOLYLINE
  5
14d
100
AcDbEntity
  8
VISIBLE__ISO_
 62
7
100
AcDbPolyline
 90
2
 70
1
 10
41.191112
 20
2.566107
 30
0.0
 10
41.191112
 20
2.566107
 30
0.0
  0
LWPOLYLINE
  5
14e
100
AcDbEntity
  8
VISIBLE__ISO_
 62
7
100
AcDbPolyline
 90
2
 70
0
 10
0.141111
 20
25.031969
 30
0.0
 10
0.141111
 20
0.141112
 30
0.0
  0
LWPOLYLINE
  5
14f
100
AcDbEntity
  8
VISIBLE__ISO_
 62
7
100
AcDbPolyline
 90
2
 70
0
 10
3.899029
 20
30.346468
 30
0.0
 10
0.141111
 20
25.031969
 30
0.0
  0
LWPOLYLINE
  5
150
100
AcDbEntity
  8
VISIBLE__ISO_
 62
7
100
AcDbPolyline
 90
2
 70
0
 10
76.733194
 20
30.346468
 30
0.0
 10
3.899029
 20
30.346468
 30
0.0
  0
LWPOLYLINE
  5
151
100
AcDbEntity
  8
VISIBLE__ISO_
 62
7
100
AcDbPolyline
 90
2
 70
0
 10
80.491110
 20
25.031969
 30
0.0
 10
76.733194
 20
30.346468
 30
0.0
  0
LWPOLYLINE
  5
152
100
AcDbEntity
  8
VISIBLE__ISO_
 62
7
100
AcDbPolyline
 90
2
 70
0
 10
80.491110
 20
0.141112
 30
0.0
 10
80.491110
 20
25.031969
 30
0.0
  0
SPLINE
  5
153
100
AcDbEntity
  8
VISIBLE__ISO_
 62
7
100
AcDbSpline
 70
8
 71
3
 72
8
 73
4
 74
0
 40
0
 40
0
 40
0
 40
0
 40
1
 40
1
 40
1
 40
1
 10
27.891920
 20
24.385460
 30
0.0
 10
28.845541
 20
24.385460
 30
0.0
 10
29.613256
 20
23.617745
 30
0.0
 10
29.613256
 20
22.664125
 30
0.0
  0
LWPOLYLINE
  5
154
100
AcDbEntity
  8
VISIBLE__ISO_
 62
7
100
AcDbPolyline
 90
2
 70
0
 10
0.141111
 20
0.141112
 30
0.0
 10
80.491110
 20
0.141112
 30
0.0
  0
SPLINE
  5
155
100
AcDbEntity
  8
VISIBLE__ISO_
 62
7
100
AcDbSpline
 70
8
 71
3
 72
8
 73
4
 74
0
 40
0
 40
0
 40
0
 40
0
 40
1
 40
1
 40
1
 40
1
 10
29.613256
 20
7.823427
 30
0.0
 10
29.613256
 20
6.869826
 30
0.0
 10
28.845541
 20
6.102097
 30
0.0
 10
27.891920
 20
6.102097
 30
0.0
  0
LWPOLYLINE
  5
156
100
AcDbEntity
  8
VISIBLE__ISO_
 62
7
100
AcDbPolyline
 90
2
 70
0
 10
29.613256
 20
22.664125
 30
0.0
 10
29.613256
 20
7.823427
 30
0.0
  0
SPLINE
  5
157
100
AcDbEntity
  8
VISIBLE__ISO_
 62
7
100
AcDbSpline
 70
8
 71
3
 72
8
 73
4
 74
0
 40
0
 40
0
 40
0
 40
0
 40
1
 40
1
 40
1
 40
1
 10
14.353856
 20
6.102097
 30
0.0
 10
13.400237
 20
6.102097
 30
0.0
 10
12.632521
 20
6.869826
 30
0.0
 10
12.632521
 20
7.823427
 30
0.0
  0
LWPOLYLINE
  5
158
100
AcDbEntity
  8
VISIBLE__ISO_
 62
7
100
AcDbPolyline
 90
2
 70
0
 10
27.891920
 20
6.102097
 30
0.0
 10
14.353856
 20
6.102097
 30
0.0
  0
SPLINE
  5
159
100
AcDbEntity
  8
VISIBLE__ISO_
 62
7
100
AcDbSpline
 70
8
 71
3
 72
8
 73
4
 74
0
 40
0
 40
0
 40
0
 40
0
 40
1
 40
1
 40
1
 40
1
 10
12.632521
 20
22.664125
 30
0.0
 10
12.632521
 20
23.617745
 30
0.0
 10
13.400237
 20
24.385460
 30
0.0
 10
14.353856
 20
24.385460
 30
0.0
  0
LWPOLYLINE
  5
15a
100
AcDbEntity
  8
VISIBLE__ISO_
 62
7
100
AcDbPolyline
 90
2
 70
0
 10
12.632521
 20
7.823427
 30
0.0
 10
12.632521
 20
22.664125
 30
0.0
  0
LWPOLYLINE
  5
15b
100
AcDbEntity
  8
VISIBLE__ISO_
 62
7
100
AcDbPolyline
 90
4
 70
0
 10
16.007542
 20
24.516491
 30
0.0
 10
16.007542
 20
26.405234
 30
0.0
 10
17.056844
 20
24.516491
 30
0.0
 10
17.056844
 20
26.405234
 30
0.0
  0
LWPOLYLINE
  5
15c
100
AcDbEntity
  8
VISIBLE__ISO_
 62
7
100
AcDbPolyline
 90
35
 70
0
 10
17.686425
 20
25.355932
 30
0.0
 10
17.686425
 20
24.936211
 30
0.0
 10
17.694490
 20
24.854328
 30
0.0
 10
17.718375
 20
24.775591
 30
0.0
 10
17.757161
 20
24.703027
 30
0.0
 10
17.809359
 20
24.639424
 30
0.0
 10
17.872962
 20
24.587226
 30
0.0
 10
17.945526
 20
24.548440
 30
0.0
 10
18.024262
 20
24.524555
 30
0.0
 10
18.106146
 20
24.516491
 30
0.0
 10
18.188029
 20
24.524555
 30
0.0
 10
18.266766
 20
24.548440
 30
0.0
 10
18.339330
 20
24.587226
 30
0.0
 10
18.402933
 20
24.639424
 30
0.0
 10
18.455131
 20
24.703027
 30
0.0
 10
18.493917
 20
24.775591
 30
0.0
 10
18.517802
 20
24.854328
 30
0.0
 10
18.525867
 20
24.936211
 30
0.0
 10
18.525867
 20
25.355932
 30
0.0
 10
18.517802
 20
25.437815
 30
0.0
 10
18.493917
 20
25.516552
 30
0.0
 10
18.455131
 20
25.589116
 30
0.0
 10
18.402933
 20
25.652719
 30
0.0
 10
18.339330
 20
25.704917
 30
0.0
 10
18.266766
 20
25.743703
 30
0.0
 10
18.188029
 20
25.767588
 30
0.0
 10
18.106146
 20
25.775653
 30
0.0
 10
18.024262
 20
25.767588
 30
0.0
 10
17.945526
 20
25.743703
 30
0.0
 10
17.872962
 20
25.704917
 30
0.0
 10
17.809359
 20
25.652719
 30
0.0
 10
17.757161
 20
25.589116
 30
0.0
 10
17.718375
 20
25.516552
 30
0.0
 10
17.694490
 20
25.437815
 30
0.0
 10
17.686425
 20
25.355932
 30
0.0
  0
LWPOLYLINE
  5
15d
100
AcDbEntity
  8
VISIBLE__ISO_
 62
7
100
AcDbPolyline
 90
2
 70
0
 10
19.155448
 20
25.775653
 30
0.0
 10
19.785029
 20
25.775653
 30
0.0
  0
LWPOLYLINE
  5
15e
100
AcDbEntity
  8
VISIBLE__ISO_
 62
7
100
AcDbPolyline
 90
2
 70
0
 10
19.365308
 20
26.405234
 30
0.0
 10
19.365308
 20
24.516491
 30
0.0
  0
LWPOLYLINE
  5
15f
100
AcDbEntity
  8
VISIBLE__ISO_
 62
7
100
AcDbPolyline
 90
2
 70
0
 10
20.204750
 20
25.355932
 30
0.0
 10
21.044191
 20
25.355932
 30
0.0
  0
LWPOLYLINE
  5
160
100
AcDbEntity
  8
VISIBLE__ISO_
 62
7
100
AcDbPolyline
 90
2
 70
0
 10
21.883633
 20
26.405234
 30
0.0
 10
21.883633
 20
24.516491
 30
0.0
  0
LWPOLYLINE
  5
161
100
AcDbEntity
  8
VISIBLE__ISO_
 62
7
100
AcDbPolyline
 90
2
 70
0
 10
22.932934
 20
24.516491
 30
0.0
 10
22.932934
 20
26.405234
 30
0.0
  0
LWPOLYLINE
  5
162
100
AcDbEntity
  8
VISIBLE__ISO_
 62
7
100
AcDbPolyline
 90
2
 70
0
 10
21.883633
 20
25.565792
 30
0.0
 10
22.932934
 20
25.565792
 30
0.0
  0
LWPOLYLINE
  5
163
100
AcDbEntity
  8
VISIBLE__ISO_
 62
7
100
AcDbPolyline
 90
29
 70
0
 10
24.401957
 20
25.146072
 30
0.0
 10
23.877306
 20
25.146072
 30
0.0
 10
23.815893
 20
25.140023
 30
0.0
 10
23.756841
 20
25.122110
 30
0.0
 10
23.702418
 20
25.093020
 30
0.0
 10
23.654716
 20
25.053872
 30
0.0
 10
23.615567
 20
25.006169
 30
0.0
 10
23.586478
 20
24.951746
 30
0.0
 10
23.568564
 20
24.892694
 30
0.0
 10
23.562516
 20
24.831281
 30
0.0
 10
23.568564
 20
24.769869
 30
0.0
 10
23.586478
 20
24.710816
 30
0.0
 10
23.615567
 20
24.656393
 30
0.0
 10
23.654716
 20
24.608691
 30
0.0
 10
23.702418
 20
24.569542
 30
0.0
 10
23.756841
 20
24.540453
 30
0.0
 10
23.815893
 20
24.522539
 30
0.0
 10
23.877306
 20
24.516491
 30
0.0
 10
24.401957
 20
24.516491
 30
0.0
 10
24.401957
 20
25.460862
 30
0.0
 10
24.395908
 20
25.522275
 30
0.0
 10
24.377995
 20
25.581327
 30
0.0
 10
24.348905
 20
25.635750
 30
0.0
 10
24.309757
 20
25.683453
 30
0.0
 10
24.262055
 20
25.722601
 30
0.0
 10
24.207632
 20
25.751691
 30
0.0
 10
24.148579
 20
25.769604
 30
0.0
 10
24.087166
 20
25.775653
 30
0.0
 10
23.667446
 20
25.775653
 30
0.0
  0
LWPOLYLINE
  5
164
100
AcDbEntity
  8
VISIBLE__ISO_
 62
7
100
AcDbPolyline
 90
10
 70
0
 10
25.031538
 20
26.405234
 30
0.0
 10
25.031538
 20
24.726351
 30
0.0
 10
25.035571
 20
24.685409
 30
0.0
 10
25.047513
 20
24.646041
 30
0.0
 10
25.066906
 20
24.609759
 30
0.0
 10
25.093005
 20
24.577957
 30
0.0
 10
25.124806
 20
24.551858
 30
0.0
 10
25.161088
 20
24.532465
 30
0.0
 10
25.200457
 20
24.520523
 30
0.0
 10
25.241398
 20
24.516491
 30
0.0
  0
LWPOLYLINE
  5
165
100
AcDbEntity
  8
VISIBLE__ISO_
 62
7
100
AcDbPolyline
 90
2
 70
0
 10
25.661119
 20
25.775653
 30
0.0
 10
26.290700
 20
25.775653
 30
0.0
  0
SPLINE
  5
166
100
AcDbEntity
  8
VISIBLE__ISO_
 62
7
100
AcDbSpline
 70
8
 71
3
 72
8
 73
4
 74
0
 40
0
 40
0
 40
0
 40
0
 40
1
 40
1
 40
1
 40
1
 10
74.141497
 20
11.584970
 30
0.0
 10
74.622485
 20
11.584970
 30
0.0
 10
75.009708
 20
11.197732
 30
0.0
 10
75.009708
 20
10.716741
 30
0.0
  0
LWPOLYLINE
  5
167
100
AcDbEntity
  8
VISIBLE__ISO_
 62
7
100
AcDbPolyline
 90
2
 70
0
 10
25.870980
 20
26.405234
 30
0.0
 10
25.870980
 20
24.516491
 30
0.0
  0
SPLINE
  5
168
100
AcDbEntity
  8
VISIBLE__ISO_
 62
7
100
AcDbSpline
 70
8
 71
3
 72
8
 73
4
 74
0
 40
0
 40
0
 40
0
 40
0
 40
1
 40
1
 40
1
 40
1
 10
75.009708
 20
3.231361
 30
0.0
 10
75.009708
 20
2.750342
 30
0.0
 10
74.622485
 20
2.363076
 30
0.0
 10
74.141497
 20
2.363076
 30
0.0
  0
LWPOLYLINE
  5
169
100
AcDbEntity
  8
VISIBLE__ISO_
 62
7
100
AcDbPolyline
 90
2
 70
0
 10
75.009708
 20
10.716741
 30
0.0
 10
75.009708
 20
3.231361
 30
0.0
  0
SPLINE
  5
16a
100
AcDbEntity
  8
VISIBLE__ISO_
 62
7
100
AcDbSpline
 70
8
 71
3
 72
8
 73
4
 74
0
 40
0
 40
0
 40
0
 40
0
 40
1
 40
1
 40
1
 40
1
 10
67.313090
 20
2.363076
 30
0.0
 10
66.832099
 20
2.363076
 30
0.0
 10
66.444873
 20
2.750342
 30
0.0
 10
66.444873
 20
3.231361
 30
0.0
  0
LWPOLYLINE
  5
16b
100
AcDbEntity
  8
VISIBLE__ISO_
 62
7
100
AcDbPolyline
 90
2
 70
0
 10
74.141497
 20
2.363076
 30
0.0
 10
67.313090
 20
2.363076
 30
0.0
  0
SPLINE
  5
16c
100
AcDbEntity
  8
VISIBLE__ISO_
 62
7
100
AcDbSpline
 70
8
 71
3
 72
8
 73
4
 74
0
 40
0
 40
0
 40
0
 40
0
 40
1
 40
1
 40
1
 40
1
 10
66.444873
 20
10.716741
 30
0.0
 10
66.444873
 20
11.197732
 30
0.0
 10
66.832099
 20
11.584970
 30
0.0
 10
67.313090
 20
11.584970
 30
0.0
  0
LWPOLYLINE
  5
16d
100
AcDbEntity
  8
VISIBLE__ISO_
 62
7
100
AcDbPolyline
 90
2
 70
0
 10
66.444873
 20
3.231361
 30
0.0
 10
66.444873
 20
10.716741
 30
0.0
  0
LWPOLYLINE
  5
16e
100
AcDbEntity
  8
VISIBLE__ISO_
 62
7
100
AcDbPolyline
 90
36
 70
0
 10
68.903582
 20
11.740573
 30
0.0
 10
69.009490
 20
11.696839
 30
0.0
 10
69.120923
 20
11.670163
 30
0.0
 10
69.276048
 20
11.661198
 30
0.0
 10
69.277057
 20
11.665206
 30
0.0
 10
69.317439
 20
11.677084
 30
0.0
 10
69.354838
 20
11.696402
 30
0.0
 10
69.387897
 20
11.722459
 30
0.0
 10
69.415417
 20
11.754310
 30
0.0
 10
69.436401
 20
11.790801
 30
0.0
 10
69.450086
 20
11.830608
 30
0.0
 10
69.455978
 20
11.872287
 30
0.0
 10
69.453862
 20
11.914327
 30
0.0
 10
69.443815
 20
11.955204
 30
0.0
 10
69.426201
 20
11.993436
 30
0.0
 10
69.401660
 20
12.027635
 30
0.0
 10
69.371081
 20
12.056562
 30
0.0
 10
69.335573
 20
12.079168
 30
0.0
 10
69.024212
 20
12.237943
 30
0.0
 10
68.988704
 20
12.260549
 30
0.0
 10
68.958125
 20
12.289476
 30
0.0
 10
68.933583
 20
12.323676
 30
0.0
 10
68.915970
 20
12.361907
 30
0.0
 10
68.905923
 20
12.402784
 30
0.0
 10
68.903807
 20
12.444824
 30
0.0
 10
68.909698
 20
12.486503
 30
0.0
 10
68.923384
 20
12.526310
 30
0.0
 10
68.944367
 20
12.562801
 30
0.0
 10
68.971887
 20
12.594652
 30
0.0
 10
69.004946
 20
12.620709
 30
0.0
 10
69.042345
 20
12.640027
 30
0.0
 10
69.082728
 20
12.651906
 30
0.0
 10
69.165524
 20
12.655914
 30
0.0
 10
69.238861
 20
12.646948
 30
0.0
 10
69.350295
 20
12.620272
 30
0.0
 10
69.491570
 20
12.576538
 30
0.0
  0
LWPOLYLINE
  5
16f
100
AcDbEntity
  8
VISIBLE__ISO_
 62
7
100
AcDbPolyline
 90
29
 70
0
 10
70.229870
 20
11.992770
 30
0.0
 10
69.953560
 20
11.992770
 30
0.0
 10
69.921217
 20
11.989584
 30
0.0
 10
69.890117
 20
11.980150
 30
0.0
 10
69.861454
 20
11.964830
 30
0.0
 10
69.836332
 20
11.944212
 30
0.0
 10
69.815714
 20
11.919089
 30
0.0
 10
69.800394
 20
11.890427
 30
0.0
 10
69.790960
 20
11.859327
 30
0.0
 10
69.787774
 20
11.826984
 30
0.0
 10
69.790960
 20
11.794640
 30
0.0
 10
69.800394
 20
11.763540
 30
0.0
 10
69.815714
 20
11.734878
 30
0.0
 10
69.836332
 20
11.709755
 30
0.0
 10
69.861454
 20
11.689138
 30
0.0
 10
69.890117
 20
11.673817
 30
0.0
 10
69.921217
 20
11.664383
 30
0.0
 10
69.953560
 20
11.661198
 30
0.0
 10
70.229870
 20
11.661198
 30
0.0
 10
70.229870
 20
12.158556
 30
0.0
 10
70.226684
 20
12.190899
 30
0.0
 10
70.217250
 20
12.221999
 30
0.0
 10
70.201930
 20
12.250661
 30
0.0
 10
70.181312
 20
12.275784
 30
0.0
 10
70.156190
 20
12.296402
 30
0.0
 10
70.127528
 20
12.311722
 30
0.0
 10
70.096427
 20
12.321156
 30
0.0
 10
70.064084
 20
12.324342
 30
0.0
 10
69.843036
 20
12.324342
 30
0.0
  0
LWPOLYLINE
  5
170
100
AcDbEntity
  8
VISIBLE__ISO_
 62
7
100
AcDbPolyline
 90
2
 70
0
 10
69.898298
 20
12.655914
 30
0.0
 10
69.898298
 20
12.600652
 30
0.0
  0
LWPOLYLINE
  5
171
100
AcDbEntity
  8
VISIBLE__ISO_
 62
7
100
AcDbPolyline
 90
2
 70
0
 10
70.119346
 20
12.655914
 30
0.0
 10
70.119346
 20
12.600652
 30
0.0
  0
LWPOLYLINE
  5
172
100
AcDbEntity
  8
VISIBLE__ISO_
 62
7
100
AcDbPolyline
 90
29
 70
0
 10
70.561442
 20
11.327314
 30
0.0
 10
70.870095
 20
11.330499
 30
0.0
 10
70.901195
 20
11.339933
 30
0.0
 10
70.929858
 20
11.355254
 30
0.0
 10
70.954980
 20
11.375871
 30
0.0
 10
70.975598
 20
11.400994
 30
0.0
 10
70.990918
 20
11.429656
 30
0.0
 10
71.000352
 20
11.460756
 30
0.0
 10
71.003538
 20
11.493100
 30
0.0
 10
71.003538
 20
12.322030
 30
0.0
 10
70.727228
 20
12.322030
 30
0.0
 10
70.694885
 20
12.318844
 30
0.0
 10
70.663784
 20
12.309410
 30
0.0
 10
70.635122
 20
12.294090
 30
0.0
 10
70.610000
 20
12.273472
 30
0.0
 10
70.589382
 20
12.248349
 30
0.0
 10
70.574062
 20
12.219687
 30
0.0
 10
70.564627
 20
12.188587
 30
0.0
 10
70.561442
 20
12.156244
 30
0.0
 10
70.561442
 20
11.824672
 30
0.0
 10
70.564627
 20
11.792328
 30
0.0
 10
70.574062
 20
11.761228
 30
0.0
 10
70.589382
 20
11.732566
 30
0.0
 10
70.610000
 20
11.707443
 30
0.0
 10
70.635122
 20
11.686826
 30
0.0
 10
70.663784
 20
11.671505
 30
0.0
 10
70.694885
 20
11.662071
 30
0.0
 10
70.727228
 20
11.658886
 30
0.0
 10
71.003538
 20
11.658886
 30
0.0
  0
LWPOLYLINE
  5
173
100
AcDbEntity
  8
VISIBLE__ISO_
 62
7
100
AcDbPolyline
 90
29
 70
0
 10
71.335110
 20
11.992770
 30
0.0
 10
71.777206
 20
11.992770
 30
0.0
 10
71.777206
 20
12.103294
 30
0.0
 10
71.772958
 20
12.146418
 30
0.0
 10
71.760379
 20
12.187885
 30
0.0
 10
71.739952
 20
12.226101
 30
0.0
 10
71.712462
 20
12.259598
 30
0.0
 10
71.678965
 20
12.287088
 30
0.0
 10
71.640749
 20
12.307515
 30
0.0
 10
71.599282
 20
12.320094
 30
0.0
 10
71.556158
 20
12.324342
 30
0.0
 10
71.513033
 20
12.320094
 30
0.0
 10
71.471566
 20
12.307515
 30
0.0
 10
71.433350
 20
12.287088
 30
0.0
 10
71.399853
 20
12.259598
 30
0.0
 10
71.372363
 20
12.226101
 30
0.0
 10
71.351936
 20
12.187885
 30
0.0
 10
71.339357
 20
12.146418
 30
0.0
 10
71.335110
 20
12.103294
 30
0.0
 10
71.335110
 20
11.826984
 30
0.0
 10
71.338295
 20
11.794640
 30
0.0
 10
71.347729
 20
11.763540
 30
0.0
 10
71.363050
 20
11.734878
 30
0.0
 10
71.383667
 20
11.709755
 30
0.0
 10
71.408790
 20
11.689138
 30
0.0
 10
71.437452
 20
11.673817
 30
0.0
 10
71.468552
 20
11.664383
 30
0.0
 10
71.500896
 20
11.661198
 30
0.0
 10
71.777206
 20
11.661198
 30
0.0
  0
SPLINE
  5
174
100
AcDbEntity
  8
VISIBLE__ISO_
 62
7
100
AcDbSpline
 70
8
 71
3
 72
8
 73
4
 74
0
 40
0
 40
0
 40
0
 40
0
 40
1
 40
1
 40
1
 40
1
 10
54.735676
 20
28.027891
 30
0.0
 10
53.782056
 20
28.027891
 30
0.0
 10
53.014231
 20
27.260066
 30
0.0
 10
53.014231
 20
26.306445
 30
0.0
  0
LWPOLYLINE
  5
175
100
AcDbEntity
  8
VISIBLE__ISO_
 62
7
100
AcDbPolyline
 90
12
 70
0
 10
72.550873
 20
11.661198
 30
0.0
 10
72.550873
 20
12.158556
 30
0.0
 10
72.547688
 20
12.190899
 30
0.0
 10
72.538254
 20
12.221999
 30
0.0
 10
72.522933
 20
12.250661
 30
0.0
 10
72.502316
 20
12.275784
 30
0.0
 10
72.477193
 20
12.296402
 30
0.0
 10
72.448531
 20
12.311722
 30
0.0
 10
72.417431
 20
12.321156
 30
0.0
 10
72.385087
 20
12.324342
 30
0.0
 10
72.108778
 20
12.324342
 30
0.0
 10
72.108778
 20
11.661198
 30
0.0
  0
SPLINE
  5
176
100
AcDbEntity
  8
VISIBLE__ISO_
 62
7
100
AcDbSpline
 70
8
 71
3
 72
8
 73
4
 74
0
 40
0
 40
0
 40
0
 40
0
 40
1
 40
1
 40
1
 40
1
 10
46.490599
 20
23.662266
 30
0.0
 10
45.536979
 20
23.662266
 30
0.0
 10
44.769154
 20
22.894441
 30
0.0
 10
44.769154
 20
21.940820
 30
0.0
  0
LWPOLYLINE
  5
177
100
AcDbEntity
  8
VISIBLE__ISO_
 62
7
100
AcDbPolyline
 90
3
 70
0
 10
53.014231
 20
26.306445
 30
0.0
 10
53.014231
 20
23.662266
 30
0.0
 10
46.490599
 20
23.662266
 30
0.0
  0
SPLINE
  5
178
100
AcDbEntity
  8
VISIBLE__ISO_
 62
7
100
AcDbSpline
 70
8
 71
3
 72
8
 73
4
 74
0
 40
0
 40
0
 40
0
 40
0
 40
1
 40
1
 40
1
 40
1
 10
44.769154
 20
16.218655
 30
0.0
 10
44.769154
 20
15.265034
 30
0.0
 10
45.536979
 20
14.497221
 30
0.0
 10
46.490599
 20
14.497221
 30
0.0
  0
LWPOLYLINE
  5
179
100
AcDbEntity
  8
VISIBLE__ISO_
 62
7
100
AcDbPolyline
 90
2
 70
0
 10
44.769154
 20
21.940820
 30
0.0
 10
44.769154
 20
16.218655
 30
0.0
  0
SPLINE
  5
17a
100
AcDbEntity
  8
VISIBLE__ISO_
 62
7
100
AcDbSpline
 70
8
 71
3
 72
8
 73
4
 74
0
 40
0
 40
0
 40
0
 40
0
 40
1
 40
1
 40
1
 40
1
 10
53.014231
 20
4.155865
 30
0.0
 10
53.014231
 20
3.202236
 30
0.0
 10
53.782056
 20
2.434422
 30
0.0
 10
54.735676
 20
2.434422
 30
0.0
  0
LWPOLYLINE
  5
17b
100
AcDbEntity
  8
VISIBLE__ISO_
 62
7
100
AcDbPolyline
 90
3
 70
0
 10
46.490599
 20
14.497221
 30
0.0
 10
53.014231
 20
14.497221
 30
0.0
 10
53.014231
 20
4.155865
 30
0.0
  0
SPLINE
  5
17c
100
AcDbEntity
  8
VISIBLE__ISO_
 62
7
100
AcDbSpline
 70
8
 71
3
 72
8
 73
4
 74
0
 40
0
 40
0
 40
0
 40
0
 40
1
 40
1
 40
1
 40
1
 10
60.240664
 20
2.434422
 30
0.0
 10
61.194284
 20
2.434422
 30
0.0
 10
61.962109
 20
3.202236
 30
0.0
 10
61.962109
 20
4.155865
 30
0.0
  0
LWPOLYLINE
  5
17d
100
AcDbEntity
  8
VISIBLE__ISO_
 62
7
100
AcDbPolyline
 90
2
 70
0
 10
54.735676
 20
2.434422
 30
0.0
 10
60.240664
 20
2.434422
 30
0.0
  0
SPLINE
  5
17e
100
AcDbEntity
  8
VISIBLE__ISO_
 62
7
100
AcDbSpline
 70
8
 71
3
 72
8
 73
4
 74
0
 40
0
 40
0
 40
0
 40
0
 40
1
 40
1
 40
1
 40
1
 10
68.542518
 20
14.497221
 30
0.0
 10
69.496138
 20
14.497221
 30
0.0
 10
70.263410
 20
15.265034
 30
0.0
 10
70.263410
 20
16.218655
 30
0.0
  0
LWPOLYLINE
  5
17f
100
AcDbEntity
  8
VISIBLE__ISO_
 62
7
100
AcDbPolyline
 90
3
 70
0
 10
61.962109
 20
4.155865
 30
0.0
 10
61.962109
 20
14.497221
 30
0.0
 10
68.542518
 20
14.497221
 30
0.0
  0
SPLINE
  5
180
100
AcDbEntity
  8
VISIBLE__ISO_
 62
7
100
AcDbSpline
 70
8
 71
3
 72
8
 73
4
 74
0
 40
0
 40
0
 40
0
 40
0
 40
1
 40
1
 40
1
 40
1
 10
70.263410
 20
21.940820
 30
0.0
 10
70.263410
 20
22.894441
 30
0.0
 10
69.496138
 20
23.662266
 30
0.0
 10
68.542518
 20
23.662266
 30
0.0
  0
LWPOLYLINE
  5
181
100
AcDbEntity
  8
VISIBLE__ISO_
 62
7
100
AcDbPolyline
 90
2
 70
0
 10
70.263410
 20
16.218655
 30
0.0
 10
70.263410
 20
21.940820
 30
0.0
  0
SPLINE
  5
182
100
AcDbEntity
  8
VISIBLE__ISO_
 62
7
100
AcDbSpline
 70
8
 71
3
 72
8
 73
4
 74
0
 40
0
 40
0
 40
0
 40
0
 40
1
 40
1
 40
1
 40
1
 10
61.962109
 20
26.306445
 30
0.0
 10
61.962109
 20
27.260066
 30
0.0
 10
61.194284
 20
28.027891
 30
0.0
 10
60.240664
 20
28.027891
 30
0.0
  0
LWPOLYLINE
  5
183
100
AcDbEntity
  8
VISIBLE__ISO_
 62
7
100
AcDbPolyline
 90
3
 70
0
 10
68.542518
 20
23.662266
 30
0.0
 10
61.962109
 20
23.662266
 30
0.0
 10
61.962109
 20
26.306445
 30
0.0
  0
LWPOLYLINE
  5
184
100
AcDbEntity
  8
VISIBLE__ISO_
 62
7
100
AcDbPolyline
 90
10
 70
0
 10
55.474066
 20
28.376158
 30
0.0
 10
55.469109
 20
28.426484
 30
0.0
 10
55.454430
 20
28.474876
 30
0.0
 10
55.430591
 20
28.519475
 30
0.0
 10
55.398510
 20
28.558566
 30
0.0
 10
55.359419
 20
28.590647
 30
0.0
 10
55.314821
 20
28.614485
 30
0.0
 10
55.266428
 20
28.629165
 30
0.0
 10
55.216102
 20
28.634122
 30
0.0
 10
54.936644
 20
28.634122
 30
0.0
  0
LWPOLYLINE
  5
185
100
AcDbEntity
  8
VISIBLE__ISO_
 62
7
100
AcDbPolyline
 90
2
 70
0
 10
55.474069
 20
28.376158
 30
0.0
 10
55.474069
 20
28.354661
 30
0.0
  0
LWPOLYLINE
  5
186
100
AcDbEntity
  8
VISIBLE__ISO_
 62
7
100
AcDbPolyline
 90
28
 70
0
 10
55.205356
 20
28.634122
 30
0.0
 10
55.247295
 20
28.638252
 30
0.0
 10
55.287622
 20
28.650485
 30
0.0
 10
55.324787
 20
28.670351
 30
0.0
 10
55.357363
 20
28.697085
 30
0.0
 10
55.384097
 20
28.729661
 30
0.0
 10
55.403962
 20
28.766826
 30
0.0
 10
55.416195
 20
28.807153
 30
0.0
 10
55.420326
 20
28.849092
 30
0.0
 10
55.416195
 20
28.891030
 30
0.0
 10
55.403962
 20
28.931357
 30
0.0
 10
55.384097
 20
28.968522
 30
0.0
 10
55.357363
 20
29.001098
 30
0.0
 10
55.324787
 20
29.027832
 30
0.0
 10
55.287622
 20
29.047698
 30
0.0
 10
55.247295
 20
29.059931
 30
0.0
 10
55.205356
 20
29.064061
 30
0.0
 10
54.936644
 20
29.064061
 30
0.0
 10
54.936644
 20
28.096697
 30
0.0
 10
55.216102
 20
28.096697
 30
0.0
 10
55.266428
 20
28.101653
 30
0.0
 10
55.314821
 20
28.116333
 30
0.0
 10
55.359419
 20
28.140172
 30
0.0
 10
55.398510
 20
28.172253
 30
0.0
 10
55.430591
 20
28.211344
 30
0.0
 10
55.454430
 20
28.255942
 30
0.0
 10
55.469109
 20
28.304334
 30
0.0
 10
55.474066
 20
28.354661
 30
0.0
  0
LWPOLYLINE
  5
187
100
AcDbEntity
  8
VISIBLE__ISO_
 62
7
100
AcDbPolyline
 90
29
 70
0
 10
55.796523
 20
28.419152
 30
0.0
 10
56.226463
 20
28.419152
 30
0.0
 10
56.226463
 20
28.526637
 30
0.0
 10
56.222333
 20
28.568575
 30
0.0
 10
56.210100
 20
28.608902
 30
0.0
 10
56.190234
 20
28.646068
 30
0.0
 10
56.163500
 20
28.678643
 30
0.0
 10
56.130924
 20
28.705378
 30
0.0
 10
56.093759
 20
28.725243
 30
0.0
 10
56.053432
 20
28.737476
 30
0.0
 10
56.011493
 20
28.741607
 30
0.0
 10
55.969555
 20
28.737476
 30
0.0
 10
55.929228
 20
28.725243
 30
0.0
 10
55.892063
 20
28.705378
 30
0.0
 10
55.859487
 20
28.678643
 30
0.0
 10
55.832752
 20
28.646068
 30
0.0
 10
55.812887
 20
28.608902
 30
0.0
 10
55.800654
 20
28.568575
 30
0.0
 10
55.796523
 20
28.526637
 30
0.0
 10
55.796523
 20
28.257924
 30
0.0
 10
55.799621
 20
28.226470
 30
0.0
 10
55.808796
 20
28.196225
 30
0.0
 10
55.823695
 20
28.168351
 30
0.0
 10
55.843746
 20
28.143919
 30
0.0
 10
55.868178
 20
28.123868
 30
0.0
 10
55.896052
 20
28.108969
 30
0.0
 10
55.926297
 20
28.099795
 30
0.0
 10
55.957751
 20
28.096697
 30
0.0
 10
56.226463
 20
28.096697
 30
0.0
  0
LWPOLYLINE
  5
188
100
AcDbEntity
  8
VISIBLE__ISO_
 62
7
100
AcDbPolyline
 90
5
 70
0
 10
56.548918
 20
28.741607
 30
0.0
 10
56.710146
 20
28.096697
 30
0.0
 10
56.871373
 20
28.526637
 30
0.0
 10
57.032601
 20
28.096697
 30
0.0
 10
57.193828
 20
28.741607
 30
0.0
  0
LWPOLYLINE
  5
189
100
AcDbEntity
  8
VISIBLE__ISO_
 62
7
100
AcDbPolyline
 90
29
 70
0
 10
57.408798
 20
28.419152
 30
0.0
 10
57.838738
 20
28.419152
 30
0.0
 10
57.838738
 20
28.526637
 30
0.0
 10
57.834607
 20
28.568575
 30
0.0
 10
57.822374
 20
28.608902
 30
0.0
 10
57.802509
 20
28.646068
 30
0.0
 10
57.775775
 20
28.678643
 30
0.0
 10
57.743199
 20
28.705378
 30
0.0
 10
57.706033
 20
28.725243
 30
0.0
 10
57.665706
 20
28.737476
 30
0.0
 10
57.623768
 20
28.741607
 30
0.0
 10
57.581829
 20
28.737476
 30
0.0
 10
57.541502
 20
28.725243
 30
0.0
 10
57.504337
 20
28.705378
 30
0.0
 10
57.471761
 20
28.678643
 30
0.0
 10
57.445027
 20
28.646068
 30
0.0
 10
57.425162
 20
28.608902
 30
0.0
 10
57.412929
 20
28.568575
 30
0.0
 10
57.408798
 20
28.526637
 30
0.0
 10
57.408798
 20
28.257924
 30
0.0
 10
57.411896
 20
28.226470
 30
0.0
 10
57.421071
 20
28.196225
 30
0.0
 10
57.435970
 20
28.168351
 30
0.0
 10
57.456020
 20
28.143919
 30
0.0
 10
57.480452
 20
28.123868
 30
0.0
 10
57.508326
 20
28.108969
 30
0.0
 10
57.538572
 20
28.099795
 30
0.0
 10
57.570025
 20
28.096697
 30
0.0
 10
57.838738
 20
28.096697
 30
0.0
  0
LWPOLYLINE
  5
18a
100
AcDbEntity
  8
VISIBLE__ISO_
 62
7
100
AcDbPolyline
 90
29
 70
0
 10
58.161193
 20
27.771993
 30
0.0
 10
58.461359
 20
27.775091
 30
0.0
 10
58.491604
 20
27.784266
 30
0.0
 10
58.519478
 20
27.799165
 30
0.0
 10
58.543910
 20
27.819216
 30
0.0
 10
58.563961
 20
27.843648
 30
0.0
 10
58.578860
 20
27.871522
 30
0.0
 10
58.588035
 20
27.901767
 30
0.0
 10
58.591133
 20
27.933221
 30
0.0
 10
58.591133
 20
28.739358
 30
0.0
 10
58.322420
 20
28.739358
 30
0.0
 10
58.290966
 20
28.736260
 30
0.0
 10
58.260721
 20
28.727085
 30
0.0
 10
58.232847
 20
28.712186
 30
0.0
 10
58.208415
 20
28.692136
 30
0.0
 10
58.188364
 20
28.667704
 30
0.0
 10
58.173465
 20
28.639830
 30
0.0
 10
58.164291
 20
28.609584
 30
0.0
 10
58.161193
 20
28.578131
 30
0.0
 10
58.161193
 20
28.255676
 30
0.0
 10
58.164291
 20
28.224222
 30
0.0
 10
58.173465
 20
28.193977
 30
0.0
 10
58.188364
 20
28.166102
 30
0.0
 10
58.208415
 20
28.141671
 30
0.0
 10
58.232847
 20
28.121620
 30
0.0
 10
58.260721
 20
28.106721
 30
0.0
 10
58.290966
 20
28.097546
 30
0.0
 10
58.322420
 20
28.094448
 30
0.0
 10
58.591133
 20
28.094448
 30
0.0
  0
LWPOLYLINE
  5
18b
100
AcDbEntity
  8
VISIBLE__ISO_
 62
7
100
AcDbPolyline
 90
29
 70
0
 10
58.913588
 20
28.419152
 30
0.0
 10
59.343527
 20
28.419152
 30
0.0
 10
59.343527
 20
28.526637
 30
0.0
 10
59.339397
 20
28.568575
 30
0.0
 10
59.327164
 20
28.608902
 30
0.0
 10
59.307298
 20
28.646068
 30
0.0
 10
59.280564
 20
28.678643
 30
0.0
 10
59.247988
 20
28.705378
 30
0.0
 10
59.210823
 20
28.725243
 30
0.0
 10
59.170496
 20
28.737476
 30
0.0
 10
59.128557
 20
28.741607
 30
0.0
 10
59.086619
 20
28.737476
 30
0.0
 10
59.046292
 20
28.725243
 30
0.0
 10
59.009127
 20
28.705378
 30
0.0
 10
58.976551
 20
28.678643
 30
0.0
 10
58.949817
 20
28.646068
 30
0.0
 10
58.929951
 20
28.608902
 30
0.0
 10
58.917718
 20
28.568575
 30
0.0
 10
58.913588
 20
28.526637
 30
0.0
 10
58.913588
 20
28.257924
 30
0.0
 10
58.916685
 20
28.226470
 30
0.0
 10
58.925860
 20
28.196225
 30
0.0
 10
58.940759
 20
28.168351
 30
0.0
 10
58.960810
 20
28.143919
 30
0.0
 10
58.985242
 20
28.123868
 30
0.0
 10
59.013116
 20
28.108969
 30
0.0
 10
59.043361
 20
28.099795
 30
0.0
 10
59.074815
 20
28.096697
 30
0.0
 10
59.343527
 20
28.096697
 30
0.0
  0
LWPOLYLINE
  5
18c
100
AcDbEntity
  8
VISIBLE__ISO_
 62
7
100
AcDbPolyline
 90
12
 70
0
 10
60.095922
 20
28.096697
 30
0.0
 10
60.095922
 20
28.580379
 30
0.0
 10
60.092824
 20
28.611833
 30
0.0
 10
60.083649
 20
28.642078
 30
0.0
 10
60.068750
 20
28.669952
 30
0.0
 10
60.048700
 20
28.694384
 30
0.0
 10
60.024268
 20
28.714435
 30
0.0
 10
59.996394
 20
28.729334
 30
0.0
 10
59.966149
 20
28.738509
 30
0.0
 10
59.934695
 20
28.741607
 30
0.0
 10
59.665982
 20
28.741607
 30
0.0
 10
59.665982
 20
28.096697
 30
0.0
  0
ENDSEC
  0
SECTION
  2
OBJECTS
  0
DICTIONARY
  5
C
330
0
100
AcDbDictionary
  3
ACAD_GROUP
350
D
  3
ACAD_MLINESTYLE
350
17
  0
DICTIONARY
  5
D
330
C
100
AcDbDictionary
  0
DICTIONARY
  5
1A
330
C
100
AcDbDictionary
  0
DICTIONARY
  5
17
330
C
100
AcDbDictionary
  3
STANDARD
350
18
  0
DICTIONARY
  5
19
330
C
100
AcDbDictionary
  0
ENDSEC
  0
EOF
