  0
SECTION
  2
HEADER
  9
$ACADVER
  1
AC1014
  9
$HANDSEED
  5
FFFF
  9
$MEASUREMENT
 70
     1
  0
ENDSEC
  0
SECTION
  2
TABLES
  0
TABLE
  2
VPORT
  5
8
330
0
100
AcDbSymbolTable
 70
     4
  0
VPORT
  5
2E
330
8
100
AcDbSymbolTableRecord
100
AcDbViewportTableRecord
  2
*ACTIVE
 70
     0
 10
0.0
 20
0.0
 11
1.0
 21
1.0
 12
210.0
 22
148.5
 13
0.0
 23
0.0
 14
10.0
 24
10.0
 15
10.0
 25
10.0
 16
0.0
 26
0.0
 36
1.0
 17
0.0
 27
0.0
 37
0.0
 40
341.0
 41
1.24
 42
50.0
 43
0.0
 44
0.0
 50
0.0
 51
0.0
 71
     0
 72
   100
 73
     1
 74
     3
 75
     0
 76
     0
 77
     0
 78
     0
  0
ENDTAB
  0
TABLE
  2
LTYPE
  5
5
330
0
100
AcDbSymbolTable
 70
     1
  0
LTYPE
  5
14
330
5
100
AcDbSymbolTableRecord
100
AcDbLinetypeTableRecord
  2
BYBLOCK
 70
     0
  3

 72
    65
 73
     0
 40
0.0
  0
LTYPE
  5
15
330
5
100
AcDbSymbolTableRecord
100
AcDbLinetypeTableRecord
  2
BYLAYER
 70
     0
  3

 72
    65
 73
     0
 40
0.0
  0
LTYPE
  5
16
330
5
100
AcDbSymbolTableRecord
100
AcDbLinetypeTableRecord
  2
CONTINUOUS
 70
     0
  3
Solid line
 72
    65
 73
     0
 40
0.0
  0
ENDTAB
  0
TABLE
  2
LAYER
  5
2
100
AcDbSymbolTable
 70
2
  0
LAYER
  5
50
100
AcDbSymbolTableRecord
100
AcDbLayerTableRecord
  2
0
 70
0
  6
CONTINUOUS
  0
LAYER
  5
51
100
AcDbSymbolTableRecord
100
AcDbLayerTableRecord
  2
VISIBLE__ISO_
 70
0
  6
CONTINUOUS
  0
ENDTAB
  0
TABLE
  2
STYLE
  5
3
330
0
100
AcDbSymbolTable
 70
     1
  0
STYLE
  5
11
330
3
100
AcDbSymbolTableRecord
100
AcDbTextStyleTableRecord
  2
STANDARD
 70
     0
 40
0.0
 41
1.0
 50
0.0
 71
     0
 42
2.5
  3
txt
  4

  0
ENDTAB
  0
TABLE
  2
VIEW
  5
6
330
0
100
AcDbSymbolTable
 70
     0
  0
ENDTAB
  0
TABLE
  2
UCS
  5
7
330
0
100
AcDbSymbolTable
 70
     0
  0
ENDTAB
  0
TABLE
  2
APPID
  5
9
330
0
100
AcDbSymbolTable
 70
     2
  0
APPID
  5
12
330
9
100
AcDbSymbolTableRecord
100
AcDbRegAppTableRecord
  2
ACAD
 70
     0
  0
ENDTAB
  0
TABLE
  2
DIMSTYLE
  5
A
330
0
100
AcDbSymbolTable
 70
     1
  0
DIMSTYLE
105
27
330
A
100
AcDbSymbolTableRecord
100
AcDbDimStyleTableRecord
  2
ISO-25
 70
     0
  3

  4

  5

  6

  7

 40
1.0
 41
2.5
 42
0.625
 43
3.75
 44
1.25
 45
0.0
 46
0.0
 47
0.0
 48
0.0
140
2.5
141
2.5
142
0.0
143
0.03937007874016
144
1.0
145
0.0
146
1.0
147
0.625
 71
     0
 72
     0
 73
     0
 74
     0
 75
     0
 76
     0
 77
     1
 78
     8
170
     0
171
     3
172
     1
173
     0
174
     0
175
     0
176
     0
177
     0
178
     0
270
     2
271
     2
272
     2
273
     2
274
     3
340
11
275
     0
280
     0
281
     0
282
     0
283
     0
284
     8
285
     0
286
     0
287
     3
288
     0
  0
ENDTAB
  0
TABLE
  2
BLOCK_RECORD
  5
1
330
0
100
AcDbSymbolTable
 70
     1
  0
BLOCK_RECORD
  5
1F
330
1
100
AcDbSymbolTableRecord
100
AcDbBlockTableRecord
  2
*MODEL_SPACE
  0
BLOCK_RECORD
  5
1B
330
1
100
AcDbSymbolTableRecord
100
AcDbBlockTableRecord
  2
*PAPER_SPACE
  0
ENDTAB
  0
ENDSEC
  0
SECTION
  2
BLOCKS
  0
BLOCK
  5
20
330
1F
100
AcDbEntity
  8
0
100
AcDbBlockBegin
  2
*MODEL_SPACE
 70
     0
 10
0.0
 20
0.0
 30
0.0
  3
*MODEL_SPACE
  1

  0
ENDBLK
  5
21
330
1F
100
AcDbEntity
  8
0
100
AcDbBlockEnd
  0
BLOCK
  5
1C
330
1B
100
AcDbEntity
 67
     1
  8
0
100
AcDbBlockBegin
  2
*PAPER_SPACE
  1

  0
ENDBLK
  5
1D
330
1B
100
AcDbEntity
 67
     1
  8
0
100
AcDbBlockEnd
  0
ENDSEC
  0
SECTION
  2
ENTITIES
  0
SPLINE
  5
100
100
AcDbEntity
  8
VISIBLE__ISO_
 62
3
100
AcDbSpline
 70
8
 71
3
 72
8
 73
4
 74
0
 40
0
 40
0
 40
0
 40
0
 40
1
 40
1
 40
1
 40
1
 10
17.169431
 20
57.196238
 30
0.0
 10
17.169431
 20
57.196238
 30
0.0
 10
16.461899
 20
57.229613
 30
0.0
 10
15.998326
 20
56.791870
 30
0.0
  0
SPLINE
  5
101
100
AcDbEntity
  8
VISIBLE__ISO_
 62
3
100
AcDbSpline
 70
8
 71
3
 72
8
 73
4
 74
0
 40
0
 40
0
 40
0
 40
0
 40
1
 40
1
 40
1
 40
1
 10
15.998326
 20
56.791870
 30
0.0
 10
15.534752
 20
56.354098
 30
0.0
 10
15.156362
 20
55.909067
 30
0.0
 10
15.169277
 20
55.237452
 30
0.0
  0
SPLINE
  5
102
100
AcDbEntity
  8
VISIBLE__ISO_
 62
3
100
AcDbSpline
 70
8
 71
3
 72
8
 73
4
 74
0
 40
0
 40
0
 40
0
 40
0
 40
1
 40
1
 40
1
 40
1
 10
15.169277
 20
55.237452
 30
0.0
 10
15.189642
 20
54.178258
 30
0.0
 10
14.701348
 20
52.831053
 30
0.0
 10
13.755378
 20
51.850489
 30
0.0
  0
SPLINE
  5
103
100
AcDbEntity
  8
VISIBLE__ISO_
 62
3
100
AcDbSpline
 70
8
 71
3
 72
8
 73
4
 74
0
 40
0
 40
0
 40
0
 40
0
 40
1
 40
1
 40
1
 40
1
 10
13.755378
 20
51.850489
 30
0.0
 10
12.628159
 20
50.682044
 30
0.0
 10
11.273246
 20
50.243315
 30
0.0
 10
9.937686
 20
50.295588
 30
0.0
  0
SPLINE
  5
104
100
AcDbEntity
  8
VISIBLE__ISO_
 62
3
100
AcDbSpline
 70
8
 71
3
 72
8
 73
4
 74
0
 40
0
 40
0
 40
0
 40
0
 40
1
 40
1
 40
1
 40
1
 10
9.937686
 20
50.295588
 30
0.0
 10
8.766122
 20
50.341435
 30
0.0
 10
6.887702
 20
51.299831
 30
0.0
 10
6.632738
 20
51.415037
 30
0.0
  0
SPLINE
  5
105
100
AcDbEntity
  8
VISIBLE__ISO_
 62
3
100
AcDbSpline
 70
8
 71
3
 72
8
 73
4
 74
0
 40
0
 40
0
 40
0
 40
0
 40
1
 40
1
 40
1
 40
1
 10
6.632738
 20
51.415037
 30
0.0
 10
6.238459
 20
51.570968
 30
0.0
 10
5.442672
 20
51.522089
 30
0.0
 10
4.942101
 20
51.125048
 30
0.0
  0
SPLINE
  5
106
100
AcDbEntity
  8
VISIBLE__ISO_
 62
3
100
AcDbSpline
 70
8
 71
3
 72
8
 73
4
 74
0
 40
0
 40
0
 40
0
 40
0
 40
1
 40
1
 40
1
 40
1
 10
4.942101
 20
51.125048
 30
0.0
 10
4.480189
 20
50.758673
 30
0.0
 10
3.007264
 20
48.521469
 30
0.0
 10
3.007264
 20
48.521469
 30
0.0
  0
SPLINE
  5
107
100
AcDbEntity
  8
VISIBLE__ISO_
 62
3
100
AcDbSpline
 70
8
 71
3
 72
8
 73
4
 74
0
 40
0
 40
0
 40
0
 40
0
 40
1
 40
1
 40
1
 40
1
 10
3.007264
 20
11.887004
 30
0.0
 10
3.007264
 20
11.887004
 30
0.0
 10
2.881287
 20
11.222314
 30
0.0
 10
3.633088
 20
10.458480
 30
0.0
  0
SPLINE
  5
108
100
AcDbEntity
  8
VISIBLE__ISO_
 62
3
100
AcDbSpline
 70
8
 71
3
 72
8
 73
4
 74
0
 40
0
 40
0
 40
0
 40
0
 40
1
 40
1
 40
1
 40
1
 10
3.633088
 20
10.458480
 30
0.0
 10
4.073483
 20
10.158957
 30
0.0
 10
4.595586
 20
9.916415
 30
0.0
 10
5.000630
 20
9.882492
 30
0.0
  0
SPLINE
  5
109
100
AcDbEntity
  8
VISIBLE__ISO_
 62
3
100
AcDbSpline
 70
8
 71
3
 72
8
 73
4
 74
0
 40
0
 40
0
 40
0
 40
0
 40
1
 40
1
 40
1
 40
1
 10
5.000630
 20
9.882492
 30
0.0
 10
6.233358
 20
9.848400
 30
0.0
 10
6.668770
 20
9.654598
 30
0.0
 10
7.364854
 20
9.329506
 30
0.0
  0
SPLINE
  5
10a
100
AcDbEntity
  8
VISIBLE__ISO_
 62
3
100
AcDbSpline
 70
8
 71
3
 72
8
 73
4
 74
0
 40
0
 40
0
 40
0
 40
0
 40
1
 40
1
 40
1
 40
1
 10
7.364854
 20
9.329506
 30
0.0
 10
7.818684
 20
9.117529
 30
0.0
 10
9.051758
 20
8.303177
 30
0.0
 10
9.729078
 20
6.702892
 30
0.0
  0
SPLINE
  5
10b
100
AcDbEntity
  8
VISIBLE__ISO_
 62
3
100
AcDbSpline
 70
8
 71
3
 72
8
 73
4
 74
0
 40
0
 40
0
 40
0
 40
0
 40
1
 40
1
 40
1
 40
1
 10
9.729078
 20
6.702892
 30
0.0
 10
10.142711
 20
5.725613
 30
0.0
 10
9.676816
 20
4.544033
 30
0.0
 10
10.540573
 20
3.645240
 30
0.0
  0
SPLINE
  5
10c
100
AcDbEntity
  8
VISIBLE__ISO_
 62
3
100
AcDbSpline
 70
8
 71
3
 72
8
 73
4
 74
0
 40
0
 40
0
 40
0
 40
0
 40
1
 40
1
 40
1
 40
1
 10
10.540573
 20
3.645240
 30
0.0
 10
10.808651
 20
3.366263
 30
0.0
 10
11.166156
 20
2.924247
 30
0.0
 10
11.931052
 20
2.970306
 30
0.0
  0
SPLINE
  5
10d
100
AcDbEntity
  8
VISIBLE__ISO_
 62
3
100
AcDbSpline
 70
8
 71
3
 72
8
 73
4
 74
0
 40
0
 40
0
 40
0
 40
0
 40
1
 40
1
 40
1
 40
1
 10
11.931052
 20
2.970306
 30
0.0
 10
12.023967
 20
2.950550
 30
0.0
 10
73.284989
 20
2.970306
 30
0.0
 10
73.284989
 20
2.970306
 30
0.0
  0
SPLINE
  5
10e
100
AcDbEntity
  8
VISIBLE__ISO_
 62
3
100
AcDbSpline
 70
8
 71
3
 72
8
 73
4
 74
0
 40
0
 40
0
 40
0
 40
0
 40
1
 40
1
 40
1
 40
1
 10
73.284989
 20
2.970306
 30
0.0
 10
73.284989
 20
2.970306
 30
0.0
 10
74.083333
 20
2.912958
 30
0.0
 10
74.702032
 20
3.680744
 30
0.0
  0
SPLINE
  5
10f
100
AcDbEntity
  8
VISIBLE__ISO_
 62
3
100
AcDbSpline
 70
8
 71
3
 72
8
 73
4
 74
0
 40
0
 40
0
 40
0
 40
0
 40
1
 40
1
 40
1
 40
1
 10
74.702032
 20
3.680744
 30
0.0
 10
75.676489
 20
4.669368
 30
0.0
 10
74.913216
 20
6.709835
 30
0.0
 10
76.605161
 20
8.307551
 30
0.0
  0
SPLINE
  5
110
100
AcDbEntity
  8
VISIBLE__ISO_
 62
3
100
AcDbSpline
 70
8
 71
3
 72
8
 73
4
 74
0
 40
0
 40
0
 40
0
 40
0
 40
1
 40
1
 40
1
 40
1
 10
76.605161
 20
8.307551
 30
0.0
 10
78.297103
 20
9.905268
 30
0.0
 10
79.304001
 20
9.857092
 30
0.0
 10
79.890905
 20
9.905493
 30
0.0
  0
SPLINE
  5
111
100
AcDbEntity
  8
VISIBLE__ISO_
 62
3
100
AcDbSpline
 70
8
 71
3
 72
8
 73
4
 74
0
 40
0
 40
0
 40
0
 40
0
 40
1
 40
1
 40
1
 40
1
 10
79.890905
 20
9.905493
 30
0.0
 10
81.073368
 20
10.003029
 30
0.0
 10
82.837243
 20
9.541427
 30
0.0
 10
83.923996
 20
8.361766
 30
0.0
  0
SPLINE
  5
112
100
AcDbEntity
  8
VISIBLE__ISO_
 62
3
100
AcDbSpline
 70
8
 71
3
 72
8
 73
4
 74
0
 40
0
 40
0
 40
0
 40
0
 40
1
 40
1
 40
1
 40
1
 10
83.923996
 20
8.361766
 30
0.0
 10
84.631177
 20
7.594065
 30
0.0
 10
84.996658
 20
6.604679
 30
0.0
 10
85.179620
 20
5.756798
 30
0.0
  0
SPLINE
  5
113
100
AcDbEntity
  8
VISIBLE__ISO_
 62
3
100
AcDbSpline
 70
8
 71
3
 72
8
 73
4
 74
0
 40
0
 40
0
 40
0
 40
0
 40
1
 40
1
 40
1
 40
1
 10
85.179620
 20
5.756798
 30
0.0
 10
85.359550
 20
4.922973
 30
0.0
 10
85.170278
 20
4.285518
 30
0.0
 10
85.842444
 20
3.540959
 30
0.0
  0
SPLINE
  5
114
100
AcDbEntity
  8
VISIBLE__ISO_
 62
3
100
AcDbSpline
 70
8
 71
3
 72
8
 73
4
 74
0
 40
0
 40
0
 40
0
 40
0
 40
1
 40
1
 40
1
 40
1
 10
85.842444
 20
3.540959
 30
0.0
 10
86.580178
 20
2.926759
 30
0.0
 10
87.655761
 20
2.970306
 30
0.0
 10
87.655761
 20
2.970306
 30
0.0
  0
LWPOLYLINE
  5
115
100
AcDbEntity
  8
VISIBLE__ISO_
 62
3
100
AcDbPolyline
 90
2
 70
0
 10
3.007264
 20
48.521469
 30
0.0
 10
3.007264
 20
11.887004
 30
0.0
  0
SPLINE
  5
116
100
AcDbEntity
  8
VISIBLE__ISO_
 62
3
100
AcDbSpline
 70
8
 71
3
 72
8
 73
4
 74
0
 40
0
 40
0
 40
0
 40
0
 40
1
 40
1
 40
1
 40
1
 10
148.708375
 20
2.970306
 30
0.0
 10
148.708375
 20
2.970306
 30
0.0
 10
149.538346
 20
3.138369
 30
0.0
 10
149.936841
 20
3.615437
 30
0.0
  0
SPLINE
  5
117
100
AcDbEntity
  8
VISIBLE__ISO_
 62
3
100
AcDbSpline
 70
8
 71
3
 72
8
 73
4
 74
0
 40
0
 40
0
 40
0
 40
0
 40
1
 40
1
 40
1
 40
1
 10
149.936841
 20
3.615437
 30
0.0
 10
150.255772
 20
3.997284
 30
0.0
 10
150.578651
 20
4.605416
 30
0.0
 10
150.539490
 20
5.389543
 30
0.0
  0
SPLINE
  5
118
100
AcDbEntity
  8
VISIBLE__ISO_
 62
3
100
AcDbSpline
 70
8
 71
3
 72
8
 73
4
 74
0
 40
0
 40
0
 40
0
 40
0
 40
1
 40
1
 40
1
 40
1
 10
150.539490
 20
5.389543
 30
0.0
 10
150.490894
 20
6.362278
 30
0.0
 10
151.178601
 20
7.797180
 30
0.0
 10
152.048916
 20
8.574505
 30
0.0
  0
SPLINE
  5
119
100
AcDbEntity
  8
VISIBLE__ISO_
 62
3
100
AcDbSpline
 70
8
 71
3
 72
8
 73
4
 74
0
 40
0
 40
0
 40
0
 40
0
 40
1
 40
1
 40
1
 40
1
 10
152.048916
 20
8.574505
 30
0.0
 10
152.782843
 20
9.230023
 30
0.0
 10
154.108585
 20
9.832849
 30
0.0
 10
155.430186
 20
9.859406
 30
0.0
  0
SPLINE
  5
11a
100
AcDbEntity
  8
VISIBLE__ISO_
 62
3
100
AcDbSpline
 70
8
 71
3
 72
8
 73
4
 74
0
 40
0
 40
0
 40
0
 40
0
 40
1
 40
1
 40
1
 40
1
 10
155.430186
 20
9.859406
 30
0.0
 10
155.873162
 20
9.868438
 30
0.0
 10
156.736734
 20
10.229118
 30
0.0
 10
157.060530
 20
10.731304
 30
0.0
  0
SPLINE
  5
11b
100
AcDbEntity
  8
VISIBLE__ISO_
 62
3
100
AcDbSpline
 70
8
 71
3
 72
8
 73
4
 74
0
 40
0
 40
0
 40
0
 40
0
 40
1
 40
1
 40
1
 40
1
 10
157.060530
 20
10.731304
 30
0.0
 10
157.364715
 20
11.202982
 30
0.0
 10
157.422511
 20
11.550708
 30
0.0
 10
157.445690
 20
11.873288
 30
0.0
  0
SPLINE
  5
11c
100
AcDbEntity
  8
VISIBLE__ISO_
 62
3
100
AcDbSpline
 70
8
 71
3
 72
8
 73
4
 74
0
 40
0
 40
0
 40
0
 40
0
 40
1
 40
1
 40
1
 40
1
 10
157.445690
 20
11.873288
 30
0.0
 10
157.468861
 20
12.195811
 30
0.0
 10
157.445690
 20
48.590591
 30
0.0
 10
157.445690
 20
48.590591
 30
0.0
  0
LWPOLYLINE
  5
11d
100
AcDbEntity
  8
VISIBLE__ISO_
 62
3
100
AcDbPolyline
 90
2
 70
0
 10
87.655761
 20
2.970306
 30
0.0
 10
148.708375
 20
2.970306
 30
0.0
  0
SPLINE
  5
11e
100
AcDbEntity
  8
VISIBLE__ISO_
 62
3
100
AcDbSpline
 70
8
 71
3
 72
8
 73
4
 74
0
 40
0
 40
0
 40
0
 40
0
 40
1
 40
1
 40
1
 40
1
 10
155.685151
 20
50.963769
 30
0.0
 10
155.685151
 20
50.963769
 30
0.0
 10
155.023738
 20
51.473214
 30
0.0
 10
154.519190
 20
51.478805
 30
0.0
  0
SPLINE
  5
11f
100
AcDbEntity
  8
VISIBLE__ISO_
 62
3
100
AcDbSpline
 70
8
 71
3
 72
8
 73
4
 74
0
 40
0
 40
0
 40
0
 40
0
 40
1
 40
1
 40
1
 40
1
 10
154.519190
 20
51.478805
 30
0.0
 10
153.883521
 20
51.590294
 30
0.0
 10
153.217767
 20
51.055689
 30
0.0
 10
152.865551
 20
50.913494
 30
0.0
  0
SPLINE
  5
120
100
AcDbEntity
  8
VISIBLE__ISO_
 62
3
100
AcDbSpline
 70
8
 71
3
 72
8
 73
4
 74
0
 40
0
 40
0
 40
0
 40
0
 40
1
 40
1
 40
1
 40
1
 10
152.865551
 20
50.913494
 30
0.0
 10
150.650598
 20
50.019307
 30
0.0
 10
149.944636
 20
50.021280
 30
0.0
 10
148.453413
 20
50.549038
 30
0.0
  0
SPLINE
  5
121
100
AcDbEntity
  8
VISIBLE__ISO_
 62
3
100
AcDbSpline
 70
8
 71
3
 72
8
 73
4
 74
0
 40
0
 40
0
 40
0
 40
0
 40
1
 40
1
 40
1
 40
1
 10
148.453413
 20
50.549038
 30
0.0
 10
147.261275
 20
50.970941
 30
0.0
 10
146.139690
 20
52.190386
 30
0.0
 10
145.811040
 20
53.014376
 30
0.0
  0
SPLINE
  5
122
100
AcDbEntity
  8
VISIBLE__ISO_
 62
3
100
AcDbSpline
 70
8
 71
3
 72
8
 73
4
 74
0
 40
0
 40
0
 40
0
 40
0
 40
1
 40
1
 40
1
 40
1
 10
145.811040
 20
53.014376
 30
0.0
 10
145.115195
 20
54.758989
 30
0.0
 10
145.531504
 20
55.563193
 30
0.0
 10
144.976610
 20
56.286136
 30
0.0
  0
SPLINE
  5
123
100
AcDbEntity
  8
VISIBLE__ISO_
 62
3
100
AcDbSpline
 70
8
 71
3
 72
8
 73
4
 74
0
 40
0
 40
0
 40
0
 40
0
 40
1
 40
1
 40
1
 40
1
 10
144.976610
 20
56.286136
 30
0.0
 10
144.229774
 20
57.259151
 30
0.0
 10
143.609066
 20
57.173194
 30
0.0
 10
143.354100
 20
57.196238
 30
0.0
  0
SPLINE
  5
124
100
AcDbEntity
  8
VISIBLE__ISO_
 62
3
100
AcDbSpline
 70
8
 71
3
 72
8
 73
4
 74
0
 40
0
 40
0
 40
0
 40
0
 40
1
 40
1
 40
1
 40
1
 10
143.354100
 20
57.196238
 30
0.0
 10
143.099135
 20
57.219267
 30
0.0
 10
87.145831
 20
57.196238
 30
0.0
 10
87.145831
 20
57.196238
 30
0.0
  0
SPLINE
  5
125
100
AcDbEntity
  8
VISIBLE__ISO_
 62
3
100
AcDbSpline
 70
8
 71
3
 72
8
 73
4
 74
0
 40
0
 40
0
 40
0
 40
0
 40
1
 40
1
 40
1
 40
1
 10
87.145831
 20
57.196238
 30
0.0
 10
87.162426
 20
57.218618
 30
0.0
 10
86.413196
 20
57.176059
 30
0.0
 10
85.836235
 20
56.597179
 30
0.0
  0
SPLINE
  5
126
100
AcDbEntity
  8
VISIBLE__ISO_
 62
3
100
AcDbSpline
 70
8
 71
3
 72
8
 73
4
 74
0
 40
0
 40
0
 40
0
 40
0
 40
1
 40
1
 40
1
 40
1
 10
85.836235
 20
56.597179
 30
0.0
 10
85.497837
 20
56.257651
 30
0.0
 10
85.175643
 20
55.525796
 30
0.0
 10
85.245177
 20
54.995864
 30
0.0
  0
SPLINE
  5
127
100
AcDbEntity
  8
VISIBLE__ISO_
 62
3
100
AcDbSpline
 70
8
 71
3
 72
8
 73
4
 74
0
 40
0
 40
0
 40
0
 40
0
 40
1
 40
1
 40
1
 40
1
 10
85.245177
 20
54.995864
 30
0.0
 10
84.897499
 20
53.031657
 30
0.0
 10
84.775779
 20
53.027477
 30
0.0
 10
83.968023
 20
51.913348
 30
0.0
  0
SPLINE
  5
128
100
AcDbEntity
  8
VISIBLE__ISO_
 62
3
100
AcDbSpline
 70
8
 71
3
 72
8
 73
4
 74
0
 40
0
 40
0
 40
0
 40
0
 40
1
 40
1
 40
1
 40
1
 10
83.968023
 20
51.913348
 30
0.0
 10
83.438896
 20
51.157633
 30
0.0
 10
81.682257
 20
50.200635
 30
0.0
 10
80.169052
 20
50.249510
 30
0.0
  0
SPLINE
  5
129
100
AcDbEntity
  8
VISIBLE__ISO_
 62
3
100
AcDbSpline
 70
8
 71
3
 72
8
 73
4
 74
0
 40
0
 40
0
 40
0
 40
0
 40
1
 40
1
 40
1
 40
1
 10
80.169052
 20
50.249510
 30
0.0
 10
78.247119
 20
50.311588
 30
0.0
 10
76.666691
 20
51.471129
 30
0.0
 10
75.904175
 20
52.750704
 30
0.0
  0
SPLINE
  5
12a
100
AcDbEntity
  8
VISIBLE__ISO_
 62
3
100
AcDbSpline
 70
8
 71
3
 72
8
 73
4
 74
0
 40
0
 40
0
 40
0
 40
0
 40
1
 40
1
 40
1
 40
1
 10
75.904175
 20
52.750704
 30
0.0
 10
74.928707
 20
54.387624
 30
0.0
 10
75.388614
 20
55.430881
 30
0.0
 10
75.046569
 20
56.032689
 30
0.0
  0
SPLINE
  5
12b
100
AcDbEntity
  8
VISIBLE__ISO_
 62
3
100
AcDbSpline
 70
8
 71
3
 72
8
 73
4
 74
0
 40
0
 40
0
 40
0
 40
0
 40
1
 40
1
 40
1
 40
1
 10
75.046569
 20
56.032689
 30
0.0
 10
74.621161
 20
56.781168
 30
0.0
 10
73.864453
 20
57.196238
 30
0.0
 10
73.331344
 20
57.196238
 30
0.0
  0
SPLINE
  5
12c
100
AcDbEntity
  8
VISIBLE__ISO_
 62
3
100
AcDbSpline
 70
8
 71
3
 72
8
 73
4
 74
0
 40
0
 40
0
 40
0
 40
0
 40
1
 40
1
 40
1
 40
1
 10
73.331344
 20
57.196238
 30
0.0
 10
72.798234
 20
57.196238
 30
0.0
 10
17.169431
 20
57.196243
 30
0.0
 10
17.169431
 20
57.196238
 30
0.0
  0
LWPOLYLINE
  5
12d
100
AcDbEntity
  8
VISIBLE__ISO_
 62
3
100
AcDbPolyline
 90
2
 70
0
 10
157.445690
 20
48.590591
 30
0.0
 10
155.685151
 20
50.963769
 30
0.0
  0
SPLINE
  5
12e
100
AcDbEntity
  8
VISIBLE__ISO_
 62
7
100
AcDbSpline
 70
8
 71
3
 72
8
 73
4
 74
0
 40
0
 40
0
 40
0
 40
0
 40
1
 40
1
 40
1
 40
1
 10
26.200154
 20
13.633421
 30
0.0
 10
26.200154
 20
11.281892
 30
0.0
 10
24.938108
 20
9.108989
 30
0.0
 10
22.889416
 20
7.933224
 30
0.0
  0
SPLINE
  5
12f
100
AcDbEntity
  8
VISIBLE__ISO_
 62
7
100
AcDbSpline
 70
8
 71
3
 72
8
 73
4
 74
0
 40
0
 40
0
 40
0
 40
0
 40
1
 40
1
 40
1
 40
1
 10
22.889416
 20
7.933224
 30
0.0
 10
20.840724
 20
6.757459
 30
0.0
 10
18.316631
 20
6.757459
 30
0.0
 10
16.267939
 20
7.933224
 30
0.0
  0
SPLINE
  5
130
100
AcDbEntity
  8
VISIBLE__ISO_
 62
7
100
AcDbSpline
 70
8
 71
3
 72
8
 73
4
 74
0
 40
0
 40
0
 40
0
 40
0
 40
1
 40
1
 40
1
 40
1
 10
16.267939
 20
7.933224
 30
0.0
 10
14.219247
 20
9.108989
 30
0.0
 10
12.957200
 20
11.281892
 30
0.0
 10
12.957200
 20
13.633421
 30
0.0
  0
SPLINE
  5
131
100
AcDbEntity
  8
VISIBLE__ISO_
 62
7
100
AcDbSpline
 70
8
 71
3
 72
8
 73
4
 74
0
 40
0
 40
0
 40
0
 40
0
 40
1
 40
1
 40
1
 40
1
 10
12.957200
 20
13.633421
 30
0.0
 10
12.957200
 20
15.984951
 30
0.0
 10
14.219247
 20
18.157854
 30
0.0
 10
16.267939
 20
19.333618
 30
0.0
  0
SPLINE
  5
132
100
AcDbEntity
  8
VISIBLE__ISO_
 62
7
100
AcDbSpline
 70
8
 71
3
 72
8
 73
4
 74
0
 40
0
 40
0
 40
0
 40
0
 40
1
 40
1
 40
1
 40
1
 10
16.267939
 20
19.333618
 30
0.0
 10
18.316631
 20
20.509383
 30
0.0
 10
20.840724
 20
20.509383
 30
0.0
 10
22.889416
 20
19.333618
 30
0.0
  0
SPLINE
  5
133
100
AcDbEntity
  8
VISIBLE__ISO_
 62
7
100
AcDbSpline
 70
8
 71
3
 72
8
 73
4
 74
0
 40
0
 40
0
 40
0
 40
0
 40
1
 40
1
 40
1
 40
1
 10
22.889416
 20
19.333618
 30
0.0
 10
24.938108
 20
18.157854
 30
0.0
 10
26.200154
 20
15.984951
 30
0.0
 10
26.200154
 20
13.633421
 30
0.0
  0
LWPOLYLINE
  5
134
100
AcDbEntity
  8
VISIBLE__ISO_
 62
3
100
AcDbPolyline
 90
2
 70
0
 10
17.169431
 20
57.196238
 30
0.0
 10
17.169431
 20
57.196238
 30
0.0
  0
SPLINE
  5
135
100
AcDbEntity
  8
VISIBLE__ISO_
 62
3
100
AcDbSpline
 70
8
 71
3
 72
8
 73
4
 74
0
 40
0
 40
0
 40
0
 40
0
 40
1
 40
1
 40
1
 40
1
 10
22.366111
 20
55.329583
 30
0.0
 10
21.422684
 20
55.329583
 30
0.0
 10
20.655139
 20
54.570857
 30
0.0
 10
20.655139
 20
53.627431
 30
0.0
  0
LWPOLYLINE
  5
136
100
AcDbEntity
  8
VISIBLE__ISO_
 62
7
100
AcDbPolyline
 90
2
 70
0
 10
26.200154
 20
13.633421
 30
0.0
 10
26.200154
 20
13.633421
 30
0.0
  0
SPLINE
  5
137
100
AcDbEntity
  8
VISIBLE__ISO_
 62
3
100
AcDbSpline
 70
8
 71
3
 72
8
 73
4
 74
0
 40
0
 40
0
 40
0
 40
0
 40
1
 40
1
 40
1
 40
1
 10
12.497153
 20
22.635903
 30
0.0
 10
11.553725
 20
22.635903
 30
0.0
 10
10.786181
 20
21.877177
 30
0.0
 10
10.786181
 20
20.933750
 30
0.0
  0
LWPOLYLINE
  5
138
100
AcDbEntity
  8
VISIBLE__ISO_
 62
3
100
AcDbPolyline
 90
3
 70
0
 10
20.655139
 20
53.627431
 30
0.0
 10
20.655139
 20
22.635903
 30
0.0
 10
12.497153
 20
22.635903
 30
0.0
  0
SPLINE
  5
139
100
AcDbEntity
  8
VISIBLE__ISO_
 62
3
100
AcDbSpline
 70
8
 71
3
 72
8
 73
4
 74
0
 40
0
 40
0
 40
0
 40
0
 40
1
 40
1
 40
1
 40
1
 10
10.786181
 20
6.372861
 30
0.0
 10
10.786181
 20
5.429421
 30
0.0
 10
11.553725
 20
4.670694
 30
0.0
 10
12.497153
 20
4.670694
 30
0.0
  0
LWPOLYLINE
  5
13a
100
AcDbEntity
  8
VISIBLE__ISO_
 62
3
100
AcDbPolyline
 90
2
 70
0
 10
10.786181
 20
20.933750
 30
0.0
 10
10.786181
 20
6.372861
 30
0.0
  0
SPLINE
  5
13b
100
AcDbEntity
  8
VISIBLE__ISO_
 62
3
100
AcDbSpline
 70
8
 71
3
 72
8
 73
4
 74
0
 40
0
 40
0
 40
0
 40
0
 40
1
 40
1
 40
1
 40
1
 10
70.211597
 20
4.670694
 30
0.0
 10
71.155024
 20
4.670694
 30
0.0
 10
71.913750
 20
5.429392
 30
0.0
 10
71.913750
 20
6.372861
 30
0.0
  0
LWPOLYLINE
  5
13c
100
AcDbEntity
  8
VISIBLE__ISO_
 62
3
100
AcDbPolyline
 90
4
 70
0
 10
12.497153
 20
4.670694
 30
0.0
 10
22.366111
 20
4.670694
 30
0.0
 10
24.024167
 20
4.670694
 30
0.0
 10
70.211597
 20
4.670694
 30
0.0
  0
SPLINE
  5
13d
100
AcDbEntity
  8
VISIBLE__ISO_
 62
3
100
AcDbSpline
 70
8
 71
3
 72
8
 73
4
 74
0
 40
0
 40
0
 40
0
 40
0
 40
1
 40
1
 40
1
 40
1
 10
71.913750
 20
53.627431
 30
0.0
 10
71.913750
 20
54.570857
 30
0.0
 10
71.155024
 20
55.329583
 30
0.0
 10
70.211597
 20
55.329583
 30
0.0
  0
LWPOLYLINE
  5
13e
100
AcDbEntity
  8
VISIBLE__ISO_
 62
3
100
AcDbPolyline
 90
2
 70
0
 10
71.913750
 20
6.372861
 30
0.0
 10
71.913750
 20
53.627431
 30
0.0
  0
LWPOLYLINE
  5
13f
100
AcDbEntity
  8
VISIBLE__ISO_
 62
3
100
AcDbPolyline
 90
3
 70
0
 10
70.211597
 20
55.329583
 30
0.0
 10
22.366111
 20
55.329583
 30
0.0
 10
22.366111
 20
55.329583
 30
0.0
  0
LWPOLYLINE
  5
140
100
AcDbEntity
  8
VISIBLE__ISO_
 62
7
100
AcDbPolyline
 90
8
 70
0
 10
56.444444
 20
54.367900
 30
0.0
 10
53.622222
 20
51.545678
 30
0.0
 10
55.315556
 20
51.545678
 30
0.0
 10
55.315556
 20
50.134566
 30
0.0
 10
57.573333
 20
50.134566
 30
0.0
 10
57.573333
 20
51.545678
 30
0.0
 10
59.266667
 20
51.545678
 30
0.0
 10
56.444444
 20
54.367900
 30
0.0
  0
LWPOLYLINE
  5
141
100
AcDbEntity
  8
VISIBLE__ISO_
 62
7
100
AcDbPolyline
 90
4
 70
0
 10
55.315556
 20
49.570122
 30
0.0
 10
57.573333
 20
49.570122
 30
0.0
 10
56.444444
 20
48.441233
 30
0.0
 10
55.315556
 20
49.570122
 30
0.0
  0
LWPOLYLINE
  5
142
100
AcDbEntity
  8
VISIBLE__ISO_
 62
7
100
AcDbPolyline
 90
8
 70
0
 10
64.066705
 20
48.055878
 30
0.0
 10
61.244483
 20
50.878101
 30
0.0
 10
61.244483
 20
49.184767
 30
0.0
 10
58.422261
 20
49.184767
 30
0.0
 10
58.422261
 20
46.926990
 30
0.0
 10
61.244483
 20
46.926990
 30
0.0
 10
61.244483
 20
45.233656
 30
0.0
 10
64.066705
 20
48.055878
 30
0.0
  0
LWPOLYLINE
  5
143
100
AcDbEntity
  8
VISIBLE__ISO_
 62
7
100
AcDbPolyline
 90
4
 70
0
 10
57.857816
 20
49.184767
 30
0.0
 10
57.857816
 20
46.926990
 30
0.0
 10
56.794081
 20
48.057422
 30
0.0
 10
57.857816
 20
49.184767
 30
0.0
  0
LWPOLYLINE
  5
144
100
AcDbEntity
  8
VISIBLE__ISO_
 62
7
100
AcDbPolyline
 90
8
 70
0
 10
26.003038
 20
48.055878
 30
0.0
 10
28.825261
 20
50.878101
 30
0.0
 10
28.825261
 20
49.184767
 30
0.0
 10
31.647483
 20
49.184767
 30
0.0
 10
31.647483
 20
46.926990
 30
0.0
 10
28.825261
 20
46.926990
 30
0.0
 10
28.825261
 20
45.233656
 30
0.0
 10
26.003038
 20
48.055878
 30
0.0
  0
LWPOLYLINE
  5
145
100
AcDbEntity
  8
VISIBLE__ISO_
 62
7
100
AcDbPolyline
 90
4
 70
0
 10
32.211927
 20
49.184767
 30
0.0
 10
32.211927
 20
46.926990
 30
0.0
 10
33.275662
 20
48.057422
 30
0.0
 10
32.211927
 20
49.184767
 30
0.0
  0
LWPOLYLINE
  5
146
100
AcDbEntity
  8
VISIBLE__ISO_
 62
7
100
AcDbPolyline
 90
8
 70
0
 10
56.444444
 20
22.913615
 30
0.0
 10
53.622222
 20
25.735837
 30
0.0
 10
55.315556
 20
25.735837
 30
0.0
 10
55.315556
 20
27.146948
 30
0.0
 10
57.573333
 20
27.146948
 30
0.0
 10
57.573333
 20
25.735837
 30
0.0
 10
59.266667
 20
25.735837
 30
0.0
 10
56.444444
 20
22.913615
 30
0.0
  0
LWPOLYLINE
  5
147
100
AcDbEntity
  8
VISIBLE__ISO_
 62
7
100
AcDbPolyline
 90
4
 70
0
 10
55.315556
 20
27.711393
 30
0.0
 10
57.573333
 20
27.711393
 30
0.0
 10
56.444444
 20
28.840282
 30
0.0
 10
55.315556
 20
27.711393
 30
0.0
  0
LWPOLYLINE
  5
148
100
AcDbEntity
  8
VISIBLE__ISO_
 62
7
100
AcDbPolyline
 90
8
 70
0
 10
56.444444
 20
6.794360
 30
0.0
 10
53.622222
 20
9.616582
 30
0.0
 10
55.315556
 20
9.616582
 30
0.0
 10
55.315556
 20
11.027694
 30
0.0
 10
57.573333
 20
11.027694
 30
0.0
 10
57.573333
 20
9.616582
 30
0.0
 10
59.266667
 20
9.616582
 30
0.0
 10
56.444444
 20
6.794360
 30
0.0
  0
LWPOLYLINE
  5
149
100
AcDbEntity
  8
VISIBLE__ISO_
 62
7
100
AcDbPolyline
 90
4
 70
0
 10
55.315556
 20
11.592138
 30
0.0
 10
57.573333
 20
11.592138
 30
0.0
 10
56.444444
 20
12.721027
 30
0.0
 10
55.315556
 20
11.592138
 30
0.0
  0
LWPOLYLINE
  5
14a
100
AcDbEntity
  8
VISIBLE__ISO_
 62
7
100
AcDbPolyline
 90
4
 70
0
 10
55.315556
 20
13.302743
 30
0.0
 10
57.573333
 20
13.302743
 30
0.0
 10
56.444444
 20
14.431632
 30
0.0
 10
55.315556
 20
13.302743
 30
0.0
  0
SPLINE
  5
14b
100
AcDbEntity
  8
VISIBLE__ISO_
 62
3
100
AcDbSpline
 70
8
 71
3
 72
8
 73
4
 74
0
 40
0
 40
0
 40
0
 40
0
 40
1
 40
1
 40
1
 40
1
 10
135.412194
 20
30.136873
 30
0.0
 10
135.412194
 20
24.078826
 30
0.0
 10
132.180264
 20
18.480960
 30
0.0
 10
126.933842
 20
15.451936
 30
0.0
  0
SPLINE
  5
14c
100
AcDbEntity
  8
VISIBLE__ISO_
 62
3
100
AcDbSpline
 70
8
 71
3
 72
8
 73
4
 74
0
 40
0
 40
0
 40
0
 40
0
 40
1
 40
1
 40
1
 40
1
 10
126.933842
 20
15.451936
 30
0.0
 10
121.687419
 20
12.422913
 30
0.0
 10
115.223560
 20
12.422913
 30
0.0
 10
109.977137
 20
15.451936
 30
0.0
  0
SPLINE
  5
14d
100
AcDbEntity
  8
VISIBLE__ISO_
 62
3
100
AcDbSpline
 70
8
 71
3
 72
8
 73
4
 74
0
 40
0
 40
0
 40
0
 40
0
 40
1
 40
1
 40
1
 40
1
 10
109.977137
 20
15.451936
 30
0.0
 10
104.730714
 20
18.480960
 30
0.0
 10
101.498785
 20
24.078826
 30
0.0
 10
101.498785
 20
30.136873
 30
0.0
  0
SPLINE
  5
14e
100
AcDbEntity
  8
VISIBLE__ISO_
 62
3
100
AcDbSpline
 70
8
 71
3
 72
8
 73
4
 74
0
 40
0
 40
0
 40
0
 40
0
 40
1
 40
1
 40
1
 40
1
 10
101.498785
 20
30.136873
 30
0.0
 10
101.498785
 20
36.194920
 30
0.0
 10
104.730714
 20
41.792787
 30
0.0
 10
109.977137
 20
44.821810
 30
0.0
  0
SPLINE
  5
14f
100
AcDbEntity
  8
VISIBLE__ISO_
 62
3
100
AcDbSpline
 70
8
 71
3
 72
8
 73
4
 74
0
 40
0
 40
0
 40
0
 40
0
 40
1
 40
1
 40
1
 40
1
 10
109.977137
 20
44.821810
 30
0.0
 10
115.223560
 20
47.850834
 30
0.0
 10
121.687419
 20
47.850834
 30
0.0
 10
126.933842
 20
44.821810
 30
0.0
  0
SPLINE
  5
150
100
AcDbEntity
  8
VISIBLE__ISO_
 62
3
100
AcDbSpline
 70
8
 71
3
 72
8
 73
4
 74
0
 40
0
 40
0
 40
0
 40
0
 40
1
 40
1
 40
1
 40
1
 10
126.933842
 20
44.821810
 30
0.0
 10
132.180264
 20
41.792787
 30
0.0
 10
135.412194
 20
36.194920
 30
0.0
 10
135.412194
 20
30.136873
 30
0.0
  0
LWPOLYLINE
  5
151
100
AcDbEntity
  8
VISIBLE__ISO_
 62
7
100
AcDbPolyline
 90
13
 70
0
 10
27.960983
 20
14.194820
 30
0.0
 10
29.344936
 20
15.578764
 30
0.0
 10
29.344936
 20
14.111112
 30
0.0
 10
30.756047
 20
15.522229
 30
0.0
 10
30.756047
 20
14.111112
 30
0.0
 10
32.167158
 20
15.522229
 30
0.0
 10
32.167158
 20
14.111112
 30
0.0
 10
33.578269
 20
15.522229
 30
0.0
 10
33.578269
 20
14.111112
 30
0.0
 10
34.142714
 20
14.111112
 30
0.0
 10
33.578269
 20
13.546668
 30
0.0
 10
28.498269
 20
13.546668
 30
0.0
 10
27.960983
 20
14.194820
 30
0.0
  0
LWPOLYLINE
  5
152
100
AcDbEntity
  8
VISIBLE__ISO_
 62
3
100
AcDbPolyline
 90
2
 70
0
 10
135.412194
 20
30.136873
 30
0.0
 10
135.412194
 20
30.136873
 30
0.0
  0
LWPOLYLINE
  5
153
100
AcDbEntity
  8
VISIBLE__ISO_
 62
7
100
AcDbPolyline
 90
4
 70
0
 10
111.823266
 20
49.128918
 30
0.0
 10
111.823266
 20
51.668918
 30
0.0
 10
113.234377
 20
49.128918
 30
0.0
 10
113.234377
 20
51.668918
 30
0.0
  0
LWPOLYLINE
  5
154
100
AcDbEntity
  8
VISIBLE__ISO_
 62
7
100
AcDbPolyline
 90
35
 70
0
 10
114.081044
 20
50.257807
 30
0.0
 10
114.081044
 20
49.693363
 30
0.0
 10
114.091889
 20
49.583245
 30
0.0
 10
114.124009
 20
49.477359
 30
0.0
 10
114.176170
 20
49.379774
 30
0.0
 10
114.246365
 20
49.294240
 30
0.0
 10
114.331899
 20
49.224044
 30
0.0
 10
114.429484
 20
49.171884
 30
0.0
 10
114.535370
 20
49.139764
 30
0.0
 10
114.645488
 20
49.128918
 30
0.0
 10
114.755606
 20
49.139764
 30
0.0
 10
114.861492
 20
49.171884
 30
0.0
 10
114.959077
 20
49.224044
 30
0.0
 10
115.044610
 20
49.294240
 30
0.0
 10
115.114806
 20
49.379774
 30
0.0
 10
115.166967
 20
49.477359
 30
0.0
 10
115.199087
 20
49.583245
 30
0.0
 10
115.209932
 20
49.693363
 30
0.0
 10
115.209932
 20
50.257807
 30
0.0
 10
115.199087
 20
50.367925
 30
0.0
 10
115.166967
 20
50.473811
 30
0.0
 10
115.114806
 20
50.571396
 30
0.0
 10
115.044610
 20
50.656930
 30
0.0
 10
114.959077
 20
50.727126
 30
0.0
 10
114.861492
 20
50.779286
 30
0.0
 10
114.755606
 20
50.811406
 30
0.0
 10
114.645488
 20
50.822252
 30
0.0
 10
114.535370
 20
50.811406
 30
0.0
 10
114.429484
 20
50.779286
 30
0.0
 10
114.331899
 20
50.727126
 30
0.0
 10
114.246365
 20
50.656930
 30
0.0
 10
114.176170
 20
50.571396
 30
0.0
 10
114.124009
 20
50.473811
 30
0.0
 10
114.091889
 20
50.367925
 30
0.0
 10
114.081044
 20
50.257807
 30
0.0
  0
LWPOLYLINE
  5
155
100
AcDbEntity
  8
VISIBLE__ISO_
 62
7
100
AcDbPolyline
 90
2
 70
0
 10
116.056599
 20
50.822252
 30
0.0
 10
116.903266
 20
50.822252
 30
0.0
  0
LWPOLYLINE
  5
156
100
AcDbEntity
  8
VISIBLE__ISO_
 62
7
100
AcDbPolyline
 90
2
 70
0
 10
116.338821
 20
51.668918
 30
0.0
 10
116.338821
 20
49.128918
 30
0.0
  0
LWPOLYLINE
  5
157
100
AcDbEntity
  8
VISIBLE__ISO_
 62
7
100
AcDbPolyline
 90
2
 70
0
 10
117.467710
 20
50.257807
 30
0.0
 10
118.596599
 20
50.257807
 30
0.0
  0
LWPOLYLINE
  5
158
100
AcDbEntity
  8
VISIBLE__ISO_
 62
7
100
AcDbPolyline
 90
3
 70
0
 10
119.725488
 20
49.128918
 30
0.0
 10
120.572155
 20
51.668918
 30
0.0
 10
121.418821
 20
49.128918
 30
0.0
  0
LWPOLYLINE
  5
159
100
AcDbEntity
  8
VISIBLE__ISO_
 62
7
100
AcDbPolyline
 90
2
 70
0
 10
119.960667
 20
49.834474
 30
0.0
 10
121.183642
 20
49.834474
 30
0.0
  0
LWPOLYLINE
  5
15a
100
AcDbEntity
  8
VISIBLE__ISO_
 62
7
100
AcDbPolyline
 90
12
 70
0
 10
121.983266
 20
50.822252
 30
0.0
 10
121.983266
 20
49.552252
 30
0.0
 10
121.991400
 20
49.469663
 30
0.0
 10
122.015490
 20
49.390249
 30
0.0
 10
122.054610
 20
49.317060
 30
0.0
 10
122.107257
 20
49.252910
 30
0.0
 10
122.171408
 20
49.200263
 30
0.0
 10
122.244596
 20
49.161143
 30
0.0
 10
122.324011
 20
49.137053
 30
0.0
 10
122.406599
 20
49.128918
 30
0.0
 10
123.112155
 20
49.128918
 30
0.0
 10
123.112155
 20
50.822252
 30
0.0
  0
LWPOLYLINE
  5
15b
100
AcDbEntity
  8
VISIBLE__ISO_
 62
7
100
AcDbPolyline
 90
20
 70
0
 10
125.087716
 20
50.663949
 30
0.0
 10
124.920918
 20
50.732647
 30
0.0
 10
124.745401
 20
50.774296
 30
0.0
 10
124.565522
 20
50.787864
 30
0.0
 10
124.385743
 20
50.773014
 30
0.0
 10
124.210528
 20
50.730114
 30
0.0
 10
124.152511
 20
50.704717
 30
0.0
 10
124.100229
 20
50.668955
 30
0.0
 10
124.055521
 20
50.624084
 30
0.0
 10
124.019951
 20
50.571671
 30
0.0
 10
123.994762
 20
50.513552
 30
0.0
 10
123.980837
 20
50.451759
 30
0.0
 10
123.978663
 20
50.388454
 30
0.0
 10
123.988314
 20
50.325851
 30
0.0
 10
124.009455
 20
50.266141
 30
0.0
 10
124.041345
 20
50.211411
 30
0.0
 10
124.082868
 20
50.163578
 30
0.0
 10
124.132573
 20
50.124313
 30
0.0
 10
124.188720
 20
50.094990
 30
0.0
 10
124.857821
 20
49.821799
 30
0.0
  0
LWPOLYLINE
  5
15c
100
AcDbEntity
  8
VISIBLE__ISO_
 62
7
100
AcDbPolyline
 90
14
 70
0
 10
124.835998
 20
49.186676
 30
0.0
 10
124.894024
 20
49.212077
 30
0.0
 10
124.946306
 20
49.247838
 30
0.0
 10
124.991013
 20
49.292710
 30
0.0
 10
125.026583
 20
49.345122
 30
0.0
 10
125.051770
 20
49.403241
 30
0.0
 10
125.065695
 20
49.465033
 30
0.0
 10
125.067868
 20
49.528338
 30
0.0
 10
125.058217
 20
49.590941
 30
0.0
 10
125.037076
 20
49.650651
 30
0.0
 10
125.005185
 20
49.705380
 30
0.0
 10
124.963662
 20
49.753213
 30
0.0
 10
124.913957
 20
49.792477
 30
0.0
 10
124.857810
 20
49.821798
 30
0.0
  0
LWPOLYLINE
  5
15d
100
AcDbEntity
  8
VISIBLE__ISO_
 62
7
100
AcDbPolyline
 90
6
 70
0
 10
123.958821
 20
49.252839
 30
0.0
 10
124.125619
 20
49.184142
 30
0.0
 10
124.301136
 20
49.142493
 30
0.0
 10
124.481015
 20
49.128926
 30
0.0
 10
124.660793
 20
49.143776
 30
0.0
 10
124.836008
 20
49.186676
 30
0.0
  0
LWPOLYLINE
  5
15e
100
AcDbEntity
  8
VISIBLE__ISO_
 62
7
100
AcDbPolyline
 90
36
 70
0
 10
18.869675
 20
30.391705
 30
0.0
 10
18.981349
 20
30.662140
 30
0.0
 10
19.049466
 20
30.946684
 30
0.0
 10
19.072358
 20
31.342794
 30
0.0
 10
19.062124
 20
31.345369
 30
0.0
 10
19.031793
 20
31.448487
 30
0.0
 10
18.982465
 20
31.543985
 30
0.0
 10
18.915928
 20
31.628400
 30
0.0
 10
18.834596
 20
31.698673
 30
0.0
 10
18.741417
 20
31.752253
 30
0.0
 10
18.639771
 20
31.787199
 30
0.0
 10
18.533344
 20
31.802243
 30
0.0
 10
18.425994
 20
31.796840
 30
0.0
 10
18.321615
 20
31.771185
 30
0.0
 10
18.223991
 20
31.726210
 30
0.0
 10
18.136664
 20
31.663544
 30
0.0
 10
18.062799
 20
31.585460
 30
0.0
 10
18.005075
 20
31.494790
 30
0.0
 10
17.599643
 20
30.699732
 30
0.0
 10
17.541918
 20
30.609062
 30
0.0
 10
17.468053
 20
30.530978
 30
0.0
 10
17.380726
 20
30.468312
 30
0.0
 10
17.283102
 20
30.423336
 30
0.0
 10
17.178723
 20
30.397682
 30
0.0
 10
17.071373
 20
30.392279
 30
0.0
 10
16.964946
 20
30.407323
 30
0.0
 10
16.863300
 20
30.442269
 30
0.0
 10
16.770121
 20
30.495849
 30
0.0
 10
16.688789
 20
30.566122
 30
0.0
 10
16.622252
 20
30.650537
 30
0.0
 10
16.572924
 20
30.746035
 30
0.0
 10
16.542593
 20
30.849153
 30
0.0
 10
16.532358
 20
31.060572
 30
0.0
 10
16.555251
 20
31.247837
 30
0.0
 10
16.623368
 20
31.532382
 30
0.0
 10
16.735042
 20
31.893128
 30
0.0
  0
LWPOLYLINE
  5
15f
100
AcDbEntity
  8
VISIBLE__ISO_
 62
7
100
AcDbPolyline
 90
2
 70
0
 10
17.379025
 20
32.649483
 30
0.0
 10
17.379025
 20
33.496150
 30
0.0
  0
LWPOLYLINE
  5
160
100
AcDbEntity
  8
VISIBLE__ISO_
 62
7
100
AcDbPolyline
 90
2
 70
0
 10
16.532358
 20
32.931705
 30
0.0
 10
19.072358
 20
32.931705
 30
0.0
  0
LWPOLYLINE
  5
161
100
AcDbEntity
  8
VISIBLE__ISO_
 62
7
100
AcDbPolyline
 90
29
 70
0
 10
18.225692
 20
34.060594
 30
0.0
 10
18.225692
 20
35.189483
 30
0.0
 10
17.943470
 20
35.189483
 30
0.0
 10
17.833352
 20
35.178637
 30
0.0
 10
17.727466
 20
35.146517
 30
0.0
 10
17.629881
 20
35.094357
 30
0.0
 10
17.544347
 20
35.024161
 30
0.0
 10
17.474151
 20
34.938627
 30
0.0
 10
17.421991
 20
34.841042
 30
0.0
 10
17.389871
 20
34.735156
 30
0.0
 10
17.379025
 20
34.625039
 30
0.0
 10
17.389871
 20
34.514921
 30
0.0
 10
17.421991
 20
34.409035
 30
0.0
 10
17.474151
 20
34.311450
 30
0.0
 10
17.544347
 20
34.225916
 30
0.0
 10
17.629881
 20
34.155720
 30
0.0
 10
17.727466
 20
34.103560
 30
0.0
 10
17.833352
 20
34.071440
 30
0.0
 10
17.943470
 20
34.060594
 30
0.0
 10
18.649025
 20
34.060594
 30
0.0
 10
18.731613
 20
34.068728
 30
0.0
 10
18.811028
 20
34.092819
 30
0.0
 10
18.884217
 20
34.131939
 30
0.0
 10
18.948367
 20
34.184586
 30
0.0
 10
19.001014
 20
34.248736
 30
0.0
 10
19.040134
 20
34.321925
 30
0.0
 10
19.064224
 20
34.401339
 30
0.0
 10
19.072358
 20
34.483928
 30
0.0
 10
19.072358
 20
35.189483
 30
0.0
  0
LWPOLYLINE
  5
162
100
AcDbEntity
  8
VISIBLE__ISO_
 62
7
100
AcDbPolyline
 90
12
 70
0
 10
17.379025
 20
36.036150
 30
0.0
 10
18.649025
 20
36.036150
 30
0.0
 10
18.731613
 20
36.044284
 30
0.0
 10
18.811028
 20
36.068374
 30
0.0
 10
18.884217
 20
36.107494
 30
0.0
 10
18.948367
 20
36.160141
 30
0.0
 10
19.001014
 20
36.224292
 30
0.0
 10
19.040134
 20
36.297480
 30
0.0
 10
19.064224
 20
36.376895
 30
0.0
 10
19.072358
 20
36.459483
 30
0.0
 10
19.072358
 20
37.165039
 30
0.0
 10
17.379025
 20
37.165039
 30
0.0
  0
LWPOLYLINE
  5
163
100
AcDbEntity
  8
VISIBLE__ISO_
 62
7
100
AcDbPolyline
 90
29
 70
0
 10
18.225692
 20
38.011705
 30
0.0
 10
18.225692
 20
39.140594
 30
0.0
 10
17.943470
 20
39.140594
 30
0.0
 10
17.833352
 20
39.129749
 30
0.0
 10
17.727466
 20
39.097628
 30
0.0
 10
17.629881
 20
39.045468
 30
0.0
 10
17.544347
 20
38.975272
 30
0.0
 10
17.474151
 20
38.889738
 30
0.0
 10
17.421991
 20
38.792153
 30
0.0
 10
17.389871
 20
38.686267
 30
0.0
 10
17.379025
 20
38.576150
 30
0.0
 10
17.389871
 20
38.466032
 30
0.0
 10
17.421991
 20
38.360146
 30
0.0
 10
17.474151
 20
38.262561
 30
0.0
 10
17.544347
 20
38.177027
 30
0.0
 10
17.629881
 20
38.106831
 30
0.0
 10
17.727466
 20
38.054671
 30
0.0
 10
17.833352
 20
38.022551
 30
0.0
 10
17.943470
 20
38.011705
 30
0.0
 10
18.649025
 20
38.011705
 30
0.0
 10
18.731613
 20
38.019840
 30
0.0
 10
18.811028
 20
38.043930
 30
0.0
 10
18.884217
 20
38.083050
 30
0.0
 10
18.948367
 20
38.135697
 30
0.0
 10
19.001014
 20
38.199847
 30
0.0
 10
19.040134
 20
38.273036
 30
0.0
 10
19.064224
 20
38.352450
 30
0.0
 10
19.072358
 20
38.435039
 30
0.0
 10
19.072358
 20
39.140594
 30
0.0
  0
LWPOLYLINE
  5
164
100
AcDbEntity
  8
VISIBLE__ISO_
 62
7
100
AcDbPolyline
 90
11
 70
0
 10
17.661247
 20
40.833928
 30
0.0
 10
17.606189
 20
40.828505
 30
0.0
 10
17.553246
 20
40.812445
 30
0.0
 10
17.504453
 20
40.786364
 30
0.0
 10
17.461686
 20
40.751267
 30
0.0
 10
17.426588
 20
40.708500
 30
0.0
 10
17.400508
 20
40.659707
 30
0.0
 10
17.384448
 20
40.606764
 30
0.0
 10
17.379025
 20
40.551705
 30
0.0
 10
17.379025
 20
39.987261
 30
0.0
 10
19.072358
 20
39.987261
 30
0.0
  0
LWPOLYLINE
  5
165
100
AcDbEntity
  8
VISIBLE__ISO_
 62
7
100
AcDbPolyline
 90
12
 70
0
 10
17.379025
 20
41.398372
 30
0.0
 10
18.649025
 20
41.398372
 30
0.0
 10
18.731613
 20
41.406506
 30
0.0
 10
18.811028
 20
41.430596
 30
0.0
 10
18.884217
 20
41.469716
 30
0.0
 10
18.948367
 20
41.522363
 30
0.0
 10
19.001014
 20
41.586514
 30
0.0
 10
19.040134
 20
41.659703
 30
0.0
 10
19.064224
 20
41.739117
 30
0.0
 10
19.072358
 20
41.821705
 30
0.0
 10
19.072358
 20
42.527261
 30
0.0
 10
17.379025
 20
42.527261
 30
0.0
  0
LWPOLYLINE
  5
166
100
AcDbEntity
  8
VISIBLE__ISO_
 62
7
100
AcDbPolyline
 90
12
 70
0
 10
19.072358
 20
44.502816
 30
0.0
 10
17.802358
 20
44.502816
 30
0.0
 10
17.719770
 20
44.494682
 30
0.0
 10
17.640356
 20
44.470592
 30
0.0
 10
17.567167
 20
44.431472
 30
0.0
 10
17.503017
 20
44.378825
 30
0.0
 10
17.450370
 20
44.314674
 30
0.0
 10
17.411249
 20
44.241486
 30
0.0
 10
17.387159
 20
44.162071
 30
0.0
 10
17.379025
 20
44.079483
 30
0.0
 10
17.379025
 20
43.373928
 30
0.0
 10
19.072358
 20
43.373928
 30
0.0
  0
LWPOLYLINE
  5
167
100
AcDbEntity
  8
VISIBLE__ISO_
 62
7
100
AcDbPolyline
 90
29
 70
0
 10
19.924929
 20
45.349483
 30
0.0
 10
19.916795
 20
46.137627
 30
0.0
 10
19.892705
 20
46.217041
 30
0.0
 10
19.853585
 20
46.290230
 30
0.0
 10
19.800938
 20
46.354380
 30
0.0
 10
19.736787
 20
46.407027
 30
0.0
 10
19.663598
 20
46.446148
 30
0.0
 10
19.584184
 20
46.470238
 30
0.0
 10
19.501596
 20
46.478372
 30
0.0
 10
17.384929
 20
46.478372
 30
0.0
 10
17.384929
 20
45.772816
 30
0.0
 10
17.393063
 20
45.690228
 30
0.0
 10
17.417154
 20
45.610814
 30
0.0
 10
17.456274
 20
45.537625
 30
0.0
 10
17.508921
 20
45.473475
 30
0.0
 10
17.573071
 20
45.420828
 30
0.0
 10
17.646260
 20
45.381707
 30
0.0
 10
17.725674
 20
45.357617
 30
0.0
 10
17.808262
 20
45.349483
 30
0.0
 10
18.654929
 20
45.349483
 30
0.0
 10
18.737517
 20
45.357617
 30
0.0
 10
18.816932
 20
45.381707
 30
0.0
 10
18.890121
 20
45.420828
 30
0.0
 10
18.954271
 20
45.473475
 30
0.0
 10
19.006918
 20
45.537625
 30
0.0
 10
19.046038
 20
45.610814
 30
0.0
 10
19.070128
 20
45.690228
 30
0.0
 10
19.078262
 20
45.772816
 30
0.0
 10
19.078262
 20
46.478372
 30
0.0
  0
ENDSEC
  0
SECTION
  2
OBJECTS
  0
DICTIONARY
  5
C
330
0
100
AcDbDictionary
  3
ACAD_GROUP
350
D
  3
ACAD_MLINESTYLE
350
17
  0
DICTIONARY
  5
D
330
C
100
AcDbDictionary
  0
DICTIONARY
  5
1A
330
C
100
AcDbDictionary
  0
DICTIONARY
  5
17
330
C
100
AcDbDictionary
  3
STANDARD
350
18
  0
DICTIONARY
  5
19
330
C
100
AcDbDictionary
  0
ENDSEC
  0
EOF
