<?xml version="1.0" encoding="UTF-8" standalone="no"?>
<!-- Created with Inkscape (http://www.inkscape.org/) -->

<svg
   xmlns:dc="http://purl.org/dc/elements/1.1/"
   xmlns:cc="http://creativecommons.org/ns#"
   xmlns:rdf="http://www.w3.org/1999/02/22-rdf-syntax-ns#"
   xmlns:svg="http://www.w3.org/2000/svg"
   xmlns="http://www.w3.org/2000/svg"
   xmlns:sodipodi="http://sodipodi.sourceforge.net/DTD/sodipodi-0.dtd"
   xmlns:inkscape="http://www.inkscape.org/namespaces/inkscape"
   width="210mm"
   height="297mm"
   id="svg3039"
   version="1.1"
   inkscape:version="0.48.4 r9939"
   sodipodi:docname="Zeichnung2.dxf">
  <sodipodi:namedview
     id="base"
     pagecolor="#ffffff"
     bordercolor="#666666"
     borderopacity="1.0"
     inkscape:pageopacity="0.0"
     inkscape:pageshadow="2"
     inkscape:zoom="3.959798"
     inkscape:cx="172.44816"
     inkscape:cy="66.652649"
     inkscape:document-units="px"
     inkscape:current-layer="layer1"
     showgrid="false"
     inkscape:window-width="1920"
     inkscape:window-height="1025"
     inkscape:window-x="-2"
     inkscape:window-y="-3"
     inkscape:window-maximized="1" />
  <defs
     id="defs3041" />
  <metadata
     id="metadata3044">
    <rdf:RDF>
      <cc:Work
         rdf:about="">
        <dc:format>image/svg+xml</dc:format>
        <dc:type
           rdf:resource="http://purl.org/dc/dcmitype/StillImage" />
        <dc:title></dc:title>
      </cc:Work>
    </rdf:RDF>
  </metadata>
  <g
     inkscape:label="Ebene 1"
     inkscape:groupmode="layer"
     id="layer1">
    <path
       id="rect3133"
       d="M14.03125 944.34375L0.0 964.28125L0.0 1052.375L285.71875 1052.375L285.71875 964.40625L271.59375 944.34375L14.03125 944.34375L14.03125 944.34375M30.53125 949.84375L30.75 949.84375L130.59375 949.84375L131.365776719 949.982636719L132.19680875 950.38859375L132.991936406 951.045566406L133.65625 951.9375L133.903295313 952.897851719L133.983925 954.18071375L134.275717187 955.810718906L134.618792383 956.76359791L135.15625 957.8125L136.434188125 959.460665469L138.1801 960.86349375L139.203089453 961.421977637L140.312524375 961.858012656L141.498222109 962.151227285L142.75 962.28125L144.807416875 962.044344531L146.7811225 961.33654125L148.426766875 960.358904844L149.5 959.3125L150.375400781 958.101594531L150.94737875 957.11705125L151.365979844 955.847419844L151.78125 953.78125L151.810500781 953.017557187L152.04051625 952.21604L152.84375 950.90625L153.641994375 950.297804219L154.395745 949.97172875L155.15625 949.84375L255.09375 949.84375L255.547484219 949.870303594L256.20330125 950.01906875L257.023092656 950.486424531L257.96875 951.46875L258.445358594 952.493417969L258.62477125 953.72097875L258.851173281 955.291175156L259.46875 957.34375L260.149620156 958.547870312L261.23678125 959.8165675L262.611801719 960.950418438L264.15625 961.75L265.9465775 962.270605469L267.59559 962.37562375L269.48587 962.003767656L272.0 961.09375L273.27976125 960.4079725L274.089776094 960.103741562L274.9375 960.0625L275.643099844 960.213203125L276.32077625 960.535L277.03125 961.0L280.15625 965.25L280.15625 1030.9062L279.9998575 1031.8374875L279.46875 1032.9688L278.88253125 1033.58960312L278.0950875 1034.080825L277.2679125 1034.40663438L276.5625 1034.5312L274.817196562 1034.74280937L273.1706775 1035.249975L271.720069688 1035.96807813L270.5625 1036.8125L269.477622969 1038.04303125L268.60607875 1039.52515L268.040870156 1041.07281875L267.875 1042.5L267.818100937 1043.49367969L267.582505 1044.3635625L266.8125 1045.6875L266.171800469 1046.22815781L265.45305875 1046.5856375L264.625 1046.8438L156.0625 1046.8438L154.94500125 1046.740125L153.900040469 1046.4371125L152.84375 1045.8125L152.199016094 1044.84030781L151.92181125 1043.8880375L151.65625 1041.8438L150.89639375 1039.461875L150.268878906 1038.28106562L149.4375 1037.1875L148.660136934 1036.45638203L147.794949219 1035.84313125L145.90756375 1034.95585L143.988271406 1034.49689375L142.25 1034.4375L141.319718438 1034.51649844L140.064895 1034.8201875L138.441686562 1035.64345781L136.40625 1037.2812L135.468603926 1038.38501035L134.853453281 1039.53212031L134.473231934 1040.69107324L134.24037375 1041.8304125L133.866482344 1043.92442344L133.550316855 1044.81618184L133.03125 1045.5625L132.171667031 1046.34206406L131.35311375 1046.7181375L130.5 1046.8438L21.4375 1046.8438L20.5450509219 1046.75829688L19.871877375 1046.452425L18.96875 1045.625L18.4948808379 1045.00015488L18.1947905781 1044.33812031L17.934260625 1042.9432875L17.8237878594 1041.52211094L17.5 1040.1562L16.4511285 1038.26957187L15.25724075 1036.8813L14.137857625 1035.95862813L13.3125 1035.4688L11.560926375 1034.7735375L10.5035354531 1034.56895469L9.09375 1034.4688L7.9141944625 1034.131275L6.6875 1033.4375L5.94780792969 1032.46557656L5.6237459375 1031.6594875L5.5625 1030.9062L5.5625 965.375L6.973276 963.29261625L8.116419875 961.722747969L9.0 960.71875L9.74563827656 960.296923125L10.5708694125 960.0822275L11.3606658422 960.052980625L12.0 960.1875L14.326368875 961.2340225L16.1420124844 961.869383438L17.875 962.1875L19.6593956094 962.086268594L21.420159375 961.61565375L23.1114684531 960.735649531L24.6875 959.40625L25.7927702813 957.98548875L26.58179275 956.42774L27.0486688438 954.84362125L27.1875 953.34375L27.2913992969 952.512504688L27.604182125 951.7962775L28.65625 950.5625L29.1548199531 950.205261719L29.678396875 949.99038375L30.53125 949.84375L30.53125 949.84375M18.1875 950.3125L19.40625 950.53125L20.4375 951.1875L21.125 952.21875L21.375 953.4375L21.28125 954.25L20.96875 955.0L20.46875 955.625L19.8125 956.125L19.0625 956.4375L18.25 956.53125L17.46875 956.4375L16.71875 956.125L16.0625 955.625L15.5625 955.0L15.25 954.25L15.15625 953.4375L15.34375 952.3125L15.9375 951.375L16.78125 950.6875L17.875 950.34375L18.1875 950.3125L18.1875 950.3125M142.75 950.3125L143.96875 950.53125L145.0 951.1875L145.6875 952.21875L145.9375 953.4375L145.625 954.5625L144.96875 955.5L144.0 956.125L142.84375 956.34375L141.6875 956.125L140.71875 955.5L140.0625 954.5625L139.75 953.4375L139.9375 952.3125L140.5 951.375L141.375 950.6875L142.4375 950.34375L142.75 950.3125L142.75 950.3125M267.34375 950.3125L268.5625 950.53125L269.59375 951.1875L270.28125 952.21875L270.53125 953.4375L270.21875 954.5625L269.5625 955.5L268.59375 956.125L267.4375 956.34375L266.28125 956.125L265.3125 955.5L264.65625 954.5625L264.34375 953.4375L264.53125 952.3125L265.09375 951.375L265.96875 950.6875L267.03125 950.34375L267.34375 950.3125L267.34375 950.3125M8.84375 1040.1562L9.0 1040.1562L10.21875 1040.375L11.25 1041.0312L11.9375 1042.0625L12.1875 1043.2812L12.125 1044.125L11.84375 1044.9062L11.375 1045.5938L10.6875 1046.125L9.90625 1046.4688L9.09375 1046.5938L8.28125 1046.4688L7.5 1046.125L6.8125 1045.5938L6.34375 1044.9062L6.0625 1044.125L6.0 1043.2812L6.21875 1042.125L6.8125 1041.1562L7.71875 1040.4688L8.84375 1040.1562L8.84375 1040.1562M142.75 1040.1562L143.96875 1040.375L145.0 1041.0312L145.6875 1042.0625L145.9375 1043.2812L145.625 1044.4062L144.96875 1045.3438L144.0 1045.9688L142.84375 1046.1875L141.6875 1045.9688L140.71875 1045.3438L140.0625 1044.4062L139.75 1043.2812L139.96875 1042.0938L140.625 1041.0938L141.5625 1040.4375L142.75 1040.1562L142.75 1040.1562M276.34375 1040.1562L276.53125 1040.1562L277.75 1040.375L278.78125 1041.0312L279.46875 1042.0625L279.71875 1043.2812L279.625 1044.0938L279.3125 1044.8438L278.8125 1045.4688L278.15625 1045.9688L277.40625 1046.2812L276.59375 1046.375L275.8125 1046.2812L275.0625 1045.9688L274.40625 1045.4688L273.90625 1044.8438L273.59375 1044.0938L273.5 1043.2812L273.71875 1042.125L274.3125 1041.1562L275.21875 1040.4688L276.34375 1040.1562L276.34375 1040.1562"
       style="fill:#000075;fill-opacity:1;stroke:none" />
  </g>
</svg>
