  0
SECTION
  2
HEADER
  9
$ACADVER
  1
AC1014
  9
$HANDSEED
  5
FFFF
  9
$MEASUREMENT
 70
     1
  0
ENDSEC
  0
SECTION
  2
TABLES
  0
TABLE
  2
VPORT
  5
8
330
0
100
AcDbSymbolTable
 70
     4
  0
VPORT
  5
2E
330
8
100
AcDbSymbolTableRecord
100
AcDbViewportTableRecord
  2
*ACTIVE
 70
     0
 10
0.0
 20
0.0
 11
1.0
 21
1.0
 12
210.0
 22
148.5
 13
0.0
 23
0.0
 14
10.0
 24
10.0
 15
10.0
 25
10.0
 16
0.0
 26
0.0
 36
1.0
 17
0.0
 27
0.0
 37
0.0
 40
341.0
 41
1.24
 42
50.0
 43
0.0
 44
0.0
 50
0.0
 51
0.0
 71
     0
 72
   100
 73
     1
 74
     3
 75
     0
 76
     0
 77
     0
 78
     0
  0
ENDTAB
  0
TABLE
  2
LTYPE
  5
5
330
0
100
AcDbSymbolTable
 70
     1
  0
LTYPE
  5
14
330
5
100
AcDbSymbolTableRecord
100
AcDbLinetypeTableRecord
  2
BYBLOCK
 70
     0
  3

 72
    65
 73
     0
 40
0.0
  0
LTYPE
  5
15
330
5
100
AcDbSymbolTableRecord
100
AcDbLinetypeTableRecord
  2
BYLAYER
 70
     0
  3

 72
    65
 73
     0
 40
0.0
  0
LTYPE
  5
16
330
5
100
AcDbSymbolTableRecord
100
AcDbLinetypeTableRecord
  2
CONTINUOUS
 70
     0
  3
Solid line
 72
    65
 73
     0
 40
0.0
  0
ENDTAB
  0
TABLE
  2
LAYER
  5
2
100
AcDbSymbolTable
 70
2
  0
LAYER
  5
50
100
AcDbSymbolTableRecord
100
AcDbLayerTableRecord
  2
0
 70
0
  6
CONTINUOUS
  0
LAYER
  5
51
100
AcDbSymbolTableRecord
100
AcDbLayerTableRecord
  2
Ebene_1
 70
0
  6
CONTINUOUS
  0
ENDTAB
  0
TABLE
  2
STYLE
  5
3
330
0
100
AcDbSymbolTable
 70
     1
  0
STYLE
  5
11
330
3
100
AcDbSymbolTableRecord
100
AcDbTextStyleTableRecord
  2
STANDARD
 70
     0
 40
0.0
 41
1.0
 50
0.0
 71
     0
 42
2.5
  3
txt
  4

  0
ENDTAB
  0
TABLE
  2
VIEW
  5
6
330
0
100
AcDbSymbolTable
 70
     0
  0
ENDTAB
  0
TABLE
  2
UCS
  5
7
330
0
100
AcDbSymbolTable
 70
     0
  0
ENDTAB
  0
TABLE
  2
APPID
  5
9
330
0
100
AcDbSymbolTable
 70
     2
  0
APPID
  5
12
330
9
100
AcDbSymbolTableRecord
100
AcDbRegAppTableRecord
  2
ACAD
 70
     0
  0
ENDTAB
  0
TABLE
  2
DIMSTYLE
  5
A
330
0
100
AcDbSymbolTable
 70
     1
  0
DIMSTYLE
105
27
330
A
100
AcDbSymbolTableRecord
100
AcDbDimStyleTableRecord
  2
ISO-25
 70
     0
  3

  4

  5

  6

  7

 40
1.0
 41
2.5
 42
0.625
 43
3.75
 44
1.25
 45
0.0
 46
0.0
 47
0.0
 48
0.0
140
2.5
141
2.5
142
0.0
143
0.03937007874016
144
1.0
145
0.0
146
1.0
147
0.625
 71
     0
 72
     0
 73
     0
 74
     0
 75
     0
 76
     0
 77
     1
 78
     8
170
     0
171
     3
172
     1
173
     0
174
     0
175
     0
176
     0
177
     0
178
     0
270
     2
271
     2
272
     2
273
     2
274
     3
340
11
275
     0
280
     0
281
     0
282
     0
283
     0
284
     8
285
     0
286
     0
287
     3
288
     0
  0
ENDTAB
  0
TABLE
  2
BLOCK_RECORD
  5
1
330
0
100
AcDbSymbolTable
 70
     1
  0
BLOCK_RECORD
  5
1F
330
1
100
AcDbSymbolTableRecord
100
AcDbBlockTableRecord
  2
*MODEL_SPACE
  0
BLOCK_RECORD
  5
1B
330
1
100
AcDbSymbolTableRecord
100
AcDbBlockTableRecord
  2
*PAPER_SPACE
  0
ENDTAB
  0
ENDSEC
  0
SECTION
  2
BLOCKS
  0
BLOCK
  5
20
330
1F
100
AcDbEntity
  8
0
100
AcDbBlockBegin
  2
*MODEL_SPACE
 70
     0
 10
0.0
 20
0.0
 30
0.0
  3
*MODEL_SPACE
  1

  0
ENDBLK
  5
21
330
1F
100
AcDbEntity
  8
0
100
AcDbBlockEnd
  0
BLOCK
  5
1C
330
1B
100
AcDbEntity
 67
     1
  8
0
100
AcDbBlockBegin
  2
*PAPER_SPACE
  1

  0
ENDBLK
  5
1D
330
1B
100
AcDbEntity
 67
     1
  8
0
100
AcDbBlockEnd
  0
ENDSEC
  0
SECTION
  2
ENTITIES
  0
LWPOLYLINE
  5
100
100
AcDbEntity
  8
Ebene_1
 62
7
100
AcDbPolyline
 90
8
 70
0
 10
7.877895
 20
60.114167
 30
0.0
 10
0.000000
 20
49.019244
 30
0.0
 10
0.000000
 20
-0.003611
 30
0.0
 10
160.417778
 20
-0.003611
 30
0.0
 10
160.417778
 20
48.949685
 30
0.0
 10
152.487249
 20
60.114167
 30
0.0
 10
7.877895
 20
60.114167
 30
0.0
 10
7.877895
 20
60.114167
 30
0.0
  0
LWPOLYLINE
  5
101
100
AcDbEntity
  8
Ebene_1
 62
7
100
AcDbPolyline
 90
23
 70
0
 10
10.211435
 20
56.792652
 30
0.0
 10
10.895845
 20
56.674268
 30
0.0
 10
11.479034
 20
56.300013
 30
0.0
 10
11.868099
 20
55.729512
 30
0.0
 10
12.001067
 20
55.053632
 30
0.0
 10
11.940637
 20
54.602161
 30
0.0
 10
11.767179
 20
54.188469
 30
0.0
 10
11.492443
 20
53.832739
 30
0.0
 10
11.128184
 20
53.555128
 30
0.0
 10
10.703492
 20
53.381268
 30
0.0
 10
10.255297
 20
53.323305
 30
0.0
 10
9.807105
 20
53.381268
 30
0.0
 10
9.382413
 20
53.555128
 30
0.0
 10
9.018152
 20
53.832739
 30
0.0
 10
8.743418
 20
54.188469
 30
0.0
 10
8.569960
 20
54.602161
 30
0.0
 10
8.509530
 20
55.053632
 30
0.0
 10
8.622896
 20
55.676361
 30
0.0
 10
8.942656
 20
56.201958
 30
0.0
 10
9.427467
 20
56.583804
 30
0.0
 10
10.035980
 20
56.775258
 30
0.0
 10
10.211435
 20
56.792671
 30
0.0
 10
10.211435
 20
56.792643
 30
0.0
  0
LWPOLYLINE
  5
102
100
AcDbEntity
  8
Ebene_1
 62
7
100
AcDbPolyline
 90
19
 70
0
 10
80.147479
 20
56.792652
 30
0.0
 10
80.831890
 20
56.674268
 30
0.0
 10
81.415077
 20
56.300013
 30
0.0
 10
81.804143
 20
55.729512
 30
0.0
 10
81.937109
 20
55.053632
 30
0.0
 10
81.769359
 20
54.419013
 30
0.0
 10
81.390041
 20
53.907262
 30
0.0
 10
80.850009
 20
53.565596
 30
0.0
 10
80.200116
 20
53.441212
 30
0.0
 10
79.550220
 20
53.565596
 30
0.0
 10
79.010191
 20
53.907262
 30
0.0
 10
78.630870
 20
54.419013
 30
0.0
 10
78.463123
 20
55.053632
 30
0.0
 10
78.574259
 20
55.672771
 30
0.0
 10
78.889671
 20
56.196765
 30
0.0
 10
79.369034
 20
56.579596
 30
0.0
 10
79.972024
 20
56.775258
 30
0.0
 10
80.147479
 20
56.792671
 30
0.0
 10
80.147479
 20
56.792643
 30
0.0
  0
LWPOLYLINE
  5
103
100
AcDbEntity
  8
Ebene_1
 62
7
100
AcDbPolyline
 90
19
 70
0
 10
150.101071
 20
56.792652
 30
0.0
 10
150.785483
 20
56.674268
 30
0.0
 10
151.368670
 20
56.300013
 30
0.0
 10
151.757736
 20
55.729512
 30
0.0
 10
151.890702
 20
55.053632
 30
0.0
 10
151.722949
 20
54.419013
 30
0.0
 10
151.343631
 20
53.907262
 30
0.0
 10
150.803599
 20
53.565596
 30
0.0
 10
150.153706
 20
53.441212
 30
0.0
 10
149.503813
 20
53.565596
 30
0.0
 10
148.963781
 20
53.907262
 30
0.0
 10
148.584460
 20
54.419013
 30
0.0
 10
148.416710
 20
55.053632
 30
0.0
 10
148.527849
 20
55.672771
 30
0.0
 10
148.843261
 20
56.196765
 30
0.0
 10
149.322626
 20
56.579596
 30
0.0
 10
149.925614
 20
56.775258
 30
0.0
 10
150.101071
 20
56.792671
 30
0.0
 10
150.101071
 20
56.792643
 30
0.0
  0
LWPOLYLINE
  5
104
100
AcDbEntity
  8
Ebene_1
 62
7
100
AcDbPolyline
 90
34
 70
0
 10
114.361050
 20
52.149475
 30
0.0
 10
115.508907
 20
52.034461
 30
0.0
 10
116.578648
 20
51.704679
 30
0.0
 10
117.547178
 20
51.183011
 30
0.0
 10
118.391398
 20
50.492357
 30
0.0
 10
119.088213
 20
49.655607
 30
0.0
 10
119.614544
 20
48.695651
 30
0.0
 10
119.947269
 20
47.635376
 30
0.0
 10
120.063311
 20
46.497673
 30
0.0
 10
119.947269
 20
45.360721
 30
0.0
 10
119.614544
 20
44.302413
 30
0.0
 10
119.088213
 20
43.345242
 30
0.0
 10
118.391398
 20
42.511682
 30
0.0
 10
117.547178
 20
41.824223
 30
0.0
 10
116.578648
 20
41.305346
 30
0.0
 10
115.508907
 20
40.977533
 30
0.0
 10
114.361050
 20
40.863262
 30
0.0
 10
113.213941
 20
40.977533
 30
0.0
 10
112.146184
 20
41.305346
 30
0.0
 10
111.180474
 20
41.824223
 30
0.0
 10
110.339474
 20
42.511682
 30
0.0
 10
109.645873
 20
43.345242
 30
0.0
 10
109.122362
 20
44.302413
 30
0.0
 10
108.791623
 20
45.360721
 30
0.0
 10
108.676330
 20
46.497673
 30
0.0
 10
108.791623
 20
47.635376
 30
0.0
 10
109.122362
 20
48.695651
 30
0.0
 10
109.645873
 20
49.655607
 30
0.0
 10
110.339474
 20
50.492357
 30
0.0
 10
111.180474
 20
51.183011
 30
0.0
 10
112.146184
 20
51.704679
 30
0.0
 10
113.213941
 20
52.034461
 30
0.0
 10
114.361050
 20
52.149475
 30
0.0
 10
114.361050
 20
52.149475
 30
0.0
  0
LWPOLYLINE
  5
105
100
AcDbEntity
  8
Ebene_1
 62
7
100
AcDbPolyline
 90
34
 70
0
 10
98.552627
 20
43.263104
 30
0.0
 10
99.700484
 20
43.148838
 30
0.0
 10
100.770227
 20
42.821020
 30
0.0
 10
101.738755
 20
42.302146
 30
0.0
 10
102.582972
 20
41.614684
 30
0.0
 10
103.279792
 20
40.781124
 30
0.0
 10
103.806117
 20
39.823956
 30
0.0
 10
104.138846
 20
38.765645
 30
0.0
 10
104.254887
 20
37.628693
 30
0.0
 10
104.138846
 20
36.490993
 30
0.0
 10
103.806117
 20
35.430718
 30
0.0
 10
103.279792
 20
34.470759
 30
0.0
 10
102.582972
 20
33.634010
 30
0.0
 10
101.738755
 20
32.943355
 30
0.0
 10
100.770227
 20
32.421687
 30
0.0
 10
99.700484
 20
32.091908
 30
0.0
 10
98.552627
 20
31.976894
 30
0.0
 10
97.405517
 20
32.091908
 30
0.0
 10
96.337763
 20
32.421687
 30
0.0
 10
95.372047
 20
32.943355
 30
0.0
 10
94.531045
 20
33.634010
 30
0.0
 10
93.837450
 20
34.470759
 30
0.0
 10
93.313941
 20
35.430718
 30
0.0
 10
92.983197
 20
36.490993
 30
0.0
 10
92.867909
 20
37.628693
 30
0.0
 10
92.983197
 20
38.765645
 30
0.0
 10
93.313941
 20
39.823956
 30
0.0
 10
93.837450
 20
40.781124
 30
0.0
 10
94.531045
 20
41.614684
 30
0.0
 10
95.372047
 20
42.302146
 30
0.0
 10
96.337763
 20
42.821020
 30
0.0
 10
97.405517
 20
43.148838
 30
0.0
 10
98.552627
 20
43.263104
 30
0.0
 10
98.552627
 20
43.263104
 30
0.0
  0
LWPOLYLINE
  5
106
100
AcDbEntity
  8
Ebene_1
 62
7
100
AcDbPolyline
 90
34
 70
0
 10
129.976474
 20
43.263104
 30
0.0
 10
131.123577
 20
43.148838
 30
0.0
 10
132.191334
 20
42.821020
 30
0.0
 10
133.157050
 20
42.302146
 30
0.0
 10
133.998053
 20
41.614684
 30
0.0
 10
134.691651
 20
40.781124
 30
0.0
 10
135.215162
 20
39.823956
 30
0.0
 10
135.545901
 20
38.765645
 30
0.0
 10
135.661186
 20
37.628693
 30
0.0
 10
135.545901
 20
36.490993
 30
0.0
 10
135.215162
 20
35.430718
 30
0.0
 10
134.691651
 20
34.470759
 30
0.0
 10
133.998053
 20
33.634010
 30
0.0
 10
133.157050
 20
32.943355
 30
0.0
 10
132.191334
 20
32.421687
 30
0.0
 10
131.123577
 20
32.091908
 30
0.0
 10
129.976474
 20
31.976894
 30
0.0
 10
128.828617
 20
32.091908
 30
0.0
 10
127.758873
 20
32.421687
 30
0.0
 10
126.790343
 20
32.943355
 30
0.0
 10
125.946117
 20
33.634010
 30
0.0
 10
125.249299
 20
34.470759
 30
0.0
 10
124.722983
 20
35.430718
 30
0.0
 10
124.390252
 20
36.490993
 30
0.0
 10
124.274213
 20
37.628693
 30
0.0
 10
124.390252
 20
38.765645
 30
0.0
 10
124.722983
 20
39.823956
 30
0.0
 10
125.249299
 20
40.781124
 30
0.0
 10
125.946117
 20
41.614684
 30
0.0
 10
126.790343
 20
42.302146
 30
0.0
 10
127.758873
 20
42.821020
 30
0.0
 10
128.828617
 20
43.148838
 30
0.0
 10
129.976474
 20
43.263104
 30
0.0
 10
129.976474
 20
43.263104
 30
0.0
  0
LWPOLYLINE
  5
107
100
AcDbEntity
  8
Ebene_1
 62
7
100
AcDbPolyline
 90
58
 70
0
 10
42.021280
 20
39.072076
 30
0.0
 10
42.950833
 20
39.025608
 30
0.0
 10
43.853467
 20
38.889157
 30
0.0
 10
44.724614
 20
38.667265
 30
0.0
 10
45.559723
 20
38.364458
 30
0.0
 10
46.354227
 20
37.985241
 30
0.0
 10
47.103572
 20
37.534134
 30
0.0
 10
48.448530
 20
36.434371
 30
0.0
 10
49.558118
 20
35.101311
 30
0.0
 10
50.013241
 20
34.358604
 30
0.0
 10
50.395849
 20
33.571128
 30
0.0
 10
50.701363
 20
32.743412
 30
0.0
 10
50.925239
 20
31.879970
 30
0.0
 10
51.062904
 20
30.985326
 30
0.0
 10
51.109809
 20
30.063994
 30
0.0
 10
51.062904
 20
29.142674
 30
0.0
 10
50.925239
 20
28.248050
 30
0.0
 10
50.701363
 20
27.384602
 30
0.0
 10
50.395849
 20
26.556889
 30
0.0
 10
50.013241
 20
25.769408
 30
0.0
 10
49.558118
 20
25.026723
 30
0.0
 10
48.448530
 20
23.693663
 30
0.0
 10
47.103572
 20
22.593880
 30
0.0
 10
46.354227
 20
22.142796
 30
0.0
 10
45.559723
 20
21.763551
 30
0.0
 10
44.724614
 20
21.460766
 30
0.0
 10
43.853467
 20
21.238835
 30
0.0
 10
42.950833
 20
21.102392
 30
0.0
 10
42.021280
 20
21.056201
 30
0.0
 10
41.091728
 20
21.102392
 30
0.0
 10
40.189096
 20
21.238835
 30
0.0
 10
39.317947
 20
21.460766
 30
0.0
 10
38.482840
 20
21.763551
 30
0.0
 10
37.688337
 20
22.142796
 30
0.0
 10
36.938991
 20
22.593880
 30
0.0
 10
35.594030
 20
23.693663
 30
0.0
 10
34.484445
 20
25.026723
 30
0.0
 10
34.029323
 20
25.769408
 30
0.0
 10
33.646714
 20
26.556889
 30
0.0
 10
33.341197
 20
27.384602
 30
0.0
 10
33.117322
 20
28.248050
 30
0.0
 10
32.979656
 20
29.142674
 30
0.0
 10
32.932757
 20
30.063994
 30
0.0
 10
32.979656
 20
30.985326
 30
0.0
 10
33.117322
 20
31.879970
 30
0.0
 10
33.341197
 20
32.743412
 30
0.0
 10
33.646714
 20
33.571128
 30
0.0
 10
34.029323
 20
34.358604
 30
0.0
 10
34.484445
 20
35.101311
 30
0.0
 10
35.594030
 20
36.434371
 30
0.0
 10
36.938991
 20
37.534134
 30
0.0
 10
37.688337
 20
37.985241
 30
0.0
 10
38.482840
 20
38.364458
 30
0.0
 10
39.317947
 20
38.667265
 30
0.0
 10
40.189096
 20
38.889157
 30
0.0
 10
41.091728
 20
39.025608
 30
0.0
 10
42.021280
 20
39.072076
 30
0.0
 10
42.021280
 20
39.072076
 30
0.0
  0
LWPOLYLINE
  5
108
100
AcDbEntity
  8
Ebene_1
 62
7
100
AcDbPolyline
 90
34
 70
0
 10
114.361050
 20
35.767945
 30
0.0
 10
115.508907
 20
35.653677
 30
0.0
 10
116.578648
 20
35.325864
 30
0.0
 10
117.547178
 20
34.806987
 30
0.0
 10
118.391398
 20
34.119528
 30
0.0
 10
119.088213
 20
33.285968
 30
0.0
 10
119.614544
 20
32.328794
 30
0.0
 10
119.947269
 20
31.270492
 30
0.0
 10
120.063311
 20
30.133534
 30
0.0
 10
119.947269
 20
28.995829
 30
0.0
 10
119.614544
 20
27.935559
 30
0.0
 10
119.088213
 20
26.975566
 30
0.0
 10
118.391398
 20
26.138831
 30
0.0
 10
117.547178
 20
25.448179
 30
0.0
 10
116.578648
 20
24.926531
 30
0.0
 10
115.508907
 20
24.596760
 30
0.0
 10
114.361050
 20
24.481735
 30
0.0
 10
113.213941
 20
24.596760
 30
0.0
 10
112.146184
 20
24.926531
 30
0.0
 10
111.180474
 20
25.448179
 30
0.0
 10
110.339474
 20
26.138831
 30
0.0
 10
109.645873
 20
26.975566
 30
0.0
 10
109.122362
 20
27.935559
 30
0.0
 10
108.791623
 20
28.995829
 30
0.0
 10
108.676330
 20
30.133534
 30
0.0
 10
108.791623
 20
31.270492
 30
0.0
 10
109.122362
 20
32.328794
 30
0.0
 10
109.645873
 20
33.285968
 30
0.0
 10
110.339474
 20
34.119528
 30
0.0
 10
111.180474
 20
34.806987
 30
0.0
 10
112.146184
 20
35.325864
 30
0.0
 10
113.213941
 20
35.653677
 30
0.0
 10
114.361050
 20
35.767945
 30
0.0
 10
114.361050
 20
35.767945
 30
0.0
  0
LWPOLYLINE
  5
109
100
AcDbEntity
  8
Ebene_1
 62
7
100
AcDbPolyline
 90
34
 70
0
 10
114.361050
 20
19.403809
 30
0.0
 10
115.508907
 20
19.288784
 30
0.0
 10
116.578648
 20
18.958954
 30
0.0
 10
117.547178
 20
18.437252
 30
0.0
 10
118.391398
 20
17.746541
 30
0.0
 10
119.088213
 20
16.909809
 30
0.0
 10
119.614544
 20
15.949818
 30
0.0
 10
119.947269
 20
14.889606
 30
0.0
 10
120.063311
 20
13.752041
 30
0.0
 10
119.947269
 20
12.614940
 30
0.0
 10
119.614544
 20
11.556606
 30
0.0
 10
119.088213
 20
10.599365
 30
0.0
 10
118.391398
 20
9.765878
 30
0.0
 10
117.547178
 20
9.078441
 30
0.0
 10
116.578648
 20
8.559660
 30
0.0
 10
115.508907
 20
8.231859
 30
0.0
 10
114.361050
 20
8.117616
 30
0.0
 10
113.213941
 20
8.231859
 30
0.0
 10
112.146184
 20
8.559660
 30
0.0
 10
111.180474
 20
9.078441
 30
0.0
 10
110.339474
 20
9.765878
 30
0.0
 10
109.645873
 20
10.599365
 30
0.0
 10
109.122362
 20
11.556606
 30
0.0
 10
108.791623
 20
12.614940
 30
0.0
 10
108.676330
 20
13.752041
 30
0.0
 10
108.791623
 20
14.889606
 30
0.0
 10
109.122362
 20
15.949818
 30
0.0
 10
109.645873
 20
16.909809
 30
0.0
 10
110.339474
 20
17.746541
 30
0.0
 10
111.180474
 20
18.437252
 30
0.0
 10
112.146184
 20
18.958954
 30
0.0
 10
113.213941
 20
19.288784
 30
0.0
 10
114.361050
 20
19.403809
 30
0.0
 10
114.361050
 20
19.403809
 30
0.0
  0
LWPOLYLINE
  5
10a
100
AcDbEntity
  8
Ebene_1
 62
7
100
AcDbPolyline
 90
34
 70
0
 10
140.696721
 20
19.403809
 30
0.0
 10
141.844584
 20
19.288784
 30
0.0
 10
142.914325
 20
18.958954
 30
0.0
 10
143.882855
 20
18.437252
 30
0.0
 10
144.727072
 20
17.746595
 30
0.0
 10
145.423896
 20
16.909809
 30
0.0
 10
145.950218
 20
15.949872
 30
0.0
 10
146.282946
 20
14.889668
 30
0.0
 10
146.398985
 20
13.752041
 30
0.0
 10
146.282946
 20
12.614940
 30
0.0
 10
145.950218
 20
11.556606
 30
0.0
 10
145.423896
 20
10.599450
 30
0.0
 10
144.727072
 20
9.765878
 30
0.0
 10
143.882855
 20
9.078498
 30
0.0
 10
142.914325
 20
8.559660
 30
0.0
 10
141.844584
 20
8.231859
 30
0.0
 10
140.696721
 20
8.117616
 30
0.0
 10
139.549621
 20
8.231859
 30
0.0
 10
138.481861
 20
8.559660
 30
0.0
 10
137.516145
 20
9.078498
 30
0.0
 10
136.675142
 20
9.765878
 30
0.0
 10
135.981547
 20
10.599450
 30
0.0
 10
135.458036
 20
11.556606
 30
0.0
 10
135.127294
 20
12.614940
 30
0.0
 10
135.012012
 20
13.752041
 30
0.0
 10
135.127294
 20
14.889668
 30
0.0
 10
135.458036
 20
15.949872
 30
0.0
 10
135.981547
 20
16.909809
 30
0.0
 10
136.675142
 20
17.746595
 30
0.0
 10
137.516145
 20
18.437252
 30
0.0
 10
138.481861
 20
18.958954
 30
0.0
 10
139.549621
 20
19.288784
 30
0.0
 10
140.696721
 20
19.403809
 30
0.0
 10
140.696721
 20
19.403809
 30
0.0
  0
LWPOLYLINE
  5
10b
100
AcDbEntity
  8
Ebene_1
 62
7
100
AcDbPolyline
 90
23
 70
0
 10
4.965355
 20
6.795969
 30
0.0
 10
5.053081
 20
6.795969
 30
0.0
 10
5.737493
 20
6.677605
 30
0.0
 10
6.320680
 20
6.303294
 30
0.0
 10
6.709745
 20
5.732810
 30
0.0
 10
6.842713
 20
5.056972
 30
0.0
 10
6.808369
 20
4.584955
 30
0.0
 10
6.649778
 20
4.147426
 30
0.0
 10
6.379169
 20
3.767724
 30
0.0
 10
6.008775
 20
3.469077
 30
0.0
 10
5.570492
 20
3.281314
 30
0.0
 10
5.105717
 20
3.218746
 30
0.0
 10
4.640945
 20
3.281314
 30
0.0
 10
4.202663
 20
3.469077
 30
0.0
 10
3.832268
 20
3.767724
 30
0.0
 10
3.561659
 20
4.147426
 30
0.0
 10
3.403066
 20
4.584955
 30
0.0
 10
3.368721
 20
5.056972
 30
0.0
 10
3.485845
 20
5.699987
 30
0.0
 10
3.821885
 20
6.237762
 30
0.0
 10
4.330502
 20
6.619947
 30
0.0
 10
4.965356
 20
6.795969
 30
0.0
 10
4.965356
 20
6.795969
 30
0.0
  0
LWPOLYLINE
  5
10c
100
AcDbEntity
  8
Ebene_1
 62
7
100
AcDbPolyline
 90
18
 70
0
 10
80.147479
 20
6.795969
 30
0.0
 10
80.831890
 20
6.677605
 30
0.0
 10
81.415077
 20
6.303294
 30
0.0
 10
81.804143
 20
5.732810
 30
0.0
 10
81.937109
 20
5.056972
 30
0.0
 10
81.769359
 20
4.422367
 30
0.0
 10
81.390041
 20
3.910614
 30
0.0
 10
80.850009
 20
3.568899
 30
0.0
 10
80.200116
 20
3.444552
 30
0.0
 10
79.550220
 20
3.568899
 30
0.0
 10
79.010191
 20
3.910614
 30
0.0
 10
78.630870
 20
4.422367
 30
0.0
 10
78.463123
 20
5.056972
 30
0.0
 10
78.590081
 20
5.719602
 30
0.0
 10
78.948046
 20
6.266322
 30
0.0
 10
79.484632
 20
6.643202
 30
0.0
 10
80.147479
 20
6.795969
 30
0.0
 10
80.147479
 20
6.795969
 30
0.0
  0
LWPOLYLINE
  5
10d
100
AcDbEntity
  8
Ebene_1
 62
7
100
AcDbPolyline
 90
23
 70
0
 10
155.154150
 20
6.795969
 30
0.0
 10
155.259422
 20
6.795969
 30
0.0
 10
155.943833
 20
6.677605
 30
0.0
 10
156.527020
 20
6.303294
 30
0.0
 10
156.916083
 20
5.732810
 30
0.0
 10
157.049058
 20
5.056972
 30
0.0
 10
156.988623
 20
4.605473
 30
0.0
 10
156.815169
 20
4.191792
 30
0.0
 10
156.540434
 20
3.836079
 30
0.0
 10
156.176173
 20
3.558457
 30
0.0
 10
155.751482
 20
3.384636
 30
0.0
 10
155.303285
 20
3.326639
 30
0.0
 10
154.855093
 20
3.384636
 30
0.0
 10
154.430403
 20
3.558457
 30
0.0
 10
154.066141
 20
3.836079
 30
0.0
 10
153.791409
 20
4.191792
 30
0.0
 10
153.617947
 20
4.605473
 30
0.0
 10
153.557515
 20
5.056972
 30
0.0
 10
153.674640
 20
5.699987
 30
0.0
 10
154.010682
 20
6.237762
 30
0.0
 10
154.519300
 20
6.619947
 30
0.0
 10
155.154150
 20
6.795969
 30
0.0
 10
155.154150
 20
6.795969
 30
0.0
  0
ENDSEC
  0
SECTION
  2
OBJECTS
  0
DICTIONARY
  5
C
330
0
100
AcDbDictionary
  3
ACAD_GROUP
350
D
  3
ACAD_MLINESTYLE
350
17
  0
DICTIONARY
  5
D
330
C
100
AcDbDictionary
  0
DICTIONARY
  5
1A
330
C
100
AcDbDictionary
  0
DICTIONARY
  5
17
330
C
100
AcDbDictionary
  3
STANDARD
350
18
  0
DICTIONARY
  5
19
330
C
100
AcDbDictionary
  0
ENDSEC
  0
EOF
