  0
SECTION
  2
HEADER
  9
$ACADVER
  1
AC1014
  9
$HANDSEED
  5
FFFF
  9
$MEASUREMENT
 70
     1
  0
ENDSEC
  0
SECTION
  2
TABLES
  0
TABLE
  2
VPORT
  5
8
330
0
100
AcDbSymbolTable
 70
     4
  0
VPORT
  5
2E
330
8
100
AcDbSymbolTableRecord
100
AcDbViewportTableRecord
  2
*ACTIVE
 70
     0
 10
0.0
 20
0.0
 11
1.0
 21
1.0
 12
210.0
 22
148.5
 13
0.0
 23
0.0
 14
10.0
 24
10.0
 15
10.0
 25
10.0
 16
0.0
 26
0.0
 36
1.0
 17
0.0
 27
0.0
 37
0.0
 40
341.0
 41
1.24
 42
50.0
 43
0.0
 44
0.0
 50
0.0
 51
0.0
 71
     0
 72
   100
 73
     1
 74
     3
 75
     0
 76
     0
 77
     0
 78
     0
  0
ENDTAB
  0
TABLE
  2
LTYPE
  5
5
330
0
100
AcDbSymbolTable
 70
     1
  0
LTYPE
  5
14
330
5
100
AcDbSymbolTableRecord
100
AcDbLinetypeTableRecord
  2
BYBLOCK
 70
     0
  3

 72
    65
 73
     0
 40
0.0
  0
LTYPE
  5
15
330
5
100
AcDbSymbolTableRecord
100
AcDbLinetypeTableRecord
  2
BYLAYER
 70
     0
  3

 72
    65
 73
     0
 40
0.0
  0
LTYPE
  5
16
330
5
100
AcDbSymbolTableRecord
100
AcDbLinetypeTableRecord
  2
CONTINUOUS
 70
     0
  3
Solid line
 72
    65
 73
     0
 40
0.0
  0
ENDTAB
  0
TABLE
  2
LAYER
  5
2
100
AcDbSymbolTable
 70
2
  0
LAYER
  5
50
100
AcDbSymbolTableRecord
100
AcDbLayerTableRecord
  2
0
 70
0
  6
CONTINUOUS
  0
LAYER
  5
51
100
AcDbSymbolTableRecord
100
AcDbLayerTableRecord
  2
Ebene_1
 70
0
  6
CONTINUOUS
  0
ENDTAB
  0
TABLE
  2
STYLE
  5
3
330
0
100
AcDbSymbolTable
 70
     1
  0
STYLE
  5
11
330
3
100
AcDbSymbolTableRecord
100
AcDbTextStyleTableRecord
  2
STANDARD
 70
     0
 40
0.0
 41
1.0
 50
0.0
 71
     0
 42
2.5
  3
txt
  4

  0
ENDTAB
  0
TABLE
  2
VIEW
  5
6
330
0
100
AcDbSymbolTable
 70
     0
  0
ENDTAB
  0
TABLE
  2
UCS
  5
7
330
0
100
AcDbSymbolTable
 70
     0
  0
ENDTAB
  0
TABLE
  2
APPID
  5
9
330
0
100
AcDbSymbolTable
 70
     2
  0
APPID
  5
12
330
9
100
AcDbSymbolTableRecord
100
AcDbRegAppTableRecord
  2
ACAD
 70
     0
  0
ENDTAB
  0
TABLE
  2
DIMSTYLE
  5
A
330
0
100
AcDbSymbolTable
 70
     1
  0
DIMSTYLE
105
27
330
A
100
AcDbSymbolTableRecord
100
AcDbDimStyleTableRecord
  2
ISO-25
 70
     0
  3

  4

  5

  6

  7

 40
1.0
 41
2.5
 42
0.625
 43
3.75
 44
1.25
 45
0.0
 46
0.0
 47
0.0
 48
0.0
140
2.5
141
2.5
142
0.0
143
0.03937007874016
144
1.0
145
0.0
146
1.0
147
0.625
 71
     0
 72
     0
 73
     0
 74
     0
 75
     0
 76
     0
 77
     1
 78
     8
170
     0
171
     3
172
     1
173
     0
174
     0
175
     0
176
     0
177
     0
178
     0
270
     2
271
     2
272
     2
273
     2
274
     3
340
11
275
     0
280
     0
281
     0
282
     0
283
     0
284
     8
285
     0
286
     0
287
     3
288
     0
  0
ENDTAB
  0
TABLE
  2
BLOCK_RECORD
  5
1
330
0
100
AcDbSymbolTable
 70
     1
  0
BLOCK_RECORD
  5
1F
330
1
100
AcDbSymbolTableRecord
100
AcDbBlockTableRecord
  2
*MODEL_SPACE
  0
BLOCK_RECORD
  5
1B
330
1
100
AcDbSymbolTableRecord
100
AcDbBlockTableRecord
  2
*PAPER_SPACE
  0
ENDTAB
  0
ENDSEC
  0
SECTION
  2
BLOCKS
  0
BLOCK
  5
20
330
1F
100
AcDbEntity
  8
0
100
AcDbBlockBegin
  2
*MODEL_SPACE
 70
     0
 10
0.0
 20
0.0
 30
0.0
  3
*MODEL_SPACE
  1

  0
ENDBLK
  5
21
330
1F
100
AcDbEntity
  8
0
100
AcDbBlockEnd
  0
BLOCK
  5
1C
330
1B
100
AcDbEntity
 67
     1
  8
0
100
AcDbBlockBegin
  2
*PAPER_SPACE
  1

  0
ENDBLK
  5
1D
330
1B
100
AcDbEntity
 67
     1
  8
0
100
AcDbBlockEnd
  0
ENDSEC
  0
SECTION
  2
ENTITIES
  0
LWPOLYLINE
  5
100
100
AcDbEntity
  8
Ebene_1
 62
7
100
AcDbPolyline
 90
8
 70
0
 10
7.877895
 20
60.114167
 30
0.0
 10
0.000000
 20
49.019247
 30
0.0
 10
0.000000
 20
-0.003611
 30
0.0
 10
160.417778
 20
-0.003611
 30
0.0
 10
160.417778
 20
48.949688
 30
0.0
 10
152.487249
 20
60.114167
 30
0.0
 10
7.877895
 20
60.114167
 30
0.0
 10
7.877895
 20
60.114167
 30
0.0
  0
LWPOLYLINE
  5
101
100
AcDbEntity
  8
Ebene_1
 62
7
100
AcDbPolyline
 90
153
 70
0
 10
17.141875
 20
57.053501
 30
0.0
 10
17.264693
 20
57.053501
 30
0.0
 10
73.322313
 20
57.053501
 30
0.0
 10
73.755772
 20
56.976212
 30
0.0
 10
74.222356
 20
56.750304
 30
0.0
 10
74.668784
 20
56.384705
 30
0.0
 10
75.041763
 20
55.888361
 30
0.0
 10
75.180469
 20
55.353939
 30
0.0
 10
75.225724
 20
54.640047
 30
0.0
 10
75.389557
 20
53.732970
 30
0.0
 10
75.582173
 20
53.202709
 30
0.0
 10
75.883931
 20
52.619011
 30
0.0
 10
76.601436
 20
51.701834
 30
0.0
 10
77.581684
 20
50.921179
 30
0.0
 10
78.156046
 20
50.610388
 30
0.0
 10
78.778938
 20
50.367744
 30
0.0
 10
79.444652
 20
50.204572
 30
0.0
 10
80.147470
 20
50.132218
 30
0.0
 10
81.302614
 20
50.264050
 30
0.0
 10
82.410754
 20
50.657933
 30
0.0
 10
83.334710
 20
51.201976
 30
0.0
 10
83.937280
 20
51.784282
 30
0.0
 10
84.428776
 20
52.458136
 30
0.0
 10
84.749917
 20
53.006017
 30
0.0
 10
84.984940
 20
53.712549
 30
0.0
 10
85.218095
 20
54.862342
 30
0.0
 10
85.234492
 20
55.287323
 30
0.0
 10
85.363634
 20
55.733356
 30
0.0
 10
85.814614
 20
56.462234
 30
0.0
 10
86.262789
 20
56.800828
 30
0.0
 10
86.685984
 20
56.982282
 30
0.0
 10
87.112975
 20
57.053501
 30
0.0
 10
143.223231
 20
57.053501
 30
0.0
 10
143.477979
 20
57.038684
 30
0.0
 10
143.846192
 20
56.955895
 30
0.0
 10
144.306465
 20
56.695815
 30
0.0
 10
144.837410
 20
56.149171
 30
0.0
 10
145.105004
 20
55.578958
 30
0.0
 10
145.205735
 20
54.895839
 30
0.0
 10
145.332848
 20
54.022051
 30
0.0
 10
145.679589
 20
52.879821
 30
0.0
 10
146.061867
 20
52.209746
 30
0.0
 10
146.672255
 20
51.503734
 30
0.0
 10
147.444265
 20
50.872764
 30
0.0
 10
148.311402
 20
50.427809
 30
0.0
 10
149.316590
 20
50.138097
 30
0.0
 10
150.242431
 20
50.079660
 30
0.0
 10
151.303736
 20
50.286588
 30
0.0
 10
152.715301
 20
50.793002
 30
0.0
 10
153.433828
 20
51.174629
 30
0.0
 10
153.888618
 20
51.343928
 30
0.0
 10
154.364571
 20
51.366845
 30
0.0
 10
154.760735
 20
51.282982
 30
0.0
 10
155.141219
 20
51.103904
 30
0.0
 10
155.540115
 20
50.845140
 30
0.0
 10
157.294656
 20
48.480078
 30
0.0
 10
157.294656
 20
11.943364
 30
0.0
 10
157.206851
 20
11.425119
 30
0.0
 10
156.908658
 20
10.795566
 30
0.0
 10
156.579522
 20
10.450098
 30
0.0
 10
156.137412
 20
10.176765
 30
0.0
 10
155.672990
 20
9.995466
 30
0.0
 10
155.276934
 20
9.926124
 30
0.0
 10
154.297030
 20
9.808352
 30
0.0
 10
153.372586
 20
9.526102
 30
0.0
 10
152.558135
 20
9.126504
 30
0.0
 10
151.908214
 20
8.656604
 30
0.0
 10
151.299105
 20
7.971848
 30
0.0
 10
150.809774
 20
7.147025
 30
0.0
 10
150.492435
 20
6.285824
 30
0.0
 10
150.399307
 20
5.491594
 30
0.0
 10
150.367359
 20
4.938608
 30
0.0
 10
150.235082
 20
4.454540
 30
0.0
 10
149.802763
 20
3.717799
 30
0.0
 10
149.443039
 20
3.416922
 30
0.0
 10
149.039501
 20
3.218012
 30
0.0
 10
148.574582
 20
3.074333
 30
0.0
 10
87.621793
 20
3.074333
 30
0.0
 10
86.994368
 20
3.132047
 30
0.0
 10
86.407673
 20
3.300647
 30
0.0
 10
85.814614
 20
3.648232
 30
0.0
 10
85.452630
 20
4.189252
 30
0.0
 10
85.296987
 20
4.719208
 30
0.0
 10
85.147889
 20
5.856762
 30
0.0
 10
84.721263
 20
7.182246
 30
0.0
 10
84.368945
 20
7.839344
 30
0.0
 10
83.902163
 20
8.447928
 30
0.0
 10
83.465712
 20
8.854780
 30
0.0
 10
82.979949
 20
9.196071
 30
0.0
 10
81.920266
 20
9.689763
 30
0.0
 10
80.842674
 20
9.945202
 30
0.0
 10
79.866719
 20
9.978024
 30
0.0
 10
79.344407
 20
9.934082
 30
0.0
 10
78.639879
 20
9.765060
 30
0.0
 10
77.728524
 20
9.306900
 30
0.0
 10
76.585724
 20
8.395548
 30
0.0
 10
76.059276
 20
7.781320
 30
0.0
 10
75.713898
 20
7.142961
 30
0.0
 10
75.500422
 20
6.497999
 30
0.0
 10
75.369682
 20
5.863986
 30
0.0
 10
75.159760
 20
4.698719
 30
0.0
 10
74.982251
 20
4.202431
 30
0.0
 10
74.690819
 20
3.787141
 30
0.0
 10
74.208205
 20
3.353309
 30
0.0
 10
73.748621
 20
3.144070
 30
0.0
 10
73.269639
 20
3.074107
 30
0.0
 10
12.036122
 20
3.074107
 30
0.0
 10
11.535053
 20
3.121972
 30
0.0
 10
11.157097
 20
3.292208
 30
0.0
 10
10.650034
 20
3.752626
 30
0.0
 10
10.383978
 20
4.100323
 30
0.0
 10
10.215491
 20
4.468764
 30
0.0
 10
10.069216
 20
5.244960
 30
0.0
 10
10.007191
 20
6.035832
 30
0.0
 10
9.825399
 20
6.795941
 30
0.0
 10
9.236506
 20
7.845807
 30
0.0
 10
8.566193
 20
8.618362
 30
0.0
 10
7.937713
 20
9.131838
 30
0.0
 10
7.474312
 20
9.404408
 30
0.0
 10
6.490885
 20
9.791334
 30
0.0
 10
5.897209
 20
9.905126
 30
0.0
 10
5.105680
 20
9.960894
 30
0.0
 10
4.443416
 20
10.148712
 30
0.0
 10
3.754684
 20
10.534792
 30
0.0
 10
3.339381
 20
11.075643
 30
0.0
 10
3.157435
 20
11.524235
 30
0.0
 10
3.123048
 20
11.943420
 30
0.0
 10
3.123048
 20
48.410573
 30
0.0
 10
3.915132
 20
49.569385
 30
0.0
 10
4.556956
 20
50.442996
 30
0.0
 10
5.053045
 20
51.001706
 30
0.0
 10
5.471686
 20
51.236447
 30
0.0
 10
5.935015
 20
51.355920
 30
0.0
 10
6.378448
 20
51.372176
 30
0.0
 10
6.737406
 20
51.297316
 30
0.0
 10
8.043553
 20
50.714942
 30
0.0
 10
9.062953
 20
50.361374
 30
0.0
 10
10.035944
 20
50.184345
 30
0.0
 10
11.037798
 20
50.240679
 30
0.0
 10
12.026386
 20
50.502573
 30
0.0
 10
12.975977
 20
50.992279
 30
0.0
 10
13.860846
 20
51.732071
 30
0.0
 10
14.481403
 20
52.522703
 30
0.0
 10
14.924404
 20
53.389565
 30
0.0
 10
15.186531
 20
54.271106
 30
0.0
 10
15.264480
 20
55.105761
 30
0.0
 10
15.322813
 20
55.568335
 30
0.0
 10
15.498428
 20
55.966906
 30
0.0
 10
16.089115
 20
56.653485
 30
0.0
 10
16.369038
 20
56.852282
 30
0.0
 10
16.663001
 20
56.971860
 30
0.0
 10
17.141839
 20
57.053459
 30
0.0
 10
17.141839
 20
57.053459
 30
0.0
  0
LWPOLYLINE
  5
102
100
AcDbEntity
  8
Ebene_1
 62
7
100
AcDbPolyline
 90
23
 70
0
 10
10.211435
 20
56.792649
 30
0.0
 10
10.895706
 20
56.670918
 30
0.0
 10
11.474705
 20
56.305725
 30
0.0
 10
11.860703
 20
55.731849
 30
0.0
 10
12.001068
 20
55.053632
 30
0.0
 10
11.948431
 20
54.601490
 30
0.0
 10
11.772976
 20
54.184125
 30
0.0
 10
11.492250
 20
53.836320
 30
0.0
 10
11.123797
 20
53.558080
 30
0.0
 10
10.702706
 20
53.384178
 30
0.0
 10
10.246526
 20
53.332034
 30
0.0
 10
9.807888
 20
53.384178
 30
0.0
 10
9.386800
 20
53.558080
 30
0.0
 10
9.018345
 20
53.836320
 30
0.0
 10
8.737619
 20
54.184125
 30
0.0
 10
8.562165
 20
54.601490
 30
0.0
 10
8.509529
 20
55.053632
 30
0.0
 10
8.614800
 20
55.679677
 30
0.0
 10
8.948164
 20
56.201382
 30
0.0
 10
9.421890
 20
56.583965
 30
0.0
 10
10.035979
 20
56.775258
 30
0.0
 10
10.211434
 20
56.792615
 30
0.0
 10
10.211434
 20
56.792615
 30
0.0
  0
LWPOLYLINE
  5
103
100
AcDbEntity
  8
Ebene_1
 62
7
100
AcDbPolyline
 90
19
 70
0
 10
80.147482
 20
56.792649
 30
0.0
 10
80.831752
 20
56.670918
 30
0.0
 10
81.410751
 20
56.305725
 30
0.0
 10
81.796749
 20
55.731849
 30
0.0
 10
81.937112
 20
55.053632
 30
0.0
 10
81.761660
 20
54.427587
 30
0.0
 10
81.393205
 20
53.905882
 30
0.0
 10
80.849298
 20
53.558080
 30
0.0
 10
80.200116
 20
53.436346
 30
0.0
 10
79.550937
 20
53.558080
 30
0.0
 10
79.007027
 20
53.905882
 30
0.0
 10
78.638575
 20
54.427587
 30
0.0
 10
78.463120
 20
55.053632
 30
0.0
 10
78.568392
 20
55.679677
 30
0.0
 10
78.884210
 20
56.201382
 30
0.0
 10
79.375483
 20
56.583965
 30
0.0
 10
79.972027
 20
56.775258
 30
0.0
 10
80.147482
 20
56.792615
 30
0.0
 10
80.147482
 20
56.792615
 30
0.0
  0
LWPOLYLINE
  5
104
100
AcDbEntity
  8
Ebene_1
 62
7
100
AcDbPolyline
 90
19
 70
0
 10
150.101071
 20
56.792649
 30
0.0
 10
150.785342
 20
56.670918
 30
0.0
 10
151.364343
 20
56.305725
 30
0.0
 10
151.750341
 20
55.731849
 30
0.0
 10
151.890705
 20
55.053632
 30
0.0
 10
151.715250
 20
54.427587
 30
0.0
 10
151.346797
 20
53.905882
 30
0.0
 10
150.802888
 20
53.558080
 30
0.0
 10
150.153709
 20
53.436346
 30
0.0
 10
149.504527
 20
53.558080
 30
0.0
 10
148.960620
 20
53.905882
 30
0.0
 10
148.592165
 20
54.427587
 30
0.0
 10
148.416710
 20
55.053632
 30
0.0
 10
148.521984
 20
55.679677
 30
0.0
 10
148.837802
 20
56.201382
 30
0.0
 10
149.329072
 20
56.583965
 30
0.0
 10
149.925617
 20
56.775258
 30
0.0
 10
150.101071
 20
56.792615
 30
0.0
 10
150.101071
 20
56.792615
 30
0.0
  0
LWPOLYLINE
  5
105
100
AcDbEntity
  8
Ebene_1
 62
7
100
AcDbPolyline
 90
23
 70
0
 10
4.965355
 20
6.795969
 30
0.0
 10
5.053081
 20
6.795969
 30
0.0
 10
5.737352
 20
6.674218
 30
0.0
 10
6.316351
 20
6.309051
 30
0.0
 10
6.702351
 20
5.735152
 30
0.0
 10
6.842713
 20
5.056944
 30
0.0
 10
6.807622
 20
4.587382
 30
0.0
 10
6.649714
 20
4.152676
 30
0.0
 10
6.386534
 20
3.770039
 30
0.0
 10
6.000534
 20
3.474411
 30
0.0
 10
5.561899
 20
3.283092
 30
0.0
 10
5.105717
 20
3.213553
 30
0.0
 10
4.649537
 20
3.283092
 30
0.0
 10
4.210902
 20
3.474411
 30
0.0
 10
3.824902
 20
3.770039
 30
0.0
 10
3.561720
 20
4.152676
 30
0.0
 10
3.403812
 20
4.587382
 30
0.0
 10
3.368721
 20
5.056944
 30
0.0
 10
3.491538
 20
5.700354
 30
0.0
 10
3.824902
 20
6.239483
 30
0.0
 10
4.333720
 20
6.622007
 30
0.0
 10
4.965355
 20
6.795969
 30
0.0
 10
4.965355
 20
6.795969
 30
0.0
  0
LWPOLYLINE
  5
106
100
AcDbEntity
  8
Ebene_1
 62
7
100
AcDbPolyline
 90
18
 70
0
 10
80.147482
 20
6.795969
 30
0.0
 10
80.831752
 20
6.674218
 30
0.0
 10
81.410751
 20
6.309051
 30
0.0
 10
81.796749
 20
5.735152
 30
0.0
 10
81.937112
 20
5.056944
 30
0.0
 10
81.761660
 20
4.430918
 30
0.0
 10
81.393205
 20
3.909146
 30
0.0
 10
80.849298
 20
3.561335
 30
0.0
 10
80.200116
 20
3.439641
 30
0.0
 10
79.550937
 20
3.561335
 30
0.0
 10
79.007027
 20
3.909146
 30
0.0
 10
78.638575
 20
4.430918
 30
0.0
 10
78.463120
 20
5.056944
 30
0.0
 10
78.585938
 20
5.717739
 30
0.0
 10
78.954393
 20
6.274196
 30
0.0
 10
79.480754
 20
6.639420
 30
0.0
 10
80.147482
 20
6.795969
 30
0.0
 10
80.147482
 20
6.795969
 30
0.0
  0
LWPOLYLINE
  5
107
100
AcDbEntity
  8
Ebene_1
 62
7
100
AcDbPolyline
 90
23
 70
0
 10
155.154153
 20
6.795969
 30
0.0
 10
155.259425
 20
6.795969
 30
0.0
 10
155.943698
 20
6.674218
 30
0.0
 10
156.522697
 20
6.309051
 30
0.0
 10
156.908695
 20
5.735152
 30
0.0
 10
157.049058
 20
5.056944
 30
0.0
 10
156.996449
 20
4.604767
 30
0.0
 10
156.820997
 20
4.187389
 30
0.0
 10
156.540268
 20
3.839578
 30
0.0
 10
156.171815
 20
3.561335
 30
0.0
 10
155.750726
 20
3.387486
 30
0.0
 10
155.294544
 20
3.335191
 30
0.0
 10
154.855909
 20
3.387486
 30
0.0
 10
154.434819
 20
3.561335
 30
0.0
 10
154.066364
 20
3.839578
 30
0.0
 10
153.785638
 20
4.187389
 30
0.0
 10
153.610183
 20
4.604767
 30
0.0
 10
153.557577
 20
5.056944
 30
0.0
 10
153.680394
 20
5.700354
 30
0.0
 10
154.013758
 20
6.239483
 30
0.0
 10
154.522574
 20
6.622007
 30
0.0
 10
155.154209
 20
6.795969
 30
0.0
 10
155.154209
 20
6.795969
 30
0.0
  0
ENDSEC
  0
SECTION
  2
OBJECTS
  0
DICTIONARY
  5
C
330
0
100
AcDbDictionary
  3
ACAD_GROUP
350
D
  3
ACAD_MLINESTYLE
350
17
  0
DICTIONARY
  5
D
330
C
100
AcDbDictionary
  0
DICTIONARY
  5
1A
330
C
100
AcDbDictionary
  0
DICTIONARY
  5
17
330
C
100
AcDbDictionary
  3
STANDARD
350
18
  0
DICTIONARY
  5
19
330
C
100
AcDbDictionary
  0
ENDSEC
  0
EOF
