  0
SECTION
  2
HEADER
  9
$ACADVER
  1
AC1014
  9
$HANDSEED
  5
FFFF
  9
$MEASUREMENT
 70
     1
  0
ENDSEC
  0
SECTION
  2
TABLES
  0
TABLE
  2
VPORT
  5
8
330
0
100
AcDbSymbolTable
 70
     4
  0
VPORT
  5
2E
330
8
100
AcDbSymbolTableRecord
100
AcDbViewportTableRecord
  2
*ACTIVE
 70
     0
 10
0.0
 20
0.0
 11
1.0
 21
1.0
 12
210.0
 22
148.5
 13
0.0
 23
0.0
 14
10.0
 24
10.0
 15
10.0
 25
10.0
 16
0.0
 26
0.0
 36
1.0
 17
0.0
 27
0.0
 37
0.0
 40
341.0
 41
1.24
 42
50.0
 43
0.0
 44
0.0
 50
0.0
 51
0.0
 71
     0
 72
   100
 73
     1
 74
     3
 75
     0
 76
     0
 77
     0
 78
     0
  0
ENDTAB
  0
TABLE
  2
LTYPE
  5
5
330
0
100
AcDbSymbolTable
 70
     1
  0
LTYPE
  5
14
330
5
100
AcDbSymbolTableRecord
100
AcDbLinetypeTableRecord
  2
BYBLOCK
 70
     0
  3

 72
    65
 73
     0
 40
0.0
  0
LTYPE
  5
15
330
5
100
AcDbSymbolTableRecord
100
AcDbLinetypeTableRecord
  2
BYLAYER
 70
     0
  3

 72
    65
 73
     0
 40
0.0
  0
LTYPE
  5
16
330
5
100
AcDbSymbolTableRecord
100
AcDbLinetypeTableRecord
  2
CONTINUOUS
 70
     0
  3
Solid line
 72
    65
 73
     0
 40
0.0
  0
ENDTAB
  0
TABLE
  2
LAYER
  5
2
100
AcDbSymbolTable
 70
2
  0
LAYER
  5
50
100
AcDbSymbolTableRecord
100
AcDbLayerTableRecord
  2
0
 70
0
  6
CONTINUOUS
  0
LAYER
  5
51
100
AcDbSymbolTableRecord
100
AcDbLayerTableRecord
  2
Layer_1
 70
0
  6
CONTINUOUS
  0
ENDTAB
  0
TABLE
  2
STYLE
  5
3
330
0
100
AcDbSymbolTable
 70
     1
  0
STYLE
  5
11
330
3
100
AcDbSymbolTableRecord
100
AcDbTextStyleTableRecord
  2
STANDARD
 70
     0
 40
0.0
 41
1.0
 50
0.0
 71
     0
 42
2.5
  3
txt
  4

  0
ENDTAB
  0
TABLE
  2
VIEW
  5
6
330
0
100
AcDbSymbolTable
 70
     0
  0
ENDTAB
  0
TABLE
  2
UCS
  5
7
330
0
100
AcDbSymbolTable
 70
     0
  0
ENDTAB
  0
TABLE
  2
APPID
  5
9
330
0
100
AcDbSymbolTable
 70
     2
  0
APPID
  5
12
330
9
100
AcDbSymbolTableRecord
100
AcDbRegAppTableRecord
  2
ACAD
 70
     0
  0
ENDTAB
  0
TABLE
  2
DIMSTYLE
  5
A
330
0
100
AcDbSymbolTable
 70
     1
  0
DIMSTYLE
105
27
330
A
100
AcDbSymbolTableRecord
100
AcDbDimStyleTableRecord
  2
ISO-25
 70
     0
  3

  4

  5

  6

  7

 40
1.0
 41
2.5
 42
0.625
 43
3.75
 44
1.25
 45
0.0
 46
0.0
 47
0.0
 48
0.0
140
2.5
141
2.5
142
0.0
143
0.03937007874016
144
1.0
145
0.0
146
1.0
147
0.625
 71
     0
 72
     0
 73
     0
 74
     0
 75
     0
 76
     0
 77
     1
 78
     8
170
     0
171
     3
172
     1
173
     0
174
     0
175
     0
176
     0
177
     0
178
     0
270
     2
271
     2
272
     2
273
     2
274
     3
340
11
275
     0
280
     0
281
     0
282
     0
283
     0
284
     8
285
     0
286
     0
287
     3
288
     0
  0
ENDTAB
  0
TABLE
  2
BLOCK_RECORD
  5
1
330
0
100
AcDbSymbolTable
 70
     1
  0
BLOCK_RECORD
  5
1F
330
1
100
AcDbSymbolTableRecord
100
AcDbBlockTableRecord
  2
*MODEL_SPACE
  0
BLOCK_RECORD
  5
1B
330
1
100
AcDbSymbolTableRecord
100
AcDbBlockTableRecord
  2
*PAPER_SPACE
  0
ENDTAB
  0
ENDSEC
  0
SECTION
  2
BLOCKS
  0
BLOCK
  5
20
330
1F
100
AcDbEntity
  8
0
100
AcDbBlockBegin
  2
*MODEL_SPACE
 70
     0
 10
0.0
 20
0.0
 30
0.0
  3
*MODEL_SPACE
  1

  0
ENDBLK
  5
21
330
1F
100
AcDbEntity
  8
0
100
AcDbBlockEnd
  0
BLOCK
  5
1C
330
1B
100
AcDbEntity
 67
     1
  8
0
100
AcDbBlockBegin
  2
*PAPER_SPACE
  1

  0
ENDBLK
  5
1D
330
1B
100
AcDbEntity
 67
     1
  8
0
100
AcDbBlockEnd
  0
ENDSEC
  0
SECTION
  2
ENTITIES
  0
LWPOLYLINE
  5
100
100
AcDbEntity
  8
Layer_1
 62
1
100
AcDbPolyline
 90
38
 70
0
 10
143.462700
 20
141.047039
 30
0.0
 10
148.395634
 20
141.047039
 30
0.0
 10
148.739673
 20
141.003182
 30
0.0
 10
149.059726
 20
140.877330
 30
0.0
 10
149.349045
 20
140.678063
 30
0.0
 10
149.600887
 20
140.413963
 30
0.0
 10
149.808506
 20
140.093609
 30
0.0
 10
149.965156
 20
139.725581
 30
0.0
 10
150.064093
 20
139.318460
 30
0.0
 10
150.098571
 20
138.880825
 30
0.0
 10
150.098571
 20
117.412830
 30
0.0
 10
150.064093
 20
116.975197
 30
0.0
 10
149.965156
 20
116.568076
 30
0.0
 10
149.808506
 20
116.200049
 30
0.0
 10
149.600887
 20
115.879695
 30
0.0
 10
149.349045
 20
115.615595
 30
0.0
 10
149.059726
 20
115.416329
 30
0.0
 10
148.739673
 20
115.290477
 30
0.0
 10
148.395634
 20
115.246619
 30
0.0
 10
143.462700
 20
115.246619
 30
0.0
 10
143.118660
 20
115.290477
 30
0.0
 10
142.798608
 20
115.416329
 30
0.0
 10
142.509288
 20
115.615595
 30
0.0
 10
142.257446
 20
115.879695
 30
0.0
 10
142.049827
 20
116.200049
 30
0.0
 10
141.893177
 20
116.568076
 30
0.0
 10
141.794240
 20
116.975197
 30
0.0
 10
141.759762
 20
117.412830
 30
0.0
 10
141.759762
 20
138.880825
 30
0.0
 10
141.794240
 20
139.318460
 30
0.0
 10
141.893177
 20
139.725581
 30
0.0
 10
142.049827
 20
140.093609
 30
0.0
 10
142.257446
 20
140.413963
 30
0.0
 10
142.509288
 20
140.678063
 30
0.0
 10
142.798608
 20
140.877330
 30
0.0
 10
143.118660
 20
141.003182
 30
0.0
 10
143.462700
 20
141.047039
 30
0.0
 10
143.462700
 20
141.047039
 30
0.0
  0
LWPOLYLINE
  5
101
100
AcDbEntity
  8
Layer_1
 62
1
100
AcDbPolyline
 90
38
 70
0
 10
8.908984
 20
1.702930
 30
0.0
 10
8.908984
 20
6.635864
 30
0.0
 10
8.953563
 20
6.979908
 30
0.0
 10
9.081484
 20
7.299965
 30
0.0
 10
9.284028
 20
7.589288
 30
0.0
 10
9.552472
 20
7.841133
 30
0.0
 10
9.878095
 20
8.048753
 30
0.0
 10
10.252175
 20
8.205405
 30
0.0
 10
10.665992
 20
8.304343
 30
0.0
 10
11.110824
 20
8.338821
 30
0.0
 10
32.507563
 20
8.338821
 30
0.0
 10
32.952395
 20
8.304343
 30
0.0
 10
33.366211
 20
8.205405
 30
0.0
 10
33.740292
 20
8.048753
 30
0.0
 10
34.065914
 20
7.841133
 30
0.0
 10
34.334358
 20
7.589288
 30
0.0
 10
34.536902
 20
7.299965
 30
0.0
 10
34.664823
 20
6.979908
 30
0.0
 10
34.709402
 20
6.635864
 30
0.0
 10
34.709402
 20
1.702930
 30
0.0
 10
34.664823
 20
1.358894
 30
0.0
 10
34.536902
 20
1.038845
 30
0.0
 10
34.334358
 20
0.749527
 30
0.0
 10
34.065914
 20
0.497686
 30
0.0
 10
33.740292
 20
0.290067
 30
0.0
 10
33.366211
 20
0.133416
 30
0.0
 10
32.952395
 20
0.034479
 30
0.0
 10
32.507563
 20
0.000001
 30
0.0
 10
11.110824
 20
0.000001
 30
0.0
 10
10.665992
 20
0.034479
 30
0.0
 10
10.252175
 20
0.133416
 30
0.0
 10
9.878095
 20
0.290067
 30
0.0
 10
9.552472
 20
0.497686
 30
0.0
 10
9.284028
 20
0.749527
 30
0.0
 10
9.081484
 20
1.038845
 30
0.0
 10
8.953563
 20
1.358894
 30
0.0
 10
8.908984
 20
1.702930
 30
0.0
 10
8.908984
 20
1.702930
 30
0.0
  0
ENDSEC
  0
SECTION
  2
OBJECTS
  0
DICTIONARY
  5
C
330
0
100
AcDbDictionary
  3
ACAD_GROUP
350
D
  3
ACAD_MLINESTYLE
350
17
  0
DICTIONARY
  5
D
330
C
100
AcDbDictionary
  0
DICTIONARY
  5
1A
330
C
100
AcDbDictionary
  0
DICTIONARY
  5
17
330
C
100
AcDbDictionary
  3
STANDARD
350
18
  0
DICTIONARY
  5
19
330
C
100
AcDbDictionary
  0
ENDSEC
  0
EOF
