  0
SECTION
  2
HEADER
  9
$ACADVER
  1
AC1014
  9
$HANDSEED
  5
FFFF
  9
$MEASUREMENT
 70
     1
  0
ENDSEC
  0
SECTION
  2
TABLES
  0
TABLE
  2
VPORT
  5
8
330
0
100
AcDbSymbolTable
 70
     4
  0
VPORT
  5
2E
330
8
100
AcDbSymbolTableRecord
100
AcDbViewportTableRecord
  2
*ACTIVE
 70
     0
 10
0.0
 20
0.0
 11
1.0
 21
1.0
 12
210.0
 22
148.5
 13
0.0
 23
0.0
 14
10.0
 24
10.0
 15
10.0
 25
10.0
 16
0.0
 26
0.0
 36
1.0
 17
0.0
 27
0.0
 37
0.0
 40
341.0
 41
1.24
 42
50.0
 43
0.0
 44
0.0
 50
0.0
 51
0.0
 71
     0
 72
   100
 73
     1
 74
     3
 75
     0
 76
     0
 77
     0
 78
     0
  0
ENDTAB
  0
TABLE
  2
LTYPE
  5
5
330
0
100
AcDbSymbolTable
 70
     1
  0
LTYPE
  5
14
330
5
100
AcDbSymbolTableRecord
100
AcDbLinetypeTableRecord
  2
BYBLOCK
 70
     0
  3

 72
    65
 73
     0
 40
0.0
  0
LTYPE
  5
15
330
5
100
AcDbSymbolTableRecord
100
AcDbLinetypeTableRecord
  2
BYLAYER
 70
     0
  3

 72
    65
 73
     0
 40
0.0
  0
LTYPE
  5
16
330
5
100
AcDbSymbolTableRecord
100
AcDbLinetypeTableRecord
  2
CONTINUOUS
 70
     0
  3
Solid line
 72
    65
 73
     0
 40
0.0
  0
ENDTAB
  0
TABLE
  2
LAYER
  5
2
100
AcDbSymbolTable
 70
2
  0
LAYER
  5
50
100
AcDbSymbolTableRecord
100
AcDbLayerTableRecord
  2
0
 70
0
  6
CONTINUOUS
  0
LAYER
  5
51
100
AcDbSymbolTableRecord
100
AcDbLayerTableRecord
  2
Layer_1
 70
0
  6
CONTINUOUS
  0
ENDTAB
  0
TABLE
  2
STYLE
  5
3
330
0
100
AcDbSymbolTable
 70
     1
  0
STYLE
  5
11
330
3
100
AcDbSymbolTableRecord
100
AcDbTextStyleTableRecord
  2
STANDARD
 70
     0
 40
0.0
 41
1.0
 50
0.0
 71
     0
 42
2.5
  3
txt
  4

  0
ENDTAB
  0
TABLE
  2
VIEW
  5
6
330
0
100
AcDbSymbolTable
 70
     0
  0
ENDTAB
  0
TABLE
  2
UCS
  5
7
330
0
100
AcDbSymbolTable
 70
     0
  0
ENDTAB
  0
TABLE
  2
APPID
  5
9
330
0
100
AcDbSymbolTable
 70
     2
  0
APPID
  5
12
330
9
100
AcDbSymbolTableRecord
100
AcDbRegAppTableRecord
  2
ACAD
 70
     0
  0
ENDTAB
  0
TABLE
  2
DIMSTYLE
  5
A
330
0
100
AcDbSymbolTable
 70
     1
  0
DIMSTYLE
105
27
330
A
100
AcDbSymbolTableRecord
100
AcDbDimStyleTableRecord
  2
ISO-25
 70
     0
  3

  4

  5

  6

  7

 40
1.0
 41
2.5
 42
0.625
 43
3.75
 44
1.25
 45
0.0
 46
0.0
 47
0.0
 48
0.0
140
2.5
141
2.5
142
0.0
143
0.03937007874016
144
1.0
145
0.0
146
1.0
147
0.625
 71
     0
 72
     0
 73
     0
 74
     0
 75
     0
 76
     0
 77
     1
 78
     8
170
     0
171
     3
172
     1
173
     0
174
     0
175
     0
176
     0
177
     0
178
     0
270
     2
271
     2
272
     2
273
     2
274
     3
340
11
275
     0
280
     0
281
     0
282
     0
283
     0
284
     8
285
     0
286
     0
287
     3
288
     0
  0
ENDTAB
  0
TABLE
  2
BLOCK_RECORD
  5
1
330
0
100
AcDbSymbolTable
 70
     1
  0
BLOCK_RECORD
  5
1F
330
1
100
AcDbSymbolTableRecord
100
AcDbBlockTableRecord
  2
*MODEL_SPACE
  0
BLOCK_RECORD
  5
1B
330
1
100
AcDbSymbolTableRecord
100
AcDbBlockTableRecord
  2
*PAPER_SPACE
  0
ENDTAB
  0
ENDSEC
  0
SECTION
  2
BLOCKS
  0
BLOCK
  5
20
330
1F
100
AcDbEntity
  8
0
100
AcDbBlockBegin
  2
*MODEL_SPACE
 70
     0
 10
0.0
 20
0.0
 30
0.0
  3
*MODEL_SPACE
  1

  0
ENDBLK
  5
21
330
1F
100
AcDbEntity
  8
0
100
AcDbBlockEnd
  0
BLOCK
  5
1C
330
1B
100
AcDbEntity
 67
     1
  8
0
100
AcDbBlockBegin
  2
*PAPER_SPACE
  1

  0
ENDBLK
  5
1D
330
1B
100
AcDbEntity
 67
     1
  8
0
100
AcDbBlockEnd
  0
ENDSEC
  0
SECTION
  2
ENTITIES
  0
LWPOLYLINE
  5
100
100
AcDbEntity
  8
Layer_1
 62
1
100
AcDbPolyline
 90
45
 70
0
 10
137.311034
 20
141.094015
 30
0.0
 10
136.989924
 20
141.063241
 30
0.0
 10
136.689262
 20
140.976055
 30
0.0
 10
136.363760
 20
140.945074
 30
0.0
 10
136.047736
 20
140.851308
 30
0.0
 10
135.750822
 20
140.694789
 30
0.0
 10
135.482652
 20
140.475551
 30
0.0
 10
9.378928
 20
14.371826
 30
0.0
 10
9.202518
 20
14.165064
 30
0.0
 10
9.064719
 20
13.939468
 30
0.0
 10
8.903780
 20
13.450195
 30
0.0
 10
8.828511
 20
13.170195
 30
0.0
 10
8.801806
 20
12.873074
 30
0.0
 10
8.801806
 20
1.654187
 30
0.0
 10
8.874992
 20
1.310153
 30
0.0
 10
9.067939
 20
0.990126
 30
0.0
 10
9.340726
 20
0.700843
 30
0.0
 10
9.653433
 20
0.449045
 30
0.0
 10
10.238927
 20
0.084860
 30
0.0
 10
10.505061
 20
-0.048516
 30
0.0
 10
33.017796
 20
-0.048516
 30
0.0
 10
33.283843
 20
0.084860
 30
0.0
 10
33.869147
 20
0.449045
 30
0.0
 10
34.181753
 20
0.700843
 30
0.0
 10
34.454452
 20
0.990126
 30
0.0
 10
34.647336
 20
1.310153
 30
0.0
 10
34.720499
 20
1.654187
 30
0.0
 10
34.720499
 20
4.557438
 30
0.0
 10
145.337829
 20
115.175322
 30
0.0
 10
148.489128
 20
115.175322
 30
0.0
 10
148.833181
 20
115.248508
 30
0.0
 10
149.153270
 20
115.441456
 30
0.0
 10
149.442640
 20
115.714243
 30
0.0
 10
149.694540
 20
116.026950
 30
0.0
 10
150.058918
 20
116.612444
 30
0.0
 10
150.192382
 20
116.878575
 30
0.0
 10
150.192382
 20
139.390760
 30
0.0
 10
150.058918
 20
139.656893
 30
0.0
 10
149.694540
 20
140.242387
 30
0.0
 10
149.442640
 20
140.555094
 30
0.0
 10
149.153270
 20
140.827881
 30
0.0
 10
148.833181
 20
141.020828
 30
0.0
 10
148.489128
 20
141.094015
 30
0.0
 10
137.311034
 20
141.094015
 30
0.0
 10
137.311034
 20
141.094015
 30
0.0
  0
LWPOLYLINE
  5
101
100
AcDbEntity
  8
Layer_1
 62
1
100
AcDbPolyline
 90
20
 70
0
 10
140.859205
 20
136.436797
 30
0.0
 10
141.185760
 20
136.406714
 30
0.0
 10
141.451833
 20
136.324559
 30
0.0
 10
141.630917
 20
136.202474
 30
0.0
 10
141.696502
 20
136.052600
 30
0.0
 10
141.696502
 20
134.148702
 30
0.0
 10
141.630917
 20
133.998742
 30
0.0
 10
141.451833
 20
133.876467
 30
0.0
 10
141.185760
 20
133.794123
 30
0.0
 10
140.859205
 20
133.763954
 30
0.0
 10
140.532651
 20
133.794123
 30
0.0
 10
140.266578
 20
133.876467
 30
0.0
 10
140.087495
 20
133.998742
 30
0.0
 10
140.021908
 20
134.148702
 30
0.0
 10
140.021908
 20
136.052600
 30
0.0
 10
140.087494
 20
136.202474
 30
0.0
 10
140.266577
 20
136.324559
 30
0.0
 10
140.532651
 20
136.406714
 30
0.0
 10
140.859205
 20
136.436797
 30
0.0
 10
140.859205
 20
136.436797
 30
0.0
  0
LWPOLYLINE
  5
102
100
AcDbEntity
  8
Layer_1
 62
1
100
AcDbPolyline
 90
20
 70
0
 10
140.859205
 20
122.717049
 30
0.0
 10
141.185760
 20
122.686966
 30
0.0
 10
141.451833
 20
122.604811
 30
0.0
 10
141.630917
 20
122.482726
 30
0.0
 10
141.696502
 20
122.332852
 30
0.0
 10
141.696502
 20
120.428953
 30
0.0
 10
141.630917
 20
120.279079
 30
0.0
 10
141.451833
 20
120.156995
 30
0.0
 10
141.185760
 20
120.074841
 30
0.0
 10
140.859205
 20
120.044758
 30
0.0
 10
140.532651
 20
120.074841
 30
0.0
 10
140.266578
 20
120.156995
 30
0.0
 10
140.087495
 20
120.279079
 30
0.0
 10
140.021908
 20
120.428953
 30
0.0
 10
140.021908
 20
122.332852
 30
0.0
 10
140.087494
 20
122.482726
 30
0.0
 10
140.266577
 20
122.604811
 30
0.0
 10
140.532651
 20
122.686966
 30
0.0
 10
140.859205
 20
122.717049
 30
0.0
 10
140.859205
 20
122.717049
 30
0.0
  0
LWPOLYLINE
  5
103
100
AcDbEntity
  8
Layer_1
 62
1
100
AcDbPolyline
 90
34
 70
0
 10
117.424841
 20
107.254910
 30
0.0
 10
117.901020
 20
107.207749
 30
0.0
 10
118.354548
 20
107.069881
 30
0.0
 10
118.772681
 20
106.846587
 30
0.0
 10
119.142674
 20
106.543147
 30
0.0
 10
119.446029
 20
106.173085
 30
0.0
 10
119.669228
 20
105.754901
 30
0.0
 10
119.806993
 20
105.301341
 30
0.0
 10
119.854046
 20
104.825152
 30
0.0
 10
119.804653
 20
104.335603
 30
0.0
 10
119.663083
 20
103.879637
 30
0.0
 10
119.439103
 20
103.467019
 30
0.0
 10
119.142478
 20
103.107514
 30
0.0
 10
118.782973
 20
102.810889
 30
0.0
 10
118.370355
 20
102.586909
 30
0.0
 10
117.914389
 20
102.445340
 30
0.0
 10
117.424841
 20
102.395947
 30
0.0
 10
116.948651
 20
102.442999
 30
0.0
 10
116.495091
 20
102.580764
 30
0.0
 10
116.076908
 20
102.803963
 30
0.0
 10
115.706846
 20
103.107319
 30
0.0
 10
115.403406
 20
103.477312
 30
0.0
 10
115.180111
 20
103.895445
 30
0.0
 10
115.042243
 20
104.348973
 30
0.0
 10
114.995082
 20
104.825152
 30
0.0
 10
115.042149
 20
105.301410
 30
0.0
 10
115.179953
 20
105.755029
 30
0.0
 10
115.403213
 20
106.173256
 30
0.0
 10
115.706650
 20
106.543342
 30
0.0
 10
116.076736
 20
106.846779
 30
0.0
 10
116.494964
 20
107.070040
 30
0.0
 10
116.948582
 20
107.207844
 30
0.0
 10
117.424841
 20
107.254910
 30
0.0
 10
117.424841
 20
107.254910
 30
0.0
  0
LWPOLYLINE
  5
104
100
AcDbEntity
  8
Layer_1
 62
1
100
AcDbPolyline
 90
38
 70
0
 10
95.436312
 20
89.716893
 30
0.0
 10
95.761152
 20
89.685681
 30
0.0
 10
96.076395
 20
89.591998
 30
0.0
 10
96.372561
 20
89.435775
 30
0.0
 10
96.640165
 20
89.216939
 30
0.0
 10
102.214604
 20
83.642500
 30
0.0
 10
102.433498
 20
83.374850
 30
0.0
 10
102.589851
 20
83.078587
 30
0.0
 10
102.683662
 20
82.763248
 30
0.0
 10
102.714933
 20
82.438371
 30
0.0
 10
102.683662
 20
82.113494
 30
0.0
 10
102.589851
 20
81.798154
 30
0.0
 10
102.433498
 20
81.501891
 30
0.0
 10
102.214604
 20
81.234241
 30
0.0
 10
70.263410
 20
49.283048
 30
0.0
 10
69.995760
 20
49.064154
 30
0.0
 10
69.699496
 20
48.907801
 30
0.0
 10
69.384157
 20
48.813989
 30
0.0
 10
69.059280
 20
48.782719
 30
0.0
 10
68.734403
 20
48.813989
 30
0.0
 10
68.419064
 20
48.907801
 30
0.0
 10
68.122801
 20
49.064154
 30
0.0
 10
67.855152
 20
49.283048
 30
0.0
 10
62.280713
 20
54.856937
 30
0.0
 10
62.061819
 20
55.124610
 30
0.0
 10
61.905467
 20
55.420935
 30
0.0
 10
61.811655
 20
55.736362
 30
0.0
 10
61.780384
 20
56.061340
 30
0.0
 10
61.811655
 20
56.386318
 30
0.0
 10
61.905466
 20
56.701746
 30
0.0
 10
62.061819
 20
56.998072
 30
0.0
 10
62.280713
 20
57.265746
 30
0.0
 10
94.231906
 20
89.216939
 30
0.0
 10
94.499596
 20
89.435775
 30
0.0
 10
94.795951
 20
89.591998
 30
0.0
 10
95.111384
 20
89.685681
 30
0.0
 10
95.436312
 20
89.716893
 30
0.0
 10
95.436312
 20
89.716893
 30
0.0
  0
LWPOLYLINE
  5
105
100
AcDbEntity
  8
Layer_1
 62
1
100
AcDbPolyline
 90
34
 70
0
 10
43.049362
 20
32.930144
 30
0.0
 10
43.525541
 20
32.882983
 30
0.0
 10
43.979069
 20
32.745115
 30
0.0
 10
44.397202
 20
32.521821
 30
0.0
 10
44.767195
 20
32.218381
 30
0.0
 10
45.070551
 20
31.848319
 30
0.0
 10
45.293750
 20
31.430135
 30
0.0
 10
45.431515
 20
30.976575
 30
0.0
 10
45.478567
 20
30.500386
 30
0.0
 10
45.429174
 20
30.010837
 30
0.0
 10
45.287605
 20
29.554871
 30
0.0
 10
45.063625
 20
29.142253
 30
0.0
 10
44.767000
 20
28.782748
 30
0.0
 10
44.407495
 20
28.486123
 30
0.0
 10
43.994877
 20
28.262143
 30
0.0
 10
43.538911
 20
28.120574
 30
0.0
 10
43.049362
 20
28.071181
 30
0.0
 10
42.573172
 20
28.118233
 30
0.0
 10
42.119613
 20
28.255998
 30
0.0
 10
41.701429
 20
28.479197
 30
0.0
 10
41.331367
 20
28.782553
 30
0.0
 10
41.027927
 20
29.152546
 30
0.0
 10
40.804633
 20
29.570679
 30
0.0
 10
40.666765
 20
30.024207
 30
0.0
 10
40.619604
 20
30.500386
 30
0.0
 10
40.666670
 20
30.976644
 30
0.0
 10
40.804474
 20
31.430263
 30
0.0
 10
41.027735
 20
31.848490
 30
0.0
 10
41.331172
 20
32.218576
 30
0.0
 10
41.701257
 20
32.522013
 30
0.0
 10
42.119485
 20
32.745274
 30
0.0
 10
42.573104
 20
32.883078
 30
0.0
 10
43.049362
 20
32.930144
 30
0.0
 10
43.049362
 20
32.930144
 30
0.0
  0
LWPOLYLINE
  5
106
100
AcDbEntity
  8
Layer_1
 62
1
100
AcDbPolyline
 90
20
 70
0
 10
13.890625
 20
10.120854
 30
0.0
 10
15.794523
 20
10.120854
 30
0.0
 10
15.944397
 20
10.055182
 30
0.0
 10
16.066482
 20
9.875910
 30
0.0
 10
16.148637
 20
9.609647
 30
0.0
 10
16.178720
 20
9.283007
 30
0.0
 10
16.148637
 20
8.956453
 30
0.0
 10
16.066482
 20
8.690380
 30
0.0
 10
15.944397
 20
8.511297
 30
0.0
 10
15.794523
 20
8.445713
 30
0.0
 10
13.890625
 20
8.445713
 30
0.0
 10
13.740665
 20
8.511297
 30
0.0
 10
13.618390
 20
8.690380
 30
0.0
 10
13.536046
 20
8.956453
 30
0.0
 10
13.505877
 20
9.283007
 30
0.0
 10
13.536046
 20
9.609647
 30
0.0
 10
13.618390
 20
9.875910
 30
0.0
 10
13.740665
 20
10.055182
 30
0.0
 10
13.890625
 20
10.120854
 30
0.0
 10
13.890625
 20
10.120854
 30
0.0
  0
LWPOLYLINE
  5
107
100
AcDbEntity
  8
Layer_1
 62
1
100
AcDbPolyline
 90
20
 70
0
 10
27.609822
 20
10.120854
 30
0.0
 10
29.513719
 20
10.120854
 30
0.0
 10
29.663679
 20
10.055182
 30
0.0
 10
29.785954
 20
9.875910
 30
0.0
 10
29.868298
 20
9.609647
 30
0.0
 10
29.898467
 20
9.283007
 30
0.0
 10
29.868298
 20
8.956453
 30
0.0
 10
29.785954
 20
8.690380
 30
0.0
 10
29.663679
 20
8.511297
 30
0.0
 10
29.513719
 20
8.445713
 30
0.0
 10
27.609822
 20
8.445713
 30
0.0
 10
27.459948
 20
8.511297
 30
0.0
 10
27.337863
 20
8.690380
 30
0.0
 10
27.255708
 20
8.956453
 30
0.0
 10
27.225625
 20
9.283007
 30
0.0
 10
27.255708
 20
9.609647
 30
0.0
 10
27.337863
 20
9.875910
 30
0.0
 10
27.459948
 20
10.055182
 30
0.0
 10
27.609822
 20
10.120854
 30
0.0
 10
27.609822
 20
10.120854
 30
0.0
  0
ENDSEC
  0
SECTION
  2
OBJECTS
  0
DICTIONARY
  5
C
330
0
100
AcDbDictionary
  3
ACAD_GROUP
350
D
  3
ACAD_MLINESTYLE
350
17
  0
DICTIONARY
  5
D
330
C
100
AcDbDictionary
  0
DICTIONARY
  5
1A
330
C
100
AcDbDictionary
  0
DICTIONARY
  5
17
330
C
100
AcDbDictionary
  3
STANDARD
350
18
  0
DICTIONARY
  5
19
330
C
100
AcDbDictionary
  0
ENDSEC
  0
EOF
