<?xml version="1.0" encoding="UTF-8" standalone="no"?>
<!-- Created with Inkscape (http://www.inkscape.org/) -->

<svg
   xmlns:dc="http://purl.org/dc/elements/1.1/"
   xmlns:cc="http://creativecommons.org/ns#"
   xmlns:rdf="http://www.w3.org/1999/02/22-rdf-syntax-ns#"
   xmlns:svg="http://www.w3.org/2000/svg"
   xmlns="http://www.w3.org/2000/svg"
   xmlns:sodipodi="http://sodipodi.sourceforge.net/DTD/sodipodi-0.dtd"
   xmlns:inkscape="http://www.inkscape.org/namespaces/inkscape"
   width="150mm"
   height="150mm"
   viewBox="0 0 531.49606 531.49606"
   id="svg2"
   version="1.1"
   inkscape:version="0.91 r13725"
   sodipodi:docname="Junction-Box_1.svg">
  <defs
     id="defs4" />
  <sodipodi:namedview
     id="base"
     pagecolor="#ffffff"
     bordercolor="#666666"
     borderopacity="1.0"
     inkscape:pageopacity="0.0"
     inkscape:pageshadow="2"
     inkscape:zoom="1.4"
     inkscape:cx="199.96528"
     inkscape:cy="218.3266"
     inkscape:document-units="px"
     inkscape:current-layer="layer1"
     showgrid="false"
     inkscape:window-width="1680"
     inkscape:window-height="981"
     inkscape:window-x="0"
     inkscape:window-y="0"
     inkscape:window-maximized="1" />
  <metadata
     id="metadata7">
    <rdf:RDF>
      <cc:Work
         rdf:about="">
        <dc:format>image/svg+xml</dc:format>
        <dc:type
           rdf:resource="http://purl.org/dc/dcmitype/StillImage" />
        <dc:title />
      </cc:Work>
    </rdf:RDF>
  </metadata>
  <g
     inkscape:label="Layer 1"
     inkscape:groupmode="layer"
     id="layer1"
     transform="translate(0,-520.86614)">
    <path
       style="opacity:0.82700004;fill:#003aff;fill-opacity:0.5138122;stroke:#ffffff;stroke-width:0.5;stroke-miterlimit:4;stroke-dasharray:none;stroke-opacity:1"
       d="m 75.789121,808.29804 c -2.36375,2.36375 -2.36376,6.16847 0,8.53223 l 70.898499,70.89851 -32.60425,32.60425 c -2.36375,2.36375 -2.36375,6.16848 0,8.53224 l 53.75117,53.75112 c 2.36375,2.3638 6.16848,2.3638 8.53223,0 l 32.60426,-32.60421 70.8985,70.89852 c 2.36376,2.3637 6.16849,2.3637 8.53225,0 L 492.48217,816.83028 c 2.36375,-2.36375 2.36513,-6.16988 10e-4,-8.53363 l -70.89849,-70.8985 32.80589,-32.80588 c 2.36374,-2.36376 2.36513,-6.16987 10e-4,-8.53362 l -53.75116,-53.75117 c -2.36375,-2.36375 -6.16987,-2.36237 -8.53362,10e-4 l -32.80589,32.80588 -70.8985,-70.8985 c -2.36376,-2.36376 -6.16987,-2.36237 -8.53363,10e-4 L 75.789121,808.29804 Z m 70.977219,131.78564 a 6.9642859,6.9642859 0 0 1 9.84978,0 6.9642859,6.9642859 0 0 1 0,9.84978 6.9642859,6.9642859 0 0 1 -9.8484,-10e-4 6.9642859,6.9642859 0 0 1 -0.001,-9.84839 z M 411.8582,674.99184 a 6.9642859,6.9642859 0 0 1 9.84977,0 6.9642859,6.9642859 0 0 1 1e-5,9.84977 6.9642859,6.9642859 0 0 1 -9.84978,0 6.9642859,6.9642859 0 0 1 0,-9.84977 z"
       id="rect4136"
       inkscape:connector-curvature="0" />
    <path
       style="opacity:0.82700004;fill:#003aff;fill-opacity:0.5138122;stroke:#ffffff;stroke-width:0.5;stroke-miterlimit:4;stroke-dasharray:none;stroke-opacity:1"
       d="M 486.53516 31.556641 C 485.75611 31.556641 485.01448 31.708097 484.33203 31.974609 C 482.78701 31.972609 481.24052 32.564172 480.05664 33.748047 L 33.232422 480.57227 C 32.307323 481.49736 31.749817 482.64391 31.548828 483.83789 C 31.319394 484.47719 31.1875 485.16262 31.1875 485.88281 L 31.1875 525.63477 C 31.1875 528.97767 37.222656 531.66797 37.222656 531.66797 L 116.99219 531.66797 C 116.99219 531.66797 123.02539 528.97767 123.02539 525.63477 L 123.02539 515.34766 L 514.97656 123.39453 L 526.14258 123.39453 C 529.48543 123.39453 532.17773 117.35936 532.17773 117.35938 L 532.17773 37.591797 C 532.17773 37.591797 529.48543 31.556641 526.14258 31.556641 L 486.53516 31.556641 z M 499.10742 48.058594 C 500.75132 48.058594 502.07422 48.665332 502.07422 49.419922 L 502.07422 56.166016 C 502.07422 56.920606 500.75132 57.529297 499.10742 57.529297 C 497.46352 57.529297 496.14063 56.920606 496.14062 56.166016 L 496.14062 49.419922 C 496.14062 48.665332 497.46352 48.058594 499.10742 48.058594 z M 499.10742 96.671875 C 500.75132 96.671875 502.07422 97.278613 502.07422 98.033203 L 502.07422 104.7793 C 502.07422 105.53389 500.75132 106.14062 499.10742 106.14062 C 497.46352 106.14062 496.14063 105.53389 496.14062 104.7793 L 496.14062 98.033203 C 496.14062 97.278613 497.46352 96.671875 499.10742 96.671875 z M 416.07227 151.45898 A 8.6082678 8.6082678 0 0 1 424.67969 160.06836 A 8.6082678 8.6082678 0 0 1 416.07227 168.67578 A 8.6082678 8.6082678 0 0 1 407.46289 160.06836 A 8.6082678 8.6082678 0 0 1 416.07227 151.45898 z M 338.16016 213.60156 C 339.70257 213.60156 341.24391 214.19117 342.42578 215.37305 L 362.17773 235.125 C 364.54149 237.48875 364.54149 241.29445 362.17773 243.6582 L 248.96484 356.87109 C 246.60108 359.23485 242.79539 359.23485 240.43164 356.87109 L 220.67969 337.12109 C 218.31594 334.75734 218.31593 330.9497 220.67969 328.58594 L 333.89258 215.37305 C 335.07445 214.19117 336.61774 213.60156 338.16016 213.60156 z M 152.53711 414.81445 A 8.6082678 8.6082678 0 0 1 161.14453 423.42383 A 8.6082678 8.6082678 0 0 1 152.53711 432.03125 A 8.6082678 8.6082678 0 0 1 143.92773 423.42383 A 8.6082678 8.6082678 0 0 1 152.53711 414.81445 z M 49.21875 495.63477 L 55.964844 495.63477 C 56.719434 495.63477 57.326172 496.95962 57.326172 498.60352 C 57.326172 500.24742 56.719434 501.57031 55.964844 501.57031 L 49.21875 501.57031 C 48.46416 501.57031 47.855469 500.24742 47.855469 498.60352 C 47.855469 496.95962 48.46416 495.63477 49.21875 495.63477 z M 97.830078 495.63477 L 104.57617 495.63477 C 105.33076 495.63477 105.93945 496.95962 105.93945 498.60352 C 105.93945 500.24742 105.33076 501.57031 104.57617 501.57031 L 97.830078 501.57031 C 97.075489 501.57031 96.46875 500.24742 96.46875 498.60352 C 96.46875 496.95962 97.075489 495.63477 97.830078 495.63477 z "
       transform="translate(0,520.86614)"
       id="rect4166" />
  </g>
</svg>
